%TF.GenerationSoftware,KiCad,Pcbnew,(6.0.7)*%
%TF.CreationDate,2023-02-22T11:31:18+02:00*%
%TF.ProjectId,Lamps_Type5,4c616d70-735f-4547-9970-65352e6b6963,rev?*%
%TF.SameCoordinates,Original*%
%TF.FileFunction,Legend,Top*%
%TF.FilePolarity,Positive*%
%FSLAX46Y46*%
G04 Gerber Fmt 4.6, Leading zero omitted, Abs format (unit mm)*
G04 Created by KiCad (PCBNEW (6.0.7)) date 2023-02-22 11:31:18*
%MOMM*%
%LPD*%
G01*
G04 APERTURE LIST*
%ADD10C,0.300000*%
%ADD11C,0.150000*%
%ADD12C,0.120000*%
G04 APERTURE END LIST*
D10*
X166278571Y-80600000D02*
X165564285Y-81100000D01*
X166278571Y-81457142D02*
X164778571Y-81457142D01*
X164778571Y-80885714D01*
X164850000Y-80742857D01*
X164921428Y-80671428D01*
X165064285Y-80600000D01*
X165278571Y-80600000D01*
X165421428Y-80671428D01*
X165492857Y-80742857D01*
X165564285Y-80885714D01*
X165564285Y-81457142D01*
X166207142Y-80028571D02*
X166278571Y-79814285D01*
X166278571Y-79457142D01*
X166207142Y-79314285D01*
X166135714Y-79242857D01*
X165992857Y-79171428D01*
X165850000Y-79171428D01*
X165707142Y-79242857D01*
X165635714Y-79314285D01*
X165564285Y-79457142D01*
X165492857Y-79742857D01*
X165421428Y-79885714D01*
X165350000Y-79957142D01*
X165207142Y-80028571D01*
X165064285Y-80028571D01*
X164921428Y-79957142D01*
X164850000Y-79885714D01*
X164778571Y-79742857D01*
X164778571Y-79385714D01*
X164850000Y-79171428D01*
X165278571Y-77885714D02*
X166278571Y-77885714D01*
X164707142Y-78242857D02*
X165778571Y-78600000D01*
X165778571Y-77671428D01*
X165421428Y-76885714D02*
X165350000Y-77028571D01*
X165278571Y-77100000D01*
X165135714Y-77171428D01*
X165064285Y-77171428D01*
X164921428Y-77100000D01*
X164850000Y-77028571D01*
X164778571Y-76885714D01*
X164778571Y-76600000D01*
X164850000Y-76457142D01*
X164921428Y-76385714D01*
X165064285Y-76314285D01*
X165135714Y-76314285D01*
X165278571Y-76385714D01*
X165350000Y-76457142D01*
X165421428Y-76600000D01*
X165421428Y-76885714D01*
X165492857Y-77028571D01*
X165564285Y-77100000D01*
X165707142Y-77171428D01*
X165992857Y-77171428D01*
X166135714Y-77100000D01*
X166207142Y-77028571D01*
X166278571Y-76885714D01*
X166278571Y-76600000D01*
X166207142Y-76457142D01*
X166135714Y-76385714D01*
X165992857Y-76314285D01*
X165707142Y-76314285D01*
X165564285Y-76385714D01*
X165492857Y-76457142D01*
X165421428Y-76600000D01*
X164778571Y-74957142D02*
X164778571Y-75671428D01*
X165492857Y-75742857D01*
X165421428Y-75671428D01*
X165350000Y-75528571D01*
X165350000Y-75171428D01*
X165421428Y-75028571D01*
X165492857Y-74957142D01*
X165635714Y-74885714D01*
X165992857Y-74885714D01*
X166135714Y-74957142D01*
X166207142Y-75028571D01*
X166278571Y-75171428D01*
X166278571Y-75528571D01*
X166207142Y-75671428D01*
X166135714Y-75742857D01*
X165850000Y-73171428D02*
X165850000Y-72457142D01*
X166278571Y-73314285D02*
X164778571Y-72814285D01*
X166278571Y-72314285D01*
X166278571Y-71171428D02*
X164778571Y-71171428D01*
X166207142Y-71171428D02*
X166278571Y-71314285D01*
X166278571Y-71600000D01*
X166207142Y-71742857D01*
X166135714Y-71814285D01*
X165992857Y-71885714D01*
X165564285Y-71885714D01*
X165421428Y-71814285D01*
X165350000Y-71742857D01*
X165278571Y-71600000D01*
X165278571Y-71314285D01*
X165350000Y-71171428D01*
X166278571Y-69814285D02*
X165492857Y-69814285D01*
X165350000Y-69885714D01*
X165278571Y-70028571D01*
X165278571Y-70314285D01*
X165350000Y-70457142D01*
X166207142Y-69814285D02*
X166278571Y-69957142D01*
X166278571Y-70314285D01*
X166207142Y-70457142D01*
X166064285Y-70528571D01*
X165921428Y-70528571D01*
X165778571Y-70457142D01*
X165707142Y-70314285D01*
X165707142Y-69957142D01*
X165635714Y-69814285D01*
X165278571Y-69100000D02*
X166778571Y-69100000D01*
X165350000Y-69100000D02*
X165278571Y-68957142D01*
X165278571Y-68671428D01*
X165350000Y-68528571D01*
X165421428Y-68457142D01*
X165564285Y-68385714D01*
X165992857Y-68385714D01*
X166135714Y-68457142D01*
X166207142Y-68528571D01*
X166278571Y-68671428D01*
X166278571Y-68957142D01*
X166207142Y-69100000D01*
X165278571Y-67957142D02*
X165278571Y-67385714D01*
X164778571Y-67742857D02*
X166064285Y-67742857D01*
X166207142Y-67671428D01*
X166278571Y-67528571D01*
X166278571Y-67385714D01*
X166207142Y-66314285D02*
X166278571Y-66457142D01*
X166278571Y-66742857D01*
X166207142Y-66885714D01*
X166064285Y-66957142D01*
X165492857Y-66957142D01*
X165350000Y-66885714D01*
X165278571Y-66742857D01*
X165278571Y-66457142D01*
X165350000Y-66314285D01*
X165492857Y-66242857D01*
X165635714Y-66242857D01*
X165778571Y-66957142D01*
X166278571Y-65600000D02*
X165278571Y-65600000D01*
X165564285Y-65600000D02*
X165421428Y-65528571D01*
X165350000Y-65457142D01*
X165278571Y-65314285D01*
X165278571Y-65171428D01*
X165492857Y-63028571D02*
X165564285Y-62814285D01*
X165635714Y-62742857D01*
X165778571Y-62671428D01*
X165992857Y-62671428D01*
X166135714Y-62742857D01*
X166207142Y-62814285D01*
X166278571Y-62957142D01*
X166278571Y-63528571D01*
X164778571Y-63528571D01*
X164778571Y-63028571D01*
X164850000Y-62885714D01*
X164921428Y-62814285D01*
X165064285Y-62742857D01*
X165207142Y-62742857D01*
X165350000Y-62814285D01*
X165421428Y-62885714D01*
X165492857Y-63028571D01*
X165492857Y-63528571D01*
X166278571Y-61814285D02*
X166207142Y-61957142D01*
X166135714Y-62028571D01*
X165992857Y-62100000D01*
X165564285Y-62100000D01*
X165421428Y-62028571D01*
X165350000Y-61957142D01*
X165278571Y-61814285D01*
X165278571Y-61600000D01*
X165350000Y-61457142D01*
X165421428Y-61385714D01*
X165564285Y-61314285D01*
X165992857Y-61314285D01*
X166135714Y-61385714D01*
X166207142Y-61457142D01*
X166278571Y-61600000D01*
X166278571Y-61814285D01*
X166278571Y-60028571D02*
X165492857Y-60028571D01*
X165350000Y-60100000D01*
X165278571Y-60242857D01*
X165278571Y-60528571D01*
X165350000Y-60671428D01*
X166207142Y-60028571D02*
X166278571Y-60171428D01*
X166278571Y-60528571D01*
X166207142Y-60671428D01*
X166064285Y-60742857D01*
X165921428Y-60742857D01*
X165778571Y-60671428D01*
X165707142Y-60528571D01*
X165707142Y-60171428D01*
X165635714Y-60028571D01*
X166278571Y-59314285D02*
X165278571Y-59314285D01*
X165564285Y-59314285D02*
X165421428Y-59242857D01*
X165350000Y-59171428D01*
X165278571Y-59028571D01*
X165278571Y-58885714D01*
X166278571Y-57742857D02*
X164778571Y-57742857D01*
X166207142Y-57742857D02*
X166278571Y-57885714D01*
X166278571Y-58171428D01*
X166207142Y-58314285D01*
X166135714Y-58385714D01*
X165992857Y-58457142D01*
X165564285Y-58457142D01*
X165421428Y-58385714D01*
X165350000Y-58314285D01*
X165278571Y-58171428D01*
X165278571Y-57885714D01*
X165350000Y-57742857D01*
X177750000Y-76185714D02*
X177750000Y-75471428D01*
X178178571Y-76328571D02*
X176678571Y-75828571D01*
X178178571Y-75328571D01*
X178178571Y-74828571D02*
X177178571Y-74828571D01*
X177464285Y-74828571D02*
X177321428Y-74757142D01*
X177250000Y-74685714D01*
X177178571Y-74542857D01*
X177178571Y-74400000D01*
X178178571Y-73257142D02*
X176678571Y-73257142D01*
X178107142Y-73257142D02*
X178178571Y-73400000D01*
X178178571Y-73685714D01*
X178107142Y-73828571D01*
X178035714Y-73900000D01*
X177892857Y-73971428D01*
X177464285Y-73971428D01*
X177321428Y-73900000D01*
X177250000Y-73828571D01*
X177178571Y-73685714D01*
X177178571Y-73400000D01*
X177250000Y-73257142D01*
X177178571Y-71900000D02*
X178178571Y-71900000D01*
X177178571Y-72542857D02*
X177964285Y-72542857D01*
X178107142Y-72471428D01*
X178178571Y-72328571D01*
X178178571Y-72114285D01*
X178107142Y-71971428D01*
X178035714Y-71900000D01*
X178178571Y-71185714D02*
X177178571Y-71185714D01*
X176678571Y-71185714D02*
X176750000Y-71257142D01*
X176821428Y-71185714D01*
X176750000Y-71114285D01*
X176678571Y-71185714D01*
X176821428Y-71185714D01*
X177178571Y-70471428D02*
X178178571Y-70471428D01*
X177321428Y-70471428D02*
X177250000Y-70400000D01*
X177178571Y-70257142D01*
X177178571Y-70042857D01*
X177250000Y-69900000D01*
X177392857Y-69828571D01*
X178178571Y-69828571D01*
X178178571Y-68900000D02*
X178107142Y-69042857D01*
X178035714Y-69114285D01*
X177892857Y-69185714D01*
X177464285Y-69185714D01*
X177321428Y-69114285D01*
X177250000Y-69042857D01*
X177178571Y-68900000D01*
X177178571Y-68685714D01*
X177250000Y-68542857D01*
X177321428Y-68471428D01*
X177464285Y-68400000D01*
X177892857Y-68400000D01*
X178035714Y-68471428D01*
X178107142Y-68542857D01*
X178178571Y-68685714D01*
X178178571Y-68900000D01*
X178178571Y-66614285D02*
X176678571Y-66614285D01*
X178178571Y-65757142D01*
X176678571Y-65757142D01*
X178178571Y-64400000D02*
X177392857Y-64400000D01*
X177250000Y-64471428D01*
X177178571Y-64614285D01*
X177178571Y-64900000D01*
X177250000Y-65042857D01*
X178107142Y-64400000D02*
X178178571Y-64542857D01*
X178178571Y-64900000D01*
X178107142Y-65042857D01*
X177964285Y-65114285D01*
X177821428Y-65114285D01*
X177678571Y-65042857D01*
X177607142Y-64900000D01*
X177607142Y-64542857D01*
X177535714Y-64400000D01*
X177178571Y-63685714D02*
X178178571Y-63685714D01*
X177321428Y-63685714D02*
X177250000Y-63614285D01*
X177178571Y-63471428D01*
X177178571Y-63257142D01*
X177250000Y-63114285D01*
X177392857Y-63042857D01*
X178178571Y-63042857D01*
X178178571Y-62114285D02*
X178107142Y-62257142D01*
X178035714Y-62328571D01*
X177892857Y-62400000D01*
X177464285Y-62400000D01*
X177321428Y-62328571D01*
X177250000Y-62257142D01*
X177178571Y-62114285D01*
X177178571Y-61900000D01*
X177250000Y-61757142D01*
X177321428Y-61685714D01*
X177464285Y-61614285D01*
X177892857Y-61614285D01*
X178035714Y-61685714D01*
X178107142Y-61757142D01*
X178178571Y-61900000D01*
X178178571Y-62114285D01*
X192928214Y-124035714D02*
X192999642Y-124107142D01*
X193071071Y-124321428D01*
X193071071Y-124464285D01*
X192999642Y-124678571D01*
X192856785Y-124821428D01*
X192713928Y-124892857D01*
X192428214Y-124964285D01*
X192213928Y-124964285D01*
X191928214Y-124892857D01*
X191785357Y-124821428D01*
X191642500Y-124678571D01*
X191571071Y-124464285D01*
X191571071Y-124321428D01*
X191642500Y-124107142D01*
X191713928Y-124035714D01*
X193071071Y-123392857D02*
X192071071Y-123392857D01*
X192356785Y-123392857D02*
X192213928Y-123321428D01*
X192142500Y-123250000D01*
X192071071Y-123107142D01*
X192071071Y-122964285D01*
X192999642Y-121892857D02*
X193071071Y-122035714D01*
X193071071Y-122321428D01*
X192999642Y-122464285D01*
X192856785Y-122535714D01*
X192285357Y-122535714D01*
X192142500Y-122464285D01*
X192071071Y-122321428D01*
X192071071Y-122035714D01*
X192142500Y-121892857D01*
X192285357Y-121821428D01*
X192428214Y-121821428D01*
X192571071Y-122535714D01*
X193071071Y-120535714D02*
X192285357Y-120535714D01*
X192142500Y-120607142D01*
X192071071Y-120750000D01*
X192071071Y-121035714D01*
X192142500Y-121178571D01*
X192999642Y-120535714D02*
X193071071Y-120678571D01*
X193071071Y-121035714D01*
X192999642Y-121178571D01*
X192856785Y-121250000D01*
X192713928Y-121250000D01*
X192571071Y-121178571D01*
X192499642Y-121035714D01*
X192499642Y-120678571D01*
X192428214Y-120535714D01*
X192071071Y-120035714D02*
X192071071Y-119464285D01*
X191571071Y-119821428D02*
X192856785Y-119821428D01*
X192999642Y-119750000D01*
X193071071Y-119607142D01*
X193071071Y-119464285D01*
X192999642Y-118392857D02*
X193071071Y-118535714D01*
X193071071Y-118821428D01*
X192999642Y-118964285D01*
X192856785Y-119035714D01*
X192285357Y-119035714D01*
X192142500Y-118964285D01*
X192071071Y-118821428D01*
X192071071Y-118535714D01*
X192142500Y-118392857D01*
X192285357Y-118321428D01*
X192428214Y-118321428D01*
X192571071Y-119035714D01*
X193071071Y-117035714D02*
X191571071Y-117035714D01*
X192999642Y-117035714D02*
X193071071Y-117178571D01*
X193071071Y-117464285D01*
X192999642Y-117607142D01*
X192928214Y-117678571D01*
X192785357Y-117750000D01*
X192356785Y-117750000D01*
X192213928Y-117678571D01*
X192142500Y-117607142D01*
X192071071Y-117464285D01*
X192071071Y-117178571D01*
X192142500Y-117035714D01*
X193071071Y-115178571D02*
X191571071Y-115178571D01*
X192142500Y-115178571D02*
X192071071Y-115035714D01*
X192071071Y-114750000D01*
X192142500Y-114607142D01*
X192213928Y-114535714D01*
X192356785Y-114464285D01*
X192785357Y-114464285D01*
X192928214Y-114535714D01*
X192999642Y-114607142D01*
X193071071Y-114750000D01*
X193071071Y-115035714D01*
X192999642Y-115178571D01*
X192071071Y-113964285D02*
X193071071Y-113607142D01*
X192071071Y-113250000D02*
X193071071Y-113607142D01*
X193428214Y-113750000D01*
X193499642Y-113821428D01*
X193571071Y-113964285D01*
X192928214Y-112678571D02*
X192999642Y-112607142D01*
X193071071Y-112678571D01*
X192999642Y-112750000D01*
X192928214Y-112678571D01*
X193071071Y-112678571D01*
X192142500Y-112678571D02*
X192213928Y-112607142D01*
X192285357Y-112678571D01*
X192213928Y-112750000D01*
X192142500Y-112678571D01*
X192285357Y-112678571D01*
X193071071Y-110821428D02*
X191571071Y-110821428D01*
X191571071Y-110250000D01*
X191642500Y-110107142D01*
X191713928Y-110035714D01*
X191856785Y-109964285D01*
X192071071Y-109964285D01*
X192213928Y-110035714D01*
X192285357Y-110107142D01*
X192356785Y-110250000D01*
X192356785Y-110821428D01*
X191571071Y-109035714D02*
X191571071Y-108750000D01*
X191642500Y-108607142D01*
X191785357Y-108464285D01*
X192071071Y-108392857D01*
X192571071Y-108392857D01*
X192856785Y-108464285D01*
X192999642Y-108607142D01*
X193071071Y-108750000D01*
X193071071Y-109035714D01*
X192999642Y-109178571D01*
X192856785Y-109321428D01*
X192571071Y-109392857D01*
X192071071Y-109392857D01*
X191785357Y-109321428D01*
X191642500Y-109178571D01*
X191571071Y-109035714D01*
X193071071Y-107035714D02*
X193071071Y-107750000D01*
X191571071Y-107750000D01*
X192356785Y-106250000D02*
X193071071Y-106250000D01*
X191571071Y-106750000D02*
X192356785Y-106250000D01*
X191571071Y-105750000D01*
X191642500Y-104464285D02*
X191571071Y-104607142D01*
X191571071Y-104821428D01*
X191642500Y-105035714D01*
X191785357Y-105178571D01*
X191928214Y-105250000D01*
X192213928Y-105321428D01*
X192428214Y-105321428D01*
X192713928Y-105250000D01*
X192856785Y-105178571D01*
X192999642Y-105035714D01*
X193071071Y-104821428D01*
X193071071Y-104678571D01*
X192999642Y-104464285D01*
X192928214Y-104392857D01*
X192428214Y-104392857D01*
X192428214Y-104678571D01*
X191571071Y-103464285D02*
X191571071Y-103178571D01*
X191642500Y-103035714D01*
X191785357Y-102892857D01*
X192071071Y-102821428D01*
X192571071Y-102821428D01*
X192856785Y-102892857D01*
X192999642Y-103035714D01*
X193071071Y-103178571D01*
X193071071Y-103464285D01*
X192999642Y-103607142D01*
X192856785Y-103750000D01*
X192571071Y-103821428D01*
X192071071Y-103821428D01*
X191785357Y-103750000D01*
X191642500Y-103607142D01*
X191571071Y-103464285D01*
X193071071Y-102178571D02*
X191571071Y-102178571D01*
X193071071Y-101321428D01*
X191571071Y-101321428D01*
X191571071Y-99678571D02*
X191571071Y-98821428D01*
X193071071Y-99250000D02*
X191571071Y-99250000D01*
X192999642Y-97750000D02*
X193071071Y-97892857D01*
X193071071Y-98178571D01*
X192999642Y-98321428D01*
X192856785Y-98392857D01*
X192285357Y-98392857D01*
X192142500Y-98321428D01*
X192071071Y-98178571D01*
X192071071Y-97892857D01*
X192142500Y-97750000D01*
X192285357Y-97678571D01*
X192428214Y-97678571D01*
X192571071Y-98392857D01*
X193071071Y-96392857D02*
X192285357Y-96392857D01*
X192142500Y-96464285D01*
X192071071Y-96607142D01*
X192071071Y-96892857D01*
X192142500Y-97035714D01*
X192999642Y-96392857D02*
X193071071Y-96535714D01*
X193071071Y-96892857D01*
X192999642Y-97035714D01*
X192856785Y-97107142D01*
X192713928Y-97107142D01*
X192571071Y-97035714D01*
X192499642Y-96892857D01*
X192499642Y-96535714D01*
X192428214Y-96392857D01*
X193071071Y-95678571D02*
X192071071Y-95678571D01*
X192213928Y-95678571D02*
X192142500Y-95607142D01*
X192071071Y-95464285D01*
X192071071Y-95250000D01*
X192142500Y-95107142D01*
X192285357Y-95035714D01*
X193071071Y-95035714D01*
X192285357Y-95035714D02*
X192142500Y-94964285D01*
X192071071Y-94821428D01*
X192071071Y-94607142D01*
X192142500Y-94464285D01*
X192285357Y-94392857D01*
X193071071Y-94392857D01*
X193071071Y-91821428D02*
X193071071Y-92535714D01*
X191571071Y-92535714D01*
X192071071Y-91535714D02*
X192071071Y-90964285D01*
X191571071Y-91321428D02*
X192856785Y-91321428D01*
X192999642Y-91250000D01*
X193071071Y-91107142D01*
X193071071Y-90964285D01*
X193071071Y-89821428D02*
X191571071Y-89821428D01*
X192999642Y-89821428D02*
X193071071Y-89964285D01*
X193071071Y-90250000D01*
X192999642Y-90392857D01*
X192928214Y-90464285D01*
X192785357Y-90535714D01*
X192356785Y-90535714D01*
X192213928Y-90464285D01*
X192142500Y-90392857D01*
X192071071Y-90250000D01*
X192071071Y-89964285D01*
X192142500Y-89821428D01*
X192928214Y-89107142D02*
X192999642Y-89035714D01*
X193071071Y-89107142D01*
X192999642Y-89178571D01*
X192928214Y-89107142D01*
X193071071Y-89107142D01*
X193986071Y-119142857D02*
X193986071Y-118142857D01*
X195486071Y-119142857D01*
X195486071Y-118142857D01*
X194486071Y-117785714D02*
X194486071Y-117214285D01*
X193986071Y-117571428D02*
X195271785Y-117571428D01*
X195414642Y-117500000D01*
X195486071Y-117357142D01*
X195486071Y-117214285D01*
X195486071Y-116714285D02*
X194486071Y-116714285D01*
X194628928Y-116714285D02*
X194557500Y-116642857D01*
X194486071Y-116500000D01*
X194486071Y-116285714D01*
X194557500Y-116142857D01*
X194700357Y-116071428D01*
X195486071Y-116071428D01*
X194700357Y-116071428D02*
X194557500Y-116000000D01*
X194486071Y-115857142D01*
X194486071Y-115642857D01*
X194557500Y-115500000D01*
X194700357Y-115428571D01*
X195486071Y-115428571D01*
X195486071Y-114714285D02*
X193986071Y-114714285D01*
X193986071Y-114357142D01*
X194057500Y-114142857D01*
X194200357Y-114000000D01*
X194343214Y-113928571D01*
X194628928Y-113857142D01*
X194843214Y-113857142D01*
X195128928Y-113928571D01*
X195271785Y-114000000D01*
X195414642Y-114142857D01*
X195486071Y-114357142D01*
X195486071Y-114714285D01*
X195057500Y-113285714D02*
X195057500Y-112571428D01*
X195486071Y-113428571D02*
X193986071Y-112928571D01*
X195486071Y-112428571D01*
X195343214Y-111071428D02*
X195414642Y-111142857D01*
X195486071Y-111357142D01*
X195486071Y-111500000D01*
X195414642Y-111714285D01*
X195271785Y-111857142D01*
X195128928Y-111928571D01*
X194843214Y-112000000D01*
X194628928Y-112000000D01*
X194343214Y-111928571D01*
X194200357Y-111857142D01*
X194057500Y-111714285D01*
X193986071Y-111500000D01*
X193986071Y-111357142D01*
X194057500Y-111142857D01*
X194128928Y-111071428D01*
X195486071Y-110428571D02*
X193986071Y-110428571D01*
X193986071Y-110071428D01*
X194057500Y-109857142D01*
X194200357Y-109714285D01*
X194343214Y-109642857D01*
X194628928Y-109571428D01*
X194843214Y-109571428D01*
X195128928Y-109642857D01*
X195271785Y-109714285D01*
X195414642Y-109857142D01*
X195486071Y-110071428D01*
X195486071Y-110428571D01*
X195486071Y-108928571D02*
X194486071Y-108928571D01*
X194771785Y-108928571D02*
X194628928Y-108857142D01*
X194557500Y-108785714D01*
X194486071Y-108642857D01*
X194486071Y-108500000D01*
X195486071Y-108000000D02*
X194486071Y-108000000D01*
X193986071Y-108000000D02*
X194057500Y-108071428D01*
X194128928Y-108000000D01*
X194057500Y-107928571D01*
X193986071Y-108000000D01*
X194128928Y-108000000D01*
X194486071Y-107428571D02*
X195486071Y-107071428D01*
X194486071Y-106714285D01*
X195414642Y-105571428D02*
X195486071Y-105714285D01*
X195486071Y-106000000D01*
X195414642Y-106142857D01*
X195271785Y-106214285D01*
X194700357Y-106214285D01*
X194557500Y-106142857D01*
X194486071Y-106000000D01*
X194486071Y-105714285D01*
X194557500Y-105571428D01*
X194700357Y-105500000D01*
X194843214Y-105500000D01*
X194986071Y-106214285D01*
X194128928Y-103785714D02*
X194057500Y-103714285D01*
X193986071Y-103571428D01*
X193986071Y-103214285D01*
X194057500Y-103071428D01*
X194128928Y-103000000D01*
X194271785Y-102928571D01*
X194414642Y-102928571D01*
X194628928Y-103000000D01*
X195486071Y-103857142D01*
X195486071Y-102928571D01*
X193986071Y-102000000D02*
X193986071Y-101857142D01*
X194057500Y-101714285D01*
X194128928Y-101642857D01*
X194271785Y-101571428D01*
X194557500Y-101500000D01*
X194914642Y-101500000D01*
X195200357Y-101571428D01*
X195343214Y-101642857D01*
X195414642Y-101714285D01*
X195486071Y-101857142D01*
X195486071Y-102000000D01*
X195414642Y-102142857D01*
X195343214Y-102214285D01*
X195200357Y-102285714D01*
X194914642Y-102357142D01*
X194557500Y-102357142D01*
X194271785Y-102285714D01*
X194128928Y-102214285D01*
X194057500Y-102142857D01*
X193986071Y-102000000D01*
X194128928Y-100928571D02*
X194057500Y-100857142D01*
X193986071Y-100714285D01*
X193986071Y-100357142D01*
X194057500Y-100214285D01*
X194128928Y-100142857D01*
X194271785Y-100071428D01*
X194414642Y-100071428D01*
X194628928Y-100142857D01*
X195486071Y-101000000D01*
X195486071Y-100071428D01*
X193986071Y-99571428D02*
X193986071Y-98642857D01*
X194557500Y-99142857D01*
X194557500Y-98928571D01*
X194628928Y-98785714D01*
X194700357Y-98714285D01*
X194843214Y-98642857D01*
X195200357Y-98642857D01*
X195343214Y-98714285D01*
X195414642Y-98785714D01*
X195486071Y-98928571D01*
X195486071Y-99357142D01*
X195414642Y-99500000D01*
X195343214Y-99571428D01*
X194486071Y-97000000D02*
X195486071Y-96642857D01*
X194486071Y-96285714D01*
X193986071Y-95071428D02*
X193986071Y-95357142D01*
X194057500Y-95500000D01*
X194128928Y-95571428D01*
X194343214Y-95714285D01*
X194628928Y-95785714D01*
X195200357Y-95785714D01*
X195343214Y-95714285D01*
X195414642Y-95642857D01*
X195486071Y-95500000D01*
X195486071Y-95214285D01*
X195414642Y-95071428D01*
X195343214Y-95000000D01*
X195200357Y-94928571D01*
X194843214Y-94928571D01*
X194700357Y-95000000D01*
X194628928Y-95071428D01*
X194557500Y-95214285D01*
X194557500Y-95500000D01*
X194628928Y-95642857D01*
X194700357Y-95714285D01*
X194843214Y-95785714D01*
D11*
%TO.C,J9*%
X265089880Y-118803333D02*
X265804166Y-118803333D01*
X265947023Y-118850952D01*
X266042261Y-118946190D01*
X266089880Y-119089047D01*
X266089880Y-119184285D01*
X266089880Y-118279523D02*
X266089880Y-118089047D01*
X266042261Y-117993809D01*
X265994642Y-117946190D01*
X265851785Y-117850952D01*
X265661309Y-117803333D01*
X265280357Y-117803333D01*
X265185119Y-117850952D01*
X265137500Y-117898571D01*
X265089880Y-117993809D01*
X265089880Y-118184285D01*
X265137500Y-118279523D01*
X265185119Y-118327142D01*
X265280357Y-118374761D01*
X265518452Y-118374761D01*
X265613690Y-118327142D01*
X265661309Y-118279523D01*
X265708928Y-118184285D01*
X265708928Y-117993809D01*
X265661309Y-117898571D01*
X265613690Y-117850952D01*
X265518452Y-117803333D01*
%TO.C,Q4*%
X216174761Y-81287619D02*
X216079523Y-81240000D01*
X215984285Y-81144761D01*
X215841428Y-81001904D01*
X215746190Y-80954285D01*
X215650952Y-80954285D01*
X215698571Y-81192380D02*
X215603333Y-81144761D01*
X215508095Y-81049523D01*
X215460476Y-80859047D01*
X215460476Y-80525714D01*
X215508095Y-80335238D01*
X215603333Y-80240000D01*
X215698571Y-80192380D01*
X215889047Y-80192380D01*
X215984285Y-80240000D01*
X216079523Y-80335238D01*
X216127142Y-80525714D01*
X216127142Y-80859047D01*
X216079523Y-81049523D01*
X215984285Y-81144761D01*
X215889047Y-81192380D01*
X215698571Y-81192380D01*
X216984285Y-80525714D02*
X216984285Y-81192380D01*
X216746190Y-80144761D02*
X216508095Y-80859047D01*
X217127142Y-80859047D01*
%TO.C,R17*%
X244387142Y-57082380D02*
X244053809Y-56606190D01*
X243815714Y-57082380D02*
X243815714Y-56082380D01*
X244196666Y-56082380D01*
X244291904Y-56130000D01*
X244339523Y-56177619D01*
X244387142Y-56272857D01*
X244387142Y-56415714D01*
X244339523Y-56510952D01*
X244291904Y-56558571D01*
X244196666Y-56606190D01*
X243815714Y-56606190D01*
X245339523Y-57082380D02*
X244768095Y-57082380D01*
X245053809Y-57082380D02*
X245053809Y-56082380D01*
X244958571Y-56225238D01*
X244863333Y-56320476D01*
X244768095Y-56368095D01*
X245672857Y-56082380D02*
X246339523Y-56082380D01*
X245910952Y-57082380D01*
%TO.C,C17*%
X220807142Y-78652857D02*
X220854761Y-78700476D01*
X220902380Y-78843333D01*
X220902380Y-78938571D01*
X220854761Y-79081428D01*
X220759523Y-79176666D01*
X220664285Y-79224285D01*
X220473809Y-79271904D01*
X220330952Y-79271904D01*
X220140476Y-79224285D01*
X220045238Y-79176666D01*
X219950000Y-79081428D01*
X219902380Y-78938571D01*
X219902380Y-78843333D01*
X219950000Y-78700476D01*
X219997619Y-78652857D01*
X220902380Y-77700476D02*
X220902380Y-78271904D01*
X220902380Y-77986190D02*
X219902380Y-77986190D01*
X220045238Y-78081428D01*
X220140476Y-78176666D01*
X220188095Y-78271904D01*
X219902380Y-77367142D02*
X219902380Y-76700476D01*
X220902380Y-77129047D01*
%TO.C,R3*%
X198262380Y-71576666D02*
X197786190Y-71910000D01*
X198262380Y-72148095D02*
X197262380Y-72148095D01*
X197262380Y-71767142D01*
X197310000Y-71671904D01*
X197357619Y-71624285D01*
X197452857Y-71576666D01*
X197595714Y-71576666D01*
X197690952Y-71624285D01*
X197738571Y-71671904D01*
X197786190Y-71767142D01*
X197786190Y-72148095D01*
X197262380Y-71243333D02*
X197262380Y-70624285D01*
X197643333Y-70957619D01*
X197643333Y-70814761D01*
X197690952Y-70719523D01*
X197738571Y-70671904D01*
X197833809Y-70624285D01*
X198071904Y-70624285D01*
X198167142Y-70671904D01*
X198214761Y-70719523D01*
X198262380Y-70814761D01*
X198262380Y-71100476D01*
X198214761Y-71195714D01*
X198167142Y-71243333D01*
%TO.C,R1*%
X198262380Y-44376666D02*
X197786190Y-44710000D01*
X198262380Y-44948095D02*
X197262380Y-44948095D01*
X197262380Y-44567142D01*
X197310000Y-44471904D01*
X197357619Y-44424285D01*
X197452857Y-44376666D01*
X197595714Y-44376666D01*
X197690952Y-44424285D01*
X197738571Y-44471904D01*
X197786190Y-44567142D01*
X197786190Y-44948095D01*
X198262380Y-43424285D02*
X198262380Y-43995714D01*
X198262380Y-43710000D02*
X197262380Y-43710000D01*
X197405238Y-43805238D01*
X197500476Y-43900476D01*
X197548095Y-43995714D01*
%TO.C,C25*%
X237307142Y-119152857D02*
X237354761Y-119200476D01*
X237402380Y-119343333D01*
X237402380Y-119438571D01*
X237354761Y-119581428D01*
X237259523Y-119676666D01*
X237164285Y-119724285D01*
X236973809Y-119771904D01*
X236830952Y-119771904D01*
X236640476Y-119724285D01*
X236545238Y-119676666D01*
X236450000Y-119581428D01*
X236402380Y-119438571D01*
X236402380Y-119343333D01*
X236450000Y-119200476D01*
X236497619Y-119152857D01*
X236497619Y-118771904D02*
X236450000Y-118724285D01*
X236402380Y-118629047D01*
X236402380Y-118390952D01*
X236450000Y-118295714D01*
X236497619Y-118248095D01*
X236592857Y-118200476D01*
X236688095Y-118200476D01*
X236830952Y-118248095D01*
X237402380Y-118819523D01*
X237402380Y-118200476D01*
X236402380Y-117295714D02*
X236402380Y-117771904D01*
X236878571Y-117819523D01*
X236830952Y-117771904D01*
X236783333Y-117676666D01*
X236783333Y-117438571D01*
X236830952Y-117343333D01*
X236878571Y-117295714D01*
X236973809Y-117248095D01*
X237211904Y-117248095D01*
X237307142Y-117295714D01*
X237354761Y-117343333D01*
X237402380Y-117438571D01*
X237402380Y-117676666D01*
X237354761Y-117771904D01*
X237307142Y-117819523D01*
%TO.C,J7*%
X254062380Y-86143333D02*
X254776666Y-86143333D01*
X254919523Y-86190952D01*
X255014761Y-86286190D01*
X255062380Y-86429047D01*
X255062380Y-86524285D01*
X254062380Y-85762380D02*
X254062380Y-85095714D01*
X255062380Y-85524285D01*
%TO.C,C5*%
X200367142Y-44376666D02*
X200414761Y-44424285D01*
X200462380Y-44567142D01*
X200462380Y-44662380D01*
X200414761Y-44805238D01*
X200319523Y-44900476D01*
X200224285Y-44948095D01*
X200033809Y-44995714D01*
X199890952Y-44995714D01*
X199700476Y-44948095D01*
X199605238Y-44900476D01*
X199510000Y-44805238D01*
X199462380Y-44662380D01*
X199462380Y-44567142D01*
X199510000Y-44424285D01*
X199557619Y-44376666D01*
X199462380Y-43471904D02*
X199462380Y-43948095D01*
X199938571Y-43995714D01*
X199890952Y-43948095D01*
X199843333Y-43852857D01*
X199843333Y-43614761D01*
X199890952Y-43519523D01*
X199938571Y-43471904D01*
X200033809Y-43424285D01*
X200271904Y-43424285D01*
X200367142Y-43471904D01*
X200414761Y-43519523D01*
X200462380Y-43614761D01*
X200462380Y-43852857D01*
X200414761Y-43948095D01*
X200367142Y-43995714D01*
%TO.C,C24*%
X220807142Y-105652857D02*
X220854761Y-105700476D01*
X220902380Y-105843333D01*
X220902380Y-105938571D01*
X220854761Y-106081428D01*
X220759523Y-106176666D01*
X220664285Y-106224285D01*
X220473809Y-106271904D01*
X220330952Y-106271904D01*
X220140476Y-106224285D01*
X220045238Y-106176666D01*
X219950000Y-106081428D01*
X219902380Y-105938571D01*
X219902380Y-105843333D01*
X219950000Y-105700476D01*
X219997619Y-105652857D01*
X219997619Y-105271904D02*
X219950000Y-105224285D01*
X219902380Y-105129047D01*
X219902380Y-104890952D01*
X219950000Y-104795714D01*
X219997619Y-104748095D01*
X220092857Y-104700476D01*
X220188095Y-104700476D01*
X220330952Y-104748095D01*
X220902380Y-105319523D01*
X220902380Y-104700476D01*
X220235714Y-103843333D02*
X220902380Y-103843333D01*
X219854761Y-104081428D02*
X220569047Y-104319523D01*
X220569047Y-103700476D01*
%TO.C,R18*%
X218717142Y-70712380D02*
X218383809Y-70236190D01*
X218145714Y-70712380D02*
X218145714Y-69712380D01*
X218526666Y-69712380D01*
X218621904Y-69760000D01*
X218669523Y-69807619D01*
X218717142Y-69902857D01*
X218717142Y-70045714D01*
X218669523Y-70140952D01*
X218621904Y-70188571D01*
X218526666Y-70236190D01*
X218145714Y-70236190D01*
X219669523Y-70712380D02*
X219098095Y-70712380D01*
X219383809Y-70712380D02*
X219383809Y-69712380D01*
X219288571Y-69855238D01*
X219193333Y-69950476D01*
X219098095Y-69998095D01*
X220240952Y-70140952D02*
X220145714Y-70093333D01*
X220098095Y-70045714D01*
X220050476Y-69950476D01*
X220050476Y-69902857D01*
X220098095Y-69807619D01*
X220145714Y-69760000D01*
X220240952Y-69712380D01*
X220431428Y-69712380D01*
X220526666Y-69760000D01*
X220574285Y-69807619D01*
X220621904Y-69902857D01*
X220621904Y-69950476D01*
X220574285Y-70045714D01*
X220526666Y-70093333D01*
X220431428Y-70140952D01*
X220240952Y-70140952D01*
X220145714Y-70188571D01*
X220098095Y-70236190D01*
X220050476Y-70331428D01*
X220050476Y-70521904D01*
X220098095Y-70617142D01*
X220145714Y-70664761D01*
X220240952Y-70712380D01*
X220431428Y-70712380D01*
X220526666Y-70664761D01*
X220574285Y-70617142D01*
X220621904Y-70521904D01*
X220621904Y-70331428D01*
X220574285Y-70236190D01*
X220526666Y-70188571D01*
X220431428Y-70140952D01*
%TO.C,Q5*%
X216174761Y-102757619D02*
X216079523Y-102710000D01*
X215984285Y-102614761D01*
X215841428Y-102471904D01*
X215746190Y-102424285D01*
X215650952Y-102424285D01*
X215698571Y-102662380D02*
X215603333Y-102614761D01*
X215508095Y-102519523D01*
X215460476Y-102329047D01*
X215460476Y-101995714D01*
X215508095Y-101805238D01*
X215603333Y-101710000D01*
X215698571Y-101662380D01*
X215889047Y-101662380D01*
X215984285Y-101710000D01*
X216079523Y-101805238D01*
X216127142Y-101995714D01*
X216127142Y-102329047D01*
X216079523Y-102519523D01*
X215984285Y-102614761D01*
X215889047Y-102662380D01*
X215698571Y-102662380D01*
X217031904Y-101662380D02*
X216555714Y-101662380D01*
X216508095Y-102138571D01*
X216555714Y-102090952D01*
X216650952Y-102043333D01*
X216889047Y-102043333D01*
X216984285Y-102090952D01*
X217031904Y-102138571D01*
X217079523Y-102233809D01*
X217079523Y-102471904D01*
X217031904Y-102567142D01*
X216984285Y-102614761D01*
X216889047Y-102662380D01*
X216650952Y-102662380D01*
X216555714Y-102614761D01*
X216508095Y-102567142D01*
%TO.C,Q3*%
X216314761Y-75557619D02*
X216219523Y-75510000D01*
X216124285Y-75414761D01*
X215981428Y-75271904D01*
X215886190Y-75224285D01*
X215790952Y-75224285D01*
X215838571Y-75462380D02*
X215743333Y-75414761D01*
X215648095Y-75319523D01*
X215600476Y-75129047D01*
X215600476Y-74795714D01*
X215648095Y-74605238D01*
X215743333Y-74510000D01*
X215838571Y-74462380D01*
X216029047Y-74462380D01*
X216124285Y-74510000D01*
X216219523Y-74605238D01*
X216267142Y-74795714D01*
X216267142Y-75129047D01*
X216219523Y-75319523D01*
X216124285Y-75414761D01*
X216029047Y-75462380D01*
X215838571Y-75462380D01*
X216600476Y-74462380D02*
X217219523Y-74462380D01*
X216886190Y-74843333D01*
X217029047Y-74843333D01*
X217124285Y-74890952D01*
X217171904Y-74938571D01*
X217219523Y-75033809D01*
X217219523Y-75271904D01*
X217171904Y-75367142D01*
X217124285Y-75414761D01*
X217029047Y-75462380D01*
X216743333Y-75462380D01*
X216648095Y-75414761D01*
X216600476Y-75367142D01*
%TO.C,J6*%
X254162380Y-72543333D02*
X254876666Y-72543333D01*
X255019523Y-72590952D01*
X255114761Y-72686190D01*
X255162380Y-72829047D01*
X255162380Y-72924285D01*
X254162380Y-71638571D02*
X254162380Y-71829047D01*
X254210000Y-71924285D01*
X254257619Y-71971904D01*
X254400476Y-72067142D01*
X254590952Y-72114761D01*
X254971904Y-72114761D01*
X255067142Y-72067142D01*
X255114761Y-72019523D01*
X255162380Y-71924285D01*
X255162380Y-71733809D01*
X255114761Y-71638571D01*
X255067142Y-71590952D01*
X254971904Y-71543333D01*
X254733809Y-71543333D01*
X254638571Y-71590952D01*
X254590952Y-71638571D01*
X254543333Y-71733809D01*
X254543333Y-71924285D01*
X254590952Y-72019523D01*
X254638571Y-72067142D01*
X254733809Y-72114761D01*
%TO.C,U2*%
X199922380Y-80626904D02*
X200731904Y-80626904D01*
X200827142Y-80579285D01*
X200874761Y-80531666D01*
X200922380Y-80436428D01*
X200922380Y-80245952D01*
X200874761Y-80150714D01*
X200827142Y-80103095D01*
X200731904Y-80055476D01*
X199922380Y-80055476D01*
X200017619Y-79626904D02*
X199970000Y-79579285D01*
X199922380Y-79484047D01*
X199922380Y-79245952D01*
X199970000Y-79150714D01*
X200017619Y-79103095D01*
X200112857Y-79055476D01*
X200208095Y-79055476D01*
X200350952Y-79103095D01*
X200922380Y-79674523D01*
X200922380Y-79055476D01*
%TO.C,C19*%
X200167142Y-98852857D02*
X200214761Y-98900476D01*
X200262380Y-99043333D01*
X200262380Y-99138571D01*
X200214761Y-99281428D01*
X200119523Y-99376666D01*
X200024285Y-99424285D01*
X199833809Y-99471904D01*
X199690952Y-99471904D01*
X199500476Y-99424285D01*
X199405238Y-99376666D01*
X199310000Y-99281428D01*
X199262380Y-99138571D01*
X199262380Y-99043333D01*
X199310000Y-98900476D01*
X199357619Y-98852857D01*
X200262380Y-97900476D02*
X200262380Y-98471904D01*
X200262380Y-98186190D02*
X199262380Y-98186190D01*
X199405238Y-98281428D01*
X199500476Y-98376666D01*
X199548095Y-98471904D01*
X200262380Y-97424285D02*
X200262380Y-97233809D01*
X200214761Y-97138571D01*
X200167142Y-97090952D01*
X200024285Y-96995714D01*
X199833809Y-96948095D01*
X199452857Y-96948095D01*
X199357619Y-96995714D01*
X199310000Y-97043333D01*
X199262380Y-97138571D01*
X199262380Y-97329047D01*
X199310000Y-97424285D01*
X199357619Y-97471904D01*
X199452857Y-97519523D01*
X199690952Y-97519523D01*
X199786190Y-97471904D01*
X199833809Y-97424285D01*
X199881428Y-97329047D01*
X199881428Y-97138571D01*
X199833809Y-97043333D01*
X199786190Y-96995714D01*
X199690952Y-96948095D01*
%TO.C,R24*%
X202152380Y-121852857D02*
X201676190Y-122186190D01*
X202152380Y-122424285D02*
X201152380Y-122424285D01*
X201152380Y-122043333D01*
X201200000Y-121948095D01*
X201247619Y-121900476D01*
X201342857Y-121852857D01*
X201485714Y-121852857D01*
X201580952Y-121900476D01*
X201628571Y-121948095D01*
X201676190Y-122043333D01*
X201676190Y-122424285D01*
X201247619Y-121471904D02*
X201200000Y-121424285D01*
X201152380Y-121329047D01*
X201152380Y-121090952D01*
X201200000Y-120995714D01*
X201247619Y-120948095D01*
X201342857Y-120900476D01*
X201438095Y-120900476D01*
X201580952Y-120948095D01*
X202152380Y-121519523D01*
X202152380Y-120900476D01*
X201485714Y-120043333D02*
X202152380Y-120043333D01*
X201104761Y-120281428D02*
X201819047Y-120519523D01*
X201819047Y-119900476D01*
%TO.C,C13*%
X204707142Y-94647857D02*
X204754761Y-94695476D01*
X204802380Y-94838333D01*
X204802380Y-94933571D01*
X204754761Y-95076428D01*
X204659523Y-95171666D01*
X204564285Y-95219285D01*
X204373809Y-95266904D01*
X204230952Y-95266904D01*
X204040476Y-95219285D01*
X203945238Y-95171666D01*
X203850000Y-95076428D01*
X203802380Y-94933571D01*
X203802380Y-94838333D01*
X203850000Y-94695476D01*
X203897619Y-94647857D01*
X204802380Y-93695476D02*
X204802380Y-94266904D01*
X204802380Y-93981190D02*
X203802380Y-93981190D01*
X203945238Y-94076428D01*
X204040476Y-94171666D01*
X204088095Y-94266904D01*
X203802380Y-93362142D02*
X203802380Y-92743095D01*
X204183333Y-93076428D01*
X204183333Y-92933571D01*
X204230952Y-92838333D01*
X204278571Y-92790714D01*
X204373809Y-92743095D01*
X204611904Y-92743095D01*
X204707142Y-92790714D01*
X204754761Y-92838333D01*
X204802380Y-92933571D01*
X204802380Y-93219285D01*
X204754761Y-93314523D01*
X204707142Y-93362142D01*
%TO.C,C21*%
X204567142Y-98652857D02*
X204614761Y-98700476D01*
X204662380Y-98843333D01*
X204662380Y-98938571D01*
X204614761Y-99081428D01*
X204519523Y-99176666D01*
X204424285Y-99224285D01*
X204233809Y-99271904D01*
X204090952Y-99271904D01*
X203900476Y-99224285D01*
X203805238Y-99176666D01*
X203710000Y-99081428D01*
X203662380Y-98938571D01*
X203662380Y-98843333D01*
X203710000Y-98700476D01*
X203757619Y-98652857D01*
X203757619Y-98271904D02*
X203710000Y-98224285D01*
X203662380Y-98129047D01*
X203662380Y-97890952D01*
X203710000Y-97795714D01*
X203757619Y-97748095D01*
X203852857Y-97700476D01*
X203948095Y-97700476D01*
X204090952Y-97748095D01*
X204662380Y-98319523D01*
X204662380Y-97700476D01*
X204662380Y-96748095D02*
X204662380Y-97319523D01*
X204662380Y-97033809D02*
X203662380Y-97033809D01*
X203805238Y-97129047D01*
X203900476Y-97224285D01*
X203948095Y-97319523D01*
%TO.C,R28*%
X208427142Y-105817380D02*
X208093809Y-105341190D01*
X207855714Y-105817380D02*
X207855714Y-104817380D01*
X208236666Y-104817380D01*
X208331904Y-104865000D01*
X208379523Y-104912619D01*
X208427142Y-105007857D01*
X208427142Y-105150714D01*
X208379523Y-105245952D01*
X208331904Y-105293571D01*
X208236666Y-105341190D01*
X207855714Y-105341190D01*
X208808095Y-104912619D02*
X208855714Y-104865000D01*
X208950952Y-104817380D01*
X209189047Y-104817380D01*
X209284285Y-104865000D01*
X209331904Y-104912619D01*
X209379523Y-105007857D01*
X209379523Y-105103095D01*
X209331904Y-105245952D01*
X208760476Y-105817380D01*
X209379523Y-105817380D01*
X209950952Y-105245952D02*
X209855714Y-105198333D01*
X209808095Y-105150714D01*
X209760476Y-105055476D01*
X209760476Y-105007857D01*
X209808095Y-104912619D01*
X209855714Y-104865000D01*
X209950952Y-104817380D01*
X210141428Y-104817380D01*
X210236666Y-104865000D01*
X210284285Y-104912619D01*
X210331904Y-105007857D01*
X210331904Y-105055476D01*
X210284285Y-105150714D01*
X210236666Y-105198333D01*
X210141428Y-105245952D01*
X209950952Y-105245952D01*
X209855714Y-105293571D01*
X209808095Y-105341190D01*
X209760476Y-105436428D01*
X209760476Y-105626904D01*
X209808095Y-105722142D01*
X209855714Y-105769761D01*
X209950952Y-105817380D01*
X210141428Y-105817380D01*
X210236666Y-105769761D01*
X210284285Y-105722142D01*
X210331904Y-105626904D01*
X210331904Y-105436428D01*
X210284285Y-105341190D01*
X210236666Y-105293571D01*
X210141428Y-105245952D01*
%TO.C,C18*%
X237307142Y-92152857D02*
X237354761Y-92200476D01*
X237402380Y-92343333D01*
X237402380Y-92438571D01*
X237354761Y-92581428D01*
X237259523Y-92676666D01*
X237164285Y-92724285D01*
X236973809Y-92771904D01*
X236830952Y-92771904D01*
X236640476Y-92724285D01*
X236545238Y-92676666D01*
X236450000Y-92581428D01*
X236402380Y-92438571D01*
X236402380Y-92343333D01*
X236450000Y-92200476D01*
X236497619Y-92152857D01*
X237402380Y-91200476D02*
X237402380Y-91771904D01*
X237402380Y-91486190D02*
X236402380Y-91486190D01*
X236545238Y-91581428D01*
X236640476Y-91676666D01*
X236688095Y-91771904D01*
X236830952Y-90629047D02*
X236783333Y-90724285D01*
X236735714Y-90771904D01*
X236640476Y-90819523D01*
X236592857Y-90819523D01*
X236497619Y-90771904D01*
X236450000Y-90724285D01*
X236402380Y-90629047D01*
X236402380Y-90438571D01*
X236450000Y-90343333D01*
X236497619Y-90295714D01*
X236592857Y-90248095D01*
X236640476Y-90248095D01*
X236735714Y-90295714D01*
X236783333Y-90343333D01*
X236830952Y-90438571D01*
X236830952Y-90629047D01*
X236878571Y-90724285D01*
X236926190Y-90771904D01*
X237021428Y-90819523D01*
X237211904Y-90819523D01*
X237307142Y-90771904D01*
X237354761Y-90724285D01*
X237402380Y-90629047D01*
X237402380Y-90438571D01*
X237354761Y-90343333D01*
X237307142Y-90295714D01*
X237211904Y-90248095D01*
X237021428Y-90248095D01*
X236926190Y-90295714D01*
X236878571Y-90343333D01*
X236830952Y-90438571D01*
%TO.C,C7*%
X200367142Y-71576666D02*
X200414761Y-71624285D01*
X200462380Y-71767142D01*
X200462380Y-71862380D01*
X200414761Y-72005238D01*
X200319523Y-72100476D01*
X200224285Y-72148095D01*
X200033809Y-72195714D01*
X199890952Y-72195714D01*
X199700476Y-72148095D01*
X199605238Y-72100476D01*
X199510000Y-72005238D01*
X199462380Y-71862380D01*
X199462380Y-71767142D01*
X199510000Y-71624285D01*
X199557619Y-71576666D01*
X199462380Y-71243333D02*
X199462380Y-70576666D01*
X200462380Y-71005238D01*
%TO.C,C20*%
X199857142Y-121852857D02*
X199904761Y-121900476D01*
X199952380Y-122043333D01*
X199952380Y-122138571D01*
X199904761Y-122281428D01*
X199809523Y-122376666D01*
X199714285Y-122424285D01*
X199523809Y-122471904D01*
X199380952Y-122471904D01*
X199190476Y-122424285D01*
X199095238Y-122376666D01*
X199000000Y-122281428D01*
X198952380Y-122138571D01*
X198952380Y-122043333D01*
X199000000Y-121900476D01*
X199047619Y-121852857D01*
X199047619Y-121471904D02*
X199000000Y-121424285D01*
X198952380Y-121329047D01*
X198952380Y-121090952D01*
X199000000Y-120995714D01*
X199047619Y-120948095D01*
X199142857Y-120900476D01*
X199238095Y-120900476D01*
X199380952Y-120948095D01*
X199952380Y-121519523D01*
X199952380Y-120900476D01*
X198952380Y-120281428D02*
X198952380Y-120186190D01*
X199000000Y-120090952D01*
X199047619Y-120043333D01*
X199142857Y-119995714D01*
X199333333Y-119948095D01*
X199571428Y-119948095D01*
X199761904Y-119995714D01*
X199857142Y-120043333D01*
X199904761Y-120090952D01*
X199952380Y-120186190D01*
X199952380Y-120281428D01*
X199904761Y-120376666D01*
X199857142Y-120424285D01*
X199761904Y-120471904D01*
X199571428Y-120519523D01*
X199333333Y-120519523D01*
X199142857Y-120471904D01*
X199047619Y-120424285D01*
X199000000Y-120376666D01*
X198952380Y-120281428D01*
%TO.C,R9*%
X212843333Y-48212380D02*
X212510000Y-47736190D01*
X212271904Y-48212380D02*
X212271904Y-47212380D01*
X212652857Y-47212380D01*
X212748095Y-47260000D01*
X212795714Y-47307619D01*
X212843333Y-47402857D01*
X212843333Y-47545714D01*
X212795714Y-47640952D01*
X212748095Y-47688571D01*
X212652857Y-47736190D01*
X212271904Y-47736190D01*
X213319523Y-48212380D02*
X213510000Y-48212380D01*
X213605238Y-48164761D01*
X213652857Y-48117142D01*
X213748095Y-47974285D01*
X213795714Y-47783809D01*
X213795714Y-47402857D01*
X213748095Y-47307619D01*
X213700476Y-47260000D01*
X213605238Y-47212380D01*
X213414761Y-47212380D01*
X213319523Y-47260000D01*
X213271904Y-47307619D01*
X213224285Y-47402857D01*
X213224285Y-47640952D01*
X213271904Y-47736190D01*
X213319523Y-47783809D01*
X213414761Y-47831428D01*
X213605238Y-47831428D01*
X213700476Y-47783809D01*
X213748095Y-47736190D01*
X213795714Y-47640952D01*
%TO.C,Q6*%
X216174761Y-108612619D02*
X216079523Y-108565000D01*
X215984285Y-108469761D01*
X215841428Y-108326904D01*
X215746190Y-108279285D01*
X215650952Y-108279285D01*
X215698571Y-108517380D02*
X215603333Y-108469761D01*
X215508095Y-108374523D01*
X215460476Y-108184047D01*
X215460476Y-107850714D01*
X215508095Y-107660238D01*
X215603333Y-107565000D01*
X215698571Y-107517380D01*
X215889047Y-107517380D01*
X215984285Y-107565000D01*
X216079523Y-107660238D01*
X216127142Y-107850714D01*
X216127142Y-108184047D01*
X216079523Y-108374523D01*
X215984285Y-108469761D01*
X215889047Y-108517380D01*
X215698571Y-108517380D01*
X216984285Y-107517380D02*
X216793809Y-107517380D01*
X216698571Y-107565000D01*
X216650952Y-107612619D01*
X216555714Y-107755476D01*
X216508095Y-107945952D01*
X216508095Y-108326904D01*
X216555714Y-108422142D01*
X216603333Y-108469761D01*
X216698571Y-108517380D01*
X216889047Y-108517380D01*
X216984285Y-108469761D01*
X217031904Y-108422142D01*
X217079523Y-108326904D01*
X217079523Y-108088809D01*
X217031904Y-107993571D01*
X216984285Y-107945952D01*
X216889047Y-107898333D01*
X216698571Y-107898333D01*
X216603333Y-107945952D01*
X216555714Y-107993571D01*
X216508095Y-108088809D01*
%TO.C,R29*%
X252717142Y-110962380D02*
X252383809Y-110486190D01*
X252145714Y-110962380D02*
X252145714Y-109962380D01*
X252526666Y-109962380D01*
X252621904Y-110010000D01*
X252669523Y-110057619D01*
X252717142Y-110152857D01*
X252717142Y-110295714D01*
X252669523Y-110390952D01*
X252621904Y-110438571D01*
X252526666Y-110486190D01*
X252145714Y-110486190D01*
X253098095Y-110057619D02*
X253145714Y-110010000D01*
X253240952Y-109962380D01*
X253479047Y-109962380D01*
X253574285Y-110010000D01*
X253621904Y-110057619D01*
X253669523Y-110152857D01*
X253669523Y-110248095D01*
X253621904Y-110390952D01*
X253050476Y-110962380D01*
X253669523Y-110962380D01*
X254145714Y-110962380D02*
X254336190Y-110962380D01*
X254431428Y-110914761D01*
X254479047Y-110867142D01*
X254574285Y-110724285D01*
X254621904Y-110533809D01*
X254621904Y-110152857D01*
X254574285Y-110057619D01*
X254526666Y-110010000D01*
X254431428Y-109962380D01*
X254240952Y-109962380D01*
X254145714Y-110010000D01*
X254098095Y-110057619D01*
X254050476Y-110152857D01*
X254050476Y-110390952D01*
X254098095Y-110486190D01*
X254145714Y-110533809D01*
X254240952Y-110581428D01*
X254431428Y-110581428D01*
X254526666Y-110533809D01*
X254574285Y-110486190D01*
X254621904Y-110390952D01*
%TO.C,J3*%
X158742380Y-47523333D02*
X159456666Y-47523333D01*
X159599523Y-47570952D01*
X159694761Y-47666190D01*
X159742380Y-47809047D01*
X159742380Y-47904285D01*
X158742380Y-47142380D02*
X158742380Y-46523333D01*
X159123333Y-46856666D01*
X159123333Y-46713809D01*
X159170952Y-46618571D01*
X159218571Y-46570952D01*
X159313809Y-46523333D01*
X159551904Y-46523333D01*
X159647142Y-46570952D01*
X159694761Y-46618571D01*
X159742380Y-46713809D01*
X159742380Y-46999523D01*
X159694761Y-47094761D01*
X159647142Y-47142380D01*
%TO.C,R14*%
X208427142Y-75252380D02*
X208093809Y-74776190D01*
X207855714Y-75252380D02*
X207855714Y-74252380D01*
X208236666Y-74252380D01*
X208331904Y-74300000D01*
X208379523Y-74347619D01*
X208427142Y-74442857D01*
X208427142Y-74585714D01*
X208379523Y-74680952D01*
X208331904Y-74728571D01*
X208236666Y-74776190D01*
X207855714Y-74776190D01*
X209379523Y-75252380D02*
X208808095Y-75252380D01*
X209093809Y-75252380D02*
X209093809Y-74252380D01*
X208998571Y-74395238D01*
X208903333Y-74490476D01*
X208808095Y-74538095D01*
X210236666Y-74585714D02*
X210236666Y-75252380D01*
X209998571Y-74204761D02*
X209760476Y-74919047D01*
X210379523Y-74919047D01*
%TO.C,FID1*%
X213448571Y-116717071D02*
X213115238Y-116717071D01*
X213115238Y-117240880D02*
X213115238Y-116240880D01*
X213591428Y-116240880D01*
X213972380Y-117240880D02*
X213972380Y-116240880D01*
X214448571Y-117240880D02*
X214448571Y-116240880D01*
X214686666Y-116240880D01*
X214829523Y-116288500D01*
X214924761Y-116383738D01*
X214972380Y-116478976D01*
X215020000Y-116669452D01*
X215020000Y-116812309D01*
X214972380Y-117002785D01*
X214924761Y-117098023D01*
X214829523Y-117193261D01*
X214686666Y-117240880D01*
X214448571Y-117240880D01*
X215972380Y-117240880D02*
X215400952Y-117240880D01*
X215686666Y-117240880D02*
X215686666Y-116240880D01*
X215591428Y-116383738D01*
X215496190Y-116478976D01*
X215400952Y-116526595D01*
%TO.C,R11*%
X212427142Y-51462380D02*
X212093809Y-50986190D01*
X211855714Y-51462380D02*
X211855714Y-50462380D01*
X212236666Y-50462380D01*
X212331904Y-50510000D01*
X212379523Y-50557619D01*
X212427142Y-50652857D01*
X212427142Y-50795714D01*
X212379523Y-50890952D01*
X212331904Y-50938571D01*
X212236666Y-50986190D01*
X211855714Y-50986190D01*
X213379523Y-51462380D02*
X212808095Y-51462380D01*
X213093809Y-51462380D02*
X213093809Y-50462380D01*
X212998571Y-50605238D01*
X212903333Y-50700476D01*
X212808095Y-50748095D01*
X214331904Y-51462380D02*
X213760476Y-51462380D01*
X214046190Y-51462380D02*
X214046190Y-50462380D01*
X213950952Y-50605238D01*
X213855714Y-50700476D01*
X213760476Y-50748095D01*
%TO.C,R19*%
X252717142Y-84212380D02*
X252383809Y-83736190D01*
X252145714Y-84212380D02*
X252145714Y-83212380D01*
X252526666Y-83212380D01*
X252621904Y-83260000D01*
X252669523Y-83307619D01*
X252717142Y-83402857D01*
X252717142Y-83545714D01*
X252669523Y-83640952D01*
X252621904Y-83688571D01*
X252526666Y-83736190D01*
X252145714Y-83736190D01*
X253669523Y-84212380D02*
X253098095Y-84212380D01*
X253383809Y-84212380D02*
X253383809Y-83212380D01*
X253288571Y-83355238D01*
X253193333Y-83450476D01*
X253098095Y-83498095D01*
X254145714Y-84212380D02*
X254336190Y-84212380D01*
X254431428Y-84164761D01*
X254479047Y-84117142D01*
X254574285Y-83974285D01*
X254621904Y-83783809D01*
X254621904Y-83402857D01*
X254574285Y-83307619D01*
X254526666Y-83260000D01*
X254431428Y-83212380D01*
X254240952Y-83212380D01*
X254145714Y-83260000D01*
X254098095Y-83307619D01*
X254050476Y-83402857D01*
X254050476Y-83640952D01*
X254098095Y-83736190D01*
X254145714Y-83783809D01*
X254240952Y-83831428D01*
X254431428Y-83831428D01*
X254526666Y-83783809D01*
X254574285Y-83736190D01*
X254621904Y-83640952D01*
%TO.C,J8*%
X253962380Y-99543333D02*
X254676666Y-99543333D01*
X254819523Y-99590952D01*
X254914761Y-99686190D01*
X254962380Y-99829047D01*
X254962380Y-99924285D01*
X254390952Y-98924285D02*
X254343333Y-99019523D01*
X254295714Y-99067142D01*
X254200476Y-99114761D01*
X254152857Y-99114761D01*
X254057619Y-99067142D01*
X254010000Y-99019523D01*
X253962380Y-98924285D01*
X253962380Y-98733809D01*
X254010000Y-98638571D01*
X254057619Y-98590952D01*
X254152857Y-98543333D01*
X254200476Y-98543333D01*
X254295714Y-98590952D01*
X254343333Y-98638571D01*
X254390952Y-98733809D01*
X254390952Y-98924285D01*
X254438571Y-99019523D01*
X254486190Y-99067142D01*
X254581428Y-99114761D01*
X254771904Y-99114761D01*
X254867142Y-99067142D01*
X254914761Y-99019523D01*
X254962380Y-98924285D01*
X254962380Y-98733809D01*
X254914761Y-98638571D01*
X254867142Y-98590952D01*
X254771904Y-98543333D01*
X254581428Y-98543333D01*
X254486190Y-98590952D01*
X254438571Y-98638571D01*
X254390952Y-98733809D01*
%TO.C,C12*%
X204767142Y-71452857D02*
X204814761Y-71500476D01*
X204862380Y-71643333D01*
X204862380Y-71738571D01*
X204814761Y-71881428D01*
X204719523Y-71976666D01*
X204624285Y-72024285D01*
X204433809Y-72071904D01*
X204290952Y-72071904D01*
X204100476Y-72024285D01*
X204005238Y-71976666D01*
X203910000Y-71881428D01*
X203862380Y-71738571D01*
X203862380Y-71643333D01*
X203910000Y-71500476D01*
X203957619Y-71452857D01*
X204862380Y-70500476D02*
X204862380Y-71071904D01*
X204862380Y-70786190D02*
X203862380Y-70786190D01*
X204005238Y-70881428D01*
X204100476Y-70976666D01*
X204148095Y-71071904D01*
X203957619Y-70119523D02*
X203910000Y-70071904D01*
X203862380Y-69976666D01*
X203862380Y-69738571D01*
X203910000Y-69643333D01*
X203957619Y-69595714D01*
X204052857Y-69548095D01*
X204148095Y-69548095D01*
X204290952Y-69595714D01*
X204862380Y-70167142D01*
X204862380Y-69548095D01*
%TO.C,R5*%
X202662380Y-44376666D02*
X202186190Y-44710000D01*
X202662380Y-44948095D02*
X201662380Y-44948095D01*
X201662380Y-44567142D01*
X201710000Y-44471904D01*
X201757619Y-44424285D01*
X201852857Y-44376666D01*
X201995714Y-44376666D01*
X202090952Y-44424285D01*
X202138571Y-44471904D01*
X202186190Y-44567142D01*
X202186190Y-44948095D01*
X201662380Y-43471904D02*
X201662380Y-43948095D01*
X202138571Y-43995714D01*
X202090952Y-43948095D01*
X202043333Y-43852857D01*
X202043333Y-43614761D01*
X202090952Y-43519523D01*
X202138571Y-43471904D01*
X202233809Y-43424285D01*
X202471904Y-43424285D01*
X202567142Y-43471904D01*
X202614761Y-43519523D01*
X202662380Y-43614761D01*
X202662380Y-43852857D01*
X202614761Y-43948095D01*
X202567142Y-43995714D01*
%TO.C,Q1*%
X216174761Y-48357619D02*
X216079523Y-48310000D01*
X215984285Y-48214761D01*
X215841428Y-48071904D01*
X215746190Y-48024285D01*
X215650952Y-48024285D01*
X215698571Y-48262380D02*
X215603333Y-48214761D01*
X215508095Y-48119523D01*
X215460476Y-47929047D01*
X215460476Y-47595714D01*
X215508095Y-47405238D01*
X215603333Y-47310000D01*
X215698571Y-47262380D01*
X215889047Y-47262380D01*
X215984285Y-47310000D01*
X216079523Y-47405238D01*
X216127142Y-47595714D01*
X216127142Y-47929047D01*
X216079523Y-48119523D01*
X215984285Y-48214761D01*
X215889047Y-48262380D01*
X215698571Y-48262380D01*
X217079523Y-48262380D02*
X216508095Y-48262380D01*
X216793809Y-48262380D02*
X216793809Y-47262380D01*
X216698571Y-47405238D01*
X216603333Y-47500476D01*
X216508095Y-47548095D01*
%TO.C,R2*%
X198102380Y-66576666D02*
X197626190Y-66910000D01*
X198102380Y-67148095D02*
X197102380Y-67148095D01*
X197102380Y-66767142D01*
X197150000Y-66671904D01*
X197197619Y-66624285D01*
X197292857Y-66576666D01*
X197435714Y-66576666D01*
X197530952Y-66624285D01*
X197578571Y-66671904D01*
X197626190Y-66767142D01*
X197626190Y-67148095D01*
X197197619Y-66195714D02*
X197150000Y-66148095D01*
X197102380Y-66052857D01*
X197102380Y-65814761D01*
X197150000Y-65719523D01*
X197197619Y-65671904D01*
X197292857Y-65624285D01*
X197388095Y-65624285D01*
X197530952Y-65671904D01*
X198102380Y-66243333D01*
X198102380Y-65624285D01*
%TO.C,C11*%
X204607142Y-67452857D02*
X204654761Y-67500476D01*
X204702380Y-67643333D01*
X204702380Y-67738571D01*
X204654761Y-67881428D01*
X204559523Y-67976666D01*
X204464285Y-68024285D01*
X204273809Y-68071904D01*
X204130952Y-68071904D01*
X203940476Y-68024285D01*
X203845238Y-67976666D01*
X203750000Y-67881428D01*
X203702380Y-67738571D01*
X203702380Y-67643333D01*
X203750000Y-67500476D01*
X203797619Y-67452857D01*
X204702380Y-66500476D02*
X204702380Y-67071904D01*
X204702380Y-66786190D02*
X203702380Y-66786190D01*
X203845238Y-66881428D01*
X203940476Y-66976666D01*
X203988095Y-67071904D01*
X204702380Y-65548095D02*
X204702380Y-66119523D01*
X204702380Y-65833809D02*
X203702380Y-65833809D01*
X203845238Y-65929047D01*
X203940476Y-66024285D01*
X203988095Y-66119523D01*
%TO.C,C15*%
X220807142Y-51652857D02*
X220854761Y-51700476D01*
X220902380Y-51843333D01*
X220902380Y-51938571D01*
X220854761Y-52081428D01*
X220759523Y-52176666D01*
X220664285Y-52224285D01*
X220473809Y-52271904D01*
X220330952Y-52271904D01*
X220140476Y-52224285D01*
X220045238Y-52176666D01*
X219950000Y-52081428D01*
X219902380Y-51938571D01*
X219902380Y-51843333D01*
X219950000Y-51700476D01*
X219997619Y-51652857D01*
X220902380Y-50700476D02*
X220902380Y-51271904D01*
X220902380Y-50986190D02*
X219902380Y-50986190D01*
X220045238Y-51081428D01*
X220140476Y-51176666D01*
X220188095Y-51271904D01*
X219902380Y-49795714D02*
X219902380Y-50271904D01*
X220378571Y-50319523D01*
X220330952Y-50271904D01*
X220283333Y-50176666D01*
X220283333Y-49938571D01*
X220330952Y-49843333D01*
X220378571Y-49795714D01*
X220473809Y-49748095D01*
X220711904Y-49748095D01*
X220807142Y-49795714D01*
X220854761Y-49843333D01*
X220902380Y-49938571D01*
X220902380Y-50176666D01*
X220854761Y-50271904D01*
X220807142Y-50319523D01*
%TO.C,C1*%
X198497142Y-57289166D02*
X198544761Y-57336785D01*
X198592380Y-57479642D01*
X198592380Y-57574880D01*
X198544761Y-57717738D01*
X198449523Y-57812976D01*
X198354285Y-57860595D01*
X198163809Y-57908214D01*
X198020952Y-57908214D01*
X197830476Y-57860595D01*
X197735238Y-57812976D01*
X197640000Y-57717738D01*
X197592380Y-57574880D01*
X197592380Y-57479642D01*
X197640000Y-57336785D01*
X197687619Y-57289166D01*
X198592380Y-56336785D02*
X198592380Y-56908214D01*
X198592380Y-56622500D02*
X197592380Y-56622500D01*
X197735238Y-56717738D01*
X197830476Y-56812976D01*
X197878095Y-56908214D01*
%TO.C,J2*%
X158782380Y-90703333D02*
X159496666Y-90703333D01*
X159639523Y-90750952D01*
X159734761Y-90846190D01*
X159782380Y-90989047D01*
X159782380Y-91084285D01*
X158877619Y-90274761D02*
X158830000Y-90227142D01*
X158782380Y-90131904D01*
X158782380Y-89893809D01*
X158830000Y-89798571D01*
X158877619Y-89750952D01*
X158972857Y-89703333D01*
X159068095Y-89703333D01*
X159210952Y-89750952D01*
X159782380Y-90322380D01*
X159782380Y-89703333D01*
%TO.C,J5*%
X254162380Y-58843333D02*
X254876666Y-58843333D01*
X255019523Y-58890952D01*
X255114761Y-58986190D01*
X255162380Y-59129047D01*
X255162380Y-59224285D01*
X254162380Y-57890952D02*
X254162380Y-58367142D01*
X254638571Y-58414761D01*
X254590952Y-58367142D01*
X254543333Y-58271904D01*
X254543333Y-58033809D01*
X254590952Y-57938571D01*
X254638571Y-57890952D01*
X254733809Y-57843333D01*
X254971904Y-57843333D01*
X255067142Y-57890952D01*
X255114761Y-57938571D01*
X255162380Y-58033809D01*
X255162380Y-58271904D01*
X255114761Y-58367142D01*
X255067142Y-58414761D01*
%TO.C,R10*%
X208367142Y-48212380D02*
X208033809Y-47736190D01*
X207795714Y-48212380D02*
X207795714Y-47212380D01*
X208176666Y-47212380D01*
X208271904Y-47260000D01*
X208319523Y-47307619D01*
X208367142Y-47402857D01*
X208367142Y-47545714D01*
X208319523Y-47640952D01*
X208271904Y-47688571D01*
X208176666Y-47736190D01*
X207795714Y-47736190D01*
X209319523Y-48212380D02*
X208748095Y-48212380D01*
X209033809Y-48212380D02*
X209033809Y-47212380D01*
X208938571Y-47355238D01*
X208843333Y-47450476D01*
X208748095Y-47498095D01*
X209938571Y-47212380D02*
X210033809Y-47212380D01*
X210129047Y-47260000D01*
X210176666Y-47307619D01*
X210224285Y-47402857D01*
X210271904Y-47593333D01*
X210271904Y-47831428D01*
X210224285Y-48021904D01*
X210176666Y-48117142D01*
X210129047Y-48164761D01*
X210033809Y-48212380D01*
X209938571Y-48212380D01*
X209843333Y-48164761D01*
X209795714Y-48117142D01*
X209748095Y-48021904D01*
X209700476Y-47831428D01*
X209700476Y-47593333D01*
X209748095Y-47402857D01*
X209795714Y-47307619D01*
X209843333Y-47260000D01*
X209938571Y-47212380D01*
%TO.C,C3*%
X198197142Y-111644166D02*
X198244761Y-111691785D01*
X198292380Y-111834642D01*
X198292380Y-111929880D01*
X198244761Y-112072738D01*
X198149523Y-112167976D01*
X198054285Y-112215595D01*
X197863809Y-112263214D01*
X197720952Y-112263214D01*
X197530476Y-112215595D01*
X197435238Y-112167976D01*
X197340000Y-112072738D01*
X197292380Y-111929880D01*
X197292380Y-111834642D01*
X197340000Y-111691785D01*
X197387619Y-111644166D01*
X197292380Y-111310833D02*
X197292380Y-110691785D01*
X197673333Y-111025119D01*
X197673333Y-110882261D01*
X197720952Y-110787023D01*
X197768571Y-110739404D01*
X197863809Y-110691785D01*
X198101904Y-110691785D01*
X198197142Y-110739404D01*
X198244761Y-110787023D01*
X198292380Y-110882261D01*
X198292380Y-111167976D01*
X198244761Y-111263214D01*
X198197142Y-111310833D01*
%TO.C,R27*%
X212427142Y-105817380D02*
X212093809Y-105341190D01*
X211855714Y-105817380D02*
X211855714Y-104817380D01*
X212236666Y-104817380D01*
X212331904Y-104865000D01*
X212379523Y-104912619D01*
X212427142Y-105007857D01*
X212427142Y-105150714D01*
X212379523Y-105245952D01*
X212331904Y-105293571D01*
X212236666Y-105341190D01*
X211855714Y-105341190D01*
X212808095Y-104912619D02*
X212855714Y-104865000D01*
X212950952Y-104817380D01*
X213189047Y-104817380D01*
X213284285Y-104865000D01*
X213331904Y-104912619D01*
X213379523Y-105007857D01*
X213379523Y-105103095D01*
X213331904Y-105245952D01*
X212760476Y-105817380D01*
X213379523Y-105817380D01*
X213712857Y-104817380D02*
X214379523Y-104817380D01*
X213950952Y-105817380D01*
%TO.C,R25*%
X212367142Y-102612380D02*
X212033809Y-102136190D01*
X211795714Y-102612380D02*
X211795714Y-101612380D01*
X212176666Y-101612380D01*
X212271904Y-101660000D01*
X212319523Y-101707619D01*
X212367142Y-101802857D01*
X212367142Y-101945714D01*
X212319523Y-102040952D01*
X212271904Y-102088571D01*
X212176666Y-102136190D01*
X211795714Y-102136190D01*
X212748095Y-101707619D02*
X212795714Y-101660000D01*
X212890952Y-101612380D01*
X213129047Y-101612380D01*
X213224285Y-101660000D01*
X213271904Y-101707619D01*
X213319523Y-101802857D01*
X213319523Y-101898095D01*
X213271904Y-102040952D01*
X212700476Y-102612380D01*
X213319523Y-102612380D01*
X214224285Y-101612380D02*
X213748095Y-101612380D01*
X213700476Y-102088571D01*
X213748095Y-102040952D01*
X213843333Y-101993333D01*
X214081428Y-101993333D01*
X214176666Y-102040952D01*
X214224285Y-102088571D01*
X214271904Y-102183809D01*
X214271904Y-102421904D01*
X214224285Y-102517142D01*
X214176666Y-102564761D01*
X214081428Y-102612380D01*
X213843333Y-102612380D01*
X213748095Y-102564761D01*
X213700476Y-102517142D01*
%TO.C,C2*%
X198497142Y-84394166D02*
X198544761Y-84441785D01*
X198592380Y-84584642D01*
X198592380Y-84679880D01*
X198544761Y-84822738D01*
X198449523Y-84917976D01*
X198354285Y-84965595D01*
X198163809Y-85013214D01*
X198020952Y-85013214D01*
X197830476Y-84965595D01*
X197735238Y-84917976D01*
X197640000Y-84822738D01*
X197592380Y-84679880D01*
X197592380Y-84584642D01*
X197640000Y-84441785D01*
X197687619Y-84394166D01*
X197687619Y-84013214D02*
X197640000Y-83965595D01*
X197592380Y-83870357D01*
X197592380Y-83632261D01*
X197640000Y-83537023D01*
X197687619Y-83489404D01*
X197782857Y-83441785D01*
X197878095Y-83441785D01*
X198020952Y-83489404D01*
X198592380Y-84060833D01*
X198592380Y-83441785D01*
%TO.C,R12*%
X208427142Y-51462380D02*
X208093809Y-50986190D01*
X207855714Y-51462380D02*
X207855714Y-50462380D01*
X208236666Y-50462380D01*
X208331904Y-50510000D01*
X208379523Y-50557619D01*
X208427142Y-50652857D01*
X208427142Y-50795714D01*
X208379523Y-50890952D01*
X208331904Y-50938571D01*
X208236666Y-50986190D01*
X207855714Y-50986190D01*
X209379523Y-51462380D02*
X208808095Y-51462380D01*
X209093809Y-51462380D02*
X209093809Y-50462380D01*
X208998571Y-50605238D01*
X208903333Y-50700476D01*
X208808095Y-50748095D01*
X209760476Y-50557619D02*
X209808095Y-50510000D01*
X209903333Y-50462380D01*
X210141428Y-50462380D01*
X210236666Y-50510000D01*
X210284285Y-50557619D01*
X210331904Y-50652857D01*
X210331904Y-50748095D01*
X210284285Y-50890952D01*
X209712857Y-51462380D01*
X210331904Y-51462380D01*
%TO.C,C23*%
X181912142Y-115405357D02*
X181959761Y-115452976D01*
X182007380Y-115595833D01*
X182007380Y-115691071D01*
X181959761Y-115833928D01*
X181864523Y-115929166D01*
X181769285Y-115976785D01*
X181578809Y-116024404D01*
X181435952Y-116024404D01*
X181245476Y-115976785D01*
X181150238Y-115929166D01*
X181055000Y-115833928D01*
X181007380Y-115691071D01*
X181007380Y-115595833D01*
X181055000Y-115452976D01*
X181102619Y-115405357D01*
X181102619Y-115024404D02*
X181055000Y-114976785D01*
X181007380Y-114881547D01*
X181007380Y-114643452D01*
X181055000Y-114548214D01*
X181102619Y-114500595D01*
X181197857Y-114452976D01*
X181293095Y-114452976D01*
X181435952Y-114500595D01*
X182007380Y-115072023D01*
X182007380Y-114452976D01*
X181007380Y-114119642D02*
X181007380Y-113500595D01*
X181388333Y-113833928D01*
X181388333Y-113691071D01*
X181435952Y-113595833D01*
X181483571Y-113548214D01*
X181578809Y-113500595D01*
X181816904Y-113500595D01*
X181912142Y-113548214D01*
X181959761Y-113595833D01*
X182007380Y-113691071D01*
X182007380Y-113976785D01*
X181959761Y-114072023D01*
X181912142Y-114119642D01*
%TO.C,FID3*%
X181728571Y-119752071D02*
X181395238Y-119752071D01*
X181395238Y-120275880D02*
X181395238Y-119275880D01*
X181871428Y-119275880D01*
X182252380Y-120275880D02*
X182252380Y-119275880D01*
X182728571Y-120275880D02*
X182728571Y-119275880D01*
X182966666Y-119275880D01*
X183109523Y-119323500D01*
X183204761Y-119418738D01*
X183252380Y-119513976D01*
X183300000Y-119704452D01*
X183300000Y-119847309D01*
X183252380Y-120037785D01*
X183204761Y-120133023D01*
X183109523Y-120228261D01*
X182966666Y-120275880D01*
X182728571Y-120275880D01*
X183633333Y-119275880D02*
X184252380Y-119275880D01*
X183919047Y-119656833D01*
X184061904Y-119656833D01*
X184157142Y-119704452D01*
X184204761Y-119752071D01*
X184252380Y-119847309D01*
X184252380Y-120085404D01*
X184204761Y-120180642D01*
X184157142Y-120228261D01*
X184061904Y-120275880D01*
X183776190Y-120275880D01*
X183680952Y-120228261D01*
X183633333Y-120180642D01*
%TO.C,J1*%
X168052380Y-124833333D02*
X168766666Y-124833333D01*
X168909523Y-124880952D01*
X169004761Y-124976190D01*
X169052380Y-125119047D01*
X169052380Y-125214285D01*
X169052380Y-123833333D02*
X169052380Y-124404761D01*
X169052380Y-124119047D02*
X168052380Y-124119047D01*
X168195238Y-124214285D01*
X168290476Y-124309523D01*
X168338095Y-124404761D01*
%TO.C,R13*%
X212427142Y-75252380D02*
X212093809Y-74776190D01*
X211855714Y-75252380D02*
X211855714Y-74252380D01*
X212236666Y-74252380D01*
X212331904Y-74300000D01*
X212379523Y-74347619D01*
X212427142Y-74442857D01*
X212427142Y-74585714D01*
X212379523Y-74680952D01*
X212331904Y-74728571D01*
X212236666Y-74776190D01*
X211855714Y-74776190D01*
X213379523Y-75252380D02*
X212808095Y-75252380D01*
X213093809Y-75252380D02*
X213093809Y-74252380D01*
X212998571Y-74395238D01*
X212903333Y-74490476D01*
X212808095Y-74538095D01*
X213712857Y-74252380D02*
X214331904Y-74252380D01*
X213998571Y-74633333D01*
X214141428Y-74633333D01*
X214236666Y-74680952D01*
X214284285Y-74728571D01*
X214331904Y-74823809D01*
X214331904Y-75061904D01*
X214284285Y-75157142D01*
X214236666Y-75204761D01*
X214141428Y-75252380D01*
X213855714Y-75252380D01*
X213760476Y-75204761D01*
X213712857Y-75157142D01*
%TO.C,Q2*%
X216174761Y-54357619D02*
X216079523Y-54310000D01*
X215984285Y-54214761D01*
X215841428Y-54071904D01*
X215746190Y-54024285D01*
X215650952Y-54024285D01*
X215698571Y-54262380D02*
X215603333Y-54214761D01*
X215508095Y-54119523D01*
X215460476Y-53929047D01*
X215460476Y-53595714D01*
X215508095Y-53405238D01*
X215603333Y-53310000D01*
X215698571Y-53262380D01*
X215889047Y-53262380D01*
X215984285Y-53310000D01*
X216079523Y-53405238D01*
X216127142Y-53595714D01*
X216127142Y-53929047D01*
X216079523Y-54119523D01*
X215984285Y-54214761D01*
X215889047Y-54262380D01*
X215698571Y-54262380D01*
X216508095Y-53357619D02*
X216555714Y-53310000D01*
X216650952Y-53262380D01*
X216889047Y-53262380D01*
X216984285Y-53310000D01*
X217031904Y-53357619D01*
X217079523Y-53452857D01*
X217079523Y-53548095D01*
X217031904Y-53690952D01*
X216460476Y-54262380D01*
X217079523Y-54262380D01*
%TO.C,R23*%
X202462380Y-98852857D02*
X201986190Y-99186190D01*
X202462380Y-99424285D02*
X201462380Y-99424285D01*
X201462380Y-99043333D01*
X201510000Y-98948095D01*
X201557619Y-98900476D01*
X201652857Y-98852857D01*
X201795714Y-98852857D01*
X201890952Y-98900476D01*
X201938571Y-98948095D01*
X201986190Y-99043333D01*
X201986190Y-99424285D01*
X201557619Y-98471904D02*
X201510000Y-98424285D01*
X201462380Y-98329047D01*
X201462380Y-98090952D01*
X201510000Y-97995714D01*
X201557619Y-97948095D01*
X201652857Y-97900476D01*
X201748095Y-97900476D01*
X201890952Y-97948095D01*
X202462380Y-98519523D01*
X202462380Y-97900476D01*
X201462380Y-97567142D02*
X201462380Y-96948095D01*
X201843333Y-97281428D01*
X201843333Y-97138571D01*
X201890952Y-97043333D01*
X201938571Y-96995714D01*
X202033809Y-96948095D01*
X202271904Y-96948095D01*
X202367142Y-96995714D01*
X202414761Y-97043333D01*
X202462380Y-97138571D01*
X202462380Y-97424285D01*
X202414761Y-97519523D01*
X202367142Y-97567142D01*
%TO.C,J10*%
X168052380Y-111109523D02*
X168766666Y-111109523D01*
X168909523Y-111157142D01*
X169004761Y-111252380D01*
X169052380Y-111395238D01*
X169052380Y-111490476D01*
X169052380Y-110109523D02*
X169052380Y-110680952D01*
X169052380Y-110395238D02*
X168052380Y-110395238D01*
X168195238Y-110490476D01*
X168290476Y-110585714D01*
X168338095Y-110680952D01*
X168052380Y-109490476D02*
X168052380Y-109395238D01*
X168100000Y-109300000D01*
X168147619Y-109252380D01*
X168242857Y-109204761D01*
X168433333Y-109157142D01*
X168671428Y-109157142D01*
X168861904Y-109204761D01*
X168957142Y-109252380D01*
X169004761Y-109300000D01*
X169052380Y-109395238D01*
X169052380Y-109490476D01*
X169004761Y-109585714D01*
X168957142Y-109633333D01*
X168861904Y-109680952D01*
X168671428Y-109728571D01*
X168433333Y-109728571D01*
X168242857Y-109680952D01*
X168147619Y-109633333D01*
X168100000Y-109585714D01*
X168052380Y-109490476D01*
%TO.C,R7*%
X202662380Y-71576666D02*
X202186190Y-71910000D01*
X202662380Y-72148095D02*
X201662380Y-72148095D01*
X201662380Y-71767142D01*
X201710000Y-71671904D01*
X201757619Y-71624285D01*
X201852857Y-71576666D01*
X201995714Y-71576666D01*
X202090952Y-71624285D01*
X202138571Y-71671904D01*
X202186190Y-71767142D01*
X202186190Y-72148095D01*
X201662380Y-71243333D02*
X201662380Y-70576666D01*
X202662380Y-71005238D01*
%TO.C,R8*%
X202402380Y-93571666D02*
X201926190Y-93905000D01*
X202402380Y-94143095D02*
X201402380Y-94143095D01*
X201402380Y-93762142D01*
X201450000Y-93666904D01*
X201497619Y-93619285D01*
X201592857Y-93571666D01*
X201735714Y-93571666D01*
X201830952Y-93619285D01*
X201878571Y-93666904D01*
X201926190Y-93762142D01*
X201926190Y-94143095D01*
X201830952Y-93000238D02*
X201783333Y-93095476D01*
X201735714Y-93143095D01*
X201640476Y-93190714D01*
X201592857Y-93190714D01*
X201497619Y-93143095D01*
X201450000Y-93095476D01*
X201402380Y-93000238D01*
X201402380Y-92809761D01*
X201450000Y-92714523D01*
X201497619Y-92666904D01*
X201592857Y-92619285D01*
X201640476Y-92619285D01*
X201735714Y-92666904D01*
X201783333Y-92714523D01*
X201830952Y-92809761D01*
X201830952Y-93000238D01*
X201878571Y-93095476D01*
X201926190Y-93143095D01*
X202021428Y-93190714D01*
X202211904Y-93190714D01*
X202307142Y-93143095D01*
X202354761Y-93095476D01*
X202402380Y-93000238D01*
X202402380Y-92809761D01*
X202354761Y-92714523D01*
X202307142Y-92666904D01*
X202211904Y-92619285D01*
X202021428Y-92619285D01*
X201926190Y-92666904D01*
X201878571Y-92714523D01*
X201830952Y-92809761D01*
%TO.C,C10*%
X204967142Y-44452857D02*
X205014761Y-44500476D01*
X205062380Y-44643333D01*
X205062380Y-44738571D01*
X205014761Y-44881428D01*
X204919523Y-44976666D01*
X204824285Y-45024285D01*
X204633809Y-45071904D01*
X204490952Y-45071904D01*
X204300476Y-45024285D01*
X204205238Y-44976666D01*
X204110000Y-44881428D01*
X204062380Y-44738571D01*
X204062380Y-44643333D01*
X204110000Y-44500476D01*
X204157619Y-44452857D01*
X205062380Y-43500476D02*
X205062380Y-44071904D01*
X205062380Y-43786190D02*
X204062380Y-43786190D01*
X204205238Y-43881428D01*
X204300476Y-43976666D01*
X204348095Y-44071904D01*
X204062380Y-42881428D02*
X204062380Y-42786190D01*
X204110000Y-42690952D01*
X204157619Y-42643333D01*
X204252857Y-42595714D01*
X204443333Y-42548095D01*
X204681428Y-42548095D01*
X204871904Y-42595714D01*
X204967142Y-42643333D01*
X205014761Y-42690952D01*
X205062380Y-42786190D01*
X205062380Y-42881428D01*
X205014761Y-42976666D01*
X204967142Y-43024285D01*
X204871904Y-43071904D01*
X204681428Y-43119523D01*
X204443333Y-43119523D01*
X204252857Y-43071904D01*
X204157619Y-43024285D01*
X204110000Y-42976666D01*
X204062380Y-42881428D01*
%TO.C,R4*%
X198002380Y-93571666D02*
X197526190Y-93905000D01*
X198002380Y-94143095D02*
X197002380Y-94143095D01*
X197002380Y-93762142D01*
X197050000Y-93666904D01*
X197097619Y-93619285D01*
X197192857Y-93571666D01*
X197335714Y-93571666D01*
X197430952Y-93619285D01*
X197478571Y-93666904D01*
X197526190Y-93762142D01*
X197526190Y-94143095D01*
X197335714Y-92714523D02*
X198002380Y-92714523D01*
X196954761Y-92952619D02*
X197669047Y-93190714D01*
X197669047Y-92571666D01*
%TO.C,R21*%
X197862380Y-98852857D02*
X197386190Y-99186190D01*
X197862380Y-99424285D02*
X196862380Y-99424285D01*
X196862380Y-99043333D01*
X196910000Y-98948095D01*
X196957619Y-98900476D01*
X197052857Y-98852857D01*
X197195714Y-98852857D01*
X197290952Y-98900476D01*
X197338571Y-98948095D01*
X197386190Y-99043333D01*
X197386190Y-99424285D01*
X196957619Y-98471904D02*
X196910000Y-98424285D01*
X196862380Y-98329047D01*
X196862380Y-98090952D01*
X196910000Y-97995714D01*
X196957619Y-97948095D01*
X197052857Y-97900476D01*
X197148095Y-97900476D01*
X197290952Y-97948095D01*
X197862380Y-98519523D01*
X197862380Y-97900476D01*
X197862380Y-96948095D02*
X197862380Y-97519523D01*
X197862380Y-97233809D02*
X196862380Y-97233809D01*
X197005238Y-97329047D01*
X197100476Y-97424285D01*
X197148095Y-97519523D01*
%TO.C,C16*%
X237557142Y-65152857D02*
X237604761Y-65200476D01*
X237652380Y-65343333D01*
X237652380Y-65438571D01*
X237604761Y-65581428D01*
X237509523Y-65676666D01*
X237414285Y-65724285D01*
X237223809Y-65771904D01*
X237080952Y-65771904D01*
X236890476Y-65724285D01*
X236795238Y-65676666D01*
X236700000Y-65581428D01*
X236652380Y-65438571D01*
X236652380Y-65343333D01*
X236700000Y-65200476D01*
X236747619Y-65152857D01*
X237652380Y-64200476D02*
X237652380Y-64771904D01*
X237652380Y-64486190D02*
X236652380Y-64486190D01*
X236795238Y-64581428D01*
X236890476Y-64676666D01*
X236938095Y-64771904D01*
X236652380Y-63343333D02*
X236652380Y-63533809D01*
X236700000Y-63629047D01*
X236747619Y-63676666D01*
X236890476Y-63771904D01*
X237080952Y-63819523D01*
X237461904Y-63819523D01*
X237557142Y-63771904D01*
X237604761Y-63724285D01*
X237652380Y-63629047D01*
X237652380Y-63438571D01*
X237604761Y-63343333D01*
X237557142Y-63295714D01*
X237461904Y-63248095D01*
X237223809Y-63248095D01*
X237128571Y-63295714D01*
X237080952Y-63343333D01*
X237033333Y-63438571D01*
X237033333Y-63629047D01*
X237080952Y-63724285D01*
X237128571Y-63771904D01*
X237223809Y-63819523D01*
%TO.C,U7*%
X175202380Y-104436904D02*
X176011904Y-104436904D01*
X176107142Y-104389285D01*
X176154761Y-104341666D01*
X176202380Y-104246428D01*
X176202380Y-104055952D01*
X176154761Y-103960714D01*
X176107142Y-103913095D01*
X176011904Y-103865476D01*
X175202380Y-103865476D01*
X175202380Y-103484523D02*
X175202380Y-102817857D01*
X176202380Y-103246428D01*
%TO.C,FID2*%
X193038571Y-43762071D02*
X192705238Y-43762071D01*
X192705238Y-44285880D02*
X192705238Y-43285880D01*
X193181428Y-43285880D01*
X193562380Y-44285880D02*
X193562380Y-43285880D01*
X194038571Y-44285880D02*
X194038571Y-43285880D01*
X194276666Y-43285880D01*
X194419523Y-43333500D01*
X194514761Y-43428738D01*
X194562380Y-43523976D01*
X194610000Y-43714452D01*
X194610000Y-43857309D01*
X194562380Y-44047785D01*
X194514761Y-44143023D01*
X194419523Y-44238261D01*
X194276666Y-44285880D01*
X194038571Y-44285880D01*
X194990952Y-43381119D02*
X195038571Y-43333500D01*
X195133809Y-43285880D01*
X195371904Y-43285880D01*
X195467142Y-43333500D01*
X195514761Y-43381119D01*
X195562380Y-43476357D01*
X195562380Y-43571595D01*
X195514761Y-43714452D01*
X194943333Y-44285880D01*
X195562380Y-44285880D01*
%TO.C,C8*%
X200107142Y-93571666D02*
X200154761Y-93619285D01*
X200202380Y-93762142D01*
X200202380Y-93857380D01*
X200154761Y-94000238D01*
X200059523Y-94095476D01*
X199964285Y-94143095D01*
X199773809Y-94190714D01*
X199630952Y-94190714D01*
X199440476Y-94143095D01*
X199345238Y-94095476D01*
X199250000Y-94000238D01*
X199202380Y-93857380D01*
X199202380Y-93762142D01*
X199250000Y-93619285D01*
X199297619Y-93571666D01*
X199630952Y-93000238D02*
X199583333Y-93095476D01*
X199535714Y-93143095D01*
X199440476Y-93190714D01*
X199392857Y-93190714D01*
X199297619Y-93143095D01*
X199250000Y-93095476D01*
X199202380Y-93000238D01*
X199202380Y-92809761D01*
X199250000Y-92714523D01*
X199297619Y-92666904D01*
X199392857Y-92619285D01*
X199440476Y-92619285D01*
X199535714Y-92666904D01*
X199583333Y-92714523D01*
X199630952Y-92809761D01*
X199630952Y-93000238D01*
X199678571Y-93095476D01*
X199726190Y-93143095D01*
X199821428Y-93190714D01*
X200011904Y-93190714D01*
X200107142Y-93143095D01*
X200154761Y-93095476D01*
X200202380Y-93000238D01*
X200202380Y-92809761D01*
X200154761Y-92714523D01*
X200107142Y-92666904D01*
X200011904Y-92619285D01*
X199821428Y-92619285D01*
X199726190Y-92666904D01*
X199678571Y-92714523D01*
X199630952Y-92809761D01*
%TO.C,U1*%
X199922380Y-53371904D02*
X200731904Y-53371904D01*
X200827142Y-53324285D01*
X200874761Y-53276666D01*
X200922380Y-53181428D01*
X200922380Y-52990952D01*
X200874761Y-52895714D01*
X200827142Y-52848095D01*
X200731904Y-52800476D01*
X199922380Y-52800476D01*
X200922380Y-51800476D02*
X200922380Y-52371904D01*
X200922380Y-52086190D02*
X199922380Y-52086190D01*
X200065238Y-52181428D01*
X200160476Y-52276666D01*
X200208095Y-52371904D01*
%TO.C,C6*%
X200207142Y-66576666D02*
X200254761Y-66624285D01*
X200302380Y-66767142D01*
X200302380Y-66862380D01*
X200254761Y-67005238D01*
X200159523Y-67100476D01*
X200064285Y-67148095D01*
X199873809Y-67195714D01*
X199730952Y-67195714D01*
X199540476Y-67148095D01*
X199445238Y-67100476D01*
X199350000Y-67005238D01*
X199302380Y-66862380D01*
X199302380Y-66767142D01*
X199350000Y-66624285D01*
X199397619Y-66576666D01*
X199302380Y-65719523D02*
X199302380Y-65910000D01*
X199350000Y-66005238D01*
X199397619Y-66052857D01*
X199540476Y-66148095D01*
X199730952Y-66195714D01*
X200111904Y-66195714D01*
X200207142Y-66148095D01*
X200254761Y-66100476D01*
X200302380Y-66005238D01*
X200302380Y-65814761D01*
X200254761Y-65719523D01*
X200207142Y-65671904D01*
X200111904Y-65624285D01*
X199873809Y-65624285D01*
X199778571Y-65671904D01*
X199730952Y-65719523D01*
X199683333Y-65814761D01*
X199683333Y-66005238D01*
X199730952Y-66100476D01*
X199778571Y-66148095D01*
X199873809Y-66195714D01*
%TO.C,U3*%
X199522380Y-107826904D02*
X200331904Y-107826904D01*
X200427142Y-107779285D01*
X200474761Y-107731666D01*
X200522380Y-107636428D01*
X200522380Y-107445952D01*
X200474761Y-107350714D01*
X200427142Y-107303095D01*
X200331904Y-107255476D01*
X199522380Y-107255476D01*
X199522380Y-106874523D02*
X199522380Y-106255476D01*
X199903333Y-106588809D01*
X199903333Y-106445952D01*
X199950952Y-106350714D01*
X199998571Y-106303095D01*
X200093809Y-106255476D01*
X200331904Y-106255476D01*
X200427142Y-106303095D01*
X200474761Y-106350714D01*
X200522380Y-106445952D01*
X200522380Y-106731666D01*
X200474761Y-106826904D01*
X200427142Y-106874523D01*
%TO.C,C26*%
X186912142Y-115405357D02*
X186959761Y-115452976D01*
X187007380Y-115595833D01*
X187007380Y-115691071D01*
X186959761Y-115833928D01*
X186864523Y-115929166D01*
X186769285Y-115976785D01*
X186578809Y-116024404D01*
X186435952Y-116024404D01*
X186245476Y-115976785D01*
X186150238Y-115929166D01*
X186055000Y-115833928D01*
X186007380Y-115691071D01*
X186007380Y-115595833D01*
X186055000Y-115452976D01*
X186102619Y-115405357D01*
X186102619Y-115024404D02*
X186055000Y-114976785D01*
X186007380Y-114881547D01*
X186007380Y-114643452D01*
X186055000Y-114548214D01*
X186102619Y-114500595D01*
X186197857Y-114452976D01*
X186293095Y-114452976D01*
X186435952Y-114500595D01*
X187007380Y-115072023D01*
X187007380Y-114452976D01*
X186007380Y-113595833D02*
X186007380Y-113786309D01*
X186055000Y-113881547D01*
X186102619Y-113929166D01*
X186245476Y-114024404D01*
X186435952Y-114072023D01*
X186816904Y-114072023D01*
X186912142Y-114024404D01*
X186959761Y-113976785D01*
X187007380Y-113881547D01*
X187007380Y-113691071D01*
X186959761Y-113595833D01*
X186912142Y-113548214D01*
X186816904Y-113500595D01*
X186578809Y-113500595D01*
X186483571Y-113548214D01*
X186435952Y-113595833D01*
X186388333Y-113691071D01*
X186388333Y-113881547D01*
X186435952Y-113976785D01*
X186483571Y-114024404D01*
X186578809Y-114072023D01*
%TO.C,R6*%
X202502380Y-66576666D02*
X202026190Y-66910000D01*
X202502380Y-67148095D02*
X201502380Y-67148095D01*
X201502380Y-66767142D01*
X201550000Y-66671904D01*
X201597619Y-66624285D01*
X201692857Y-66576666D01*
X201835714Y-66576666D01*
X201930952Y-66624285D01*
X201978571Y-66671904D01*
X202026190Y-66767142D01*
X202026190Y-67148095D01*
X201502380Y-65719523D02*
X201502380Y-65910000D01*
X201550000Y-66005238D01*
X201597619Y-66052857D01*
X201740476Y-66148095D01*
X201930952Y-66195714D01*
X202311904Y-66195714D01*
X202407142Y-66148095D01*
X202454761Y-66100476D01*
X202502380Y-66005238D01*
X202502380Y-65814761D01*
X202454761Y-65719523D01*
X202407142Y-65671904D01*
X202311904Y-65624285D01*
X202073809Y-65624285D01*
X201978571Y-65671904D01*
X201930952Y-65719523D01*
X201883333Y-65814761D01*
X201883333Y-66005238D01*
X201930952Y-66100476D01*
X201978571Y-66148095D01*
X202073809Y-66195714D01*
%TO.C,C22*%
X204257142Y-121852857D02*
X204304761Y-121900476D01*
X204352380Y-122043333D01*
X204352380Y-122138571D01*
X204304761Y-122281428D01*
X204209523Y-122376666D01*
X204114285Y-122424285D01*
X203923809Y-122471904D01*
X203780952Y-122471904D01*
X203590476Y-122424285D01*
X203495238Y-122376666D01*
X203400000Y-122281428D01*
X203352380Y-122138571D01*
X203352380Y-122043333D01*
X203400000Y-121900476D01*
X203447619Y-121852857D01*
X203447619Y-121471904D02*
X203400000Y-121424285D01*
X203352380Y-121329047D01*
X203352380Y-121090952D01*
X203400000Y-120995714D01*
X203447619Y-120948095D01*
X203542857Y-120900476D01*
X203638095Y-120900476D01*
X203780952Y-120948095D01*
X204352380Y-121519523D01*
X204352380Y-120900476D01*
X203447619Y-120519523D02*
X203400000Y-120471904D01*
X203352380Y-120376666D01*
X203352380Y-120138571D01*
X203400000Y-120043333D01*
X203447619Y-119995714D01*
X203542857Y-119948095D01*
X203638095Y-119948095D01*
X203780952Y-119995714D01*
X204352380Y-120567142D01*
X204352380Y-119948095D01*
%TO.C,R20*%
X218467142Y-97712380D02*
X218133809Y-97236190D01*
X217895714Y-97712380D02*
X217895714Y-96712380D01*
X218276666Y-96712380D01*
X218371904Y-96760000D01*
X218419523Y-96807619D01*
X218467142Y-96902857D01*
X218467142Y-97045714D01*
X218419523Y-97140952D01*
X218371904Y-97188571D01*
X218276666Y-97236190D01*
X217895714Y-97236190D01*
X218848095Y-96807619D02*
X218895714Y-96760000D01*
X218990952Y-96712380D01*
X219229047Y-96712380D01*
X219324285Y-96760000D01*
X219371904Y-96807619D01*
X219419523Y-96902857D01*
X219419523Y-96998095D01*
X219371904Y-97140952D01*
X218800476Y-97712380D01*
X219419523Y-97712380D01*
X220038571Y-96712380D02*
X220133809Y-96712380D01*
X220229047Y-96760000D01*
X220276666Y-96807619D01*
X220324285Y-96902857D01*
X220371904Y-97093333D01*
X220371904Y-97331428D01*
X220324285Y-97521904D01*
X220276666Y-97617142D01*
X220229047Y-97664761D01*
X220133809Y-97712380D01*
X220038571Y-97712380D01*
X219943333Y-97664761D01*
X219895714Y-97617142D01*
X219848095Y-97521904D01*
X219800476Y-97331428D01*
X219800476Y-97093333D01*
X219848095Y-96902857D01*
X219895714Y-96807619D01*
X219943333Y-96760000D01*
X220038571Y-96712380D01*
%TO.C,J4*%
X254162380Y-45543333D02*
X254876666Y-45543333D01*
X255019523Y-45590952D01*
X255114761Y-45686190D01*
X255162380Y-45829047D01*
X255162380Y-45924285D01*
X254495714Y-44638571D02*
X255162380Y-44638571D01*
X254114761Y-44876666D02*
X254829047Y-45114761D01*
X254829047Y-44495714D01*
%TO.C,R15*%
X212427142Y-78567380D02*
X212093809Y-78091190D01*
X211855714Y-78567380D02*
X211855714Y-77567380D01*
X212236666Y-77567380D01*
X212331904Y-77615000D01*
X212379523Y-77662619D01*
X212427142Y-77757857D01*
X212427142Y-77900714D01*
X212379523Y-77995952D01*
X212331904Y-78043571D01*
X212236666Y-78091190D01*
X211855714Y-78091190D01*
X213379523Y-78567380D02*
X212808095Y-78567380D01*
X213093809Y-78567380D02*
X213093809Y-77567380D01*
X212998571Y-77710238D01*
X212903333Y-77805476D01*
X212808095Y-77853095D01*
X214284285Y-77567380D02*
X213808095Y-77567380D01*
X213760476Y-78043571D01*
X213808095Y-77995952D01*
X213903333Y-77948333D01*
X214141428Y-77948333D01*
X214236666Y-77995952D01*
X214284285Y-78043571D01*
X214331904Y-78138809D01*
X214331904Y-78376904D01*
X214284285Y-78472142D01*
X214236666Y-78519761D01*
X214141428Y-78567380D01*
X213903333Y-78567380D01*
X213808095Y-78519761D01*
X213760476Y-78472142D01*
%TO.C,R16*%
X208427142Y-78567380D02*
X208093809Y-78091190D01*
X207855714Y-78567380D02*
X207855714Y-77567380D01*
X208236666Y-77567380D01*
X208331904Y-77615000D01*
X208379523Y-77662619D01*
X208427142Y-77757857D01*
X208427142Y-77900714D01*
X208379523Y-77995952D01*
X208331904Y-78043571D01*
X208236666Y-78091190D01*
X207855714Y-78091190D01*
X209379523Y-78567380D02*
X208808095Y-78567380D01*
X209093809Y-78567380D02*
X209093809Y-77567380D01*
X208998571Y-77710238D01*
X208903333Y-77805476D01*
X208808095Y-77853095D01*
X210236666Y-77567380D02*
X210046190Y-77567380D01*
X209950952Y-77615000D01*
X209903333Y-77662619D01*
X209808095Y-77805476D01*
X209760476Y-77995952D01*
X209760476Y-78376904D01*
X209808095Y-78472142D01*
X209855714Y-78519761D01*
X209950952Y-78567380D01*
X210141428Y-78567380D01*
X210236666Y-78519761D01*
X210284285Y-78472142D01*
X210331904Y-78376904D01*
X210331904Y-78138809D01*
X210284285Y-78043571D01*
X210236666Y-77995952D01*
X210141428Y-77948333D01*
X209950952Y-77948333D01*
X209855714Y-77995952D01*
X209808095Y-78043571D01*
X209760476Y-78138809D01*
%TO.C,R26*%
X208367142Y-102612380D02*
X208033809Y-102136190D01*
X207795714Y-102612380D02*
X207795714Y-101612380D01*
X208176666Y-101612380D01*
X208271904Y-101660000D01*
X208319523Y-101707619D01*
X208367142Y-101802857D01*
X208367142Y-101945714D01*
X208319523Y-102040952D01*
X208271904Y-102088571D01*
X208176666Y-102136190D01*
X207795714Y-102136190D01*
X208748095Y-101707619D02*
X208795714Y-101660000D01*
X208890952Y-101612380D01*
X209129047Y-101612380D01*
X209224285Y-101660000D01*
X209271904Y-101707619D01*
X209319523Y-101802857D01*
X209319523Y-101898095D01*
X209271904Y-102040952D01*
X208700476Y-102612380D01*
X209319523Y-102612380D01*
X210176666Y-101612380D02*
X209986190Y-101612380D01*
X209890952Y-101660000D01*
X209843333Y-101707619D01*
X209748095Y-101850476D01*
X209700476Y-102040952D01*
X209700476Y-102421904D01*
X209748095Y-102517142D01*
X209795714Y-102564761D01*
X209890952Y-102612380D01*
X210081428Y-102612380D01*
X210176666Y-102564761D01*
X210224285Y-102517142D01*
X210271904Y-102421904D01*
X210271904Y-102183809D01*
X210224285Y-102088571D01*
X210176666Y-102040952D01*
X210081428Y-101993333D01*
X209890952Y-101993333D01*
X209795714Y-102040952D01*
X209748095Y-102088571D01*
X209700476Y-102183809D01*
%TO.C,R30*%
X218217142Y-124712380D02*
X217883809Y-124236190D01*
X217645714Y-124712380D02*
X217645714Y-123712380D01*
X218026666Y-123712380D01*
X218121904Y-123760000D01*
X218169523Y-123807619D01*
X218217142Y-123902857D01*
X218217142Y-124045714D01*
X218169523Y-124140952D01*
X218121904Y-124188571D01*
X218026666Y-124236190D01*
X217645714Y-124236190D01*
X218550476Y-123712380D02*
X219169523Y-123712380D01*
X218836190Y-124093333D01*
X218979047Y-124093333D01*
X219074285Y-124140952D01*
X219121904Y-124188571D01*
X219169523Y-124283809D01*
X219169523Y-124521904D01*
X219121904Y-124617142D01*
X219074285Y-124664761D01*
X218979047Y-124712380D01*
X218693333Y-124712380D01*
X218598095Y-124664761D01*
X218550476Y-124617142D01*
X219788571Y-123712380D02*
X219883809Y-123712380D01*
X219979047Y-123760000D01*
X220026666Y-123807619D01*
X220074285Y-123902857D01*
X220121904Y-124093333D01*
X220121904Y-124331428D01*
X220074285Y-124521904D01*
X220026666Y-124617142D01*
X219979047Y-124664761D01*
X219883809Y-124712380D01*
X219788571Y-124712380D01*
X219693333Y-124664761D01*
X219645714Y-124617142D01*
X219598095Y-124521904D01*
X219550476Y-124331428D01*
X219550476Y-124093333D01*
X219598095Y-123902857D01*
X219645714Y-123807619D01*
X219693333Y-123760000D01*
X219788571Y-123712380D01*
%TO.C,A1*%
X181275714Y-93016666D02*
X181751904Y-93016666D01*
X181180476Y-93302380D02*
X181513809Y-92302380D01*
X181847142Y-93302380D01*
X182704285Y-93302380D02*
X182132857Y-93302380D01*
X182418571Y-93302380D02*
X182418571Y-92302380D01*
X182323333Y-92445238D01*
X182228095Y-92540476D01*
X182132857Y-92588095D01*
%TO.C,R22*%
X197552380Y-121852857D02*
X197076190Y-122186190D01*
X197552380Y-122424285D02*
X196552380Y-122424285D01*
X196552380Y-122043333D01*
X196600000Y-121948095D01*
X196647619Y-121900476D01*
X196742857Y-121852857D01*
X196885714Y-121852857D01*
X196980952Y-121900476D01*
X197028571Y-121948095D01*
X197076190Y-122043333D01*
X197076190Y-122424285D01*
X196647619Y-121471904D02*
X196600000Y-121424285D01*
X196552380Y-121329047D01*
X196552380Y-121090952D01*
X196600000Y-120995714D01*
X196647619Y-120948095D01*
X196742857Y-120900476D01*
X196838095Y-120900476D01*
X196980952Y-120948095D01*
X197552380Y-121519523D01*
X197552380Y-120900476D01*
X196647619Y-120519523D02*
X196600000Y-120471904D01*
X196552380Y-120376666D01*
X196552380Y-120138571D01*
X196600000Y-120043333D01*
X196647619Y-119995714D01*
X196742857Y-119948095D01*
X196838095Y-119948095D01*
X196980952Y-119995714D01*
X197552380Y-120567142D01*
X197552380Y-119948095D01*
D12*
%TO.C,J9*%
X262737500Y-114930000D02*
X264547500Y-114930000D01*
X262737500Y-116930000D02*
X262737500Y-114930000D01*
X257437500Y-113930000D02*
X257437500Y-113190000D01*
X262737500Y-122010000D02*
X262737500Y-120010000D01*
X257437500Y-113190000D02*
X262737500Y-113190000D01*
X262737500Y-113190000D02*
X262737500Y-123750000D01*
X262737500Y-123750000D02*
X257437500Y-123750000D01*
X264547500Y-120010000D02*
X264547500Y-122010000D01*
X265347500Y-116230000D02*
X264747500Y-115930000D01*
X265347500Y-115630000D02*
X265347500Y-116230000D01*
X257437500Y-123750000D02*
X257437500Y-123010000D01*
X263737500Y-124660000D02*
X263737500Y-122120000D01*
X255727500Y-124660000D02*
X264547500Y-124660000D01*
X262737500Y-120010000D02*
X264547500Y-120010000D01*
X264547500Y-116930000D02*
X262737500Y-116930000D01*
X264547500Y-122010000D02*
X262737500Y-122010000D01*
X264547500Y-124660000D02*
X264547500Y-112280000D01*
X264547500Y-114930000D02*
X264547500Y-116930000D01*
X264747500Y-115930000D02*
X265347500Y-115630000D01*
X255727500Y-112280000D02*
X255727500Y-124660000D01*
X264547500Y-112280000D02*
X255727500Y-112280000D01*
X257437500Y-117930000D02*
X257437500Y-119010000D01*
X263737500Y-112280000D02*
X263737500Y-114820000D01*
X263737500Y-116930000D02*
X263737500Y-120010000D01*
X257437500Y-113930000D02*
G75*
G03*
X257421679Y-117916842I1650000J-2000000D01*
G01*
X257437500Y-119010000D02*
G75*
G03*
X257421679Y-122996842I1650000J-2000000D01*
G01*
%TO.C,Q4*%
X206950000Y-81740000D02*
X206950000Y-86381000D01*
X213921000Y-81740000D02*
X213921000Y-83250000D01*
X206950000Y-86381000D02*
X217190000Y-86381000D01*
X206950000Y-81740000D02*
X217190000Y-81740000D01*
X206950000Y-83250000D02*
X217190000Y-83250000D01*
X210220000Y-81740000D02*
X210220000Y-83250000D01*
X217190000Y-81740000D02*
X217190000Y-86381000D01*
%TO.C,R17*%
X254730000Y-46390000D02*
X245490000Y-46390000D01*
X245490000Y-51010000D02*
X241450000Y-51010000D01*
X245490000Y-55630000D02*
X254730000Y-55630000D01*
X254730000Y-55630000D02*
X254730000Y-46390000D01*
X245490000Y-46390000D02*
X245490000Y-55630000D01*
%TO.C,C17*%
X237820000Y-78010000D02*
G75*
G03*
X237820000Y-78010000I-8120000J0D01*
G01*
%TO.C,R3*%
X197035000Y-74492064D02*
X197035000Y-74037936D01*
X198505000Y-74492064D02*
X198505000Y-74037936D01*
%TO.C,R1*%
X197035000Y-47387064D02*
X197035000Y-46932936D01*
X198505000Y-47387064D02*
X198505000Y-46932936D01*
%TO.C,C25*%
X250820000Y-118510000D02*
G75*
G03*
X250820000Y-118510000I-8120000J0D01*
G01*
%TO.C,J7*%
X264547500Y-93050000D02*
X264547500Y-95050000D01*
X264547500Y-95050000D02*
X262737500Y-95050000D01*
X257437500Y-90970000D02*
X257437500Y-92050000D01*
X264547500Y-87970000D02*
X264547500Y-89970000D01*
X262737500Y-89970000D02*
X262737500Y-87970000D01*
X264547500Y-89970000D02*
X262737500Y-89970000D01*
X264747500Y-88970000D02*
X265347500Y-88670000D01*
X262737500Y-96790000D02*
X257437500Y-96790000D01*
X257437500Y-86970000D02*
X257437500Y-86230000D01*
X255727500Y-85320000D02*
X255727500Y-97700000D01*
X257437500Y-86230000D02*
X262737500Y-86230000D01*
X265347500Y-89270000D02*
X264747500Y-88970000D01*
X264547500Y-97700000D02*
X264547500Y-85320000D01*
X262737500Y-95050000D02*
X262737500Y-93050000D01*
X263737500Y-97700000D02*
X263737500Y-95160000D01*
X263737500Y-89970000D02*
X263737500Y-93050000D01*
X262737500Y-93050000D02*
X264547500Y-93050000D01*
X257437500Y-96790000D02*
X257437500Y-96050000D01*
X262737500Y-87970000D02*
X264547500Y-87970000D01*
X255727500Y-97700000D02*
X264547500Y-97700000D01*
X262737500Y-86230000D02*
X262737500Y-96790000D01*
X263737500Y-85320000D02*
X263737500Y-87860000D01*
X264547500Y-85320000D02*
X255727500Y-85320000D01*
X265347500Y-88670000D02*
X265347500Y-89270000D01*
X257437500Y-86970000D02*
G75*
G03*
X257421679Y-90956842I1650000J-2000000D01*
G01*
X257437500Y-92050000D02*
G75*
G03*
X257421679Y-96036842I1650000J-2000000D01*
G01*
%TO.C,C5*%
X200755000Y-46936248D02*
X200755000Y-47458752D01*
X199285000Y-46936248D02*
X199285000Y-47458752D01*
%TO.C,C24*%
X237820000Y-105010000D02*
G75*
G03*
X237820000Y-105010000I-8120000J0D01*
G01*
%TO.C,R18*%
X227160000Y-59890000D02*
X217920000Y-59890000D01*
X217920000Y-59890000D02*
X217920000Y-69130000D01*
X217920000Y-69130000D02*
X227160000Y-69130000D01*
X227160000Y-64510000D02*
X231200000Y-64510000D01*
X227160000Y-69130000D02*
X227160000Y-59890000D01*
%TO.C,Q5*%
X213921000Y-96595000D02*
X213921000Y-98105000D01*
X210220000Y-96595000D02*
X210220000Y-98105000D01*
X206950000Y-98105000D02*
X217190000Y-98105000D01*
X206950000Y-101236000D02*
X217190000Y-101236000D01*
X217190000Y-96595000D02*
X217190000Y-101236000D01*
X206950000Y-96595000D02*
X206950000Y-101236000D01*
X206950000Y-96595000D02*
X217190000Y-96595000D01*
%TO.C,Q3*%
X206950000Y-69395000D02*
X206950000Y-74036000D01*
X213921000Y-69395000D02*
X213921000Y-70905000D01*
X206950000Y-74036000D02*
X217190000Y-74036000D01*
X206950000Y-69395000D02*
X217190000Y-69395000D01*
X217190000Y-69395000D02*
X217190000Y-74036000D01*
X206950000Y-70905000D02*
X217190000Y-70905000D01*
X210220000Y-69395000D02*
X210220000Y-70905000D01*
%TO.C,J6*%
X255727500Y-71820000D02*
X255727500Y-84200000D01*
X262737500Y-81550000D02*
X262737500Y-79550000D01*
X264747500Y-75470000D02*
X265347500Y-75170000D01*
X264547500Y-79550000D02*
X264547500Y-81550000D01*
X255727500Y-84200000D02*
X264547500Y-84200000D01*
X264547500Y-74470000D02*
X264547500Y-76470000D01*
X265347500Y-75770000D02*
X264747500Y-75470000D01*
X263737500Y-71820000D02*
X263737500Y-74360000D01*
X263737500Y-84200000D02*
X263737500Y-81660000D01*
X262737500Y-76470000D02*
X262737500Y-74470000D01*
X257437500Y-77470000D02*
X257437500Y-78550000D01*
X263737500Y-76470000D02*
X263737500Y-79550000D01*
X262737500Y-74470000D02*
X264547500Y-74470000D01*
X257437500Y-73470000D02*
X257437500Y-72730000D01*
X264547500Y-84200000D02*
X264547500Y-71820000D01*
X262737500Y-83290000D02*
X257437500Y-83290000D01*
X262737500Y-79550000D02*
X264547500Y-79550000D01*
X262737500Y-72730000D02*
X262737500Y-83290000D01*
X257437500Y-83290000D02*
X257437500Y-82550000D01*
X264547500Y-76470000D02*
X262737500Y-76470000D01*
X264547500Y-71820000D02*
X255727500Y-71820000D01*
X265347500Y-75170000D02*
X265347500Y-75770000D01*
X264547500Y-81550000D02*
X262737500Y-81550000D01*
X257437500Y-72730000D02*
X262737500Y-72730000D01*
X257437500Y-78550000D02*
G75*
G03*
X257421679Y-82536842I1650000J-2000000D01*
G01*
X257437500Y-73470000D02*
G75*
G03*
X257421679Y-77456842I1650000J-2000000D01*
G01*
%TO.C,U2*%
X201355000Y-82440000D02*
X201355000Y-80490000D01*
X206475000Y-82440000D02*
X206475000Y-78990000D01*
X206475000Y-82440000D02*
X206475000Y-84390000D01*
X201355000Y-82440000D02*
X201355000Y-84390000D01*
%TO.C,C19*%
X199035000Y-101291248D02*
X199035000Y-101813752D01*
X200505000Y-101291248D02*
X200505000Y-101813752D01*
%TO.C,R24*%
X200975000Y-117992064D02*
X200975000Y-117537936D01*
X202445000Y-117992064D02*
X202445000Y-117537936D01*
%TO.C,C13*%
X204995000Y-90286248D02*
X204995000Y-90808752D01*
X203525000Y-90286248D02*
X203525000Y-90808752D01*
%TO.C,C21*%
X203535000Y-101738752D02*
X203535000Y-101216248D01*
X205005000Y-101738752D02*
X205005000Y-101216248D01*
%TO.C,R28*%
X208842936Y-107750000D02*
X209297064Y-107750000D01*
X208842936Y-106280000D02*
X209297064Y-106280000D01*
%TO.C,C18*%
X250820000Y-91510000D02*
G75*
G03*
X250820000Y-91510000I-8120000J0D01*
G01*
%TO.C,C7*%
X200755000Y-74041248D02*
X200755000Y-74563752D01*
X199285000Y-74041248D02*
X199285000Y-74563752D01*
%TO.C,C20*%
X200195000Y-117988752D02*
X200195000Y-117466248D01*
X198725000Y-117988752D02*
X198725000Y-117466248D01*
%TO.C,R9*%
X212782936Y-50145000D02*
X213237064Y-50145000D01*
X212782936Y-48675000D02*
X213237064Y-48675000D01*
%TO.C,Q6*%
X206950000Y-108940000D02*
X217190000Y-108940000D01*
X213921000Y-108940000D02*
X213921000Y-110450000D01*
X206950000Y-108940000D02*
X206950000Y-113581000D01*
X206950000Y-113581000D02*
X217190000Y-113581000D01*
X206950000Y-110450000D02*
X217190000Y-110450000D01*
X210220000Y-108940000D02*
X210220000Y-110450000D01*
X217190000Y-108940000D02*
X217190000Y-113581000D01*
%TO.C,R29*%
X254730000Y-100390000D02*
X245490000Y-100390000D01*
X245490000Y-105010000D02*
X241450000Y-105010000D01*
X254730000Y-109630000D02*
X254730000Y-100390000D01*
X245490000Y-109630000D02*
X254730000Y-109630000D01*
X245490000Y-100390000D02*
X245490000Y-109630000D01*
%TO.C,J3*%
X162890000Y-48520000D02*
X170570000Y-48520000D01*
X160290000Y-48520000D02*
X160290000Y-47190000D01*
X161620000Y-48520000D02*
X160290000Y-48520000D01*
X162890000Y-45860000D02*
X170570000Y-45860000D01*
X170570000Y-48520000D02*
X170570000Y-45860000D01*
X162890000Y-48520000D02*
X162890000Y-45860000D01*
%TO.C,R14*%
X208842936Y-77145000D02*
X209297064Y-77145000D01*
X208842936Y-75675000D02*
X209297064Y-75675000D01*
%TO.C,R11*%
X212842936Y-51925000D02*
X213297064Y-51925000D01*
X212842936Y-53395000D02*
X213297064Y-53395000D01*
%TO.C,R19*%
X254890000Y-82630000D02*
X254890000Y-73390000D01*
X245650000Y-73390000D02*
X245650000Y-82630000D01*
X254890000Y-73390000D02*
X245650000Y-73390000D01*
X245650000Y-78010000D02*
X241610000Y-78010000D01*
X245650000Y-82630000D02*
X254890000Y-82630000D01*
%TO.C,J8*%
X263737500Y-98820000D02*
X263737500Y-101360000D01*
X262737500Y-110290000D02*
X257437500Y-110290000D01*
X264547500Y-103470000D02*
X262737500Y-103470000D01*
X265347500Y-102170000D02*
X265347500Y-102770000D01*
X262737500Y-101470000D02*
X264547500Y-101470000D01*
X255727500Y-98820000D02*
X255727500Y-111200000D01*
X264547500Y-111200000D02*
X264547500Y-98820000D01*
X264547500Y-98820000D02*
X255727500Y-98820000D01*
X257437500Y-110290000D02*
X257437500Y-109550000D01*
X263737500Y-103470000D02*
X263737500Y-106550000D01*
X264747500Y-102470000D02*
X265347500Y-102170000D01*
X264547500Y-101470000D02*
X264547500Y-103470000D01*
X262737500Y-103470000D02*
X262737500Y-101470000D01*
X263737500Y-111200000D02*
X263737500Y-108660000D01*
X262737500Y-99730000D02*
X262737500Y-110290000D01*
X262737500Y-108550000D02*
X262737500Y-106550000D01*
X264547500Y-108550000D02*
X262737500Y-108550000D01*
X255727500Y-111200000D02*
X264547500Y-111200000D01*
X265347500Y-102770000D02*
X264747500Y-102470000D01*
X257437500Y-104470000D02*
X257437500Y-105550000D01*
X262737500Y-106550000D02*
X264547500Y-106550000D01*
X257437500Y-99730000D02*
X262737500Y-99730000D01*
X264547500Y-106550000D02*
X264547500Y-108550000D01*
X257437500Y-100470000D02*
X257437500Y-99730000D01*
X257437500Y-105550000D02*
G75*
G03*
X257421679Y-109536842I1650000J-2000000D01*
G01*
X257437500Y-100470000D02*
G75*
G03*
X257421679Y-104456842I1650000J-2000000D01*
G01*
%TO.C,C12*%
X205255000Y-74488752D02*
X205255000Y-73966248D01*
X203785000Y-74488752D02*
X203785000Y-73966248D01*
%TO.C,R5*%
X201535000Y-46932936D02*
X201535000Y-47387064D01*
X203005000Y-46932936D02*
X203005000Y-47387064D01*
%TO.C,Q1*%
X206890000Y-43650000D02*
X217130000Y-43650000D01*
X206890000Y-46781000D02*
X217130000Y-46781000D01*
X206890000Y-42140000D02*
X206890000Y-46781000D01*
X217130000Y-42140000D02*
X217130000Y-46781000D01*
X206890000Y-42140000D02*
X217130000Y-42140000D01*
X213861000Y-42140000D02*
X213861000Y-43650000D01*
X210160000Y-42140000D02*
X210160000Y-43650000D01*
%TO.C,R2*%
X198345000Y-63145436D02*
X198345000Y-63599564D01*
X196875000Y-63145436D02*
X196875000Y-63599564D01*
%TO.C,C11*%
X203625000Y-63148748D02*
X203625000Y-63671252D01*
X205095000Y-63148748D02*
X205095000Y-63671252D01*
%TO.C,C15*%
X237820000Y-51010000D02*
G75*
G03*
X237820000Y-51010000I-8120000J0D01*
G01*
%TO.C,C1*%
X200555000Y-57383752D02*
X200555000Y-56861248D01*
X199085000Y-57383752D02*
X199085000Y-56861248D01*
%TO.C,J2*%
X161660000Y-91700000D02*
X160330000Y-91700000D01*
X170610000Y-91700000D02*
X170610000Y-89040000D01*
X162930000Y-89040000D02*
X170610000Y-89040000D01*
X162930000Y-91700000D02*
X170610000Y-91700000D01*
X162930000Y-91700000D02*
X162930000Y-89040000D01*
X160330000Y-91700000D02*
X160330000Y-90370000D01*
%TO.C,J5*%
X264547500Y-70450000D02*
X264547500Y-58070000D01*
X255727500Y-58070000D02*
X255727500Y-70450000D01*
X262737500Y-69540000D02*
X257437500Y-69540000D01*
X264547500Y-60720000D02*
X264547500Y-62720000D01*
X264747500Y-61720000D02*
X265347500Y-61420000D01*
X257437500Y-58980000D02*
X262737500Y-58980000D01*
X263737500Y-58070000D02*
X263737500Y-60610000D01*
X264547500Y-67800000D02*
X262737500Y-67800000D01*
X262737500Y-58980000D02*
X262737500Y-69540000D01*
X262737500Y-65800000D02*
X264547500Y-65800000D01*
X263737500Y-62720000D02*
X263737500Y-65800000D01*
X257437500Y-59720000D02*
X257437500Y-58980000D01*
X255727500Y-70450000D02*
X264547500Y-70450000D01*
X263737500Y-70450000D02*
X263737500Y-67910000D01*
X264547500Y-65800000D02*
X264547500Y-67800000D01*
X257437500Y-69540000D02*
X257437500Y-68800000D01*
X257437500Y-63720000D02*
X257437500Y-64800000D01*
X262737500Y-62720000D02*
X262737500Y-60720000D01*
X262737500Y-60720000D02*
X264547500Y-60720000D01*
X264547500Y-62720000D02*
X262737500Y-62720000D01*
X264547500Y-58070000D02*
X255727500Y-58070000D01*
X265347500Y-61420000D02*
X265347500Y-62020000D01*
X262737500Y-67800000D02*
X262737500Y-65800000D01*
X265347500Y-62020000D02*
X264747500Y-61720000D01*
X257437500Y-59720000D02*
G75*
G03*
X257421679Y-63706842I1650000J-2000000D01*
G01*
X257437500Y-64800000D02*
G75*
G03*
X257421679Y-68786842I1650000J-2000000D01*
G01*
%TO.C,R10*%
X208782936Y-48675000D02*
X209237064Y-48675000D01*
X208782936Y-50145000D02*
X209237064Y-50145000D01*
%TO.C,C3*%
X200255000Y-111738752D02*
X200255000Y-111216248D01*
X198785000Y-111738752D02*
X198785000Y-111216248D01*
%TO.C,R27*%
X212842936Y-107750000D02*
X213297064Y-107750000D01*
X212842936Y-106280000D02*
X213297064Y-106280000D01*
%TO.C,R25*%
X212782936Y-104545000D02*
X213237064Y-104545000D01*
X212782936Y-103075000D02*
X213237064Y-103075000D01*
%TO.C,C2*%
X200555000Y-84488752D02*
X200555000Y-83966248D01*
X199085000Y-84488752D02*
X199085000Y-83966248D01*
%TO.C,R12*%
X208842936Y-53395000D02*
X209297064Y-53395000D01*
X208842936Y-51925000D02*
X209297064Y-51925000D01*
%TO.C,C23*%
X180610000Y-114501248D02*
X180610000Y-115023752D01*
X179140000Y-114501248D02*
X179140000Y-115023752D01*
%TO.C,J1*%
X165700000Y-123990000D02*
X160400000Y-123990000D01*
X165700000Y-123250000D02*
X165700000Y-123990000D01*
X160400000Y-122250000D02*
X158590000Y-122250000D01*
X158590000Y-112520000D02*
X158590000Y-124900000D01*
X158390000Y-121250000D02*
X157790000Y-121550000D01*
X157790000Y-121550000D02*
X157790000Y-120950000D01*
X160400000Y-120250000D02*
X160400000Y-122250000D01*
X167410000Y-124900000D02*
X167410000Y-112520000D01*
X158590000Y-124900000D02*
X167410000Y-124900000D01*
X159400000Y-120250000D02*
X159400000Y-117170000D01*
X160400000Y-113430000D02*
X165700000Y-113430000D01*
X159400000Y-112520000D02*
X159400000Y-115060000D01*
X167410000Y-112520000D02*
X158590000Y-112520000D01*
X165700000Y-113430000D02*
X165700000Y-114170000D01*
X158590000Y-122250000D02*
X158590000Y-120250000D01*
X160400000Y-117170000D02*
X158590000Y-117170000D01*
X160400000Y-123990000D02*
X160400000Y-113430000D01*
X158590000Y-120250000D02*
X160400000Y-120250000D01*
X165700000Y-119250000D02*
X165700000Y-118170000D01*
X159400000Y-124900000D02*
X159400000Y-122360000D01*
X160400000Y-115170000D02*
X160400000Y-117170000D01*
X157790000Y-120950000D02*
X158390000Y-121250000D01*
X158590000Y-115170000D02*
X160400000Y-115170000D01*
X158590000Y-117170000D02*
X158590000Y-115170000D01*
X165700000Y-118170000D02*
G75*
G03*
X165715821Y-114183158I-1650000J2000000D01*
G01*
X165700000Y-123250000D02*
G75*
G03*
X165715821Y-119263158I-1650000J2000000D01*
G01*
%TO.C,R13*%
X212842936Y-75675000D02*
X213297064Y-75675000D01*
X212842936Y-77145000D02*
X213297064Y-77145000D01*
%TO.C,Q2*%
X206950000Y-54740000D02*
X206950000Y-59381000D01*
X217190000Y-54740000D02*
X217190000Y-59381000D01*
X210220000Y-54740000D02*
X210220000Y-56250000D01*
X206950000Y-56250000D02*
X217190000Y-56250000D01*
X206950000Y-54740000D02*
X217190000Y-54740000D01*
X213921000Y-54740000D02*
X213921000Y-56250000D01*
X206950000Y-59381000D02*
X217190000Y-59381000D01*
%TO.C,R23*%
X202755000Y-101287936D02*
X202755000Y-101742064D01*
X201285000Y-101287936D02*
X201285000Y-101742064D01*
%TO.C,J10*%
X165700000Y-109750000D02*
G75*
G03*
X165715821Y-105763158I-1650000J2000000D01*
G01*
X165700000Y-104670000D02*
G75*
G03*
X165715821Y-100683158I-1650000J2000000D01*
G01*
X165700000Y-99930000D02*
X165700000Y-100670000D01*
X165700000Y-109750000D02*
X165700000Y-110490000D01*
X160400000Y-103670000D02*
X158590000Y-103670000D01*
X160400000Y-106750000D02*
X160400000Y-108750000D01*
X159400000Y-111400000D02*
X159400000Y-108860000D01*
X165700000Y-110490000D02*
X160400000Y-110490000D01*
X165700000Y-105750000D02*
X165700000Y-104670000D01*
X160400000Y-110490000D02*
X160400000Y-99930000D01*
X159400000Y-106750000D02*
X159400000Y-103670000D01*
X158590000Y-103670000D02*
X158590000Y-101670000D01*
X157790000Y-107450000D02*
X158390000Y-107750000D01*
X158590000Y-111400000D02*
X167410000Y-111400000D01*
X157790000Y-108050000D02*
X157790000Y-107450000D01*
X160400000Y-101670000D02*
X160400000Y-103670000D01*
X160400000Y-108750000D02*
X158590000Y-108750000D01*
X167410000Y-111400000D02*
X167410000Y-99020000D01*
X158590000Y-108750000D02*
X158590000Y-106750000D01*
X159400000Y-99020000D02*
X159400000Y-101560000D01*
X158590000Y-106750000D02*
X160400000Y-106750000D01*
X160400000Y-99930000D02*
X165700000Y-99930000D01*
X158390000Y-107750000D02*
X157790000Y-108050000D01*
X158590000Y-101670000D02*
X160400000Y-101670000D01*
X158590000Y-99020000D02*
X158590000Y-111400000D01*
X167410000Y-99020000D02*
X158590000Y-99020000D01*
%TO.C,R7*%
X203005000Y-74037936D02*
X203005000Y-74492064D01*
X201535000Y-74037936D02*
X201535000Y-74492064D01*
%TO.C,R8*%
X201275000Y-90737064D02*
X201275000Y-90282936D01*
X202745000Y-90737064D02*
X202745000Y-90282936D01*
%TO.C,C10*%
X203785000Y-47383752D02*
X203785000Y-46861248D01*
X205255000Y-47383752D02*
X205255000Y-46861248D01*
%TO.C,R4*%
X196775000Y-90282936D02*
X196775000Y-90737064D01*
X198245000Y-90282936D02*
X198245000Y-90737064D01*
%TO.C,R21*%
X196785000Y-101742064D02*
X196785000Y-101287936D01*
X198255000Y-101742064D02*
X198255000Y-101287936D01*
%TO.C,C16*%
X251070000Y-64510000D02*
G75*
G03*
X251070000Y-64510000I-8120000J0D01*
G01*
%TO.C,U7*%
X185790000Y-106625000D02*
X185790000Y-107725000D01*
X177200000Y-106625000D02*
X179010000Y-106625000D01*
X179010000Y-106625000D02*
X179010000Y-111750000D01*
X187600000Y-106625000D02*
X185790000Y-106625000D01*
X187600000Y-105125000D02*
X187600000Y-106625000D01*
X177200000Y-105125000D02*
X177200000Y-106625000D01*
%TO.C,C8*%
X200495000Y-90733752D02*
X200495000Y-90211248D01*
X199025000Y-90733752D02*
X199025000Y-90211248D01*
%TO.C,U1*%
X206535000Y-55335000D02*
X206535000Y-57285000D01*
X201415000Y-55335000D02*
X201415000Y-53385000D01*
X201415000Y-55335000D02*
X201415000Y-57285000D01*
X206535000Y-55335000D02*
X206535000Y-51885000D01*
%TO.C,C6*%
X200595000Y-63596252D02*
X200595000Y-63073748D01*
X199125000Y-63596252D02*
X199125000Y-63073748D01*
%TO.C,U3*%
X206225000Y-109690000D02*
X206225000Y-111640000D01*
X206225000Y-109690000D02*
X206225000Y-106240000D01*
X201105000Y-109690000D02*
X201105000Y-111640000D01*
X201105000Y-109690000D02*
X201105000Y-107740000D01*
%TO.C,C26*%
X184140000Y-114501248D02*
X184140000Y-115023752D01*
X185610000Y-114501248D02*
X185610000Y-115023752D01*
%TO.C,R6*%
X202845000Y-63599564D02*
X202845000Y-63145436D01*
X201375000Y-63599564D02*
X201375000Y-63145436D01*
%TO.C,C22*%
X203225000Y-117541248D02*
X203225000Y-118063752D01*
X204695000Y-117541248D02*
X204695000Y-118063752D01*
%TO.C,R20*%
X217830000Y-86890000D02*
X217830000Y-96130000D01*
X227070000Y-91510000D02*
X231110000Y-91510000D01*
X217830000Y-96130000D02*
X227070000Y-96130000D01*
X227070000Y-86890000D02*
X217830000Y-86890000D01*
X227070000Y-96130000D02*
X227070000Y-86890000D01*
%TO.C,J4*%
X262737500Y-54550000D02*
X262737500Y-52550000D01*
X264547500Y-49470000D02*
X262737500Y-49470000D01*
X257437500Y-46470000D02*
X257437500Y-45730000D01*
X264547500Y-44820000D02*
X255727500Y-44820000D01*
X262737500Y-47470000D02*
X264547500Y-47470000D01*
X265347500Y-48170000D02*
X265347500Y-48770000D01*
X262737500Y-56290000D02*
X257437500Y-56290000D01*
X255727500Y-44820000D02*
X255727500Y-57200000D01*
X265347500Y-48770000D02*
X264747500Y-48470000D01*
X264547500Y-47470000D02*
X264547500Y-49470000D01*
X262737500Y-49470000D02*
X262737500Y-47470000D01*
X262737500Y-45730000D02*
X262737500Y-56290000D01*
X264547500Y-57200000D02*
X264547500Y-44820000D01*
X264547500Y-52550000D02*
X264547500Y-54550000D01*
X257437500Y-50470000D02*
X257437500Y-51550000D01*
X262737500Y-52550000D02*
X264547500Y-52550000D01*
X264747500Y-48470000D02*
X265347500Y-48170000D01*
X263737500Y-49470000D02*
X263737500Y-52550000D01*
X263737500Y-57200000D02*
X263737500Y-54660000D01*
X257437500Y-45730000D02*
X262737500Y-45730000D01*
X257437500Y-56290000D02*
X257437500Y-55550000D01*
X264547500Y-54550000D02*
X262737500Y-54550000D01*
X263737500Y-44820000D02*
X263737500Y-47360000D01*
X255727500Y-57200000D02*
X264547500Y-57200000D01*
X257437500Y-46470000D02*
G75*
G03*
X257421679Y-50456842I1650000J-2000000D01*
G01*
X257437500Y-51550000D02*
G75*
G03*
X257421679Y-55536842I1650000J-2000000D01*
G01*
%TO.C,R15*%
X212842936Y-80500000D02*
X213297064Y-80500000D01*
X212842936Y-79030000D02*
X213297064Y-79030000D01*
%TO.C,R16*%
X208842936Y-79030000D02*
X209297064Y-79030000D01*
X208842936Y-80500000D02*
X209297064Y-80500000D01*
%TO.C,R26*%
X208782936Y-103075000D02*
X209237064Y-103075000D01*
X208782936Y-104545000D02*
X209237064Y-104545000D01*
%TO.C,R30*%
X226910000Y-123130000D02*
X226910000Y-113890000D01*
X226910000Y-118510000D02*
X230950000Y-118510000D01*
X217670000Y-123130000D02*
X226910000Y-123130000D01*
X226910000Y-113890000D02*
X217670000Y-113890000D01*
X217670000Y-113890000D02*
X217670000Y-123130000D01*
%TO.C,A1*%
X191010000Y-86500000D02*
X191010000Y-48270000D01*
X172970000Y-48270000D02*
X172970000Y-91710000D01*
X188340000Y-50940000D02*
X191010000Y-50940000D01*
X188340000Y-86500000D02*
X188340000Y-89040000D01*
X188340000Y-86500000D02*
X188340000Y-50940000D01*
X175640000Y-89040000D02*
X172970000Y-89040000D01*
X175640000Y-89040000D02*
X175640000Y-50940000D01*
X191010000Y-48270000D02*
X172970000Y-48270000D01*
X188340000Y-86500000D02*
X191010000Y-86500000D01*
X172970000Y-91710000D02*
X191010000Y-91710000D01*
X175640000Y-50940000D02*
X172970000Y-50940000D01*
X188340000Y-89040000D02*
X191010000Y-89040000D01*
X191010000Y-91710000D02*
X191010000Y-89040000D01*
%TO.C,R22*%
X196475000Y-117537936D02*
X196475000Y-117992064D01*
X197945000Y-117537936D02*
X197945000Y-117992064D01*
%TD*%
M02*
