M48
; DRILL file {KiCad (6.0.7)} date Wed Feb 22 11:31:23 2023
; FORMAT={-:-/ absolute / inch / decimal}
; #@! TF.CreationDate,2023-02-22T11:31:23+02:00
; #@! TF.GenerationSoftware,Kicad,Pcbnew,(6.0.7)
; #@! TF.FileFunction,Plated,1,2,PTH
FMAT,2
INCH
; #@! TA.AperFunction,Plated,PTH,ViaDrill
T1C0.0157
; #@! TA.AperFunction,Plated,PTH,ComponentDrill
T2C0.0394
; #@! TA.AperFunction,Plated,PTH,ComponentDrill
T3C0.0433
; #@! TA.AperFunction,Plated,PTH,ComponentDrill
T4C0.0472
; #@! TA.AperFunction,Plated,PTH,ComponentDrill
T5C0.0551
%
G90
G05
T1
X6.2697Y-4.9409
X6.2795Y-4.7736
X6.3287Y-4.8622
X6.4075Y-4.9409
X7.0128Y-3.9065
X7.0128Y-3.9754
X7.0128Y-4.0443
X7.0226Y-3.8179
X7.062Y-4.0935
X7.0915Y-3.7982
X7.1014Y-3.8868
X7.1801Y-4.2411
X7.1801Y-4.31
X7.1801Y-4.3789
X7.2126Y-3.2913
X7.2244Y-3.122
X7.249Y-3.8081
X7.2589Y-3.8967
X7.2835Y-3.2087
X7.3081Y-4.0935
X7.3376Y-3.8179
X7.3376Y-3.8967
X7.3474Y-3.9754
X7.3474Y-4.0541
X7.3583Y-3.2835
X7.3622Y-3.1417
X7.5472Y-2.8543
X7.5512Y-2.4173
X7.5512Y-3.0591
X7.5591Y-2.2047
X7.5591Y-2.3031
X7.5591Y-2.7067
X7.5591Y-3.4646
X7.563Y-3.252
X7.5669Y-2.5984
X7.5669Y-4.5709
X7.5748Y-4.3976
X7.5988Y-2.8114
X7.6024Y-2.9016
X7.6303Y-2.7012
X7.6539Y-2.6067
X7.6618Y-2.4098
X7.6693Y-2.2051
X7.7075Y-1.9453
X7.7075Y-2.0437
X7.7327Y-2.3094
X7.737Y-3.3667
X7.7406Y-3.4413
X7.7469Y-3.2191
X7.7484Y-3.0398
X7.7484Y-4.5201
X7.7567Y-4.2526
X7.7598Y-4.126
X7.7839Y-2.2051
X7.7961Y-4.1738
X7.8268Y-4.2756
X7.8272Y-3.1185
X7.8551Y-2.0339
X7.8551Y-4.4297
X7.865Y-2.2898
X7.865Y-3.3569
X7.8689Y-2.1343
X7.8748Y-2.3685
X7.8823Y-3.4492
X7.924Y-1.9748
X7.9335Y-3.0476
X7.9535Y-2.1618
X8.0476Y-4.1343
X8.052Y-2.3685
X8.0634Y-1.9925
X8.0634Y-3.0555
X8.2681Y-1.9453
X8.2681Y-3.0083
X8.2681Y-4.087
X10.211Y-4.9413
X10.2307Y-1.7327
X10.2799Y-4.8921
X10.2996Y-1.8016
X10.3587Y-4.9413
X10.3685Y-1.7228
X10.3685Y-1.8803
X10.3685Y-4.8528
T2
X6.363Y-1.8579
X6.3646Y-3.5579
X6.463Y-1.8579
X6.4646Y-3.5579
X6.563Y-1.8579
X6.5646Y-3.5579
X6.663Y-1.8579
X6.6646Y-3.5579
X6.865Y-2.0555
X6.865Y-2.1555
X6.865Y-2.2555
X6.865Y-2.3555
X6.865Y-2.4555
X6.865Y-2.5555
X6.865Y-2.6555
X6.865Y-2.7555
X6.865Y-2.8555
X6.865Y-2.9555
X6.865Y-3.0555
X6.865Y-3.1555
X6.865Y-3.2555
X6.865Y-3.3555
X6.865Y-3.4555
X7.465Y-2.0555
X7.465Y-2.1555
X7.465Y-2.2555
X7.465Y-2.3555
X7.465Y-2.4555
X7.465Y-2.5555
X7.465Y-2.6555
X7.465Y-2.7555
X7.465Y-2.8555
X7.465Y-2.9555
X7.465Y-3.0555
X7.465Y-3.1555
X7.465Y-3.2555
X7.465Y-3.3555
X7.465Y-3.4555
X9.0433Y-1.8606
X9.0433Y-2.1559
X9.0433Y-2.9236
X9.0433Y-3.2189
X9.0433Y-3.9866
X9.0433Y-4.2819
X9.5551Y-3.4551
X9.5551Y-3.7504
X9.5551Y-4.5181
X9.5551Y-4.8134
X9.565Y-2.3921
X9.565Y-2.6874
T3
X8.2469Y-1.7878
X8.2492Y-2.2839
X8.2492Y-2.8608
X8.2492Y-3.3469
X8.2492Y-3.9317
X8.2492Y-4.4177
X8.3469Y-1.7878
X8.3492Y-2.2839
X8.3492Y-2.8608
X8.3492Y-3.3469
X8.3492Y-3.9317
X8.3492Y-4.4177
X8.4469Y-1.7878
X8.4492Y-2.2839
X8.4492Y-2.8608
X8.4492Y-3.3469
X8.4492Y-3.9317
X8.4492Y-4.4177
T4
X8.7516Y-4.6657
X8.7579Y-3.6028
X8.7614Y-2.5398
X9.1516Y-4.6657
X9.1579Y-3.6028
X9.1614Y-2.5398
X9.4469Y-2.0083
X9.4469Y-4.1343
X9.4531Y-3.0713
X9.8469Y-2.0083
X9.8469Y-4.1343
X9.8531Y-3.0713
T5
X6.437Y-4.0421
X6.437Y-4.2421
X6.437Y-4.5736
X6.437Y-4.7736
X10.2219Y-1.9083
X10.2219Y-2.1083
X10.2219Y-2.4299
X10.2219Y-2.6299
X10.2219Y-2.9713
X10.2219Y-3.1713
X10.2219Y-3.5028
X10.2219Y-3.7028
X10.2219Y-4.0343
X10.2219Y-4.2343
X10.2219Y-4.5642
X10.2219Y-4.7642
T0
M30
