%TF.GenerationSoftware,KiCad,Pcbnew,(6.0.7)*%
%TF.CreationDate,2023-02-22T11:31:18+02:00*%
%TF.ProjectId,Lamps_Type5,4c616d70-735f-4547-9970-65352e6b6963,rev?*%
%TF.SameCoordinates,Original*%
%TF.FileFunction,Paste,Top*%
%TF.FilePolarity,Positive*%
%FSLAX46Y46*%
G04 Gerber Fmt 4.6, Leading zero omitted, Abs format (unit mm)*
G04 Created by KiCad (PCBNEW (6.0.7)) date 2023-02-22 11:31:18*
%MOMM*%
%LPD*%
G01*
G04 APERTURE LIST*
G04 Aperture macros list*
%AMRoundRect*
0 Rectangle with rounded corners*
0 $1 Rounding radius*
0 $2 $3 $4 $5 $6 $7 $8 $9 X,Y pos of 4 corners*
0 Add a 4 corners polygon primitive as box body*
4,1,4,$2,$3,$4,$5,$6,$7,$8,$9,$2,$3,0*
0 Add four circle primitives for the rounded corners*
1,1,$1+$1,$2,$3*
1,1,$1+$1,$4,$5*
1,1,$1+$1,$6,$7*
1,1,$1+$1,$8,$9*
0 Add four rect primitives between the rounded corners*
20,1,$1+$1,$2,$3,$4,$5,0*
20,1,$1+$1,$4,$5,$6,$7,0*
20,1,$1+$1,$6,$7,$8,$9,0*
20,1,$1+$1,$8,$9,$2,$3,0*%
G04 Aperture macros list end*
%ADD10RoundRect,0.250000X0.450000X-0.350000X0.450000X0.350000X-0.450000X0.350000X-0.450000X-0.350000X0*%
%ADD11RoundRect,0.250000X-0.475000X0.337500X-0.475000X-0.337500X0.475000X-0.337500X0.475000X0.337500X0*%
%ADD12RoundRect,0.150000X-0.150000X0.725000X-0.150000X-0.725000X0.150000X-0.725000X0.150000X0.725000X0*%
%ADD13RoundRect,0.250000X0.475000X-0.337500X0.475000X0.337500X-0.475000X0.337500X-0.475000X-0.337500X0*%
%ADD14RoundRect,0.250000X-0.350000X-0.450000X0.350000X-0.450000X0.350000X0.450000X-0.350000X0.450000X0*%
%ADD15RoundRect,0.250000X-0.450000X0.350000X-0.450000X-0.350000X0.450000X-0.350000X0.450000X0.350000X0*%
%ADD16R,1.100000X4.600000*%
%ADD17R,5.250000X4.550000*%
G04 APERTURE END LIST*
D10*
%TO.C,R3*%
X197770000Y-73265000D03*
X197770000Y-75265000D03*
%TD*%
%TO.C,R1*%
X197770000Y-48160000D03*
X197770000Y-46160000D03*
%TD*%
D11*
%TO.C,C5*%
X200020000Y-46160000D03*
X200020000Y-48235000D03*
%TD*%
D12*
%TO.C,U2*%
X205820000Y-85015000D03*
X204550000Y-85015000D03*
X203280000Y-85015000D03*
X202010000Y-85015000D03*
X202010000Y-79865000D03*
X203280000Y-79865000D03*
X204550000Y-79865000D03*
X205820000Y-79865000D03*
%TD*%
D11*
%TO.C,C19*%
X199770000Y-102590000D03*
X199770000Y-100515000D03*
%TD*%
D10*
%TO.C,R24*%
X201710000Y-116765000D03*
X201710000Y-118765000D03*
%TD*%
D11*
%TO.C,C13*%
X204260000Y-91585000D03*
X204260000Y-89510000D03*
%TD*%
D13*
%TO.C,C21*%
X204270000Y-100440000D03*
X204270000Y-102515000D03*
%TD*%
D14*
%TO.C,R28*%
X210070000Y-107015000D03*
X208070000Y-107015000D03*
%TD*%
D11*
%TO.C,C7*%
X200020000Y-75340000D03*
X200020000Y-73265000D03*
%TD*%
D13*
%TO.C,C20*%
X199460000Y-116690000D03*
X199460000Y-118765000D03*
%TD*%
D14*
%TO.C,R9*%
X212010000Y-49410000D03*
X214010000Y-49410000D03*
%TD*%
%TO.C,R14*%
X208070000Y-76410000D03*
X210070000Y-76410000D03*
%TD*%
%TO.C,R11*%
X212070000Y-52660000D03*
X214070000Y-52660000D03*
%TD*%
D13*
%TO.C,C12*%
X204520000Y-73190000D03*
X204520000Y-75265000D03*
%TD*%
D15*
%TO.C,R5*%
X202270000Y-48160000D03*
X202270000Y-46160000D03*
%TD*%
%TO.C,R2*%
X197610000Y-62372500D03*
X197610000Y-64372500D03*
%TD*%
D11*
%TO.C,C11*%
X204360000Y-62372500D03*
X204360000Y-64447500D03*
%TD*%
D13*
%TO.C,C1*%
X199820000Y-58160000D03*
X199820000Y-56085000D03*
%TD*%
D14*
%TO.C,R10*%
X208010000Y-49410000D03*
X210010000Y-49410000D03*
%TD*%
D13*
%TO.C,C3*%
X199520000Y-110440000D03*
X199520000Y-112515000D03*
%TD*%
D14*
%TO.C,R27*%
X214070000Y-107015000D03*
X212070000Y-107015000D03*
%TD*%
%TO.C,R25*%
X214010000Y-103810000D03*
X212010000Y-103810000D03*
%TD*%
D13*
%TO.C,C2*%
X199820000Y-83190000D03*
X199820000Y-85265000D03*
%TD*%
D14*
%TO.C,R12*%
X208070000Y-52660000D03*
X210070000Y-52660000D03*
%TD*%
D11*
%TO.C,C23*%
X179875000Y-115800000D03*
X179875000Y-113725000D03*
%TD*%
D14*
%TO.C,R13*%
X212070000Y-76410000D03*
X214070000Y-76410000D03*
%TD*%
D15*
%TO.C,R23*%
X202020000Y-102515000D03*
X202020000Y-100515000D03*
%TD*%
%TO.C,R7*%
X202270000Y-75265000D03*
X202270000Y-73265000D03*
%TD*%
D10*
%TO.C,R8*%
X202010000Y-89510000D03*
X202010000Y-91510000D03*
%TD*%
D13*
%TO.C,C10*%
X204520000Y-48160000D03*
X204520000Y-46085000D03*
%TD*%
D15*
%TO.C,R4*%
X197510000Y-91510000D03*
X197510000Y-89510000D03*
%TD*%
D10*
%TO.C,R21*%
X197520000Y-100515000D03*
X197520000Y-102515000D03*
%TD*%
D16*
%TO.C,U7*%
X184940000Y-109450000D03*
X179860000Y-109450000D03*
D17*
X179625000Y-102725000D03*
X185175000Y-97875000D03*
X179625000Y-97875000D03*
X185175000Y-102725000D03*
%TD*%
D13*
%TO.C,C8*%
X199760000Y-89435000D03*
X199760000Y-91510000D03*
%TD*%
D12*
%TO.C,U1*%
X205880000Y-52760000D03*
X204610000Y-52760000D03*
X203340000Y-52760000D03*
X202070000Y-52760000D03*
X202070000Y-57910000D03*
X203340000Y-57910000D03*
X204610000Y-57910000D03*
X205880000Y-57910000D03*
%TD*%
D13*
%TO.C,C6*%
X199860000Y-64372500D03*
X199860000Y-62297500D03*
%TD*%
D12*
%TO.C,U3*%
X205570000Y-112265000D03*
X204300000Y-112265000D03*
X203030000Y-112265000D03*
X201760000Y-112265000D03*
X201760000Y-107115000D03*
X203030000Y-107115000D03*
X204300000Y-107115000D03*
X205570000Y-107115000D03*
%TD*%
D11*
%TO.C,C26*%
X184875000Y-115800000D03*
X184875000Y-113725000D03*
%TD*%
D10*
%TO.C,R6*%
X202110000Y-64372500D03*
X202110000Y-62372500D03*
%TD*%
D11*
%TO.C,C22*%
X203960000Y-118840000D03*
X203960000Y-116765000D03*
%TD*%
D14*
%TO.C,R15*%
X214070000Y-79765000D03*
X212070000Y-79765000D03*
%TD*%
%TO.C,R16*%
X210070000Y-79765000D03*
X208070000Y-79765000D03*
%TD*%
%TO.C,R26*%
X210010000Y-103810000D03*
X208010000Y-103810000D03*
%TD*%
D15*
%TO.C,R22*%
X197210000Y-118765000D03*
X197210000Y-116765000D03*
%TD*%
M02*
