%TF.GenerationSoftware,KiCad,Pcbnew,(6.0.7)*%
%TF.CreationDate,2023-02-22T11:31:18+02:00*%
%TF.ProjectId,Lamps_Type5,4c616d70-735f-4547-9970-65352e6b6963,rev?*%
%TF.SameCoordinates,Original*%
%TF.FileFunction,Soldermask,Bot*%
%TF.FilePolarity,Negative*%
%FSLAX46Y46*%
G04 Gerber Fmt 4.6, Leading zero omitted, Abs format (unit mm)*
G04 Created by KiCad (PCBNEW (6.0.7)) date 2023-02-22 11:31:18*
%MOMM*%
%LPD*%
G01*
G04 APERTURE LIST*
G04 Aperture macros list*
%AMRoundRect*
0 Rectangle with rounded corners*
0 $1 Rounding radius*
0 $2 $3 $4 $5 $6 $7 $8 $9 X,Y pos of 4 corners*
0 Add a 4 corners polygon primitive as box body*
4,1,4,$2,$3,$4,$5,$6,$7,$8,$9,$2,$3,0*
0 Add four circle primitives for the rounded corners*
1,1,$1+$1,$2,$3*
1,1,$1+$1,$4,$5*
1,1,$1+$1,$6,$7*
1,1,$1+$1,$8,$9*
0 Add four rect primitives between the rounded corners*
20,1,$1+$1,$2,$3,$4,$5,0*
20,1,$1+$1,$4,$5,$6,$7,0*
20,1,$1+$1,$6,$7,$8,$9,0*
20,1,$1+$1,$8,$9,$2,$3,0*%
G04 Aperture macros list end*
%ADD10RoundRect,0.249999X-1.550001X0.790001X-1.550001X-0.790001X1.550001X-0.790001X1.550001X0.790001X0*%
%ADD11O,3.600000X2.080000*%
%ADD12R,1.905000X2.000000*%
%ADD13O,1.905000X2.000000*%
%ADD14C,2.400000*%
%ADD15O,2.400000X2.400000*%
%ADD16C,2.000000*%
%ADD17R,1.700000X1.700000*%
%ADD18O,1.700000X1.700000*%
%ADD19RoundRect,0.249999X1.550001X-0.790001X1.550001X0.790001X-1.550001X0.790001X-1.550001X-0.790001X0*%
%ADD20R,1.600000X1.600000*%
%ADD21O,1.600000X1.600000*%
G04 APERTURE END LIST*
D10*
%TO.C,J9*%
X259637500Y-115930000D03*
D11*
X259637500Y-121010000D03*
%TD*%
D12*
%TO.C,Q4*%
X209530000Y-85010000D03*
D13*
X212070000Y-85010000D03*
X214610000Y-85010000D03*
%TD*%
D14*
%TO.C,R17*%
X250110000Y-51010000D03*
D15*
X239950000Y-51010000D03*
%TD*%
D16*
%TO.C,C17*%
X229700000Y-81760000D03*
X229700000Y-74260000D03*
%TD*%
%TO.C,C25*%
X242700000Y-122260000D03*
X242700000Y-114760000D03*
%TD*%
D10*
%TO.C,J7*%
X259637500Y-88970000D03*
D11*
X259637500Y-94050000D03*
%TD*%
D16*
%TO.C,C24*%
X229700000Y-108760000D03*
X229700000Y-101260000D03*
%TD*%
D14*
%TO.C,R18*%
X222540000Y-64510000D03*
D15*
X232700000Y-64510000D03*
%TD*%
D12*
%TO.C,Q5*%
X209530000Y-99865000D03*
D13*
X212070000Y-99865000D03*
X214610000Y-99865000D03*
%TD*%
D12*
%TO.C,Q3*%
X209530000Y-72665000D03*
D13*
X212070000Y-72665000D03*
X214610000Y-72665000D03*
%TD*%
D10*
%TO.C,J6*%
X259637500Y-75470000D03*
D11*
X259637500Y-80550000D03*
%TD*%
D16*
%TO.C,C18*%
X242700000Y-95260000D03*
X242700000Y-87760000D03*
%TD*%
D12*
%TO.C,Q6*%
X209530000Y-112210000D03*
D13*
X212070000Y-112210000D03*
X214610000Y-112210000D03*
%TD*%
D14*
%TO.C,R29*%
X250110000Y-105010000D03*
D15*
X239950000Y-105010000D03*
%TD*%
D17*
%TO.C,J3*%
X161620000Y-47190000D03*
D18*
X164160000Y-47190000D03*
X166700000Y-47190000D03*
X169240000Y-47190000D03*
%TD*%
D14*
%TO.C,R19*%
X250270000Y-78010000D03*
D15*
X240110000Y-78010000D03*
%TD*%
D10*
%TO.C,J8*%
X259637500Y-102470000D03*
D11*
X259637500Y-107550000D03*
%TD*%
D12*
%TO.C,Q1*%
X209470000Y-45410000D03*
D13*
X212010000Y-45410000D03*
X214550000Y-45410000D03*
%TD*%
D16*
%TO.C,C15*%
X229700000Y-54760000D03*
X229700000Y-47260000D03*
%TD*%
D17*
%TO.C,J2*%
X161660000Y-90370000D03*
D18*
X164200000Y-90370000D03*
X166740000Y-90370000D03*
X169280000Y-90370000D03*
%TD*%
D10*
%TO.C,J5*%
X259637500Y-61720000D03*
D11*
X259637500Y-66800000D03*
%TD*%
D19*
%TO.C,J1*%
X163500000Y-121250000D03*
D11*
X163500000Y-116170000D03*
%TD*%
D12*
%TO.C,Q2*%
X209530000Y-58010000D03*
D13*
X212070000Y-58010000D03*
X214610000Y-58010000D03*
%TD*%
D11*
%TO.C,J10*%
X163500000Y-102670000D03*
D19*
X163500000Y-107750000D03*
%TD*%
D16*
%TO.C,C16*%
X242950000Y-68260000D03*
X242950000Y-60760000D03*
%TD*%
D14*
%TO.C,R20*%
X222450000Y-91510000D03*
D15*
X232610000Y-91510000D03*
%TD*%
D10*
%TO.C,J4*%
X259637500Y-48470000D03*
D11*
X259637500Y-53550000D03*
%TD*%
D14*
%TO.C,R30*%
X222290000Y-118510000D03*
D15*
X232450000Y-118510000D03*
%TD*%
D20*
%TO.C,A1*%
X189610000Y-87770000D03*
D21*
X189610000Y-85230000D03*
X189610000Y-82690000D03*
X189610000Y-80150000D03*
X189610000Y-77610000D03*
X189610000Y-75070000D03*
X189610000Y-72530000D03*
X189610000Y-69990000D03*
X189610000Y-67450000D03*
X189610000Y-64910000D03*
X189610000Y-62370000D03*
X189610000Y-59830000D03*
X189610000Y-57290000D03*
X189610000Y-54750000D03*
X189610000Y-52210000D03*
X174370000Y-52210000D03*
X174370000Y-54750000D03*
X174370000Y-57290000D03*
X174370000Y-59830000D03*
X174370000Y-62370000D03*
X174370000Y-64910000D03*
X174370000Y-67450000D03*
X174370000Y-69990000D03*
X174370000Y-72530000D03*
X174370000Y-75070000D03*
X174370000Y-77610000D03*
X174370000Y-80150000D03*
X174370000Y-82690000D03*
X174370000Y-85230000D03*
X174370000Y-87770000D03*
%TD*%
M02*
