%TF.GenerationSoftware,KiCad,Pcbnew,(5.1.10)-1*%
%TF.CreationDate,2021-08-17T16:01:40+03:00*%
%TF.ProjectId,Lamls_Type3,4c616d6c-735f-4547-9970-65332e6b6963,rev?*%
%TF.SameCoordinates,Original*%
%TF.FileFunction,Copper,L2,Bot*%
%TF.FilePolarity,Positive*%
%FSLAX46Y46*%
G04 Gerber Fmt 4.6, Leading zero omitted, Abs format (unit mm)*
G04 Created by KiCad (PCBNEW (5.1.10)-1) date 2021-08-17 16:01:40*
%MOMM*%
%LPD*%
G01*
G04 APERTURE LIST*
%TA.AperFunction,ComponentPad*%
%ADD10C,2.340000*%
%TD*%
%TA.AperFunction,SMDPad,CuDef*%
%ADD11R,0.800000X0.900000*%
%TD*%
%TA.AperFunction,ComponentPad*%
%ADD12C,2.600000*%
%TD*%
%TA.AperFunction,ComponentPad*%
%ADD13R,2.600000X2.600000*%
%TD*%
%TA.AperFunction,SMDPad,CuDef*%
%ADD14C,0.500000*%
%TD*%
%TA.AperFunction,ViaPad*%
%ADD15C,4.000000*%
%TD*%
%TA.AperFunction,Conductor*%
%ADD16C,0.500000*%
%TD*%
%TA.AperFunction,Conductor*%
%ADD17C,1.000000*%
%TD*%
%TA.AperFunction,Conductor*%
%ADD18C,0.254000*%
%TD*%
%TA.AperFunction,Conductor*%
%ADD19C,0.100000*%
%TD*%
G04 APERTURE END LIST*
%TO.P,U1,8*%
%TO.N,+12V*%
%TA.AperFunction,SMDPad,CuDef*%
G36*
G01*
X154455000Y-90470000D02*
X154155000Y-90470000D01*
G75*
G02*
X154005000Y-90320000I0J150000D01*
G01*
X154005000Y-88720000D01*
G75*
G02*
X154155000Y-88570000I150000J0D01*
G01*
X154455000Y-88570000D01*
G75*
G02*
X154605000Y-88720000I0J-150000D01*
G01*
X154605000Y-90320000D01*
G75*
G02*
X154455000Y-90470000I-150000J0D01*
G01*
G37*
%TD.AperFunction*%
%TO.P,U1,7*%
%TO.N,Net-(R4-Pad2)*%
%TA.AperFunction,SMDPad,CuDef*%
G36*
G01*
X153185000Y-90470000D02*
X152885000Y-90470000D01*
G75*
G02*
X152735000Y-90320000I0J150000D01*
G01*
X152735000Y-88720000D01*
G75*
G02*
X152885000Y-88570000I150000J0D01*
G01*
X153185000Y-88570000D01*
G75*
G02*
X153335000Y-88720000I0J-150000D01*
G01*
X153335000Y-90320000D01*
G75*
G02*
X153185000Y-90470000I-150000J0D01*
G01*
G37*
%TD.AperFunction*%
%TO.P,U1,6*%
%TO.N,Net-(R2-Pad1)*%
%TA.AperFunction,SMDPad,CuDef*%
G36*
G01*
X151915000Y-90470000D02*
X151615000Y-90470000D01*
G75*
G02*
X151465000Y-90320000I0J150000D01*
G01*
X151465000Y-88720000D01*
G75*
G02*
X151615000Y-88570000I150000J0D01*
G01*
X151915000Y-88570000D01*
G75*
G02*
X152065000Y-88720000I0J-150000D01*
G01*
X152065000Y-90320000D01*
G75*
G02*
X151915000Y-90470000I-150000J0D01*
G01*
G37*
%TD.AperFunction*%
%TO.P,U1,5*%
%TO.N,Net-(J1-Pad2)*%
%TA.AperFunction,SMDPad,CuDef*%
G36*
G01*
X150645000Y-90470000D02*
X150345000Y-90470000D01*
G75*
G02*
X150195000Y-90320000I0J150000D01*
G01*
X150195000Y-88720000D01*
G75*
G02*
X150345000Y-88570000I150000J0D01*
G01*
X150645000Y-88570000D01*
G75*
G02*
X150795000Y-88720000I0J-150000D01*
G01*
X150795000Y-90320000D01*
G75*
G02*
X150645000Y-90470000I-150000J0D01*
G01*
G37*
%TD.AperFunction*%
%TO.P,U1,4*%
%TO.N,GND*%
%TA.AperFunction,SMDPad,CuDef*%
G36*
G01*
X150645000Y-97470000D02*
X150345000Y-97470000D01*
G75*
G02*
X150195000Y-97320000I0J150000D01*
G01*
X150195000Y-95720000D01*
G75*
G02*
X150345000Y-95570000I150000J0D01*
G01*
X150645000Y-95570000D01*
G75*
G02*
X150795000Y-95720000I0J-150000D01*
G01*
X150795000Y-97320000D01*
G75*
G02*
X150645000Y-97470000I-150000J0D01*
G01*
G37*
%TD.AperFunction*%
%TO.P,U1,3*%
%TO.N,Net-(J1-Pad1)*%
%TA.AperFunction,SMDPad,CuDef*%
G36*
G01*
X151915000Y-97470000D02*
X151615000Y-97470000D01*
G75*
G02*
X151465000Y-97320000I0J150000D01*
G01*
X151465000Y-95720000D01*
G75*
G02*
X151615000Y-95570000I150000J0D01*
G01*
X151915000Y-95570000D01*
G75*
G02*
X152065000Y-95720000I0J-150000D01*
G01*
X152065000Y-97320000D01*
G75*
G02*
X151915000Y-97470000I-150000J0D01*
G01*
G37*
%TD.AperFunction*%
%TO.P,U1,2*%
%TO.N,Net-(R1-Pad1)*%
%TA.AperFunction,SMDPad,CuDef*%
G36*
G01*
X153185000Y-97470000D02*
X152885000Y-97470000D01*
G75*
G02*
X152735000Y-97320000I0J150000D01*
G01*
X152735000Y-95720000D01*
G75*
G02*
X152885000Y-95570000I150000J0D01*
G01*
X153185000Y-95570000D01*
G75*
G02*
X153335000Y-95720000I0J-150000D01*
G01*
X153335000Y-97320000D01*
G75*
G02*
X153185000Y-97470000I-150000J0D01*
G01*
G37*
%TD.AperFunction*%
%TO.P,U1,1*%
%TO.N,Net-(R3-Pad2)*%
%TA.AperFunction,SMDPad,CuDef*%
G36*
G01*
X154455000Y-97470000D02*
X154155000Y-97470000D01*
G75*
G02*
X154005000Y-97320000I0J150000D01*
G01*
X154005000Y-95720000D01*
G75*
G02*
X154155000Y-95570000I150000J0D01*
G01*
X154455000Y-95570000D01*
G75*
G02*
X154605000Y-95720000I0J-150000D01*
G01*
X154605000Y-97320000D01*
G75*
G02*
X154455000Y-97470000I-150000J0D01*
G01*
G37*
%TD.AperFunction*%
%TD*%
D10*
%TO.P,RV6,1*%
%TO.N,Net-(RV5-Pad3)*%
X160020000Y-127000000D03*
%TO.P,RV6,2*%
%TO.N,Net-(Q6-Pad1)*%
X170020000Y-124500000D03*
%TO.P,RV6,3*%
%TO.N,Net-(R4-Pad2)*%
X160020000Y-122000000D03*
%TD*%
%TO.P,RV5,1*%
%TO.N,Net-(RV4-Pad3)*%
X160180000Y-115530000D03*
%TO.P,RV5,2*%
%TO.N,Net-(Q5-Pad1)*%
X170180000Y-113030000D03*
%TO.P,RV5,3*%
%TO.N,Net-(RV5-Pad3)*%
X160180000Y-110530000D03*
%TD*%
%TO.P,RV4,1*%
%TO.N,Net-(RV3-Pad3)*%
X160180000Y-104100000D03*
%TO.P,RV4,2*%
%TO.N,Net-(Q4-Pad1)*%
X170180000Y-101600000D03*
%TO.P,RV4,3*%
%TO.N,Net-(RV4-Pad3)*%
X160180000Y-99100000D03*
%TD*%
%TO.P,RV3,1*%
%TO.N,Net-(RV2-Pad3)*%
X160020000Y-92630000D03*
%TO.P,RV3,2*%
%TO.N,Net-(Q3-Pad1)*%
X170020000Y-90130000D03*
%TO.P,RV3,3*%
%TO.N,Net-(RV3-Pad3)*%
X160020000Y-87630000D03*
%TD*%
%TO.P,RV2,1*%
%TO.N,Net-(RV1-Pad3)*%
X160020000Y-81200000D03*
%TO.P,RV2,2*%
%TO.N,Net-(Q2-Pad1)*%
X170020000Y-78700000D03*
%TO.P,RV2,3*%
%TO.N,Net-(RV2-Pad3)*%
X160020000Y-76200000D03*
%TD*%
%TO.P,RV1,1*%
%TO.N,Net-(R3-Pad2)*%
X160020000Y-69770000D03*
%TO.P,RV1,2*%
%TO.N,Net-(Q1-Pad1)*%
X170020000Y-67270000D03*
%TO.P,RV1,3*%
%TO.N,Net-(RV1-Pad3)*%
X160020000Y-64770000D03*
%TD*%
%TO.P,R10,2*%
%TO.N,GND*%
%TA.AperFunction,SMDPad,CuDef*%
G36*
G01*
X174440001Y-120607500D02*
X173539999Y-120607500D01*
G75*
G02*
X173290000Y-120357501I0J249999D01*
G01*
X173290000Y-119832499D01*
G75*
G02*
X173539999Y-119582500I249999J0D01*
G01*
X174440001Y-119582500D01*
G75*
G02*
X174690000Y-119832499I0J-249999D01*
G01*
X174690000Y-120357501D01*
G75*
G02*
X174440001Y-120607500I-249999J0D01*
G01*
G37*
%TD.AperFunction*%
%TO.P,R10,1*%
%TO.N,Net-(J8-Pad1)*%
%TA.AperFunction,SMDPad,CuDef*%
G36*
G01*
X174440001Y-122432500D02*
X173539999Y-122432500D01*
G75*
G02*
X173290000Y-122182501I0J249999D01*
G01*
X173290000Y-121657499D01*
G75*
G02*
X173539999Y-121407500I249999J0D01*
G01*
X174440001Y-121407500D01*
G75*
G02*
X174690000Y-121657499I0J-249999D01*
G01*
X174690000Y-122182501D01*
G75*
G02*
X174440001Y-122432500I-249999J0D01*
G01*
G37*
%TD.AperFunction*%
%TD*%
%TO.P,R9,2*%
%TO.N,GND*%
%TA.AperFunction,SMDPad,CuDef*%
G36*
G01*
X174440001Y-109177500D02*
X173539999Y-109177500D01*
G75*
G02*
X173290000Y-108927501I0J249999D01*
G01*
X173290000Y-108402499D01*
G75*
G02*
X173539999Y-108152500I249999J0D01*
G01*
X174440001Y-108152500D01*
G75*
G02*
X174690000Y-108402499I0J-249999D01*
G01*
X174690000Y-108927501D01*
G75*
G02*
X174440001Y-109177500I-249999J0D01*
G01*
G37*
%TD.AperFunction*%
%TO.P,R9,1*%
%TO.N,Net-(J7-Pad1)*%
%TA.AperFunction,SMDPad,CuDef*%
G36*
G01*
X174440001Y-111002500D02*
X173539999Y-111002500D01*
G75*
G02*
X173290000Y-110752501I0J249999D01*
G01*
X173290000Y-110227499D01*
G75*
G02*
X173539999Y-109977500I249999J0D01*
G01*
X174440001Y-109977500D01*
G75*
G02*
X174690000Y-110227499I0J-249999D01*
G01*
X174690000Y-110752501D01*
G75*
G02*
X174440001Y-111002500I-249999J0D01*
G01*
G37*
%TD.AperFunction*%
%TD*%
%TO.P,R8,2*%
%TO.N,GND*%
%TA.AperFunction,SMDPad,CuDef*%
G36*
G01*
X174440001Y-97747500D02*
X173539999Y-97747500D01*
G75*
G02*
X173290000Y-97497501I0J249999D01*
G01*
X173290000Y-96972499D01*
G75*
G02*
X173539999Y-96722500I249999J0D01*
G01*
X174440001Y-96722500D01*
G75*
G02*
X174690000Y-96972499I0J-249999D01*
G01*
X174690000Y-97497501D01*
G75*
G02*
X174440001Y-97747500I-249999J0D01*
G01*
G37*
%TD.AperFunction*%
%TO.P,R8,1*%
%TO.N,Net-(J5-Pad1)*%
%TA.AperFunction,SMDPad,CuDef*%
G36*
G01*
X174440001Y-99572500D02*
X173539999Y-99572500D01*
G75*
G02*
X173290000Y-99322501I0J249999D01*
G01*
X173290000Y-98797499D01*
G75*
G02*
X173539999Y-98547500I249999J0D01*
G01*
X174440001Y-98547500D01*
G75*
G02*
X174690000Y-98797499I0J-249999D01*
G01*
X174690000Y-99322501D01*
G75*
G02*
X174440001Y-99572500I-249999J0D01*
G01*
G37*
%TD.AperFunction*%
%TD*%
%TO.P,R7,2*%
%TO.N,GND*%
%TA.AperFunction,SMDPad,CuDef*%
G36*
G01*
X174440001Y-85960000D02*
X173539999Y-85960000D01*
G75*
G02*
X173290000Y-85710001I0J249999D01*
G01*
X173290000Y-85184999D01*
G75*
G02*
X173539999Y-84935000I249999J0D01*
G01*
X174440001Y-84935000D01*
G75*
G02*
X174690000Y-85184999I0J-249999D01*
G01*
X174690000Y-85710001D01*
G75*
G02*
X174440001Y-85960000I-249999J0D01*
G01*
G37*
%TD.AperFunction*%
%TO.P,R7,1*%
%TO.N,Net-(J4-Pad1)*%
%TA.AperFunction,SMDPad,CuDef*%
G36*
G01*
X174440001Y-87785000D02*
X173539999Y-87785000D01*
G75*
G02*
X173290000Y-87535001I0J249999D01*
G01*
X173290000Y-87009999D01*
G75*
G02*
X173539999Y-86760000I249999J0D01*
G01*
X174440001Y-86760000D01*
G75*
G02*
X174690000Y-87009999I0J-249999D01*
G01*
X174690000Y-87535001D01*
G75*
G02*
X174440001Y-87785000I-249999J0D01*
G01*
G37*
%TD.AperFunction*%
%TD*%
%TO.P,R6,2*%
%TO.N,GND*%
%TA.AperFunction,SMDPad,CuDef*%
G36*
G01*
X174440001Y-74887500D02*
X173539999Y-74887500D01*
G75*
G02*
X173290000Y-74637501I0J249999D01*
G01*
X173290000Y-74112499D01*
G75*
G02*
X173539999Y-73862500I249999J0D01*
G01*
X174440001Y-73862500D01*
G75*
G02*
X174690000Y-74112499I0J-249999D01*
G01*
X174690000Y-74637501D01*
G75*
G02*
X174440001Y-74887500I-249999J0D01*
G01*
G37*
%TD.AperFunction*%
%TO.P,R6,1*%
%TO.N,Net-(J3-Pad1)*%
%TA.AperFunction,SMDPad,CuDef*%
G36*
G01*
X174440001Y-76712500D02*
X173539999Y-76712500D01*
G75*
G02*
X173290000Y-76462501I0J249999D01*
G01*
X173290000Y-75937499D01*
G75*
G02*
X173539999Y-75687500I249999J0D01*
G01*
X174440001Y-75687500D01*
G75*
G02*
X174690000Y-75937499I0J-249999D01*
G01*
X174690000Y-76462501D01*
G75*
G02*
X174440001Y-76712500I-249999J0D01*
G01*
G37*
%TD.AperFunction*%
%TD*%
%TO.P,R5,2*%
%TO.N,GND*%
%TA.AperFunction,SMDPad,CuDef*%
G36*
G01*
X174440001Y-63457500D02*
X173539999Y-63457500D01*
G75*
G02*
X173290000Y-63207501I0J249999D01*
G01*
X173290000Y-62682499D01*
G75*
G02*
X173539999Y-62432500I249999J0D01*
G01*
X174440001Y-62432500D01*
G75*
G02*
X174690000Y-62682499I0J-249999D01*
G01*
X174690000Y-63207501D01*
G75*
G02*
X174440001Y-63457500I-249999J0D01*
G01*
G37*
%TD.AperFunction*%
%TO.P,R5,1*%
%TO.N,Net-(J6-Pad1)*%
%TA.AperFunction,SMDPad,CuDef*%
G36*
G01*
X174440001Y-65282500D02*
X173539999Y-65282500D01*
G75*
G02*
X173290000Y-65032501I0J249999D01*
G01*
X173290000Y-64507499D01*
G75*
G02*
X173539999Y-64257500I249999J0D01*
G01*
X174440001Y-64257500D01*
G75*
G02*
X174690000Y-64507499I0J-249999D01*
G01*
X174690000Y-65032501D01*
G75*
G02*
X174440001Y-65282500I-249999J0D01*
G01*
G37*
%TD.AperFunction*%
%TD*%
%TO.P,R4,2*%
%TO.N,Net-(R4-Pad2)*%
%TA.AperFunction,SMDPad,CuDef*%
G36*
G01*
X152522500Y-87445001D02*
X152522500Y-86544999D01*
G75*
G02*
X152772499Y-86295000I249999J0D01*
G01*
X153297501Y-86295000D01*
G75*
G02*
X153547500Y-86544999I0J-249999D01*
G01*
X153547500Y-87445001D01*
G75*
G02*
X153297501Y-87695000I-249999J0D01*
G01*
X152772499Y-87695000D01*
G75*
G02*
X152522500Y-87445001I0J249999D01*
G01*
G37*
%TD.AperFunction*%
%TO.P,R4,1*%
%TO.N,Net-(R2-Pad1)*%
%TA.AperFunction,SMDPad,CuDef*%
G36*
G01*
X150697500Y-87445001D02*
X150697500Y-86544999D01*
G75*
G02*
X150947499Y-86295000I249999J0D01*
G01*
X151472501Y-86295000D01*
G75*
G02*
X151722500Y-86544999I0J-249999D01*
G01*
X151722500Y-87445001D01*
G75*
G02*
X151472501Y-87695000I-249999J0D01*
G01*
X150947499Y-87695000D01*
G75*
G02*
X150697500Y-87445001I0J249999D01*
G01*
G37*
%TD.AperFunction*%
%TD*%
%TO.P,R3,2*%
%TO.N,Net-(R3-Pad2)*%
%TA.AperFunction,SMDPad,CuDef*%
G36*
G01*
X154347500Y-99510001D02*
X154347500Y-98609999D01*
G75*
G02*
X154597499Y-98360000I249999J0D01*
G01*
X155122501Y-98360000D01*
G75*
G02*
X155372500Y-98609999I0J-249999D01*
G01*
X155372500Y-99510001D01*
G75*
G02*
X155122501Y-99760000I-249999J0D01*
G01*
X154597499Y-99760000D01*
G75*
G02*
X154347500Y-99510001I0J249999D01*
G01*
G37*
%TD.AperFunction*%
%TO.P,R3,1*%
%TO.N,Net-(R1-Pad1)*%
%TA.AperFunction,SMDPad,CuDef*%
G36*
G01*
X152522500Y-99510001D02*
X152522500Y-98609999D01*
G75*
G02*
X152772499Y-98360000I249999J0D01*
G01*
X153297501Y-98360000D01*
G75*
G02*
X153547500Y-98609999I0J-249999D01*
G01*
X153547500Y-99510001D01*
G75*
G02*
X153297501Y-99760000I-249999J0D01*
G01*
X152772499Y-99760000D01*
G75*
G02*
X152522500Y-99510001I0J249999D01*
G01*
G37*
%TD.AperFunction*%
%TD*%
%TO.P,R2,2*%
%TO.N,GND*%
%TA.AperFunction,SMDPad,CuDef*%
G36*
G01*
X147912500Y-86544999D02*
X147912500Y-87445001D01*
G75*
G02*
X147662501Y-87695000I-249999J0D01*
G01*
X147137499Y-87695000D01*
G75*
G02*
X146887500Y-87445001I0J249999D01*
G01*
X146887500Y-86544999D01*
G75*
G02*
X147137499Y-86295000I249999J0D01*
G01*
X147662501Y-86295000D01*
G75*
G02*
X147912500Y-86544999I0J-249999D01*
G01*
G37*
%TD.AperFunction*%
%TO.P,R2,1*%
%TO.N,Net-(R2-Pad1)*%
%TA.AperFunction,SMDPad,CuDef*%
G36*
G01*
X149737500Y-86544999D02*
X149737500Y-87445001D01*
G75*
G02*
X149487501Y-87695000I-249999J0D01*
G01*
X148962499Y-87695000D01*
G75*
G02*
X148712500Y-87445001I0J249999D01*
G01*
X148712500Y-86544999D01*
G75*
G02*
X148962499Y-86295000I249999J0D01*
G01*
X149487501Y-86295000D01*
G75*
G02*
X149737500Y-86544999I0J-249999D01*
G01*
G37*
%TD.AperFunction*%
%TD*%
%TO.P,R1,2*%
%TO.N,GND*%
%TA.AperFunction,SMDPad,CuDef*%
G36*
G01*
X149737500Y-98609999D02*
X149737500Y-99510001D01*
G75*
G02*
X149487501Y-99760000I-249999J0D01*
G01*
X148962499Y-99760000D01*
G75*
G02*
X148712500Y-99510001I0J249999D01*
G01*
X148712500Y-98609999D01*
G75*
G02*
X148962499Y-98360000I249999J0D01*
G01*
X149487501Y-98360000D01*
G75*
G02*
X149737500Y-98609999I0J-249999D01*
G01*
G37*
%TD.AperFunction*%
%TO.P,R1,1*%
%TO.N,Net-(R1-Pad1)*%
%TA.AperFunction,SMDPad,CuDef*%
G36*
G01*
X151562500Y-98609999D02*
X151562500Y-99510001D01*
G75*
G02*
X151312501Y-99760000I-249999J0D01*
G01*
X150787499Y-99760000D01*
G75*
G02*
X150537500Y-99510001I0J249999D01*
G01*
X150537500Y-98609999D01*
G75*
G02*
X150787499Y-98360000I249999J0D01*
G01*
X151312501Y-98360000D01*
G75*
G02*
X151562500Y-98609999I0J-249999D01*
G01*
G37*
%TD.AperFunction*%
%TD*%
D11*
%TO.P,Q6,3*%
%TO.N,+12V*%
X173990000Y-126460000D03*
%TO.P,Q6,2*%
%TO.N,Net-(J8-Pad1)*%
X174940000Y-124460000D03*
%TO.P,Q6,1*%
%TO.N,Net-(Q6-Pad1)*%
X173040000Y-124460000D03*
%TD*%
%TO.P,Q5,3*%
%TO.N,+12V*%
X174310000Y-115030000D03*
%TO.P,Q5,2*%
%TO.N,Net-(J7-Pad1)*%
X175260000Y-113030000D03*
%TO.P,Q5,1*%
%TO.N,Net-(Q5-Pad1)*%
X173360000Y-113030000D03*
%TD*%
%TO.P,Q4,3*%
%TO.N,+12V*%
X174310000Y-103600000D03*
%TO.P,Q4,2*%
%TO.N,Net-(J5-Pad1)*%
X175260000Y-101600000D03*
%TO.P,Q4,1*%
%TO.N,Net-(Q4-Pad1)*%
X173360000Y-101600000D03*
%TD*%
%TO.P,Q3,3*%
%TO.N,+12V*%
X173670000Y-92170000D03*
%TO.P,Q3,2*%
%TO.N,Net-(J4-Pad1)*%
X174620000Y-90170000D03*
%TO.P,Q3,1*%
%TO.N,Net-(Q3-Pad1)*%
X172720000Y-90170000D03*
%TD*%
%TO.P,Q2,3*%
%TO.N,+12V*%
X173670000Y-80740000D03*
%TO.P,Q2,2*%
%TO.N,Net-(J3-Pad1)*%
X174620000Y-78740000D03*
%TO.P,Q2,1*%
%TO.N,Net-(Q2-Pad1)*%
X172720000Y-78740000D03*
%TD*%
%TO.P,Q1,3*%
%TO.N,+12V*%
X173990000Y-69310000D03*
%TO.P,Q1,2*%
%TO.N,Net-(J6-Pad1)*%
X174940000Y-67310000D03*
%TO.P,Q1,1*%
%TO.N,Net-(Q1-Pad1)*%
X173040000Y-67310000D03*
%TD*%
D12*
%TO.P,J8,2*%
%TO.N,GND*%
X179070000Y-122000000D03*
D13*
%TO.P,J8,1*%
%TO.N,Net-(J8-Pad1)*%
X179070000Y-127000000D03*
%TD*%
D12*
%TO.P,J7,2*%
%TO.N,GND*%
X179070000Y-110570000D03*
D13*
%TO.P,J7,1*%
%TO.N,Net-(J7-Pad1)*%
X179070000Y-115570000D03*
%TD*%
D12*
%TO.P,J6,2*%
%TO.N,GND*%
X179070000Y-64850000D03*
D13*
%TO.P,J6,1*%
%TO.N,Net-(J6-Pad1)*%
X179070000Y-69850000D03*
%TD*%
D12*
%TO.P,J5,2*%
%TO.N,GND*%
X179070000Y-99140000D03*
D13*
%TO.P,J5,1*%
%TO.N,Net-(J5-Pad1)*%
X179070000Y-104140000D03*
%TD*%
D12*
%TO.P,J4,2*%
%TO.N,GND*%
X179070000Y-87710000D03*
D13*
%TO.P,J4,1*%
%TO.N,Net-(J4-Pad1)*%
X179070000Y-92710000D03*
%TD*%
D12*
%TO.P,J3,2*%
%TO.N,GND*%
X179070000Y-76280000D03*
D13*
%TO.P,J3,1*%
%TO.N,Net-(J3-Pad1)*%
X179070000Y-81280000D03*
%TD*%
D12*
%TO.P,J2,2*%
%TO.N,GND*%
X151765000Y-81200000D03*
D13*
%TO.P,J2,1*%
%TO.N,+12V*%
X151765000Y-76200000D03*
%TD*%
D12*
%TO.P,J1,3*%
%TO.N,GND*%
X151765000Y-115570000D03*
%TO.P,J1,2*%
%TO.N,Net-(J1-Pad2)*%
X151765000Y-110570000D03*
D13*
%TO.P,J1,1*%
%TO.N,Net-(J1-Pad1)*%
X151765000Y-105570000D03*
%TD*%
%TO.P,C1,1*%
%TO.N,+12V*%
%TA.AperFunction,SMDPad,CuDef*%
G36*
G01*
X149065000Y-76700000D02*
X148115000Y-76700000D01*
G75*
G02*
X147865000Y-76450000I0J250000D01*
G01*
X147865000Y-75950000D01*
G75*
G02*
X148115000Y-75700000I250000J0D01*
G01*
X149065000Y-75700000D01*
G75*
G02*
X149315000Y-75950000I0J-250000D01*
G01*
X149315000Y-76450000D01*
G75*
G02*
X149065000Y-76700000I-250000J0D01*
G01*
G37*
%TD.AperFunction*%
%TO.P,C1,2*%
%TO.N,GND*%
%TA.AperFunction,SMDPad,CuDef*%
G36*
G01*
X149065000Y-74800000D02*
X148115000Y-74800000D01*
G75*
G02*
X147865000Y-74550000I0J250000D01*
G01*
X147865000Y-74050000D01*
G75*
G02*
X148115000Y-73800000I250000J0D01*
G01*
X149065000Y-73800000D01*
G75*
G02*
X149315000Y-74050000I0J-250000D01*
G01*
X149315000Y-74550000D01*
G75*
G02*
X149065000Y-74800000I-250000J0D01*
G01*
G37*
%TD.AperFunction*%
%TD*%
D14*
%TO.P,FID1,*%
%TO.N,*%
X147955000Y-114300000D03*
%TD*%
%TO.P,FID2,*%
%TO.N,*%
X182880000Y-127000000D03*
%TD*%
%TO.P,FID3,*%
%TO.N,*%
X156845000Y-66675000D03*
%TD*%
D15*
%TO.N,GND*%
X149225000Y-65405000D03*
X149225000Y-126365000D03*
%TD*%
D16*
%TO.N,Net-(J1-Pad2)*%
X147940000Y-89520000D02*
X150495000Y-89520000D01*
X147335000Y-89520000D02*
X147940000Y-89520000D01*
X146554980Y-90300020D02*
X147335000Y-89520000D01*
X146554980Y-109724980D02*
X146554980Y-90300020D01*
X147400000Y-110570000D02*
X146554980Y-109724980D01*
X151765000Y-110570000D02*
X147400000Y-110570000D01*
%TO.N,Net-(J1-Pad1)*%
X151130000Y-93980000D02*
X151765000Y-94615000D01*
X151765000Y-94615000D02*
X151765000Y-96520000D01*
X147955000Y-94615000D02*
X148590000Y-93980000D01*
X147955000Y-104775000D02*
X147955000Y-94615000D01*
X148590000Y-93980000D02*
X151130000Y-93980000D01*
X148750000Y-105570000D02*
X147955000Y-104775000D01*
X151765000Y-105570000D02*
X148750000Y-105570000D01*
D17*
%TO.N,+12V*%
X167640000Y-69850000D02*
X167640000Y-81199998D01*
X174310000Y-103600000D02*
X174310000Y-103820000D01*
X174310000Y-103820000D02*
X173990000Y-104140000D01*
X173990000Y-104140000D02*
X167640000Y-104140000D01*
X167640000Y-115570000D02*
X167640000Y-104140000D01*
X173990000Y-115570000D02*
X167640000Y-115570000D01*
X174310000Y-115250000D02*
X173990000Y-115570000D01*
X174310000Y-115030000D02*
X174310000Y-115250000D01*
X167640000Y-127000000D02*
X167640000Y-115570000D01*
X167640000Y-104140000D02*
X167640000Y-92629998D01*
X167640000Y-81199998D02*
X167640000Y-92629998D01*
X173210002Y-92629998D02*
X173670000Y-92170000D01*
X167640000Y-92629998D02*
X173210002Y-92629998D01*
X173210002Y-81199998D02*
X173670000Y-80740000D01*
X167640000Y-81199998D02*
X173210002Y-81199998D01*
X173450000Y-69850000D02*
X173990000Y-69310000D01*
X167640000Y-69850000D02*
X173450000Y-69850000D01*
X173450000Y-127000000D02*
X173990000Y-126460000D01*
X167640000Y-127000000D02*
X173450000Y-127000000D01*
X154305000Y-88900000D02*
X154305000Y-89520000D01*
X154305000Y-76200000D02*
X154305000Y-88900000D01*
X167640000Y-62865000D02*
X167640000Y-69850000D01*
X167005000Y-62230000D02*
X167640000Y-62865000D01*
X154940000Y-62230000D02*
X167005000Y-62230000D01*
X154305000Y-62865000D02*
X154940000Y-62230000D01*
X154305000Y-76200000D02*
X154305000Y-62865000D01*
X151765000Y-76200000D02*
X154305000Y-76200000D01*
X148590000Y-76200000D02*
X151765000Y-76200000D01*
D16*
%TO.N,Net-(J3-Pad1)*%
X177160000Y-81280000D02*
X174620000Y-78740000D01*
X179070000Y-81280000D02*
X177160000Y-81280000D01*
X174620000Y-76830000D02*
X173990000Y-76200000D01*
X174620000Y-78740000D02*
X174620000Y-76830000D01*
%TO.N,Net-(J4-Pad1)*%
X177160000Y-92710000D02*
X174620000Y-90170000D01*
X179070000Y-92710000D02*
X177160000Y-92710000D01*
X174620000Y-87902500D02*
X173990000Y-87272500D01*
X174620000Y-90170000D02*
X174620000Y-87902500D01*
%TO.N,Net-(J5-Pad1)*%
X177800000Y-104140000D02*
X175260000Y-101600000D01*
X179070000Y-104140000D02*
X177800000Y-104140000D01*
X175260000Y-100330000D02*
X173990000Y-99060000D01*
X175260000Y-101600000D02*
X175260000Y-100330000D01*
%TO.N,Net-(J6-Pad1)*%
X177480000Y-69850000D02*
X174940000Y-67310000D01*
X179070000Y-69850000D02*
X177480000Y-69850000D01*
X174940000Y-65720000D02*
X173990000Y-64770000D01*
X174940000Y-67310000D02*
X174940000Y-65720000D01*
%TO.N,Net-(J7-Pad1)*%
X177800000Y-115570000D02*
X175260000Y-113030000D01*
X179070000Y-115570000D02*
X177800000Y-115570000D01*
X175260000Y-111760000D02*
X173990000Y-110490000D01*
X175260000Y-113030000D02*
X175260000Y-111760000D01*
%TO.N,Net-(J8-Pad1)*%
X177480000Y-127000000D02*
X174940000Y-124460000D01*
X179070000Y-127000000D02*
X177480000Y-127000000D01*
X174940000Y-122870000D02*
X173990000Y-121920000D01*
X174940000Y-124460000D02*
X174940000Y-122870000D01*
%TO.N,Net-(Q1-Pad1)*%
X170060000Y-67310000D02*
X170020000Y-67270000D01*
X173040000Y-67310000D02*
X170060000Y-67310000D01*
%TO.N,Net-(Q2-Pad1)*%
X170060000Y-78740000D02*
X170020000Y-78700000D01*
X172720000Y-78740000D02*
X170060000Y-78740000D01*
%TO.N,Net-(Q3-Pad1)*%
X170060000Y-90170000D02*
X170020000Y-90130000D01*
X172720000Y-90170000D02*
X170060000Y-90170000D01*
%TO.N,Net-(Q4-Pad1)*%
X173360000Y-101600000D02*
X170180000Y-101600000D01*
%TO.N,Net-(Q5-Pad1)*%
X173360000Y-113030000D02*
X170180000Y-113030000D01*
%TO.N,Net-(Q6-Pad1)*%
X170060000Y-124460000D02*
X170020000Y-124500000D01*
X173040000Y-124460000D02*
X170060000Y-124460000D01*
%TO.N,Net-(R1-Pad1)*%
X153035000Y-99060000D02*
X151050000Y-99060000D01*
X153035000Y-96520000D02*
X153035000Y-99060000D01*
%TO.N,Net-(R2-Pad1)*%
X151765000Y-87550000D02*
X151210000Y-86995000D01*
X151210000Y-86995000D02*
X149225000Y-86995000D01*
X151765000Y-89520000D02*
X151765000Y-87550000D01*
%TO.N,Net-(R3-Pad2)*%
X154305000Y-98505000D02*
X154860000Y-99060000D01*
X154305000Y-96520000D02*
X154305000Y-98505000D01*
X156925000Y-69770000D02*
X160020000Y-69770000D01*
X156290000Y-69770000D02*
X156925000Y-69770000D01*
X155575000Y-70485000D02*
X156290000Y-69770000D01*
X155575000Y-93345000D02*
X155575000Y-70485000D01*
X154305000Y-94615000D02*
X155575000Y-93345000D01*
X154305000Y-96520000D02*
X154305000Y-94615000D01*
%TO.N,Net-(R4-Pad2)*%
X153035000Y-89520000D02*
X153035000Y-86995000D01*
X147955000Y-92075000D02*
X152400000Y-92075000D01*
X147254990Y-92775010D02*
X147955000Y-92075000D01*
X152400000Y-92075000D02*
X153035000Y-91440000D01*
X147955000Y-107950000D02*
X147254990Y-107249990D01*
X154940000Y-108585000D02*
X154305000Y-107950000D01*
X154940000Y-121285000D02*
X154940000Y-108585000D01*
X154305000Y-107950000D02*
X147955000Y-107950000D01*
X155655000Y-122000000D02*
X154940000Y-121285000D01*
X153035000Y-91440000D02*
X153035000Y-89520000D01*
X147254990Y-107249990D02*
X147254990Y-92775010D01*
X160020000Y-122000000D02*
X155655000Y-122000000D01*
%TO.N,Net-(RV1-Pad3)*%
X160020000Y-64770000D02*
X162560000Y-64770000D01*
X162560000Y-64770000D02*
X163195000Y-65405000D01*
X163195000Y-65405000D02*
X163195000Y-80645000D01*
X162640000Y-81200000D02*
X160020000Y-81200000D01*
X163195000Y-80645000D02*
X162640000Y-81200000D01*
%TO.N,Net-(RV2-Pad3)*%
X160020000Y-92630000D02*
X157465010Y-92630000D01*
X157465010Y-92630000D02*
X156910010Y-92075000D01*
X156910010Y-92075000D02*
X156910010Y-76769990D01*
X157480000Y-76200000D02*
X160020000Y-76200000D01*
X156910010Y-76769990D02*
X157480000Y-76200000D01*
%TO.N,Net-(RV3-Pad3)*%
X160020000Y-87630000D02*
X162560000Y-87630000D01*
X162560000Y-87630000D02*
X163195000Y-88265000D01*
X163195000Y-88265000D02*
X163195000Y-103505000D01*
X162600000Y-104100000D02*
X160180000Y-104100000D01*
X163195000Y-103505000D02*
X162600000Y-104100000D01*
%TO.N,Net-(RV4-Pad3)*%
X160180000Y-99100000D02*
X157440000Y-99100000D01*
X157440000Y-99100000D02*
X156845000Y-99695000D01*
X156845000Y-99695000D02*
X156845000Y-114935000D01*
X157440000Y-115530000D02*
X160180000Y-115530000D01*
X156845000Y-114935000D02*
X157440000Y-115530000D01*
%TO.N,Net-(RV5-Pad3)*%
X162600000Y-110530000D02*
X160180000Y-110530000D01*
X163195000Y-111125000D02*
X162600000Y-110530000D01*
X163195000Y-126365000D02*
X163195000Y-111125000D01*
X162560000Y-127000000D02*
X163195000Y-126365000D01*
X160020000Y-127000000D02*
X162560000Y-127000000D01*
%TD*%
D18*
%TO.N,GND*%
X153541860Y-62023009D02*
X153498552Y-62058551D01*
X153356717Y-62231377D01*
X153315752Y-62308018D01*
X153251324Y-62428554D01*
X153186423Y-62642502D01*
X153164509Y-62865000D01*
X153170001Y-62920761D01*
X153170000Y-74272269D01*
X153065000Y-74261928D01*
X150465000Y-74261928D01*
X150340518Y-74274188D01*
X150220820Y-74310498D01*
X150110506Y-74369463D01*
X150013815Y-74448815D01*
X149934463Y-74545506D01*
X149925857Y-74561607D01*
X149791250Y-74427000D01*
X148717000Y-74427000D01*
X148717000Y-74447000D01*
X148463000Y-74447000D01*
X148463000Y-74427000D01*
X147388750Y-74427000D01*
X147230000Y-74585750D01*
X147226928Y-74800000D01*
X147239188Y-74924482D01*
X147275498Y-75044180D01*
X147334463Y-75154494D01*
X147413815Y-75251185D01*
X147493594Y-75316658D01*
X147487038Y-75322038D01*
X147376595Y-75456614D01*
X147294528Y-75610150D01*
X147243992Y-75776746D01*
X147226928Y-75950000D01*
X147226928Y-76450000D01*
X147243992Y-76623254D01*
X147294528Y-76789850D01*
X147376595Y-76943386D01*
X147487038Y-77077962D01*
X147621614Y-77188405D01*
X147775150Y-77270472D01*
X147941746Y-77321008D01*
X148115000Y-77338072D01*
X149065000Y-77338072D01*
X149096191Y-77335000D01*
X149826928Y-77335000D01*
X149826928Y-77500000D01*
X149839188Y-77624482D01*
X149875498Y-77744180D01*
X149934463Y-77854494D01*
X150013815Y-77951185D01*
X150110506Y-78030537D01*
X150220820Y-78089502D01*
X150340518Y-78125812D01*
X150465000Y-78138072D01*
X153065000Y-78138072D01*
X153170000Y-78127731D01*
X153170000Y-80055319D01*
X153114224Y-80030381D01*
X151944605Y-81200000D01*
X153114224Y-82369619D01*
X153170000Y-82344681D01*
X153170001Y-85656928D01*
X152772499Y-85656928D01*
X152599245Y-85673992D01*
X152432649Y-85724528D01*
X152279113Y-85806595D01*
X152144538Y-85917038D01*
X152122500Y-85943891D01*
X152100462Y-85917038D01*
X151965887Y-85806595D01*
X151812351Y-85724528D01*
X151645755Y-85673992D01*
X151472501Y-85656928D01*
X150947499Y-85656928D01*
X150774245Y-85673992D01*
X150607649Y-85724528D01*
X150454113Y-85806595D01*
X150319538Y-85917038D01*
X150217500Y-86041371D01*
X150115462Y-85917038D01*
X149980887Y-85806595D01*
X149827351Y-85724528D01*
X149660755Y-85673992D01*
X149487501Y-85656928D01*
X148962499Y-85656928D01*
X148789245Y-85673992D01*
X148622649Y-85724528D01*
X148469113Y-85806595D01*
X148387863Y-85873276D01*
X148363685Y-85843815D01*
X148266994Y-85764463D01*
X148156680Y-85705498D01*
X148036982Y-85669188D01*
X147912500Y-85656928D01*
X147685750Y-85660000D01*
X147527000Y-85818750D01*
X147527000Y-86868000D01*
X147547000Y-86868000D01*
X147547000Y-87122000D01*
X147527000Y-87122000D01*
X147527000Y-88171250D01*
X147685750Y-88330000D01*
X147912500Y-88333072D01*
X148036982Y-88320812D01*
X148156680Y-88284502D01*
X148266994Y-88225537D01*
X148363685Y-88146185D01*
X148387863Y-88116724D01*
X148469113Y-88183405D01*
X148622649Y-88265472D01*
X148789245Y-88316008D01*
X148962499Y-88333072D01*
X149487501Y-88333072D01*
X149660755Y-88316008D01*
X149673765Y-88312061D01*
X149616916Y-88418418D01*
X149572071Y-88566255D01*
X149565300Y-88635000D01*
X147378469Y-88635000D01*
X147335000Y-88630719D01*
X147291531Y-88635000D01*
X147291523Y-88635000D01*
X147161510Y-88647805D01*
X146994687Y-88698411D01*
X146939395Y-88727965D01*
X146840941Y-88780589D01*
X146739953Y-88863468D01*
X146739951Y-88863470D01*
X146706183Y-88891183D01*
X146678470Y-88924951D01*
X145959931Y-89643491D01*
X145926164Y-89671203D01*
X145898451Y-89704971D01*
X145898448Y-89704974D01*
X145815570Y-89805961D01*
X145733392Y-89959707D01*
X145682785Y-90126530D01*
X145665699Y-90300020D01*
X145669981Y-90343499D01*
X145669980Y-109681511D01*
X145665699Y-109724980D01*
X145669980Y-109768449D01*
X145669980Y-109768456D01*
X145682785Y-109898469D01*
X145733391Y-110065292D01*
X145815569Y-110219038D01*
X145926163Y-110353797D01*
X145959936Y-110381514D01*
X146743470Y-111165049D01*
X146771183Y-111198817D01*
X146804951Y-111226530D01*
X146804953Y-111226532D01*
X146892634Y-111298490D01*
X146905941Y-111309411D01*
X147059687Y-111391589D01*
X147226510Y-111442195D01*
X147356523Y-111455000D01*
X147356531Y-111455000D01*
X147400000Y-111459281D01*
X147443469Y-111455000D01*
X150037150Y-111455000D01*
X150050225Y-111486566D01*
X150261987Y-111803491D01*
X150531509Y-112073013D01*
X150848434Y-112284775D01*
X151200581Y-112430639D01*
X151574419Y-112505000D01*
X151955581Y-112505000D01*
X152329419Y-112430639D01*
X152681566Y-112284775D01*
X152998491Y-112073013D01*
X153268013Y-111803491D01*
X153479775Y-111486566D01*
X153625639Y-111134419D01*
X153700000Y-110760581D01*
X153700000Y-110379419D01*
X153625639Y-110005581D01*
X153479775Y-109653434D01*
X153268013Y-109336509D01*
X152998491Y-109066987D01*
X152681566Y-108855225D01*
X152632739Y-108835000D01*
X153938422Y-108835000D01*
X154055001Y-108951580D01*
X154055000Y-121241531D01*
X154050719Y-121285000D01*
X154055000Y-121328469D01*
X154055000Y-121328476D01*
X154067805Y-121458489D01*
X154118411Y-121625312D01*
X154200589Y-121779058D01*
X154311183Y-121913817D01*
X154344956Y-121941534D01*
X154998470Y-122595049D01*
X155026183Y-122628817D01*
X155059951Y-122656530D01*
X155059953Y-122656532D01*
X155160941Y-122739411D01*
X155314687Y-122821589D01*
X155481510Y-122872195D01*
X155611523Y-122885000D01*
X155611531Y-122885000D01*
X155655000Y-122889281D01*
X155698469Y-122885000D01*
X158440482Y-122885000D01*
X158617965Y-123150621D01*
X158869379Y-123402035D01*
X159165012Y-123599571D01*
X159493501Y-123735635D01*
X159842223Y-123805000D01*
X160197777Y-123805000D01*
X160546499Y-123735635D01*
X160874988Y-123599571D01*
X161170621Y-123402035D01*
X161422035Y-123150621D01*
X161619571Y-122854988D01*
X161755635Y-122526499D01*
X161825000Y-122177777D01*
X161825000Y-121822223D01*
X161755635Y-121473501D01*
X161619571Y-121145012D01*
X161422035Y-120849379D01*
X161170621Y-120597965D01*
X160874988Y-120400429D01*
X160546499Y-120264365D01*
X160197777Y-120195000D01*
X159842223Y-120195000D01*
X159493501Y-120264365D01*
X159165012Y-120400429D01*
X158869379Y-120597965D01*
X158617965Y-120849379D01*
X158440482Y-121115000D01*
X156021579Y-121115000D01*
X155825000Y-120918422D01*
X155825000Y-108628469D01*
X155829281Y-108585000D01*
X155825000Y-108541531D01*
X155825000Y-108541523D01*
X155812195Y-108411510D01*
X155761589Y-108244687D01*
X155761589Y-108244686D01*
X155679411Y-108090941D01*
X155596532Y-107989953D01*
X155596530Y-107989951D01*
X155568817Y-107956183D01*
X155535049Y-107928470D01*
X154961534Y-107354956D01*
X154933817Y-107321183D01*
X154799059Y-107210589D01*
X154645313Y-107128411D01*
X154478490Y-107077805D01*
X154348477Y-107065000D01*
X154348469Y-107065000D01*
X154305000Y-107060719D01*
X154261531Y-107065000D01*
X153669421Y-107065000D01*
X153690812Y-106994482D01*
X153703072Y-106870000D01*
X153703072Y-104270000D01*
X153690812Y-104145518D01*
X153654502Y-104025820D01*
X153595537Y-103915506D01*
X153516185Y-103818815D01*
X153419494Y-103739463D01*
X153309180Y-103680498D01*
X153189482Y-103644188D01*
X153065000Y-103631928D01*
X150465000Y-103631928D01*
X150340518Y-103644188D01*
X150220820Y-103680498D01*
X150110506Y-103739463D01*
X150013815Y-103818815D01*
X149934463Y-103915506D01*
X149875498Y-104025820D01*
X149839188Y-104145518D01*
X149826928Y-104270000D01*
X149826928Y-104685000D01*
X149116579Y-104685000D01*
X148840000Y-104408422D01*
X148840000Y-100396345D01*
X148939250Y-100395000D01*
X149098000Y-100236250D01*
X149098000Y-99187000D01*
X149078000Y-99187000D01*
X149078000Y-98933000D01*
X149098000Y-98933000D01*
X149098000Y-97883750D01*
X148939250Y-97725000D01*
X148840000Y-97723655D01*
X148840000Y-95570000D01*
X149556928Y-95570000D01*
X149560000Y-96234250D01*
X149718750Y-96393000D01*
X150368000Y-96393000D01*
X150368000Y-95093750D01*
X150209250Y-94935000D01*
X150195000Y-94931928D01*
X150070518Y-94944188D01*
X149950820Y-94980498D01*
X149840506Y-95039463D01*
X149743815Y-95118815D01*
X149664463Y-95215506D01*
X149605498Y-95325820D01*
X149569188Y-95445518D01*
X149556928Y-95570000D01*
X148840000Y-95570000D01*
X148840000Y-94981578D01*
X148956579Y-94865000D01*
X150763422Y-94865000D01*
X150834211Y-94935790D01*
X150795000Y-94931928D01*
X150780750Y-94935000D01*
X150622000Y-95093750D01*
X150622000Y-96393000D01*
X150642000Y-96393000D01*
X150642000Y-96647000D01*
X150622000Y-96647000D01*
X150622000Y-96667000D01*
X150368000Y-96667000D01*
X150368000Y-96647000D01*
X149718750Y-96647000D01*
X149560000Y-96805750D01*
X149556928Y-97470000D01*
X149569188Y-97594482D01*
X149605498Y-97714180D01*
X149610559Y-97723648D01*
X149510750Y-97725000D01*
X149352000Y-97883750D01*
X149352000Y-98933000D01*
X149372000Y-98933000D01*
X149372000Y-99187000D01*
X149352000Y-99187000D01*
X149352000Y-100236250D01*
X149510750Y-100395000D01*
X149737500Y-100398072D01*
X149861982Y-100385812D01*
X149981680Y-100349502D01*
X150091994Y-100290537D01*
X150188685Y-100211185D01*
X150212863Y-100181724D01*
X150294113Y-100248405D01*
X150447649Y-100330472D01*
X150614245Y-100381008D01*
X150787499Y-100398072D01*
X151312501Y-100398072D01*
X151485755Y-100381008D01*
X151652351Y-100330472D01*
X151805887Y-100248405D01*
X151940462Y-100137962D01*
X152042500Y-100013629D01*
X152144538Y-100137962D01*
X152279113Y-100248405D01*
X152432649Y-100330472D01*
X152599245Y-100381008D01*
X152772499Y-100398072D01*
X153297501Y-100398072D01*
X153470755Y-100381008D01*
X153637351Y-100330472D01*
X153790887Y-100248405D01*
X153925462Y-100137962D01*
X153947500Y-100111109D01*
X153969538Y-100137962D01*
X154104113Y-100248405D01*
X154257649Y-100330472D01*
X154424245Y-100381008D01*
X154597499Y-100398072D01*
X155122501Y-100398072D01*
X155295755Y-100381008D01*
X155462351Y-100330472D01*
X155615887Y-100248405D01*
X155750462Y-100137962D01*
X155860905Y-100003387D01*
X155942972Y-99849851D01*
X155960000Y-99793717D01*
X155960001Y-114891521D01*
X155955719Y-114935000D01*
X155972805Y-115108490D01*
X156023412Y-115275313D01*
X156105590Y-115429059D01*
X156188468Y-115530046D01*
X156188471Y-115530049D01*
X156216184Y-115563817D01*
X156249952Y-115591530D01*
X156783466Y-116125044D01*
X156811183Y-116158817D01*
X156945941Y-116269411D01*
X157099687Y-116351589D01*
X157266510Y-116402195D01*
X157396523Y-116415000D01*
X157396533Y-116415000D01*
X157439999Y-116419281D01*
X157483466Y-116415000D01*
X158600482Y-116415000D01*
X158777965Y-116680621D01*
X159029379Y-116932035D01*
X159325012Y-117129571D01*
X159653501Y-117265635D01*
X160002223Y-117335000D01*
X160357777Y-117335000D01*
X160706499Y-117265635D01*
X161034988Y-117129571D01*
X161330621Y-116932035D01*
X161582035Y-116680621D01*
X161779571Y-116384988D01*
X161915635Y-116056499D01*
X161985000Y-115707777D01*
X161985000Y-115352223D01*
X161915635Y-115003501D01*
X161779571Y-114675012D01*
X161582035Y-114379379D01*
X161330621Y-114127965D01*
X161034988Y-113930429D01*
X160706499Y-113794365D01*
X160357777Y-113725000D01*
X160002223Y-113725000D01*
X159653501Y-113794365D01*
X159325012Y-113930429D01*
X159029379Y-114127965D01*
X158777965Y-114379379D01*
X158600482Y-114645000D01*
X157806578Y-114645000D01*
X157730000Y-114568422D01*
X157730000Y-100061578D01*
X157806578Y-99985000D01*
X158600482Y-99985000D01*
X158777965Y-100250621D01*
X159029379Y-100502035D01*
X159325012Y-100699571D01*
X159653501Y-100835635D01*
X160002223Y-100905000D01*
X160357777Y-100905000D01*
X160706499Y-100835635D01*
X161034988Y-100699571D01*
X161330621Y-100502035D01*
X161582035Y-100250621D01*
X161779571Y-99954988D01*
X161915635Y-99626499D01*
X161985000Y-99277777D01*
X161985000Y-98922223D01*
X161915635Y-98573501D01*
X161779571Y-98245012D01*
X161582035Y-97949379D01*
X161330621Y-97697965D01*
X161034988Y-97500429D01*
X160706499Y-97364365D01*
X160357777Y-97295000D01*
X160002223Y-97295000D01*
X159653501Y-97364365D01*
X159325012Y-97500429D01*
X159029379Y-97697965D01*
X158777965Y-97949379D01*
X158600482Y-98215000D01*
X157483466Y-98215000D01*
X157439999Y-98210719D01*
X157396533Y-98215000D01*
X157396523Y-98215000D01*
X157266510Y-98227805D01*
X157099687Y-98278411D01*
X156945941Y-98360589D01*
X156811183Y-98471183D01*
X156783466Y-98504956D01*
X156249956Y-99038466D01*
X156216183Y-99066183D01*
X156105589Y-99200942D01*
X156023411Y-99354688D01*
X156010572Y-99397012D01*
X156010572Y-98609999D01*
X155993508Y-98436745D01*
X155942972Y-98270149D01*
X155860905Y-98116613D01*
X155750462Y-97982038D01*
X155615887Y-97871595D01*
X155462351Y-97789528D01*
X155295755Y-97738992D01*
X155190000Y-97728576D01*
X155190000Y-97598783D01*
X155227929Y-97473745D01*
X155243072Y-97320000D01*
X155243072Y-95720000D01*
X155227929Y-95566255D01*
X155190000Y-95441217D01*
X155190000Y-94981578D01*
X156170050Y-94001529D01*
X156203817Y-93973817D01*
X156314411Y-93839059D01*
X156396589Y-93685313D01*
X156447195Y-93518490D01*
X156460000Y-93388477D01*
X156460000Y-93388467D01*
X156464281Y-93345001D01*
X156460000Y-93301535D01*
X156460000Y-92876568D01*
X156808476Y-93225044D01*
X156836193Y-93258817D01*
X156941208Y-93345001D01*
X156970951Y-93369411D01*
X157124696Y-93451589D01*
X157291520Y-93502195D01*
X157421533Y-93515000D01*
X157421541Y-93515000D01*
X157465010Y-93519281D01*
X157508479Y-93515000D01*
X158440482Y-93515000D01*
X158617965Y-93780621D01*
X158869379Y-94032035D01*
X159165012Y-94229571D01*
X159493501Y-94365635D01*
X159842223Y-94435000D01*
X160197777Y-94435000D01*
X160546499Y-94365635D01*
X160874988Y-94229571D01*
X161170621Y-94032035D01*
X161422035Y-93780621D01*
X161619571Y-93484988D01*
X161755635Y-93156499D01*
X161825000Y-92807777D01*
X161825000Y-92452223D01*
X161755635Y-92103501D01*
X161619571Y-91775012D01*
X161422035Y-91479379D01*
X161170621Y-91227965D01*
X160874988Y-91030429D01*
X160546499Y-90894365D01*
X160197777Y-90825000D01*
X159842223Y-90825000D01*
X159493501Y-90894365D01*
X159165012Y-91030429D01*
X158869379Y-91227965D01*
X158617965Y-91479379D01*
X158440482Y-91745000D01*
X157831588Y-91745000D01*
X157795010Y-91708422D01*
X157795010Y-87452223D01*
X158215000Y-87452223D01*
X158215000Y-87807777D01*
X158284365Y-88156499D01*
X158420429Y-88484988D01*
X158617965Y-88780621D01*
X158869379Y-89032035D01*
X159165012Y-89229571D01*
X159493501Y-89365635D01*
X159842223Y-89435000D01*
X160197777Y-89435000D01*
X160546499Y-89365635D01*
X160874988Y-89229571D01*
X161170621Y-89032035D01*
X161422035Y-88780621D01*
X161599518Y-88515000D01*
X162193422Y-88515000D01*
X162310000Y-88631579D01*
X162310001Y-103138421D01*
X162233422Y-103215000D01*
X161759518Y-103215000D01*
X161582035Y-102949379D01*
X161330621Y-102697965D01*
X161034988Y-102500429D01*
X160706499Y-102364365D01*
X160357777Y-102295000D01*
X160002223Y-102295000D01*
X159653501Y-102364365D01*
X159325012Y-102500429D01*
X159029379Y-102697965D01*
X158777965Y-102949379D01*
X158580429Y-103245012D01*
X158444365Y-103573501D01*
X158375000Y-103922223D01*
X158375000Y-104277777D01*
X158444365Y-104626499D01*
X158580429Y-104954988D01*
X158777965Y-105250621D01*
X159029379Y-105502035D01*
X159325012Y-105699571D01*
X159653501Y-105835635D01*
X160002223Y-105905000D01*
X160357777Y-105905000D01*
X160706499Y-105835635D01*
X161034988Y-105699571D01*
X161330621Y-105502035D01*
X161582035Y-105250621D01*
X161759518Y-104985000D01*
X162556531Y-104985000D01*
X162600000Y-104989281D01*
X162643469Y-104985000D01*
X162643477Y-104985000D01*
X162773490Y-104972195D01*
X162940313Y-104921589D01*
X163094059Y-104839411D01*
X163228817Y-104728817D01*
X163256534Y-104695044D01*
X163790044Y-104161534D01*
X163823817Y-104133817D01*
X163934411Y-103999059D01*
X164016589Y-103845313D01*
X164067195Y-103678490D01*
X164080000Y-103548477D01*
X164080000Y-103548467D01*
X164084281Y-103505001D01*
X164080000Y-103461534D01*
X164080000Y-88308469D01*
X164084281Y-88265000D01*
X164080000Y-88221531D01*
X164080000Y-88221523D01*
X164067195Y-88091510D01*
X164030430Y-87970313D01*
X164016589Y-87924686D01*
X163934411Y-87770941D01*
X163851532Y-87669953D01*
X163851530Y-87669951D01*
X163823817Y-87636183D01*
X163790050Y-87608471D01*
X163216534Y-87034956D01*
X163188817Y-87001183D01*
X163054059Y-86890589D01*
X162900313Y-86808411D01*
X162733490Y-86757805D01*
X162603477Y-86745000D01*
X162603469Y-86745000D01*
X162560000Y-86740719D01*
X162516531Y-86745000D01*
X161599518Y-86745000D01*
X161422035Y-86479379D01*
X161170621Y-86227965D01*
X160874988Y-86030429D01*
X160546499Y-85894365D01*
X160197777Y-85825000D01*
X159842223Y-85825000D01*
X159493501Y-85894365D01*
X159165012Y-86030429D01*
X158869379Y-86227965D01*
X158617965Y-86479379D01*
X158420429Y-86775012D01*
X158284365Y-87103501D01*
X158215000Y-87452223D01*
X157795010Y-87452223D01*
X157795010Y-77136568D01*
X157846578Y-77085000D01*
X158440482Y-77085000D01*
X158617965Y-77350621D01*
X158869379Y-77602035D01*
X159165012Y-77799571D01*
X159493501Y-77935635D01*
X159842223Y-78005000D01*
X160197777Y-78005000D01*
X160546499Y-77935635D01*
X160874988Y-77799571D01*
X161170621Y-77602035D01*
X161422035Y-77350621D01*
X161619571Y-77054988D01*
X161755635Y-76726499D01*
X161825000Y-76377777D01*
X161825000Y-76022223D01*
X161755635Y-75673501D01*
X161619571Y-75345012D01*
X161422035Y-75049379D01*
X161170621Y-74797965D01*
X160874988Y-74600429D01*
X160546499Y-74464365D01*
X160197777Y-74395000D01*
X159842223Y-74395000D01*
X159493501Y-74464365D01*
X159165012Y-74600429D01*
X158869379Y-74797965D01*
X158617965Y-75049379D01*
X158440482Y-75315000D01*
X157523469Y-75315000D01*
X157480000Y-75310719D01*
X157436531Y-75315000D01*
X157436523Y-75315000D01*
X157306510Y-75327805D01*
X157139686Y-75378411D01*
X157065551Y-75418037D01*
X156985941Y-75460589D01*
X156851183Y-75571183D01*
X156823466Y-75604956D01*
X156460000Y-75968422D01*
X156460000Y-70851578D01*
X156656579Y-70655000D01*
X158440482Y-70655000D01*
X158617965Y-70920621D01*
X158869379Y-71172035D01*
X159165012Y-71369571D01*
X159493501Y-71505635D01*
X159842223Y-71575000D01*
X160197777Y-71575000D01*
X160546499Y-71505635D01*
X160874988Y-71369571D01*
X161170621Y-71172035D01*
X161422035Y-70920621D01*
X161619571Y-70624988D01*
X161755635Y-70296499D01*
X161825000Y-69947777D01*
X161825000Y-69592223D01*
X161755635Y-69243501D01*
X161619571Y-68915012D01*
X161422035Y-68619379D01*
X161170621Y-68367965D01*
X160874988Y-68170429D01*
X160546499Y-68034365D01*
X160197777Y-67965000D01*
X159842223Y-67965000D01*
X159493501Y-68034365D01*
X159165012Y-68170429D01*
X158869379Y-68367965D01*
X158617965Y-68619379D01*
X158440482Y-68885000D01*
X156333469Y-68885000D01*
X156290000Y-68880719D01*
X156246531Y-68885000D01*
X156246523Y-68885000D01*
X156116510Y-68897805D01*
X155949687Y-68948411D01*
X155842627Y-69005635D01*
X155795941Y-69030589D01*
X155694953Y-69113468D01*
X155694951Y-69113470D01*
X155661183Y-69141183D01*
X155633470Y-69174951D01*
X155440000Y-69368421D01*
X155440000Y-66587835D01*
X155960000Y-66587835D01*
X155960000Y-66762165D01*
X155994010Y-66933145D01*
X156060723Y-67094205D01*
X156157576Y-67239155D01*
X156280845Y-67362424D01*
X156425795Y-67459277D01*
X156586855Y-67525990D01*
X156757835Y-67560000D01*
X156932165Y-67560000D01*
X157103145Y-67525990D01*
X157264205Y-67459277D01*
X157409155Y-67362424D01*
X157532424Y-67239155D01*
X157629277Y-67094205D01*
X157695990Y-66933145D01*
X157730000Y-66762165D01*
X157730000Y-66587835D01*
X157695990Y-66416855D01*
X157629277Y-66255795D01*
X157532424Y-66110845D01*
X157409155Y-65987576D01*
X157264205Y-65890723D01*
X157103145Y-65824010D01*
X156932165Y-65790000D01*
X156757835Y-65790000D01*
X156586855Y-65824010D01*
X156425795Y-65890723D01*
X156280845Y-65987576D01*
X156157576Y-66110845D01*
X156060723Y-66255795D01*
X155994010Y-66416855D01*
X155960000Y-66587835D01*
X155440000Y-66587835D01*
X155440000Y-63365000D01*
X158873816Y-63365000D01*
X158869379Y-63367965D01*
X158617965Y-63619379D01*
X158420429Y-63915012D01*
X158284365Y-64243501D01*
X158215000Y-64592223D01*
X158215000Y-64947777D01*
X158284365Y-65296499D01*
X158420429Y-65624988D01*
X158617965Y-65920621D01*
X158869379Y-66172035D01*
X159165012Y-66369571D01*
X159493501Y-66505635D01*
X159842223Y-66575000D01*
X160197777Y-66575000D01*
X160546499Y-66505635D01*
X160874988Y-66369571D01*
X161170621Y-66172035D01*
X161422035Y-65920621D01*
X161599518Y-65655000D01*
X162193422Y-65655000D01*
X162310000Y-65771579D01*
X162310001Y-80278421D01*
X162273422Y-80315000D01*
X161599518Y-80315000D01*
X161422035Y-80049379D01*
X161170621Y-79797965D01*
X160874988Y-79600429D01*
X160546499Y-79464365D01*
X160197777Y-79395000D01*
X159842223Y-79395000D01*
X159493501Y-79464365D01*
X159165012Y-79600429D01*
X158869379Y-79797965D01*
X158617965Y-80049379D01*
X158420429Y-80345012D01*
X158284365Y-80673501D01*
X158215000Y-81022223D01*
X158215000Y-81377777D01*
X158284365Y-81726499D01*
X158420429Y-82054988D01*
X158617965Y-82350621D01*
X158869379Y-82602035D01*
X159165012Y-82799571D01*
X159493501Y-82935635D01*
X159842223Y-83005000D01*
X160197777Y-83005000D01*
X160546499Y-82935635D01*
X160874988Y-82799571D01*
X161170621Y-82602035D01*
X161422035Y-82350621D01*
X161599518Y-82085000D01*
X162596531Y-82085000D01*
X162640000Y-82089281D01*
X162683469Y-82085000D01*
X162683477Y-82085000D01*
X162813490Y-82072195D01*
X162980313Y-82021589D01*
X163134059Y-81939411D01*
X163268817Y-81828817D01*
X163296534Y-81795044D01*
X163790044Y-81301534D01*
X163823817Y-81273817D01*
X163934411Y-81139059D01*
X163994569Y-81026510D01*
X164016589Y-80985314D01*
X164067195Y-80818490D01*
X164074925Y-80740001D01*
X164080000Y-80688477D01*
X164080000Y-80688469D01*
X164084281Y-80645000D01*
X164080000Y-80601531D01*
X164080000Y-65448469D01*
X164084281Y-65405000D01*
X164080000Y-65361531D01*
X164080000Y-65361523D01*
X164067195Y-65231510D01*
X164024627Y-65091183D01*
X164016589Y-65064686D01*
X163934411Y-64910941D01*
X163851532Y-64809953D01*
X163851530Y-64809951D01*
X163823817Y-64776183D01*
X163790050Y-64748471D01*
X163216534Y-64174956D01*
X163188817Y-64141183D01*
X163054059Y-64030589D01*
X162900313Y-63948411D01*
X162733490Y-63897805D01*
X162603477Y-63885000D01*
X162603469Y-63885000D01*
X162560000Y-63880719D01*
X162516531Y-63885000D01*
X161599518Y-63885000D01*
X161422035Y-63619379D01*
X161170621Y-63367965D01*
X161166184Y-63365000D01*
X166505000Y-63365000D01*
X166505001Y-69794238D01*
X166499509Y-69850000D01*
X166505000Y-69905752D01*
X166505001Y-81144236D01*
X166499509Y-81199998D01*
X166505000Y-81255750D01*
X166505001Y-92574236D01*
X166499509Y-92629998D01*
X166505001Y-92685760D01*
X166505000Y-104084248D01*
X166499509Y-104140000D01*
X166505001Y-104195762D01*
X166505000Y-115514248D01*
X166499509Y-115570000D01*
X166505001Y-115625762D01*
X166505000Y-126944248D01*
X166499509Y-127000000D01*
X166521423Y-127222499D01*
X166586324Y-127436447D01*
X166654585Y-127564155D01*
X166691716Y-127633623D01*
X166833551Y-127806449D01*
X167006377Y-127948284D01*
X167203553Y-128053676D01*
X167417501Y-128118577D01*
X167640000Y-128140491D01*
X167695751Y-128135000D01*
X173394249Y-128135000D01*
X173450000Y-128140491D01*
X173505751Y-128135000D01*
X173505752Y-128135000D01*
X173672499Y-128118577D01*
X173886447Y-128053676D01*
X174083623Y-127948284D01*
X174256449Y-127806449D01*
X174291996Y-127763135D01*
X174521425Y-127533706D01*
X174634180Y-127499502D01*
X174744494Y-127440537D01*
X174841185Y-127361185D01*
X174920537Y-127264494D01*
X174979502Y-127154180D01*
X175015812Y-127034482D01*
X175026184Y-126929172D01*
X175043675Y-126896448D01*
X175108576Y-126682500D01*
X175130490Y-126460001D01*
X175108576Y-126237502D01*
X175043675Y-126023554D01*
X175026184Y-125990830D01*
X175015812Y-125885518D01*
X174979502Y-125765820D01*
X174962576Y-125734154D01*
X176823470Y-127595049D01*
X176851183Y-127628817D01*
X176884951Y-127656530D01*
X176884953Y-127656532D01*
X176922595Y-127687424D01*
X176985941Y-127739411D01*
X177131928Y-127817442D01*
X177131928Y-128300000D01*
X177144188Y-128424482D01*
X177180498Y-128544180D01*
X177239463Y-128654494D01*
X177318815Y-128751185D01*
X177415506Y-128830537D01*
X177525820Y-128889502D01*
X177645518Y-128925812D01*
X177770000Y-128938072D01*
X180370000Y-128938072D01*
X180494482Y-128925812D01*
X180614180Y-128889502D01*
X180724494Y-128830537D01*
X180821185Y-128751185D01*
X180900537Y-128654494D01*
X180959502Y-128544180D01*
X180995812Y-128424482D01*
X181008072Y-128300000D01*
X181008072Y-126912835D01*
X181995000Y-126912835D01*
X181995000Y-127087165D01*
X182029010Y-127258145D01*
X182095723Y-127419205D01*
X182192576Y-127564155D01*
X182315845Y-127687424D01*
X182460795Y-127784277D01*
X182621855Y-127850990D01*
X182792835Y-127885000D01*
X182967165Y-127885000D01*
X183138145Y-127850990D01*
X183299205Y-127784277D01*
X183444155Y-127687424D01*
X183567424Y-127564155D01*
X183664277Y-127419205D01*
X183730990Y-127258145D01*
X183765000Y-127087165D01*
X183765000Y-126912835D01*
X183730990Y-126741855D01*
X183664277Y-126580795D01*
X183567424Y-126435845D01*
X183444155Y-126312576D01*
X183299205Y-126215723D01*
X183138145Y-126149010D01*
X182967165Y-126115000D01*
X182792835Y-126115000D01*
X182621855Y-126149010D01*
X182460795Y-126215723D01*
X182315845Y-126312576D01*
X182192576Y-126435845D01*
X182095723Y-126580795D01*
X182029010Y-126741855D01*
X181995000Y-126912835D01*
X181008072Y-126912835D01*
X181008072Y-125700000D01*
X180995812Y-125575518D01*
X180959502Y-125455820D01*
X180900537Y-125345506D01*
X180821185Y-125248815D01*
X180724494Y-125169463D01*
X180614180Y-125110498D01*
X180494482Y-125074188D01*
X180370000Y-125061928D01*
X177770000Y-125061928D01*
X177645518Y-125074188D01*
X177525820Y-125110498D01*
X177415506Y-125169463D01*
X177318815Y-125248815D01*
X177239463Y-125345506D01*
X177182902Y-125451323D01*
X175978072Y-124246494D01*
X175978072Y-124010000D01*
X175965812Y-123885518D01*
X175929502Y-123765820D01*
X175870537Y-123655506D01*
X175825000Y-123600019D01*
X175825000Y-123349224D01*
X177900381Y-123349224D01*
X178032317Y-123644312D01*
X178373045Y-123815159D01*
X178740557Y-123916250D01*
X179120729Y-123943701D01*
X179498951Y-123896457D01*
X179860690Y-123776333D01*
X180107683Y-123644312D01*
X180239619Y-123349224D01*
X179070000Y-122179605D01*
X177900381Y-123349224D01*
X175825000Y-123349224D01*
X175825000Y-122913469D01*
X175829281Y-122870000D01*
X175825000Y-122826531D01*
X175825000Y-122826523D01*
X175812195Y-122696510D01*
X175761589Y-122529687D01*
X175679411Y-122375941D01*
X175568817Y-122241183D01*
X175535049Y-122213470D01*
X175372308Y-122050729D01*
X177126299Y-122050729D01*
X177173543Y-122428951D01*
X177293667Y-122790690D01*
X177425688Y-123037683D01*
X177720776Y-123169619D01*
X178890395Y-122000000D01*
X179249605Y-122000000D01*
X180419224Y-123169619D01*
X180714312Y-123037683D01*
X180885159Y-122696955D01*
X180986250Y-122329443D01*
X181013701Y-121949271D01*
X180966457Y-121571049D01*
X180846333Y-121209310D01*
X180714312Y-120962317D01*
X180419224Y-120830381D01*
X179249605Y-122000000D01*
X178890395Y-122000000D01*
X177720776Y-120830381D01*
X177425688Y-120962317D01*
X177254841Y-121303045D01*
X177153750Y-121670557D01*
X177126299Y-122050729D01*
X175372308Y-122050729D01*
X175328072Y-122006493D01*
X175328072Y-121657499D01*
X175311008Y-121484245D01*
X175260472Y-121317649D01*
X175178405Y-121164113D01*
X175111724Y-121082863D01*
X175141185Y-121058685D01*
X175220537Y-120961994D01*
X175279502Y-120851680D01*
X175315812Y-120731982D01*
X175323809Y-120650776D01*
X177900381Y-120650776D01*
X179070000Y-121820395D01*
X180239619Y-120650776D01*
X180107683Y-120355688D01*
X179766955Y-120184841D01*
X179399443Y-120083750D01*
X179019271Y-120056299D01*
X178641049Y-120103543D01*
X178279310Y-120223667D01*
X178032317Y-120355688D01*
X177900381Y-120650776D01*
X175323809Y-120650776D01*
X175328072Y-120607500D01*
X175325000Y-120380750D01*
X175166250Y-120222000D01*
X174117000Y-120222000D01*
X174117000Y-120242000D01*
X173863000Y-120242000D01*
X173863000Y-120222000D01*
X172813750Y-120222000D01*
X172655000Y-120380750D01*
X172651928Y-120607500D01*
X172664188Y-120731982D01*
X172700498Y-120851680D01*
X172759463Y-120961994D01*
X172838815Y-121058685D01*
X172868276Y-121082863D01*
X172801595Y-121164113D01*
X172719528Y-121317649D01*
X172668992Y-121484245D01*
X172651928Y-121657499D01*
X172651928Y-122182501D01*
X172668992Y-122355755D01*
X172719528Y-122522351D01*
X172801595Y-122675887D01*
X172912038Y-122810462D01*
X173046613Y-122920905D01*
X173200149Y-123002972D01*
X173366745Y-123053508D01*
X173539999Y-123070572D01*
X173888993Y-123070572D01*
X174055001Y-123236579D01*
X174055001Y-123600018D01*
X174009463Y-123655506D01*
X173990000Y-123691918D01*
X173970537Y-123655506D01*
X173891185Y-123558815D01*
X173794494Y-123479463D01*
X173684180Y-123420498D01*
X173564482Y-123384188D01*
X173440000Y-123371928D01*
X172640000Y-123371928D01*
X172515518Y-123384188D01*
X172395820Y-123420498D01*
X172285506Y-123479463D01*
X172188815Y-123558815D01*
X172175532Y-123575000D01*
X171572790Y-123575000D01*
X171422035Y-123349379D01*
X171170621Y-123097965D01*
X170874988Y-122900429D01*
X170546499Y-122764365D01*
X170197777Y-122695000D01*
X169842223Y-122695000D01*
X169493501Y-122764365D01*
X169165012Y-122900429D01*
X168869379Y-123097965D01*
X168775000Y-123192344D01*
X168775000Y-119582500D01*
X172651928Y-119582500D01*
X172655000Y-119809250D01*
X172813750Y-119968000D01*
X173863000Y-119968000D01*
X173863000Y-119106250D01*
X174117000Y-119106250D01*
X174117000Y-119968000D01*
X175166250Y-119968000D01*
X175325000Y-119809250D01*
X175328072Y-119582500D01*
X175315812Y-119458018D01*
X175279502Y-119338320D01*
X175220537Y-119228006D01*
X175141185Y-119131315D01*
X175044494Y-119051963D01*
X174934180Y-118992998D01*
X174814482Y-118956688D01*
X174690000Y-118944428D01*
X174275750Y-118947500D01*
X174117000Y-119106250D01*
X173863000Y-119106250D01*
X173704250Y-118947500D01*
X173290000Y-118944428D01*
X173165518Y-118956688D01*
X173045820Y-118992998D01*
X172935506Y-119051963D01*
X172838815Y-119131315D01*
X172759463Y-119228006D01*
X172700498Y-119338320D01*
X172664188Y-119458018D01*
X172651928Y-119582500D01*
X168775000Y-119582500D01*
X168775000Y-116705000D01*
X173934249Y-116705000D01*
X173990000Y-116710491D01*
X174045751Y-116705000D01*
X174045752Y-116705000D01*
X174212499Y-116688577D01*
X174426447Y-116623676D01*
X174623623Y-116518284D01*
X174796449Y-116376449D01*
X174831996Y-116333135D01*
X175073135Y-116091996D01*
X175116449Y-116056449D01*
X175258284Y-115883623D01*
X175363676Y-115686446D01*
X175428577Y-115472498D01*
X175445000Y-115305751D01*
X175445000Y-115305743D01*
X175450490Y-115250001D01*
X175445000Y-115194259D01*
X175445000Y-114974248D01*
X175428577Y-114807501D01*
X175363676Y-114593553D01*
X175346184Y-114560827D01*
X175335812Y-114455518D01*
X175299502Y-114335820D01*
X175282576Y-114304154D01*
X177131928Y-116153507D01*
X177131928Y-116870000D01*
X177144188Y-116994482D01*
X177180498Y-117114180D01*
X177239463Y-117224494D01*
X177318815Y-117321185D01*
X177415506Y-117400537D01*
X177525820Y-117459502D01*
X177645518Y-117495812D01*
X177770000Y-117508072D01*
X180370000Y-117508072D01*
X180494482Y-117495812D01*
X180614180Y-117459502D01*
X180724494Y-117400537D01*
X180821185Y-117321185D01*
X180900537Y-117224494D01*
X180959502Y-117114180D01*
X180995812Y-116994482D01*
X181008072Y-116870000D01*
X181008072Y-114270000D01*
X180995812Y-114145518D01*
X180959502Y-114025820D01*
X180900537Y-113915506D01*
X180821185Y-113818815D01*
X180724494Y-113739463D01*
X180614180Y-113680498D01*
X180494482Y-113644188D01*
X180370000Y-113631928D01*
X177770000Y-113631928D01*
X177645518Y-113644188D01*
X177525820Y-113680498D01*
X177415506Y-113739463D01*
X177318815Y-113818815D01*
X177310511Y-113828933D01*
X176298072Y-112816494D01*
X176298072Y-112580000D01*
X176285812Y-112455518D01*
X176249502Y-112335820D01*
X176190537Y-112225506D01*
X176145000Y-112170019D01*
X176145000Y-111919224D01*
X177900381Y-111919224D01*
X178032317Y-112214312D01*
X178373045Y-112385159D01*
X178740557Y-112486250D01*
X179120729Y-112513701D01*
X179498951Y-112466457D01*
X179860690Y-112346333D01*
X180107683Y-112214312D01*
X180239619Y-111919224D01*
X179070000Y-110749605D01*
X177900381Y-111919224D01*
X176145000Y-111919224D01*
X176145000Y-111803465D01*
X176149281Y-111759999D01*
X176145000Y-111716533D01*
X176145000Y-111716523D01*
X176132195Y-111586510D01*
X176081589Y-111419687D01*
X175999411Y-111265941D01*
X175965811Y-111225000D01*
X175916532Y-111164953D01*
X175916530Y-111164951D01*
X175888817Y-111131183D01*
X175855049Y-111103470D01*
X175372308Y-110620729D01*
X177126299Y-110620729D01*
X177173543Y-110998951D01*
X177293667Y-111360690D01*
X177425688Y-111607683D01*
X177720776Y-111739619D01*
X178890395Y-110570000D01*
X179249605Y-110570000D01*
X180419224Y-111739619D01*
X180714312Y-111607683D01*
X180885159Y-111266955D01*
X180986250Y-110899443D01*
X181013701Y-110519271D01*
X180966457Y-110141049D01*
X180846333Y-109779310D01*
X180714312Y-109532317D01*
X180419224Y-109400381D01*
X179249605Y-110570000D01*
X178890395Y-110570000D01*
X177720776Y-109400381D01*
X177425688Y-109532317D01*
X177254841Y-109873045D01*
X177153750Y-110240557D01*
X177126299Y-110620729D01*
X175372308Y-110620729D01*
X175328072Y-110576493D01*
X175328072Y-110227499D01*
X175311008Y-110054245D01*
X175260472Y-109887649D01*
X175178405Y-109734113D01*
X175111724Y-109652863D01*
X175141185Y-109628685D01*
X175220537Y-109531994D01*
X175279502Y-109421680D01*
X175315812Y-109301982D01*
X175323809Y-109220776D01*
X177900381Y-109220776D01*
X179070000Y-110390395D01*
X180239619Y-109220776D01*
X180107683Y-108925688D01*
X179766955Y-108754841D01*
X179399443Y-108653750D01*
X179019271Y-108626299D01*
X178641049Y-108673543D01*
X178279310Y-108793667D01*
X178032317Y-108925688D01*
X177900381Y-109220776D01*
X175323809Y-109220776D01*
X175328072Y-109177500D01*
X175325000Y-108950750D01*
X175166250Y-108792000D01*
X174117000Y-108792000D01*
X174117000Y-108812000D01*
X173863000Y-108812000D01*
X173863000Y-108792000D01*
X172813750Y-108792000D01*
X172655000Y-108950750D01*
X172651928Y-109177500D01*
X172664188Y-109301982D01*
X172700498Y-109421680D01*
X172759463Y-109531994D01*
X172838815Y-109628685D01*
X172868276Y-109652863D01*
X172801595Y-109734113D01*
X172719528Y-109887649D01*
X172668992Y-110054245D01*
X172651928Y-110227499D01*
X172651928Y-110752501D01*
X172668992Y-110925755D01*
X172719528Y-111092351D01*
X172801595Y-111245887D01*
X172912038Y-111380462D01*
X173046613Y-111490905D01*
X173200149Y-111572972D01*
X173366745Y-111623508D01*
X173539999Y-111640572D01*
X173888994Y-111640572D01*
X174375001Y-112126579D01*
X174375001Y-112170018D01*
X174329463Y-112225506D01*
X174310000Y-112261918D01*
X174290537Y-112225506D01*
X174211185Y-112128815D01*
X174114494Y-112049463D01*
X174004180Y-111990498D01*
X173884482Y-111954188D01*
X173760000Y-111941928D01*
X172960000Y-111941928D01*
X172835518Y-111954188D01*
X172715820Y-111990498D01*
X172605506Y-112049463D01*
X172508815Y-112128815D01*
X172495532Y-112145000D01*
X171759518Y-112145000D01*
X171582035Y-111879379D01*
X171330621Y-111627965D01*
X171034988Y-111430429D01*
X170706499Y-111294365D01*
X170357777Y-111225000D01*
X170002223Y-111225000D01*
X169653501Y-111294365D01*
X169325012Y-111430429D01*
X169029379Y-111627965D01*
X168777965Y-111879379D01*
X168775000Y-111883816D01*
X168775000Y-108152500D01*
X172651928Y-108152500D01*
X172655000Y-108379250D01*
X172813750Y-108538000D01*
X173863000Y-108538000D01*
X173863000Y-107676250D01*
X174117000Y-107676250D01*
X174117000Y-108538000D01*
X175166250Y-108538000D01*
X175325000Y-108379250D01*
X175328072Y-108152500D01*
X175315812Y-108028018D01*
X175279502Y-107908320D01*
X175220537Y-107798006D01*
X175141185Y-107701315D01*
X175044494Y-107621963D01*
X174934180Y-107562998D01*
X174814482Y-107526688D01*
X174690000Y-107514428D01*
X174275750Y-107517500D01*
X174117000Y-107676250D01*
X173863000Y-107676250D01*
X173704250Y-107517500D01*
X173290000Y-107514428D01*
X173165518Y-107526688D01*
X173045820Y-107562998D01*
X172935506Y-107621963D01*
X172838815Y-107701315D01*
X172759463Y-107798006D01*
X172700498Y-107908320D01*
X172664188Y-108028018D01*
X172651928Y-108152500D01*
X168775000Y-108152500D01*
X168775000Y-105275000D01*
X173934249Y-105275000D01*
X173990000Y-105280491D01*
X174045751Y-105275000D01*
X174045752Y-105275000D01*
X174212499Y-105258577D01*
X174426447Y-105193676D01*
X174623623Y-105088284D01*
X174796449Y-104946449D01*
X174831996Y-104903135D01*
X175073135Y-104661996D01*
X175116449Y-104626449D01*
X175258284Y-104453623D01*
X175363676Y-104256446D01*
X175428577Y-104042498D01*
X175445000Y-103875751D01*
X175445000Y-103875743D01*
X175450490Y-103820001D01*
X175445000Y-103764259D01*
X175445000Y-103544248D01*
X175428577Y-103377501D01*
X175363676Y-103163553D01*
X175346184Y-103130827D01*
X175335812Y-103025518D01*
X175299502Y-102905820D01*
X175282576Y-102874154D01*
X177131928Y-104723507D01*
X177131928Y-105440000D01*
X177144188Y-105564482D01*
X177180498Y-105684180D01*
X177239463Y-105794494D01*
X177318815Y-105891185D01*
X177415506Y-105970537D01*
X177525820Y-106029502D01*
X177645518Y-106065812D01*
X177770000Y-106078072D01*
X180370000Y-106078072D01*
X180494482Y-106065812D01*
X180614180Y-106029502D01*
X180724494Y-105970537D01*
X180821185Y-105891185D01*
X180900537Y-105794494D01*
X180959502Y-105684180D01*
X180995812Y-105564482D01*
X181008072Y-105440000D01*
X181008072Y-102840000D01*
X180995812Y-102715518D01*
X180959502Y-102595820D01*
X180900537Y-102485506D01*
X180821185Y-102388815D01*
X180724494Y-102309463D01*
X180614180Y-102250498D01*
X180494482Y-102214188D01*
X180370000Y-102201928D01*
X177770000Y-102201928D01*
X177645518Y-102214188D01*
X177525820Y-102250498D01*
X177415506Y-102309463D01*
X177318815Y-102388815D01*
X177310511Y-102398933D01*
X176298072Y-101386494D01*
X176298072Y-101150000D01*
X176285812Y-101025518D01*
X176249502Y-100905820D01*
X176190537Y-100795506D01*
X176145000Y-100740019D01*
X176145000Y-100489224D01*
X177900381Y-100489224D01*
X178032317Y-100784312D01*
X178373045Y-100955159D01*
X178740557Y-101056250D01*
X179120729Y-101083701D01*
X179498951Y-101036457D01*
X179860690Y-100916333D01*
X180107683Y-100784312D01*
X180239619Y-100489224D01*
X179070000Y-99319605D01*
X177900381Y-100489224D01*
X176145000Y-100489224D01*
X176145000Y-100373465D01*
X176149281Y-100329999D01*
X176145000Y-100286533D01*
X176145000Y-100286523D01*
X176132195Y-100156510D01*
X176081589Y-99989687D01*
X175999411Y-99835941D01*
X175965811Y-99795000D01*
X175916532Y-99734953D01*
X175916530Y-99734951D01*
X175888817Y-99701183D01*
X175855049Y-99673470D01*
X175372308Y-99190729D01*
X177126299Y-99190729D01*
X177173543Y-99568951D01*
X177293667Y-99930690D01*
X177425688Y-100177683D01*
X177720776Y-100309619D01*
X178890395Y-99140000D01*
X179249605Y-99140000D01*
X180419224Y-100309619D01*
X180714312Y-100177683D01*
X180885159Y-99836955D01*
X180986250Y-99469443D01*
X181013701Y-99089271D01*
X180966457Y-98711049D01*
X180846333Y-98349310D01*
X180714312Y-98102317D01*
X180419224Y-97970381D01*
X179249605Y-99140000D01*
X178890395Y-99140000D01*
X177720776Y-97970381D01*
X177425688Y-98102317D01*
X177254841Y-98443045D01*
X177153750Y-98810557D01*
X177126299Y-99190729D01*
X175372308Y-99190729D01*
X175328072Y-99146493D01*
X175328072Y-98797499D01*
X175311008Y-98624245D01*
X175260472Y-98457649D01*
X175178405Y-98304113D01*
X175111724Y-98222863D01*
X175141185Y-98198685D01*
X175220537Y-98101994D01*
X175279502Y-97991680D01*
X175315812Y-97871982D01*
X175323809Y-97790776D01*
X177900381Y-97790776D01*
X179070000Y-98960395D01*
X180239619Y-97790776D01*
X180107683Y-97495688D01*
X179766955Y-97324841D01*
X179399443Y-97223750D01*
X179019271Y-97196299D01*
X178641049Y-97243543D01*
X178279310Y-97363667D01*
X178032317Y-97495688D01*
X177900381Y-97790776D01*
X175323809Y-97790776D01*
X175328072Y-97747500D01*
X175325000Y-97520750D01*
X175166250Y-97362000D01*
X174117000Y-97362000D01*
X174117000Y-97382000D01*
X173863000Y-97382000D01*
X173863000Y-97362000D01*
X172813750Y-97362000D01*
X172655000Y-97520750D01*
X172651928Y-97747500D01*
X172664188Y-97871982D01*
X172700498Y-97991680D01*
X172759463Y-98101994D01*
X172838815Y-98198685D01*
X172868276Y-98222863D01*
X172801595Y-98304113D01*
X172719528Y-98457649D01*
X172668992Y-98624245D01*
X172651928Y-98797499D01*
X172651928Y-99322501D01*
X172668992Y-99495755D01*
X172719528Y-99662351D01*
X172801595Y-99815887D01*
X172912038Y-99950462D01*
X173046613Y-100060905D01*
X173200149Y-100142972D01*
X173366745Y-100193508D01*
X173539999Y-100210572D01*
X173888994Y-100210572D01*
X174375001Y-100696579D01*
X174375001Y-100740018D01*
X174329463Y-100795506D01*
X174310000Y-100831918D01*
X174290537Y-100795506D01*
X174211185Y-100698815D01*
X174114494Y-100619463D01*
X174004180Y-100560498D01*
X173884482Y-100524188D01*
X173760000Y-100511928D01*
X172960000Y-100511928D01*
X172835518Y-100524188D01*
X172715820Y-100560498D01*
X172605506Y-100619463D01*
X172508815Y-100698815D01*
X172495532Y-100715000D01*
X171759518Y-100715000D01*
X171582035Y-100449379D01*
X171330621Y-100197965D01*
X171034988Y-100000429D01*
X170706499Y-99864365D01*
X170357777Y-99795000D01*
X170002223Y-99795000D01*
X169653501Y-99864365D01*
X169325012Y-100000429D01*
X169029379Y-100197965D01*
X168777965Y-100449379D01*
X168775000Y-100453816D01*
X168775000Y-96722500D01*
X172651928Y-96722500D01*
X172655000Y-96949250D01*
X172813750Y-97108000D01*
X173863000Y-97108000D01*
X173863000Y-96246250D01*
X174117000Y-96246250D01*
X174117000Y-97108000D01*
X175166250Y-97108000D01*
X175325000Y-96949250D01*
X175328072Y-96722500D01*
X175315812Y-96598018D01*
X175279502Y-96478320D01*
X175220537Y-96368006D01*
X175141185Y-96271315D01*
X175044494Y-96191963D01*
X174934180Y-96132998D01*
X174814482Y-96096688D01*
X174690000Y-96084428D01*
X174275750Y-96087500D01*
X174117000Y-96246250D01*
X173863000Y-96246250D01*
X173704250Y-96087500D01*
X173290000Y-96084428D01*
X173165518Y-96096688D01*
X173045820Y-96132998D01*
X172935506Y-96191963D01*
X172838815Y-96271315D01*
X172759463Y-96368006D01*
X172700498Y-96478320D01*
X172664188Y-96598018D01*
X172651928Y-96722500D01*
X168775000Y-96722500D01*
X168775000Y-93764998D01*
X173154251Y-93764998D01*
X173210002Y-93770489D01*
X173265753Y-93764998D01*
X173265754Y-93764998D01*
X173432501Y-93748575D01*
X173646449Y-93683674D01*
X173843625Y-93578282D01*
X174016451Y-93436447D01*
X174051998Y-93393133D01*
X174201425Y-93243706D01*
X174314180Y-93209502D01*
X174424494Y-93150537D01*
X174521185Y-93071185D01*
X174600537Y-92974494D01*
X174659502Y-92864180D01*
X174695812Y-92744482D01*
X174706184Y-92639172D01*
X174723675Y-92606448D01*
X174788576Y-92392500D01*
X174810490Y-92170001D01*
X174788576Y-91947502D01*
X174723675Y-91733554D01*
X174706184Y-91700830D01*
X174695812Y-91595518D01*
X174659502Y-91475820D01*
X174642576Y-91444154D01*
X176503470Y-93305049D01*
X176531183Y-93338817D01*
X176564951Y-93366530D01*
X176564953Y-93366532D01*
X176591692Y-93388476D01*
X176665941Y-93449411D01*
X176819687Y-93531589D01*
X176986510Y-93582195D01*
X177116523Y-93595000D01*
X177116533Y-93595000D01*
X177131928Y-93596516D01*
X177131928Y-94010000D01*
X177144188Y-94134482D01*
X177180498Y-94254180D01*
X177239463Y-94364494D01*
X177318815Y-94461185D01*
X177415506Y-94540537D01*
X177525820Y-94599502D01*
X177645518Y-94635812D01*
X177770000Y-94648072D01*
X180370000Y-94648072D01*
X180494482Y-94635812D01*
X180614180Y-94599502D01*
X180724494Y-94540537D01*
X180821185Y-94461185D01*
X180900537Y-94364494D01*
X180959502Y-94254180D01*
X180995812Y-94134482D01*
X181008072Y-94010000D01*
X181008072Y-91410000D01*
X180995812Y-91285518D01*
X180959502Y-91165820D01*
X180900537Y-91055506D01*
X180821185Y-90958815D01*
X180724494Y-90879463D01*
X180614180Y-90820498D01*
X180494482Y-90784188D01*
X180370000Y-90771928D01*
X177770000Y-90771928D01*
X177645518Y-90784188D01*
X177525820Y-90820498D01*
X177415506Y-90879463D01*
X177318815Y-90958815D01*
X177239463Y-91055506D01*
X177180498Y-91165820D01*
X177144188Y-91285518D01*
X177131928Y-91410000D01*
X177131928Y-91430349D01*
X175658072Y-89956494D01*
X175658072Y-89720000D01*
X175645812Y-89595518D01*
X175609502Y-89475820D01*
X175550537Y-89365506D01*
X175505000Y-89310019D01*
X175505000Y-89059224D01*
X177900381Y-89059224D01*
X178032317Y-89354312D01*
X178373045Y-89525159D01*
X178740557Y-89626250D01*
X179120729Y-89653701D01*
X179498951Y-89606457D01*
X179860690Y-89486333D01*
X180107683Y-89354312D01*
X180239619Y-89059224D01*
X179070000Y-87889605D01*
X177900381Y-89059224D01*
X175505000Y-89059224D01*
X175505000Y-87945969D01*
X175509281Y-87902500D01*
X175505000Y-87859031D01*
X175505000Y-87859023D01*
X175495320Y-87760729D01*
X177126299Y-87760729D01*
X177173543Y-88138951D01*
X177293667Y-88500690D01*
X177425688Y-88747683D01*
X177720776Y-88879619D01*
X178890395Y-87710000D01*
X179249605Y-87710000D01*
X180419224Y-88879619D01*
X180714312Y-88747683D01*
X180885159Y-88406955D01*
X180986250Y-88039443D01*
X181013701Y-87659271D01*
X180966457Y-87281049D01*
X180846333Y-86919310D01*
X180714312Y-86672317D01*
X180419224Y-86540381D01*
X179249605Y-87710000D01*
X178890395Y-87710000D01*
X177720776Y-86540381D01*
X177425688Y-86672317D01*
X177254841Y-87013045D01*
X177153750Y-87380557D01*
X177126299Y-87760729D01*
X175495320Y-87760729D01*
X175492195Y-87729010D01*
X175441589Y-87562186D01*
X175359411Y-87408441D01*
X175328072Y-87370254D01*
X175328072Y-87009999D01*
X175311008Y-86836745D01*
X175260472Y-86670149D01*
X175178405Y-86516613D01*
X175111724Y-86435363D01*
X175141185Y-86411185D01*
X175182554Y-86360776D01*
X177900381Y-86360776D01*
X179070000Y-87530395D01*
X180239619Y-86360776D01*
X180107683Y-86065688D01*
X179766955Y-85894841D01*
X179399443Y-85793750D01*
X179019271Y-85766299D01*
X178641049Y-85813543D01*
X178279310Y-85933667D01*
X178032317Y-86065688D01*
X177900381Y-86360776D01*
X175182554Y-86360776D01*
X175220537Y-86314494D01*
X175279502Y-86204180D01*
X175315812Y-86084482D01*
X175328072Y-85960000D01*
X175325000Y-85733250D01*
X175166250Y-85574500D01*
X174117000Y-85574500D01*
X174117000Y-85594500D01*
X173863000Y-85594500D01*
X173863000Y-85574500D01*
X172813750Y-85574500D01*
X172655000Y-85733250D01*
X172651928Y-85960000D01*
X172664188Y-86084482D01*
X172700498Y-86204180D01*
X172759463Y-86314494D01*
X172838815Y-86411185D01*
X172868276Y-86435363D01*
X172801595Y-86516613D01*
X172719528Y-86670149D01*
X172668992Y-86836745D01*
X172651928Y-87009999D01*
X172651928Y-87535001D01*
X172668992Y-87708255D01*
X172719528Y-87874851D01*
X172801595Y-88028387D01*
X172912038Y-88162962D01*
X173046613Y-88273405D01*
X173200149Y-88355472D01*
X173366745Y-88406008D01*
X173539999Y-88423072D01*
X173735001Y-88423072D01*
X173735000Y-89310018D01*
X173689463Y-89365506D01*
X173670000Y-89401918D01*
X173650537Y-89365506D01*
X173571185Y-89268815D01*
X173474494Y-89189463D01*
X173364180Y-89130498D01*
X173244482Y-89094188D01*
X173120000Y-89081928D01*
X172320000Y-89081928D01*
X172195518Y-89094188D01*
X172075820Y-89130498D01*
X171965506Y-89189463D01*
X171868815Y-89268815D01*
X171855532Y-89285000D01*
X171623708Y-89285000D01*
X171619571Y-89275012D01*
X171422035Y-88979379D01*
X171170621Y-88727965D01*
X170874988Y-88530429D01*
X170546499Y-88394365D01*
X170197777Y-88325000D01*
X169842223Y-88325000D01*
X169493501Y-88394365D01*
X169165012Y-88530429D01*
X168869379Y-88727965D01*
X168775000Y-88822344D01*
X168775000Y-84935000D01*
X172651928Y-84935000D01*
X172655000Y-85161750D01*
X172813750Y-85320500D01*
X173863000Y-85320500D01*
X173863000Y-84458750D01*
X174117000Y-84458750D01*
X174117000Y-85320500D01*
X175166250Y-85320500D01*
X175325000Y-85161750D01*
X175328072Y-84935000D01*
X175315812Y-84810518D01*
X175279502Y-84690820D01*
X175220537Y-84580506D01*
X175141185Y-84483815D01*
X175044494Y-84404463D01*
X174934180Y-84345498D01*
X174814482Y-84309188D01*
X174690000Y-84296928D01*
X174275750Y-84300000D01*
X174117000Y-84458750D01*
X173863000Y-84458750D01*
X173704250Y-84300000D01*
X173290000Y-84296928D01*
X173165518Y-84309188D01*
X173045820Y-84345498D01*
X172935506Y-84404463D01*
X172838815Y-84483815D01*
X172759463Y-84580506D01*
X172700498Y-84690820D01*
X172664188Y-84810518D01*
X172651928Y-84935000D01*
X168775000Y-84935000D01*
X168775000Y-82334998D01*
X173154251Y-82334998D01*
X173210002Y-82340489D01*
X173265753Y-82334998D01*
X173265754Y-82334998D01*
X173432501Y-82318575D01*
X173646449Y-82253674D01*
X173843625Y-82148282D01*
X174016451Y-82006447D01*
X174051998Y-81963133D01*
X174201425Y-81813706D01*
X174314180Y-81779502D01*
X174424494Y-81720537D01*
X174521185Y-81641185D01*
X174600537Y-81544494D01*
X174659502Y-81434180D01*
X174695812Y-81314482D01*
X174706184Y-81209172D01*
X174723675Y-81176448D01*
X174788576Y-80962500D01*
X174810490Y-80740001D01*
X174788576Y-80517502D01*
X174723675Y-80303554D01*
X174706184Y-80270830D01*
X174695812Y-80165518D01*
X174659502Y-80045820D01*
X174642576Y-80014154D01*
X176503470Y-81875049D01*
X176531183Y-81908817D01*
X176564951Y-81936530D01*
X176564953Y-81936532D01*
X176630945Y-81990690D01*
X176665941Y-82019411D01*
X176819687Y-82101589D01*
X176986510Y-82152195D01*
X177116523Y-82165000D01*
X177116533Y-82165000D01*
X177131928Y-82166516D01*
X177131928Y-82580000D01*
X177144188Y-82704482D01*
X177180498Y-82824180D01*
X177239463Y-82934494D01*
X177318815Y-83031185D01*
X177415506Y-83110537D01*
X177525820Y-83169502D01*
X177645518Y-83205812D01*
X177770000Y-83218072D01*
X180370000Y-83218072D01*
X180494482Y-83205812D01*
X180614180Y-83169502D01*
X180724494Y-83110537D01*
X180821185Y-83031185D01*
X180900537Y-82934494D01*
X180959502Y-82824180D01*
X180995812Y-82704482D01*
X181008072Y-82580000D01*
X181008072Y-79980000D01*
X180995812Y-79855518D01*
X180959502Y-79735820D01*
X180900537Y-79625506D01*
X180821185Y-79528815D01*
X180724494Y-79449463D01*
X180614180Y-79390498D01*
X180494482Y-79354188D01*
X180370000Y-79341928D01*
X177770000Y-79341928D01*
X177645518Y-79354188D01*
X177525820Y-79390498D01*
X177415506Y-79449463D01*
X177318815Y-79528815D01*
X177239463Y-79625506D01*
X177180498Y-79735820D01*
X177144188Y-79855518D01*
X177131928Y-79980000D01*
X177131928Y-80000349D01*
X175658072Y-78526494D01*
X175658072Y-78290000D01*
X175645812Y-78165518D01*
X175609502Y-78045820D01*
X175550537Y-77935506D01*
X175505000Y-77880019D01*
X175505000Y-77629224D01*
X177900381Y-77629224D01*
X178032317Y-77924312D01*
X178373045Y-78095159D01*
X178740557Y-78196250D01*
X179120729Y-78223701D01*
X179498951Y-78176457D01*
X179860690Y-78056333D01*
X180107683Y-77924312D01*
X180239619Y-77629224D01*
X179070000Y-76459605D01*
X177900381Y-77629224D01*
X175505000Y-77629224D01*
X175505000Y-76873469D01*
X175509281Y-76830000D01*
X175505000Y-76786531D01*
X175505000Y-76786523D01*
X175492195Y-76656510D01*
X175456947Y-76540314D01*
X175441589Y-76489686D01*
X175359411Y-76335941D01*
X175355134Y-76330729D01*
X177126299Y-76330729D01*
X177173543Y-76708951D01*
X177293667Y-77070690D01*
X177425688Y-77317683D01*
X177720776Y-77449619D01*
X178890395Y-76280000D01*
X179249605Y-76280000D01*
X180419224Y-77449619D01*
X180714312Y-77317683D01*
X180885159Y-76976955D01*
X180986250Y-76609443D01*
X181013701Y-76229271D01*
X180966457Y-75851049D01*
X180846333Y-75489310D01*
X180714312Y-75242317D01*
X180419224Y-75110381D01*
X179249605Y-76280000D01*
X178890395Y-76280000D01*
X177720776Y-75110381D01*
X177425688Y-75242317D01*
X177254841Y-75583045D01*
X177153750Y-75950557D01*
X177126299Y-76330729D01*
X175355134Y-76330729D01*
X175328072Y-76297754D01*
X175328072Y-75937499D01*
X175311008Y-75764245D01*
X175260472Y-75597649D01*
X175178405Y-75444113D01*
X175111724Y-75362863D01*
X175141185Y-75338685D01*
X175220537Y-75241994D01*
X175279502Y-75131680D01*
X175315812Y-75011982D01*
X175323809Y-74930776D01*
X177900381Y-74930776D01*
X179070000Y-76100395D01*
X180239619Y-74930776D01*
X180107683Y-74635688D01*
X179766955Y-74464841D01*
X179399443Y-74363750D01*
X179019271Y-74336299D01*
X178641049Y-74383543D01*
X178279310Y-74503667D01*
X178032317Y-74635688D01*
X177900381Y-74930776D01*
X175323809Y-74930776D01*
X175328072Y-74887500D01*
X175325000Y-74660750D01*
X175166250Y-74502000D01*
X174117000Y-74502000D01*
X174117000Y-74522000D01*
X173863000Y-74522000D01*
X173863000Y-74502000D01*
X172813750Y-74502000D01*
X172655000Y-74660750D01*
X172651928Y-74887500D01*
X172664188Y-75011982D01*
X172700498Y-75131680D01*
X172759463Y-75241994D01*
X172838815Y-75338685D01*
X172868276Y-75362863D01*
X172801595Y-75444113D01*
X172719528Y-75597649D01*
X172668992Y-75764245D01*
X172651928Y-75937499D01*
X172651928Y-76462501D01*
X172668992Y-76635755D01*
X172719528Y-76802351D01*
X172801595Y-76955887D01*
X172912038Y-77090462D01*
X173046613Y-77200905D01*
X173200149Y-77282972D01*
X173366745Y-77333508D01*
X173539999Y-77350572D01*
X173735001Y-77350572D01*
X173735000Y-77880018D01*
X173689463Y-77935506D01*
X173670000Y-77971918D01*
X173650537Y-77935506D01*
X173571185Y-77838815D01*
X173474494Y-77759463D01*
X173364180Y-77700498D01*
X173244482Y-77664188D01*
X173120000Y-77651928D01*
X172320000Y-77651928D01*
X172195518Y-77664188D01*
X172075820Y-77700498D01*
X171965506Y-77759463D01*
X171868815Y-77838815D01*
X171855532Y-77855000D01*
X171623708Y-77855000D01*
X171619571Y-77845012D01*
X171422035Y-77549379D01*
X171170621Y-77297965D01*
X170874988Y-77100429D01*
X170546499Y-76964365D01*
X170197777Y-76895000D01*
X169842223Y-76895000D01*
X169493501Y-76964365D01*
X169165012Y-77100429D01*
X168869379Y-77297965D01*
X168775000Y-77392344D01*
X168775000Y-73862500D01*
X172651928Y-73862500D01*
X172655000Y-74089250D01*
X172813750Y-74248000D01*
X173863000Y-74248000D01*
X173863000Y-73386250D01*
X174117000Y-73386250D01*
X174117000Y-74248000D01*
X175166250Y-74248000D01*
X175325000Y-74089250D01*
X175328072Y-73862500D01*
X175315812Y-73738018D01*
X175279502Y-73618320D01*
X175220537Y-73508006D01*
X175141185Y-73411315D01*
X175044494Y-73331963D01*
X174934180Y-73272998D01*
X174814482Y-73236688D01*
X174690000Y-73224428D01*
X174275750Y-73227500D01*
X174117000Y-73386250D01*
X173863000Y-73386250D01*
X173704250Y-73227500D01*
X173290000Y-73224428D01*
X173165518Y-73236688D01*
X173045820Y-73272998D01*
X172935506Y-73331963D01*
X172838815Y-73411315D01*
X172759463Y-73508006D01*
X172700498Y-73618320D01*
X172664188Y-73738018D01*
X172651928Y-73862500D01*
X168775000Y-73862500D01*
X168775000Y-70985000D01*
X173394249Y-70985000D01*
X173450000Y-70990491D01*
X173505751Y-70985000D01*
X173505752Y-70985000D01*
X173672499Y-70968577D01*
X173886447Y-70903676D01*
X174083623Y-70798284D01*
X174256449Y-70656449D01*
X174291996Y-70613135D01*
X174521425Y-70383706D01*
X174634180Y-70349502D01*
X174744494Y-70290537D01*
X174841185Y-70211185D01*
X174920537Y-70114494D01*
X174979502Y-70004180D01*
X175015812Y-69884482D01*
X175026184Y-69779172D01*
X175043675Y-69746448D01*
X175108576Y-69532500D01*
X175130490Y-69310001D01*
X175108576Y-69087502D01*
X175043675Y-68873554D01*
X175026184Y-68840830D01*
X175015812Y-68735518D01*
X174979502Y-68615820D01*
X174962576Y-68584154D01*
X176823470Y-70445049D01*
X176851183Y-70478817D01*
X176884951Y-70506530D01*
X176884953Y-70506532D01*
X176956452Y-70565210D01*
X176985941Y-70589411D01*
X177131928Y-70667442D01*
X177131928Y-71150000D01*
X177144188Y-71274482D01*
X177180498Y-71394180D01*
X177239463Y-71504494D01*
X177318815Y-71601185D01*
X177415506Y-71680537D01*
X177525820Y-71739502D01*
X177645518Y-71775812D01*
X177770000Y-71788072D01*
X180370000Y-71788072D01*
X180494482Y-71775812D01*
X180614180Y-71739502D01*
X180724494Y-71680537D01*
X180821185Y-71601185D01*
X180900537Y-71504494D01*
X180959502Y-71394180D01*
X180995812Y-71274482D01*
X181008072Y-71150000D01*
X181008072Y-68550000D01*
X180995812Y-68425518D01*
X180959502Y-68305820D01*
X180900537Y-68195506D01*
X180821185Y-68098815D01*
X180724494Y-68019463D01*
X180614180Y-67960498D01*
X180494482Y-67924188D01*
X180370000Y-67911928D01*
X177770000Y-67911928D01*
X177645518Y-67924188D01*
X177525820Y-67960498D01*
X177415506Y-68019463D01*
X177318815Y-68098815D01*
X177239463Y-68195506D01*
X177182902Y-68301323D01*
X175978072Y-67096494D01*
X175978072Y-66860000D01*
X175965812Y-66735518D01*
X175929502Y-66615820D01*
X175870537Y-66505506D01*
X175825000Y-66450019D01*
X175825000Y-66199224D01*
X177900381Y-66199224D01*
X178032317Y-66494312D01*
X178373045Y-66665159D01*
X178740557Y-66766250D01*
X179120729Y-66793701D01*
X179498951Y-66746457D01*
X179860690Y-66626333D01*
X180107683Y-66494312D01*
X180239619Y-66199224D01*
X179070000Y-65029605D01*
X177900381Y-66199224D01*
X175825000Y-66199224D01*
X175825000Y-65763469D01*
X175829281Y-65720000D01*
X175825000Y-65676531D01*
X175825000Y-65676523D01*
X175812195Y-65546510D01*
X175761589Y-65379687D01*
X175679411Y-65225941D01*
X175568817Y-65091183D01*
X175535049Y-65063470D01*
X175372308Y-64900729D01*
X177126299Y-64900729D01*
X177173543Y-65278951D01*
X177293667Y-65640690D01*
X177425688Y-65887683D01*
X177720776Y-66019619D01*
X178890395Y-64850000D01*
X179249605Y-64850000D01*
X180419224Y-66019619D01*
X180714312Y-65887683D01*
X180885159Y-65546955D01*
X180986250Y-65179443D01*
X181013701Y-64799271D01*
X180966457Y-64421049D01*
X180846333Y-64059310D01*
X180714312Y-63812317D01*
X180419224Y-63680381D01*
X179249605Y-64850000D01*
X178890395Y-64850000D01*
X177720776Y-63680381D01*
X177425688Y-63812317D01*
X177254841Y-64153045D01*
X177153750Y-64520557D01*
X177126299Y-64900729D01*
X175372308Y-64900729D01*
X175328072Y-64856493D01*
X175328072Y-64507499D01*
X175311008Y-64334245D01*
X175260472Y-64167649D01*
X175178405Y-64014113D01*
X175111724Y-63932863D01*
X175141185Y-63908685D01*
X175220537Y-63811994D01*
X175279502Y-63701680D01*
X175315812Y-63581982D01*
X175323809Y-63500776D01*
X177900381Y-63500776D01*
X179070000Y-64670395D01*
X180239619Y-63500776D01*
X180107683Y-63205688D01*
X179766955Y-63034841D01*
X179399443Y-62933750D01*
X179019271Y-62906299D01*
X178641049Y-62953543D01*
X178279310Y-63073667D01*
X178032317Y-63205688D01*
X177900381Y-63500776D01*
X175323809Y-63500776D01*
X175328072Y-63457500D01*
X175325000Y-63230750D01*
X175166250Y-63072000D01*
X174117000Y-63072000D01*
X174117000Y-63092000D01*
X173863000Y-63092000D01*
X173863000Y-63072000D01*
X172813750Y-63072000D01*
X172655000Y-63230750D01*
X172651928Y-63457500D01*
X172664188Y-63581982D01*
X172700498Y-63701680D01*
X172759463Y-63811994D01*
X172838815Y-63908685D01*
X172868276Y-63932863D01*
X172801595Y-64014113D01*
X172719528Y-64167649D01*
X172668992Y-64334245D01*
X172651928Y-64507499D01*
X172651928Y-65032501D01*
X172668992Y-65205755D01*
X172719528Y-65372351D01*
X172801595Y-65525887D01*
X172912038Y-65660462D01*
X173046613Y-65770905D01*
X173200149Y-65852972D01*
X173366745Y-65903508D01*
X173539999Y-65920572D01*
X173888993Y-65920572D01*
X174055001Y-66086579D01*
X174055001Y-66450018D01*
X174009463Y-66505506D01*
X173990000Y-66541918D01*
X173970537Y-66505506D01*
X173891185Y-66408815D01*
X173794494Y-66329463D01*
X173684180Y-66270498D01*
X173564482Y-66234188D01*
X173440000Y-66221928D01*
X172640000Y-66221928D01*
X172515518Y-66234188D01*
X172395820Y-66270498D01*
X172285506Y-66329463D01*
X172188815Y-66408815D01*
X172175532Y-66425000D01*
X171623708Y-66425000D01*
X171619571Y-66415012D01*
X171422035Y-66119379D01*
X171170621Y-65867965D01*
X170874988Y-65670429D01*
X170546499Y-65534365D01*
X170197777Y-65465000D01*
X169842223Y-65465000D01*
X169493501Y-65534365D01*
X169165012Y-65670429D01*
X168869379Y-65867965D01*
X168775000Y-65962344D01*
X168775000Y-62920752D01*
X168780491Y-62865000D01*
X168758577Y-62642501D01*
X168694874Y-62432500D01*
X172651928Y-62432500D01*
X172655000Y-62659250D01*
X172813750Y-62818000D01*
X173863000Y-62818000D01*
X173863000Y-61956250D01*
X174117000Y-61956250D01*
X174117000Y-62818000D01*
X175166250Y-62818000D01*
X175325000Y-62659250D01*
X175328072Y-62432500D01*
X175315812Y-62308018D01*
X175279502Y-62188320D01*
X175220537Y-62078006D01*
X175141185Y-61981315D01*
X175044494Y-61901963D01*
X174934180Y-61842998D01*
X174814482Y-61806688D01*
X174690000Y-61794428D01*
X174275750Y-61797500D01*
X174117000Y-61956250D01*
X173863000Y-61956250D01*
X173704250Y-61797500D01*
X173290000Y-61794428D01*
X173165518Y-61806688D01*
X173045820Y-61842998D01*
X172935506Y-61901963D01*
X172838815Y-61981315D01*
X172759463Y-62078006D01*
X172700498Y-62188320D01*
X172664188Y-62308018D01*
X172651928Y-62432500D01*
X168694874Y-62432500D01*
X168693676Y-62428553D01*
X168588284Y-62231377D01*
X168481989Y-62101857D01*
X168446449Y-62058551D01*
X168403140Y-62023008D01*
X168000131Y-61620000D01*
X184760000Y-61620000D01*
X184760001Y-130150000D01*
X145440000Y-130150000D01*
X145440000Y-126822223D01*
X158215000Y-126822223D01*
X158215000Y-127177777D01*
X158284365Y-127526499D01*
X158420429Y-127854988D01*
X158617965Y-128150621D01*
X158869379Y-128402035D01*
X159165012Y-128599571D01*
X159493501Y-128735635D01*
X159842223Y-128805000D01*
X160197777Y-128805000D01*
X160546499Y-128735635D01*
X160874988Y-128599571D01*
X161170621Y-128402035D01*
X161422035Y-128150621D01*
X161599518Y-127885000D01*
X162516531Y-127885000D01*
X162560000Y-127889281D01*
X162603469Y-127885000D01*
X162603477Y-127885000D01*
X162733490Y-127872195D01*
X162900313Y-127821589D01*
X163054059Y-127739411D01*
X163188817Y-127628817D01*
X163216534Y-127595044D01*
X163790050Y-127021529D01*
X163823817Y-126993817D01*
X163892605Y-126910000D01*
X163934411Y-126859059D01*
X164016589Y-126705314D01*
X164067195Y-126538490D01*
X164070401Y-126505940D01*
X164080000Y-126408477D01*
X164080000Y-126408469D01*
X164084281Y-126365000D01*
X164080000Y-126321531D01*
X164080000Y-111168466D01*
X164084281Y-111124999D01*
X164080000Y-111081533D01*
X164080000Y-111081523D01*
X164067195Y-110951510D01*
X164016589Y-110784687D01*
X163934411Y-110630941D01*
X163823817Y-110496183D01*
X163790044Y-110468466D01*
X163256534Y-109934956D01*
X163228817Y-109901183D01*
X163094059Y-109790589D01*
X162940313Y-109708411D01*
X162773490Y-109657805D01*
X162643477Y-109645000D01*
X162643469Y-109645000D01*
X162600000Y-109640719D01*
X162556531Y-109645000D01*
X161759518Y-109645000D01*
X161582035Y-109379379D01*
X161330621Y-109127965D01*
X161034988Y-108930429D01*
X160706499Y-108794365D01*
X160357777Y-108725000D01*
X160002223Y-108725000D01*
X159653501Y-108794365D01*
X159325012Y-108930429D01*
X159029379Y-109127965D01*
X158777965Y-109379379D01*
X158580429Y-109675012D01*
X158444365Y-110003501D01*
X158375000Y-110352223D01*
X158375000Y-110707777D01*
X158444365Y-111056499D01*
X158580429Y-111384988D01*
X158777965Y-111680621D01*
X159029379Y-111932035D01*
X159325012Y-112129571D01*
X159653501Y-112265635D01*
X160002223Y-112335000D01*
X160357777Y-112335000D01*
X160706499Y-112265635D01*
X161034988Y-112129571D01*
X161330621Y-111932035D01*
X161582035Y-111680621D01*
X161759518Y-111415000D01*
X162233422Y-111415000D01*
X162310001Y-111491579D01*
X162310000Y-125998421D01*
X162193422Y-126115000D01*
X161599518Y-126115000D01*
X161422035Y-125849379D01*
X161170621Y-125597965D01*
X160874988Y-125400429D01*
X160546499Y-125264365D01*
X160197777Y-125195000D01*
X159842223Y-125195000D01*
X159493501Y-125264365D01*
X159165012Y-125400429D01*
X158869379Y-125597965D01*
X158617965Y-125849379D01*
X158420429Y-126145012D01*
X158284365Y-126473501D01*
X158215000Y-126822223D01*
X145440000Y-126822223D01*
X145440000Y-116919224D01*
X150595381Y-116919224D01*
X150727317Y-117214312D01*
X151068045Y-117385159D01*
X151435557Y-117486250D01*
X151815729Y-117513701D01*
X152193951Y-117466457D01*
X152555690Y-117346333D01*
X152802683Y-117214312D01*
X152934619Y-116919224D01*
X151765000Y-115749605D01*
X150595381Y-116919224D01*
X145440000Y-116919224D01*
X145440000Y-115620729D01*
X149821299Y-115620729D01*
X149868543Y-115998951D01*
X149988667Y-116360690D01*
X150120688Y-116607683D01*
X150415776Y-116739619D01*
X151585395Y-115570000D01*
X151944605Y-115570000D01*
X153114224Y-116739619D01*
X153409312Y-116607683D01*
X153580159Y-116266955D01*
X153681250Y-115899443D01*
X153708701Y-115519271D01*
X153661457Y-115141049D01*
X153541333Y-114779310D01*
X153409312Y-114532317D01*
X153114224Y-114400381D01*
X151944605Y-115570000D01*
X151585395Y-115570000D01*
X150415776Y-114400381D01*
X150120688Y-114532317D01*
X149949841Y-114873045D01*
X149848750Y-115240557D01*
X149821299Y-115620729D01*
X145440000Y-115620729D01*
X145440000Y-114212835D01*
X147070000Y-114212835D01*
X147070000Y-114387165D01*
X147104010Y-114558145D01*
X147170723Y-114719205D01*
X147267576Y-114864155D01*
X147390845Y-114987424D01*
X147535795Y-115084277D01*
X147696855Y-115150990D01*
X147867835Y-115185000D01*
X148042165Y-115185000D01*
X148213145Y-115150990D01*
X148374205Y-115084277D01*
X148519155Y-114987424D01*
X148642424Y-114864155D01*
X148739277Y-114719205D01*
X148805990Y-114558145D01*
X148840000Y-114387165D01*
X148840000Y-114220776D01*
X150595381Y-114220776D01*
X151765000Y-115390395D01*
X152934619Y-114220776D01*
X152802683Y-113925688D01*
X152461955Y-113754841D01*
X152094443Y-113653750D01*
X151714271Y-113626299D01*
X151336049Y-113673543D01*
X150974310Y-113793667D01*
X150727317Y-113925688D01*
X150595381Y-114220776D01*
X148840000Y-114220776D01*
X148840000Y-114212835D01*
X148805990Y-114041855D01*
X148739277Y-113880795D01*
X148642424Y-113735845D01*
X148519155Y-113612576D01*
X148374205Y-113515723D01*
X148213145Y-113449010D01*
X148042165Y-113415000D01*
X147867835Y-113415000D01*
X147696855Y-113449010D01*
X147535795Y-113515723D01*
X147390845Y-113612576D01*
X147267576Y-113735845D01*
X147170723Y-113880795D01*
X147104010Y-114041855D01*
X147070000Y-114212835D01*
X145440000Y-114212835D01*
X145440000Y-87695000D01*
X146249428Y-87695000D01*
X146261688Y-87819482D01*
X146297998Y-87939180D01*
X146356963Y-88049494D01*
X146436315Y-88146185D01*
X146533006Y-88225537D01*
X146643320Y-88284502D01*
X146763018Y-88320812D01*
X146887500Y-88333072D01*
X147114250Y-88330000D01*
X147273000Y-88171250D01*
X147273000Y-87122000D01*
X146411250Y-87122000D01*
X146252500Y-87280750D01*
X146249428Y-87695000D01*
X145440000Y-87695000D01*
X145440000Y-86295000D01*
X146249428Y-86295000D01*
X146252500Y-86709250D01*
X146411250Y-86868000D01*
X147273000Y-86868000D01*
X147273000Y-85818750D01*
X147114250Y-85660000D01*
X146887500Y-85656928D01*
X146763018Y-85669188D01*
X146643320Y-85705498D01*
X146533006Y-85764463D01*
X146436315Y-85843815D01*
X146356963Y-85940506D01*
X146297998Y-86050820D01*
X146261688Y-86170518D01*
X146249428Y-86295000D01*
X145440000Y-86295000D01*
X145440000Y-82549224D01*
X150595381Y-82549224D01*
X150727317Y-82844312D01*
X151068045Y-83015159D01*
X151435557Y-83116250D01*
X151815729Y-83143701D01*
X152193951Y-83096457D01*
X152555690Y-82976333D01*
X152802683Y-82844312D01*
X152934619Y-82549224D01*
X151765000Y-81379605D01*
X150595381Y-82549224D01*
X145440000Y-82549224D01*
X145440000Y-81250729D01*
X149821299Y-81250729D01*
X149868543Y-81628951D01*
X149988667Y-81990690D01*
X150120688Y-82237683D01*
X150415776Y-82369619D01*
X151585395Y-81200000D01*
X150415776Y-80030381D01*
X150120688Y-80162317D01*
X149949841Y-80503045D01*
X149848750Y-80870557D01*
X149821299Y-81250729D01*
X145440000Y-81250729D01*
X145440000Y-79850776D01*
X150595381Y-79850776D01*
X151765000Y-81020395D01*
X152934619Y-79850776D01*
X152802683Y-79555688D01*
X152461955Y-79384841D01*
X152094443Y-79283750D01*
X151714271Y-79256299D01*
X151336049Y-79303543D01*
X150974310Y-79423667D01*
X150727317Y-79555688D01*
X150595381Y-79850776D01*
X145440000Y-79850776D01*
X145440000Y-73800000D01*
X147226928Y-73800000D01*
X147230000Y-74014250D01*
X147388750Y-74173000D01*
X148463000Y-74173000D01*
X148463000Y-73323750D01*
X148717000Y-73323750D01*
X148717000Y-74173000D01*
X149791250Y-74173000D01*
X149950000Y-74014250D01*
X149953072Y-73800000D01*
X149940812Y-73675518D01*
X149904502Y-73555820D01*
X149845537Y-73445506D01*
X149766185Y-73348815D01*
X149669494Y-73269463D01*
X149559180Y-73210498D01*
X149439482Y-73174188D01*
X149315000Y-73161928D01*
X148875750Y-73165000D01*
X148717000Y-73323750D01*
X148463000Y-73323750D01*
X148304250Y-73165000D01*
X147865000Y-73161928D01*
X147740518Y-73174188D01*
X147620820Y-73210498D01*
X147510506Y-73269463D01*
X147413815Y-73348815D01*
X147334463Y-73445506D01*
X147275498Y-73555820D01*
X147239188Y-73675518D01*
X147226928Y-73800000D01*
X145440000Y-73800000D01*
X145440000Y-61620000D01*
X153944868Y-61620000D01*
X153541860Y-62023009D01*
%TA.AperFunction,Conductor*%
D19*
G36*
X153541860Y-62023009D02*
G01*
X153498552Y-62058551D01*
X153356717Y-62231377D01*
X153315752Y-62308018D01*
X153251324Y-62428554D01*
X153186423Y-62642502D01*
X153164509Y-62865000D01*
X153170001Y-62920761D01*
X153170000Y-74272269D01*
X153065000Y-74261928D01*
X150465000Y-74261928D01*
X150340518Y-74274188D01*
X150220820Y-74310498D01*
X150110506Y-74369463D01*
X150013815Y-74448815D01*
X149934463Y-74545506D01*
X149925857Y-74561607D01*
X149791250Y-74427000D01*
X148717000Y-74427000D01*
X148717000Y-74447000D01*
X148463000Y-74447000D01*
X148463000Y-74427000D01*
X147388750Y-74427000D01*
X147230000Y-74585750D01*
X147226928Y-74800000D01*
X147239188Y-74924482D01*
X147275498Y-75044180D01*
X147334463Y-75154494D01*
X147413815Y-75251185D01*
X147493594Y-75316658D01*
X147487038Y-75322038D01*
X147376595Y-75456614D01*
X147294528Y-75610150D01*
X147243992Y-75776746D01*
X147226928Y-75950000D01*
X147226928Y-76450000D01*
X147243992Y-76623254D01*
X147294528Y-76789850D01*
X147376595Y-76943386D01*
X147487038Y-77077962D01*
X147621614Y-77188405D01*
X147775150Y-77270472D01*
X147941746Y-77321008D01*
X148115000Y-77338072D01*
X149065000Y-77338072D01*
X149096191Y-77335000D01*
X149826928Y-77335000D01*
X149826928Y-77500000D01*
X149839188Y-77624482D01*
X149875498Y-77744180D01*
X149934463Y-77854494D01*
X150013815Y-77951185D01*
X150110506Y-78030537D01*
X150220820Y-78089502D01*
X150340518Y-78125812D01*
X150465000Y-78138072D01*
X153065000Y-78138072D01*
X153170000Y-78127731D01*
X153170000Y-80055319D01*
X153114224Y-80030381D01*
X151944605Y-81200000D01*
X153114224Y-82369619D01*
X153170000Y-82344681D01*
X153170001Y-85656928D01*
X152772499Y-85656928D01*
X152599245Y-85673992D01*
X152432649Y-85724528D01*
X152279113Y-85806595D01*
X152144538Y-85917038D01*
X152122500Y-85943891D01*
X152100462Y-85917038D01*
X151965887Y-85806595D01*
X151812351Y-85724528D01*
X151645755Y-85673992D01*
X151472501Y-85656928D01*
X150947499Y-85656928D01*
X150774245Y-85673992D01*
X150607649Y-85724528D01*
X150454113Y-85806595D01*
X150319538Y-85917038D01*
X150217500Y-86041371D01*
X150115462Y-85917038D01*
X149980887Y-85806595D01*
X149827351Y-85724528D01*
X149660755Y-85673992D01*
X149487501Y-85656928D01*
X148962499Y-85656928D01*
X148789245Y-85673992D01*
X148622649Y-85724528D01*
X148469113Y-85806595D01*
X148387863Y-85873276D01*
X148363685Y-85843815D01*
X148266994Y-85764463D01*
X148156680Y-85705498D01*
X148036982Y-85669188D01*
X147912500Y-85656928D01*
X147685750Y-85660000D01*
X147527000Y-85818750D01*
X147527000Y-86868000D01*
X147547000Y-86868000D01*
X147547000Y-87122000D01*
X147527000Y-87122000D01*
X147527000Y-88171250D01*
X147685750Y-88330000D01*
X147912500Y-88333072D01*
X148036982Y-88320812D01*
X148156680Y-88284502D01*
X148266994Y-88225537D01*
X148363685Y-88146185D01*
X148387863Y-88116724D01*
X148469113Y-88183405D01*
X148622649Y-88265472D01*
X148789245Y-88316008D01*
X148962499Y-88333072D01*
X149487501Y-88333072D01*
X149660755Y-88316008D01*
X149673765Y-88312061D01*
X149616916Y-88418418D01*
X149572071Y-88566255D01*
X149565300Y-88635000D01*
X147378469Y-88635000D01*
X147335000Y-88630719D01*
X147291531Y-88635000D01*
X147291523Y-88635000D01*
X147161510Y-88647805D01*
X146994687Y-88698411D01*
X146939395Y-88727965D01*
X146840941Y-88780589D01*
X146739953Y-88863468D01*
X146739951Y-88863470D01*
X146706183Y-88891183D01*
X146678470Y-88924951D01*
X145959931Y-89643491D01*
X145926164Y-89671203D01*
X145898451Y-89704971D01*
X145898448Y-89704974D01*
X145815570Y-89805961D01*
X145733392Y-89959707D01*
X145682785Y-90126530D01*
X145665699Y-90300020D01*
X145669981Y-90343499D01*
X145669980Y-109681511D01*
X145665699Y-109724980D01*
X145669980Y-109768449D01*
X145669980Y-109768456D01*
X145682785Y-109898469D01*
X145733391Y-110065292D01*
X145815569Y-110219038D01*
X145926163Y-110353797D01*
X145959936Y-110381514D01*
X146743470Y-111165049D01*
X146771183Y-111198817D01*
X146804951Y-111226530D01*
X146804953Y-111226532D01*
X146892634Y-111298490D01*
X146905941Y-111309411D01*
X147059687Y-111391589D01*
X147226510Y-111442195D01*
X147356523Y-111455000D01*
X147356531Y-111455000D01*
X147400000Y-111459281D01*
X147443469Y-111455000D01*
X150037150Y-111455000D01*
X150050225Y-111486566D01*
X150261987Y-111803491D01*
X150531509Y-112073013D01*
X150848434Y-112284775D01*
X151200581Y-112430639D01*
X151574419Y-112505000D01*
X151955581Y-112505000D01*
X152329419Y-112430639D01*
X152681566Y-112284775D01*
X152998491Y-112073013D01*
X153268013Y-111803491D01*
X153479775Y-111486566D01*
X153625639Y-111134419D01*
X153700000Y-110760581D01*
X153700000Y-110379419D01*
X153625639Y-110005581D01*
X153479775Y-109653434D01*
X153268013Y-109336509D01*
X152998491Y-109066987D01*
X152681566Y-108855225D01*
X152632739Y-108835000D01*
X153938422Y-108835000D01*
X154055001Y-108951580D01*
X154055000Y-121241531D01*
X154050719Y-121285000D01*
X154055000Y-121328469D01*
X154055000Y-121328476D01*
X154067805Y-121458489D01*
X154118411Y-121625312D01*
X154200589Y-121779058D01*
X154311183Y-121913817D01*
X154344956Y-121941534D01*
X154998470Y-122595049D01*
X155026183Y-122628817D01*
X155059951Y-122656530D01*
X155059953Y-122656532D01*
X155160941Y-122739411D01*
X155314687Y-122821589D01*
X155481510Y-122872195D01*
X155611523Y-122885000D01*
X155611531Y-122885000D01*
X155655000Y-122889281D01*
X155698469Y-122885000D01*
X158440482Y-122885000D01*
X158617965Y-123150621D01*
X158869379Y-123402035D01*
X159165012Y-123599571D01*
X159493501Y-123735635D01*
X159842223Y-123805000D01*
X160197777Y-123805000D01*
X160546499Y-123735635D01*
X160874988Y-123599571D01*
X161170621Y-123402035D01*
X161422035Y-123150621D01*
X161619571Y-122854988D01*
X161755635Y-122526499D01*
X161825000Y-122177777D01*
X161825000Y-121822223D01*
X161755635Y-121473501D01*
X161619571Y-121145012D01*
X161422035Y-120849379D01*
X161170621Y-120597965D01*
X160874988Y-120400429D01*
X160546499Y-120264365D01*
X160197777Y-120195000D01*
X159842223Y-120195000D01*
X159493501Y-120264365D01*
X159165012Y-120400429D01*
X158869379Y-120597965D01*
X158617965Y-120849379D01*
X158440482Y-121115000D01*
X156021579Y-121115000D01*
X155825000Y-120918422D01*
X155825000Y-108628469D01*
X155829281Y-108585000D01*
X155825000Y-108541531D01*
X155825000Y-108541523D01*
X155812195Y-108411510D01*
X155761589Y-108244687D01*
X155761589Y-108244686D01*
X155679411Y-108090941D01*
X155596532Y-107989953D01*
X155596530Y-107989951D01*
X155568817Y-107956183D01*
X155535049Y-107928470D01*
X154961534Y-107354956D01*
X154933817Y-107321183D01*
X154799059Y-107210589D01*
X154645313Y-107128411D01*
X154478490Y-107077805D01*
X154348477Y-107065000D01*
X154348469Y-107065000D01*
X154305000Y-107060719D01*
X154261531Y-107065000D01*
X153669421Y-107065000D01*
X153690812Y-106994482D01*
X153703072Y-106870000D01*
X153703072Y-104270000D01*
X153690812Y-104145518D01*
X153654502Y-104025820D01*
X153595537Y-103915506D01*
X153516185Y-103818815D01*
X153419494Y-103739463D01*
X153309180Y-103680498D01*
X153189482Y-103644188D01*
X153065000Y-103631928D01*
X150465000Y-103631928D01*
X150340518Y-103644188D01*
X150220820Y-103680498D01*
X150110506Y-103739463D01*
X150013815Y-103818815D01*
X149934463Y-103915506D01*
X149875498Y-104025820D01*
X149839188Y-104145518D01*
X149826928Y-104270000D01*
X149826928Y-104685000D01*
X149116579Y-104685000D01*
X148840000Y-104408422D01*
X148840000Y-100396345D01*
X148939250Y-100395000D01*
X149098000Y-100236250D01*
X149098000Y-99187000D01*
X149078000Y-99187000D01*
X149078000Y-98933000D01*
X149098000Y-98933000D01*
X149098000Y-97883750D01*
X148939250Y-97725000D01*
X148840000Y-97723655D01*
X148840000Y-95570000D01*
X149556928Y-95570000D01*
X149560000Y-96234250D01*
X149718750Y-96393000D01*
X150368000Y-96393000D01*
X150368000Y-95093750D01*
X150209250Y-94935000D01*
X150195000Y-94931928D01*
X150070518Y-94944188D01*
X149950820Y-94980498D01*
X149840506Y-95039463D01*
X149743815Y-95118815D01*
X149664463Y-95215506D01*
X149605498Y-95325820D01*
X149569188Y-95445518D01*
X149556928Y-95570000D01*
X148840000Y-95570000D01*
X148840000Y-94981578D01*
X148956579Y-94865000D01*
X150763422Y-94865000D01*
X150834211Y-94935790D01*
X150795000Y-94931928D01*
X150780750Y-94935000D01*
X150622000Y-95093750D01*
X150622000Y-96393000D01*
X150642000Y-96393000D01*
X150642000Y-96647000D01*
X150622000Y-96647000D01*
X150622000Y-96667000D01*
X150368000Y-96667000D01*
X150368000Y-96647000D01*
X149718750Y-96647000D01*
X149560000Y-96805750D01*
X149556928Y-97470000D01*
X149569188Y-97594482D01*
X149605498Y-97714180D01*
X149610559Y-97723648D01*
X149510750Y-97725000D01*
X149352000Y-97883750D01*
X149352000Y-98933000D01*
X149372000Y-98933000D01*
X149372000Y-99187000D01*
X149352000Y-99187000D01*
X149352000Y-100236250D01*
X149510750Y-100395000D01*
X149737500Y-100398072D01*
X149861982Y-100385812D01*
X149981680Y-100349502D01*
X150091994Y-100290537D01*
X150188685Y-100211185D01*
X150212863Y-100181724D01*
X150294113Y-100248405D01*
X150447649Y-100330472D01*
X150614245Y-100381008D01*
X150787499Y-100398072D01*
X151312501Y-100398072D01*
X151485755Y-100381008D01*
X151652351Y-100330472D01*
X151805887Y-100248405D01*
X151940462Y-100137962D01*
X152042500Y-100013629D01*
X152144538Y-100137962D01*
X152279113Y-100248405D01*
X152432649Y-100330472D01*
X152599245Y-100381008D01*
X152772499Y-100398072D01*
X153297501Y-100398072D01*
X153470755Y-100381008D01*
X153637351Y-100330472D01*
X153790887Y-100248405D01*
X153925462Y-100137962D01*
X153947500Y-100111109D01*
X153969538Y-100137962D01*
X154104113Y-100248405D01*
X154257649Y-100330472D01*
X154424245Y-100381008D01*
X154597499Y-100398072D01*
X155122501Y-100398072D01*
X155295755Y-100381008D01*
X155462351Y-100330472D01*
X155615887Y-100248405D01*
X155750462Y-100137962D01*
X155860905Y-100003387D01*
X155942972Y-99849851D01*
X155960000Y-99793717D01*
X155960001Y-114891521D01*
X155955719Y-114935000D01*
X155972805Y-115108490D01*
X156023412Y-115275313D01*
X156105590Y-115429059D01*
X156188468Y-115530046D01*
X156188471Y-115530049D01*
X156216184Y-115563817D01*
X156249952Y-115591530D01*
X156783466Y-116125044D01*
X156811183Y-116158817D01*
X156945941Y-116269411D01*
X157099687Y-116351589D01*
X157266510Y-116402195D01*
X157396523Y-116415000D01*
X157396533Y-116415000D01*
X157439999Y-116419281D01*
X157483466Y-116415000D01*
X158600482Y-116415000D01*
X158777965Y-116680621D01*
X159029379Y-116932035D01*
X159325012Y-117129571D01*
X159653501Y-117265635D01*
X160002223Y-117335000D01*
X160357777Y-117335000D01*
X160706499Y-117265635D01*
X161034988Y-117129571D01*
X161330621Y-116932035D01*
X161582035Y-116680621D01*
X161779571Y-116384988D01*
X161915635Y-116056499D01*
X161985000Y-115707777D01*
X161985000Y-115352223D01*
X161915635Y-115003501D01*
X161779571Y-114675012D01*
X161582035Y-114379379D01*
X161330621Y-114127965D01*
X161034988Y-113930429D01*
X160706499Y-113794365D01*
X160357777Y-113725000D01*
X160002223Y-113725000D01*
X159653501Y-113794365D01*
X159325012Y-113930429D01*
X159029379Y-114127965D01*
X158777965Y-114379379D01*
X158600482Y-114645000D01*
X157806578Y-114645000D01*
X157730000Y-114568422D01*
X157730000Y-100061578D01*
X157806578Y-99985000D01*
X158600482Y-99985000D01*
X158777965Y-100250621D01*
X159029379Y-100502035D01*
X159325012Y-100699571D01*
X159653501Y-100835635D01*
X160002223Y-100905000D01*
X160357777Y-100905000D01*
X160706499Y-100835635D01*
X161034988Y-100699571D01*
X161330621Y-100502035D01*
X161582035Y-100250621D01*
X161779571Y-99954988D01*
X161915635Y-99626499D01*
X161985000Y-99277777D01*
X161985000Y-98922223D01*
X161915635Y-98573501D01*
X161779571Y-98245012D01*
X161582035Y-97949379D01*
X161330621Y-97697965D01*
X161034988Y-97500429D01*
X160706499Y-97364365D01*
X160357777Y-97295000D01*
X160002223Y-97295000D01*
X159653501Y-97364365D01*
X159325012Y-97500429D01*
X159029379Y-97697965D01*
X158777965Y-97949379D01*
X158600482Y-98215000D01*
X157483466Y-98215000D01*
X157439999Y-98210719D01*
X157396533Y-98215000D01*
X157396523Y-98215000D01*
X157266510Y-98227805D01*
X157099687Y-98278411D01*
X156945941Y-98360589D01*
X156811183Y-98471183D01*
X156783466Y-98504956D01*
X156249956Y-99038466D01*
X156216183Y-99066183D01*
X156105589Y-99200942D01*
X156023411Y-99354688D01*
X156010572Y-99397012D01*
X156010572Y-98609999D01*
X155993508Y-98436745D01*
X155942972Y-98270149D01*
X155860905Y-98116613D01*
X155750462Y-97982038D01*
X155615887Y-97871595D01*
X155462351Y-97789528D01*
X155295755Y-97738992D01*
X155190000Y-97728576D01*
X155190000Y-97598783D01*
X155227929Y-97473745D01*
X155243072Y-97320000D01*
X155243072Y-95720000D01*
X155227929Y-95566255D01*
X155190000Y-95441217D01*
X155190000Y-94981578D01*
X156170050Y-94001529D01*
X156203817Y-93973817D01*
X156314411Y-93839059D01*
X156396589Y-93685313D01*
X156447195Y-93518490D01*
X156460000Y-93388477D01*
X156460000Y-93388467D01*
X156464281Y-93345001D01*
X156460000Y-93301535D01*
X156460000Y-92876568D01*
X156808476Y-93225044D01*
X156836193Y-93258817D01*
X156941208Y-93345001D01*
X156970951Y-93369411D01*
X157124696Y-93451589D01*
X157291520Y-93502195D01*
X157421533Y-93515000D01*
X157421541Y-93515000D01*
X157465010Y-93519281D01*
X157508479Y-93515000D01*
X158440482Y-93515000D01*
X158617965Y-93780621D01*
X158869379Y-94032035D01*
X159165012Y-94229571D01*
X159493501Y-94365635D01*
X159842223Y-94435000D01*
X160197777Y-94435000D01*
X160546499Y-94365635D01*
X160874988Y-94229571D01*
X161170621Y-94032035D01*
X161422035Y-93780621D01*
X161619571Y-93484988D01*
X161755635Y-93156499D01*
X161825000Y-92807777D01*
X161825000Y-92452223D01*
X161755635Y-92103501D01*
X161619571Y-91775012D01*
X161422035Y-91479379D01*
X161170621Y-91227965D01*
X160874988Y-91030429D01*
X160546499Y-90894365D01*
X160197777Y-90825000D01*
X159842223Y-90825000D01*
X159493501Y-90894365D01*
X159165012Y-91030429D01*
X158869379Y-91227965D01*
X158617965Y-91479379D01*
X158440482Y-91745000D01*
X157831588Y-91745000D01*
X157795010Y-91708422D01*
X157795010Y-87452223D01*
X158215000Y-87452223D01*
X158215000Y-87807777D01*
X158284365Y-88156499D01*
X158420429Y-88484988D01*
X158617965Y-88780621D01*
X158869379Y-89032035D01*
X159165012Y-89229571D01*
X159493501Y-89365635D01*
X159842223Y-89435000D01*
X160197777Y-89435000D01*
X160546499Y-89365635D01*
X160874988Y-89229571D01*
X161170621Y-89032035D01*
X161422035Y-88780621D01*
X161599518Y-88515000D01*
X162193422Y-88515000D01*
X162310000Y-88631579D01*
X162310001Y-103138421D01*
X162233422Y-103215000D01*
X161759518Y-103215000D01*
X161582035Y-102949379D01*
X161330621Y-102697965D01*
X161034988Y-102500429D01*
X160706499Y-102364365D01*
X160357777Y-102295000D01*
X160002223Y-102295000D01*
X159653501Y-102364365D01*
X159325012Y-102500429D01*
X159029379Y-102697965D01*
X158777965Y-102949379D01*
X158580429Y-103245012D01*
X158444365Y-103573501D01*
X158375000Y-103922223D01*
X158375000Y-104277777D01*
X158444365Y-104626499D01*
X158580429Y-104954988D01*
X158777965Y-105250621D01*
X159029379Y-105502035D01*
X159325012Y-105699571D01*
X159653501Y-105835635D01*
X160002223Y-105905000D01*
X160357777Y-105905000D01*
X160706499Y-105835635D01*
X161034988Y-105699571D01*
X161330621Y-105502035D01*
X161582035Y-105250621D01*
X161759518Y-104985000D01*
X162556531Y-104985000D01*
X162600000Y-104989281D01*
X162643469Y-104985000D01*
X162643477Y-104985000D01*
X162773490Y-104972195D01*
X162940313Y-104921589D01*
X163094059Y-104839411D01*
X163228817Y-104728817D01*
X163256534Y-104695044D01*
X163790044Y-104161534D01*
X163823817Y-104133817D01*
X163934411Y-103999059D01*
X164016589Y-103845313D01*
X164067195Y-103678490D01*
X164080000Y-103548477D01*
X164080000Y-103548467D01*
X164084281Y-103505001D01*
X164080000Y-103461534D01*
X164080000Y-88308469D01*
X164084281Y-88265000D01*
X164080000Y-88221531D01*
X164080000Y-88221523D01*
X164067195Y-88091510D01*
X164030430Y-87970313D01*
X164016589Y-87924686D01*
X163934411Y-87770941D01*
X163851532Y-87669953D01*
X163851530Y-87669951D01*
X163823817Y-87636183D01*
X163790050Y-87608471D01*
X163216534Y-87034956D01*
X163188817Y-87001183D01*
X163054059Y-86890589D01*
X162900313Y-86808411D01*
X162733490Y-86757805D01*
X162603477Y-86745000D01*
X162603469Y-86745000D01*
X162560000Y-86740719D01*
X162516531Y-86745000D01*
X161599518Y-86745000D01*
X161422035Y-86479379D01*
X161170621Y-86227965D01*
X160874988Y-86030429D01*
X160546499Y-85894365D01*
X160197777Y-85825000D01*
X159842223Y-85825000D01*
X159493501Y-85894365D01*
X159165012Y-86030429D01*
X158869379Y-86227965D01*
X158617965Y-86479379D01*
X158420429Y-86775012D01*
X158284365Y-87103501D01*
X158215000Y-87452223D01*
X157795010Y-87452223D01*
X157795010Y-77136568D01*
X157846578Y-77085000D01*
X158440482Y-77085000D01*
X158617965Y-77350621D01*
X158869379Y-77602035D01*
X159165012Y-77799571D01*
X159493501Y-77935635D01*
X159842223Y-78005000D01*
X160197777Y-78005000D01*
X160546499Y-77935635D01*
X160874988Y-77799571D01*
X161170621Y-77602035D01*
X161422035Y-77350621D01*
X161619571Y-77054988D01*
X161755635Y-76726499D01*
X161825000Y-76377777D01*
X161825000Y-76022223D01*
X161755635Y-75673501D01*
X161619571Y-75345012D01*
X161422035Y-75049379D01*
X161170621Y-74797965D01*
X160874988Y-74600429D01*
X160546499Y-74464365D01*
X160197777Y-74395000D01*
X159842223Y-74395000D01*
X159493501Y-74464365D01*
X159165012Y-74600429D01*
X158869379Y-74797965D01*
X158617965Y-75049379D01*
X158440482Y-75315000D01*
X157523469Y-75315000D01*
X157480000Y-75310719D01*
X157436531Y-75315000D01*
X157436523Y-75315000D01*
X157306510Y-75327805D01*
X157139686Y-75378411D01*
X157065551Y-75418037D01*
X156985941Y-75460589D01*
X156851183Y-75571183D01*
X156823466Y-75604956D01*
X156460000Y-75968422D01*
X156460000Y-70851578D01*
X156656579Y-70655000D01*
X158440482Y-70655000D01*
X158617965Y-70920621D01*
X158869379Y-71172035D01*
X159165012Y-71369571D01*
X159493501Y-71505635D01*
X159842223Y-71575000D01*
X160197777Y-71575000D01*
X160546499Y-71505635D01*
X160874988Y-71369571D01*
X161170621Y-71172035D01*
X161422035Y-70920621D01*
X161619571Y-70624988D01*
X161755635Y-70296499D01*
X161825000Y-69947777D01*
X161825000Y-69592223D01*
X161755635Y-69243501D01*
X161619571Y-68915012D01*
X161422035Y-68619379D01*
X161170621Y-68367965D01*
X160874988Y-68170429D01*
X160546499Y-68034365D01*
X160197777Y-67965000D01*
X159842223Y-67965000D01*
X159493501Y-68034365D01*
X159165012Y-68170429D01*
X158869379Y-68367965D01*
X158617965Y-68619379D01*
X158440482Y-68885000D01*
X156333469Y-68885000D01*
X156290000Y-68880719D01*
X156246531Y-68885000D01*
X156246523Y-68885000D01*
X156116510Y-68897805D01*
X155949687Y-68948411D01*
X155842627Y-69005635D01*
X155795941Y-69030589D01*
X155694953Y-69113468D01*
X155694951Y-69113470D01*
X155661183Y-69141183D01*
X155633470Y-69174951D01*
X155440000Y-69368421D01*
X155440000Y-66587835D01*
X155960000Y-66587835D01*
X155960000Y-66762165D01*
X155994010Y-66933145D01*
X156060723Y-67094205D01*
X156157576Y-67239155D01*
X156280845Y-67362424D01*
X156425795Y-67459277D01*
X156586855Y-67525990D01*
X156757835Y-67560000D01*
X156932165Y-67560000D01*
X157103145Y-67525990D01*
X157264205Y-67459277D01*
X157409155Y-67362424D01*
X157532424Y-67239155D01*
X157629277Y-67094205D01*
X157695990Y-66933145D01*
X157730000Y-66762165D01*
X157730000Y-66587835D01*
X157695990Y-66416855D01*
X157629277Y-66255795D01*
X157532424Y-66110845D01*
X157409155Y-65987576D01*
X157264205Y-65890723D01*
X157103145Y-65824010D01*
X156932165Y-65790000D01*
X156757835Y-65790000D01*
X156586855Y-65824010D01*
X156425795Y-65890723D01*
X156280845Y-65987576D01*
X156157576Y-66110845D01*
X156060723Y-66255795D01*
X155994010Y-66416855D01*
X155960000Y-66587835D01*
X155440000Y-66587835D01*
X155440000Y-63365000D01*
X158873816Y-63365000D01*
X158869379Y-63367965D01*
X158617965Y-63619379D01*
X158420429Y-63915012D01*
X158284365Y-64243501D01*
X158215000Y-64592223D01*
X158215000Y-64947777D01*
X158284365Y-65296499D01*
X158420429Y-65624988D01*
X158617965Y-65920621D01*
X158869379Y-66172035D01*
X159165012Y-66369571D01*
X159493501Y-66505635D01*
X159842223Y-66575000D01*
X160197777Y-66575000D01*
X160546499Y-66505635D01*
X160874988Y-66369571D01*
X161170621Y-66172035D01*
X161422035Y-65920621D01*
X161599518Y-65655000D01*
X162193422Y-65655000D01*
X162310000Y-65771579D01*
X162310001Y-80278421D01*
X162273422Y-80315000D01*
X161599518Y-80315000D01*
X161422035Y-80049379D01*
X161170621Y-79797965D01*
X160874988Y-79600429D01*
X160546499Y-79464365D01*
X160197777Y-79395000D01*
X159842223Y-79395000D01*
X159493501Y-79464365D01*
X159165012Y-79600429D01*
X158869379Y-79797965D01*
X158617965Y-80049379D01*
X158420429Y-80345012D01*
X158284365Y-80673501D01*
X158215000Y-81022223D01*
X158215000Y-81377777D01*
X158284365Y-81726499D01*
X158420429Y-82054988D01*
X158617965Y-82350621D01*
X158869379Y-82602035D01*
X159165012Y-82799571D01*
X159493501Y-82935635D01*
X159842223Y-83005000D01*
X160197777Y-83005000D01*
X160546499Y-82935635D01*
X160874988Y-82799571D01*
X161170621Y-82602035D01*
X161422035Y-82350621D01*
X161599518Y-82085000D01*
X162596531Y-82085000D01*
X162640000Y-82089281D01*
X162683469Y-82085000D01*
X162683477Y-82085000D01*
X162813490Y-82072195D01*
X162980313Y-82021589D01*
X163134059Y-81939411D01*
X163268817Y-81828817D01*
X163296534Y-81795044D01*
X163790044Y-81301534D01*
X163823817Y-81273817D01*
X163934411Y-81139059D01*
X163994569Y-81026510D01*
X164016589Y-80985314D01*
X164067195Y-80818490D01*
X164074925Y-80740001D01*
X164080000Y-80688477D01*
X164080000Y-80688469D01*
X164084281Y-80645000D01*
X164080000Y-80601531D01*
X164080000Y-65448469D01*
X164084281Y-65405000D01*
X164080000Y-65361531D01*
X164080000Y-65361523D01*
X164067195Y-65231510D01*
X164024627Y-65091183D01*
X164016589Y-65064686D01*
X163934411Y-64910941D01*
X163851532Y-64809953D01*
X163851530Y-64809951D01*
X163823817Y-64776183D01*
X163790050Y-64748471D01*
X163216534Y-64174956D01*
X163188817Y-64141183D01*
X163054059Y-64030589D01*
X162900313Y-63948411D01*
X162733490Y-63897805D01*
X162603477Y-63885000D01*
X162603469Y-63885000D01*
X162560000Y-63880719D01*
X162516531Y-63885000D01*
X161599518Y-63885000D01*
X161422035Y-63619379D01*
X161170621Y-63367965D01*
X161166184Y-63365000D01*
X166505000Y-63365000D01*
X166505001Y-69794238D01*
X166499509Y-69850000D01*
X166505000Y-69905752D01*
X166505001Y-81144236D01*
X166499509Y-81199998D01*
X166505000Y-81255750D01*
X166505001Y-92574236D01*
X166499509Y-92629998D01*
X166505001Y-92685760D01*
X166505000Y-104084248D01*
X166499509Y-104140000D01*
X166505001Y-104195762D01*
X166505000Y-115514248D01*
X166499509Y-115570000D01*
X166505001Y-115625762D01*
X166505000Y-126944248D01*
X166499509Y-127000000D01*
X166521423Y-127222499D01*
X166586324Y-127436447D01*
X166654585Y-127564155D01*
X166691716Y-127633623D01*
X166833551Y-127806449D01*
X167006377Y-127948284D01*
X167203553Y-128053676D01*
X167417501Y-128118577D01*
X167640000Y-128140491D01*
X167695751Y-128135000D01*
X173394249Y-128135000D01*
X173450000Y-128140491D01*
X173505751Y-128135000D01*
X173505752Y-128135000D01*
X173672499Y-128118577D01*
X173886447Y-128053676D01*
X174083623Y-127948284D01*
X174256449Y-127806449D01*
X174291996Y-127763135D01*
X174521425Y-127533706D01*
X174634180Y-127499502D01*
X174744494Y-127440537D01*
X174841185Y-127361185D01*
X174920537Y-127264494D01*
X174979502Y-127154180D01*
X175015812Y-127034482D01*
X175026184Y-126929172D01*
X175043675Y-126896448D01*
X175108576Y-126682500D01*
X175130490Y-126460001D01*
X175108576Y-126237502D01*
X175043675Y-126023554D01*
X175026184Y-125990830D01*
X175015812Y-125885518D01*
X174979502Y-125765820D01*
X174962576Y-125734154D01*
X176823470Y-127595049D01*
X176851183Y-127628817D01*
X176884951Y-127656530D01*
X176884953Y-127656532D01*
X176922595Y-127687424D01*
X176985941Y-127739411D01*
X177131928Y-127817442D01*
X177131928Y-128300000D01*
X177144188Y-128424482D01*
X177180498Y-128544180D01*
X177239463Y-128654494D01*
X177318815Y-128751185D01*
X177415506Y-128830537D01*
X177525820Y-128889502D01*
X177645518Y-128925812D01*
X177770000Y-128938072D01*
X180370000Y-128938072D01*
X180494482Y-128925812D01*
X180614180Y-128889502D01*
X180724494Y-128830537D01*
X180821185Y-128751185D01*
X180900537Y-128654494D01*
X180959502Y-128544180D01*
X180995812Y-128424482D01*
X181008072Y-128300000D01*
X181008072Y-126912835D01*
X181995000Y-126912835D01*
X181995000Y-127087165D01*
X182029010Y-127258145D01*
X182095723Y-127419205D01*
X182192576Y-127564155D01*
X182315845Y-127687424D01*
X182460795Y-127784277D01*
X182621855Y-127850990D01*
X182792835Y-127885000D01*
X182967165Y-127885000D01*
X183138145Y-127850990D01*
X183299205Y-127784277D01*
X183444155Y-127687424D01*
X183567424Y-127564155D01*
X183664277Y-127419205D01*
X183730990Y-127258145D01*
X183765000Y-127087165D01*
X183765000Y-126912835D01*
X183730990Y-126741855D01*
X183664277Y-126580795D01*
X183567424Y-126435845D01*
X183444155Y-126312576D01*
X183299205Y-126215723D01*
X183138145Y-126149010D01*
X182967165Y-126115000D01*
X182792835Y-126115000D01*
X182621855Y-126149010D01*
X182460795Y-126215723D01*
X182315845Y-126312576D01*
X182192576Y-126435845D01*
X182095723Y-126580795D01*
X182029010Y-126741855D01*
X181995000Y-126912835D01*
X181008072Y-126912835D01*
X181008072Y-125700000D01*
X180995812Y-125575518D01*
X180959502Y-125455820D01*
X180900537Y-125345506D01*
X180821185Y-125248815D01*
X180724494Y-125169463D01*
X180614180Y-125110498D01*
X180494482Y-125074188D01*
X180370000Y-125061928D01*
X177770000Y-125061928D01*
X177645518Y-125074188D01*
X177525820Y-125110498D01*
X177415506Y-125169463D01*
X177318815Y-125248815D01*
X177239463Y-125345506D01*
X177182902Y-125451323D01*
X175978072Y-124246494D01*
X175978072Y-124010000D01*
X175965812Y-123885518D01*
X175929502Y-123765820D01*
X175870537Y-123655506D01*
X175825000Y-123600019D01*
X175825000Y-123349224D01*
X177900381Y-123349224D01*
X178032317Y-123644312D01*
X178373045Y-123815159D01*
X178740557Y-123916250D01*
X179120729Y-123943701D01*
X179498951Y-123896457D01*
X179860690Y-123776333D01*
X180107683Y-123644312D01*
X180239619Y-123349224D01*
X179070000Y-122179605D01*
X177900381Y-123349224D01*
X175825000Y-123349224D01*
X175825000Y-122913469D01*
X175829281Y-122870000D01*
X175825000Y-122826531D01*
X175825000Y-122826523D01*
X175812195Y-122696510D01*
X175761589Y-122529687D01*
X175679411Y-122375941D01*
X175568817Y-122241183D01*
X175535049Y-122213470D01*
X175372308Y-122050729D01*
X177126299Y-122050729D01*
X177173543Y-122428951D01*
X177293667Y-122790690D01*
X177425688Y-123037683D01*
X177720776Y-123169619D01*
X178890395Y-122000000D01*
X179249605Y-122000000D01*
X180419224Y-123169619D01*
X180714312Y-123037683D01*
X180885159Y-122696955D01*
X180986250Y-122329443D01*
X181013701Y-121949271D01*
X180966457Y-121571049D01*
X180846333Y-121209310D01*
X180714312Y-120962317D01*
X180419224Y-120830381D01*
X179249605Y-122000000D01*
X178890395Y-122000000D01*
X177720776Y-120830381D01*
X177425688Y-120962317D01*
X177254841Y-121303045D01*
X177153750Y-121670557D01*
X177126299Y-122050729D01*
X175372308Y-122050729D01*
X175328072Y-122006493D01*
X175328072Y-121657499D01*
X175311008Y-121484245D01*
X175260472Y-121317649D01*
X175178405Y-121164113D01*
X175111724Y-121082863D01*
X175141185Y-121058685D01*
X175220537Y-120961994D01*
X175279502Y-120851680D01*
X175315812Y-120731982D01*
X175323809Y-120650776D01*
X177900381Y-120650776D01*
X179070000Y-121820395D01*
X180239619Y-120650776D01*
X180107683Y-120355688D01*
X179766955Y-120184841D01*
X179399443Y-120083750D01*
X179019271Y-120056299D01*
X178641049Y-120103543D01*
X178279310Y-120223667D01*
X178032317Y-120355688D01*
X177900381Y-120650776D01*
X175323809Y-120650776D01*
X175328072Y-120607500D01*
X175325000Y-120380750D01*
X175166250Y-120222000D01*
X174117000Y-120222000D01*
X174117000Y-120242000D01*
X173863000Y-120242000D01*
X173863000Y-120222000D01*
X172813750Y-120222000D01*
X172655000Y-120380750D01*
X172651928Y-120607500D01*
X172664188Y-120731982D01*
X172700498Y-120851680D01*
X172759463Y-120961994D01*
X172838815Y-121058685D01*
X172868276Y-121082863D01*
X172801595Y-121164113D01*
X172719528Y-121317649D01*
X172668992Y-121484245D01*
X172651928Y-121657499D01*
X172651928Y-122182501D01*
X172668992Y-122355755D01*
X172719528Y-122522351D01*
X172801595Y-122675887D01*
X172912038Y-122810462D01*
X173046613Y-122920905D01*
X173200149Y-123002972D01*
X173366745Y-123053508D01*
X173539999Y-123070572D01*
X173888993Y-123070572D01*
X174055001Y-123236579D01*
X174055001Y-123600018D01*
X174009463Y-123655506D01*
X173990000Y-123691918D01*
X173970537Y-123655506D01*
X173891185Y-123558815D01*
X173794494Y-123479463D01*
X173684180Y-123420498D01*
X173564482Y-123384188D01*
X173440000Y-123371928D01*
X172640000Y-123371928D01*
X172515518Y-123384188D01*
X172395820Y-123420498D01*
X172285506Y-123479463D01*
X172188815Y-123558815D01*
X172175532Y-123575000D01*
X171572790Y-123575000D01*
X171422035Y-123349379D01*
X171170621Y-123097965D01*
X170874988Y-122900429D01*
X170546499Y-122764365D01*
X170197777Y-122695000D01*
X169842223Y-122695000D01*
X169493501Y-122764365D01*
X169165012Y-122900429D01*
X168869379Y-123097965D01*
X168775000Y-123192344D01*
X168775000Y-119582500D01*
X172651928Y-119582500D01*
X172655000Y-119809250D01*
X172813750Y-119968000D01*
X173863000Y-119968000D01*
X173863000Y-119106250D01*
X174117000Y-119106250D01*
X174117000Y-119968000D01*
X175166250Y-119968000D01*
X175325000Y-119809250D01*
X175328072Y-119582500D01*
X175315812Y-119458018D01*
X175279502Y-119338320D01*
X175220537Y-119228006D01*
X175141185Y-119131315D01*
X175044494Y-119051963D01*
X174934180Y-118992998D01*
X174814482Y-118956688D01*
X174690000Y-118944428D01*
X174275750Y-118947500D01*
X174117000Y-119106250D01*
X173863000Y-119106250D01*
X173704250Y-118947500D01*
X173290000Y-118944428D01*
X173165518Y-118956688D01*
X173045820Y-118992998D01*
X172935506Y-119051963D01*
X172838815Y-119131315D01*
X172759463Y-119228006D01*
X172700498Y-119338320D01*
X172664188Y-119458018D01*
X172651928Y-119582500D01*
X168775000Y-119582500D01*
X168775000Y-116705000D01*
X173934249Y-116705000D01*
X173990000Y-116710491D01*
X174045751Y-116705000D01*
X174045752Y-116705000D01*
X174212499Y-116688577D01*
X174426447Y-116623676D01*
X174623623Y-116518284D01*
X174796449Y-116376449D01*
X174831996Y-116333135D01*
X175073135Y-116091996D01*
X175116449Y-116056449D01*
X175258284Y-115883623D01*
X175363676Y-115686446D01*
X175428577Y-115472498D01*
X175445000Y-115305751D01*
X175445000Y-115305743D01*
X175450490Y-115250001D01*
X175445000Y-115194259D01*
X175445000Y-114974248D01*
X175428577Y-114807501D01*
X175363676Y-114593553D01*
X175346184Y-114560827D01*
X175335812Y-114455518D01*
X175299502Y-114335820D01*
X175282576Y-114304154D01*
X177131928Y-116153507D01*
X177131928Y-116870000D01*
X177144188Y-116994482D01*
X177180498Y-117114180D01*
X177239463Y-117224494D01*
X177318815Y-117321185D01*
X177415506Y-117400537D01*
X177525820Y-117459502D01*
X177645518Y-117495812D01*
X177770000Y-117508072D01*
X180370000Y-117508072D01*
X180494482Y-117495812D01*
X180614180Y-117459502D01*
X180724494Y-117400537D01*
X180821185Y-117321185D01*
X180900537Y-117224494D01*
X180959502Y-117114180D01*
X180995812Y-116994482D01*
X181008072Y-116870000D01*
X181008072Y-114270000D01*
X180995812Y-114145518D01*
X180959502Y-114025820D01*
X180900537Y-113915506D01*
X180821185Y-113818815D01*
X180724494Y-113739463D01*
X180614180Y-113680498D01*
X180494482Y-113644188D01*
X180370000Y-113631928D01*
X177770000Y-113631928D01*
X177645518Y-113644188D01*
X177525820Y-113680498D01*
X177415506Y-113739463D01*
X177318815Y-113818815D01*
X177310511Y-113828933D01*
X176298072Y-112816494D01*
X176298072Y-112580000D01*
X176285812Y-112455518D01*
X176249502Y-112335820D01*
X176190537Y-112225506D01*
X176145000Y-112170019D01*
X176145000Y-111919224D01*
X177900381Y-111919224D01*
X178032317Y-112214312D01*
X178373045Y-112385159D01*
X178740557Y-112486250D01*
X179120729Y-112513701D01*
X179498951Y-112466457D01*
X179860690Y-112346333D01*
X180107683Y-112214312D01*
X180239619Y-111919224D01*
X179070000Y-110749605D01*
X177900381Y-111919224D01*
X176145000Y-111919224D01*
X176145000Y-111803465D01*
X176149281Y-111759999D01*
X176145000Y-111716533D01*
X176145000Y-111716523D01*
X176132195Y-111586510D01*
X176081589Y-111419687D01*
X175999411Y-111265941D01*
X175965811Y-111225000D01*
X175916532Y-111164953D01*
X175916530Y-111164951D01*
X175888817Y-111131183D01*
X175855049Y-111103470D01*
X175372308Y-110620729D01*
X177126299Y-110620729D01*
X177173543Y-110998951D01*
X177293667Y-111360690D01*
X177425688Y-111607683D01*
X177720776Y-111739619D01*
X178890395Y-110570000D01*
X179249605Y-110570000D01*
X180419224Y-111739619D01*
X180714312Y-111607683D01*
X180885159Y-111266955D01*
X180986250Y-110899443D01*
X181013701Y-110519271D01*
X180966457Y-110141049D01*
X180846333Y-109779310D01*
X180714312Y-109532317D01*
X180419224Y-109400381D01*
X179249605Y-110570000D01*
X178890395Y-110570000D01*
X177720776Y-109400381D01*
X177425688Y-109532317D01*
X177254841Y-109873045D01*
X177153750Y-110240557D01*
X177126299Y-110620729D01*
X175372308Y-110620729D01*
X175328072Y-110576493D01*
X175328072Y-110227499D01*
X175311008Y-110054245D01*
X175260472Y-109887649D01*
X175178405Y-109734113D01*
X175111724Y-109652863D01*
X175141185Y-109628685D01*
X175220537Y-109531994D01*
X175279502Y-109421680D01*
X175315812Y-109301982D01*
X175323809Y-109220776D01*
X177900381Y-109220776D01*
X179070000Y-110390395D01*
X180239619Y-109220776D01*
X180107683Y-108925688D01*
X179766955Y-108754841D01*
X179399443Y-108653750D01*
X179019271Y-108626299D01*
X178641049Y-108673543D01*
X178279310Y-108793667D01*
X178032317Y-108925688D01*
X177900381Y-109220776D01*
X175323809Y-109220776D01*
X175328072Y-109177500D01*
X175325000Y-108950750D01*
X175166250Y-108792000D01*
X174117000Y-108792000D01*
X174117000Y-108812000D01*
X173863000Y-108812000D01*
X173863000Y-108792000D01*
X172813750Y-108792000D01*
X172655000Y-108950750D01*
X172651928Y-109177500D01*
X172664188Y-109301982D01*
X172700498Y-109421680D01*
X172759463Y-109531994D01*
X172838815Y-109628685D01*
X172868276Y-109652863D01*
X172801595Y-109734113D01*
X172719528Y-109887649D01*
X172668992Y-110054245D01*
X172651928Y-110227499D01*
X172651928Y-110752501D01*
X172668992Y-110925755D01*
X172719528Y-111092351D01*
X172801595Y-111245887D01*
X172912038Y-111380462D01*
X173046613Y-111490905D01*
X173200149Y-111572972D01*
X173366745Y-111623508D01*
X173539999Y-111640572D01*
X173888994Y-111640572D01*
X174375001Y-112126579D01*
X174375001Y-112170018D01*
X174329463Y-112225506D01*
X174310000Y-112261918D01*
X174290537Y-112225506D01*
X174211185Y-112128815D01*
X174114494Y-112049463D01*
X174004180Y-111990498D01*
X173884482Y-111954188D01*
X173760000Y-111941928D01*
X172960000Y-111941928D01*
X172835518Y-111954188D01*
X172715820Y-111990498D01*
X172605506Y-112049463D01*
X172508815Y-112128815D01*
X172495532Y-112145000D01*
X171759518Y-112145000D01*
X171582035Y-111879379D01*
X171330621Y-111627965D01*
X171034988Y-111430429D01*
X170706499Y-111294365D01*
X170357777Y-111225000D01*
X170002223Y-111225000D01*
X169653501Y-111294365D01*
X169325012Y-111430429D01*
X169029379Y-111627965D01*
X168777965Y-111879379D01*
X168775000Y-111883816D01*
X168775000Y-108152500D01*
X172651928Y-108152500D01*
X172655000Y-108379250D01*
X172813750Y-108538000D01*
X173863000Y-108538000D01*
X173863000Y-107676250D01*
X174117000Y-107676250D01*
X174117000Y-108538000D01*
X175166250Y-108538000D01*
X175325000Y-108379250D01*
X175328072Y-108152500D01*
X175315812Y-108028018D01*
X175279502Y-107908320D01*
X175220537Y-107798006D01*
X175141185Y-107701315D01*
X175044494Y-107621963D01*
X174934180Y-107562998D01*
X174814482Y-107526688D01*
X174690000Y-107514428D01*
X174275750Y-107517500D01*
X174117000Y-107676250D01*
X173863000Y-107676250D01*
X173704250Y-107517500D01*
X173290000Y-107514428D01*
X173165518Y-107526688D01*
X173045820Y-107562998D01*
X172935506Y-107621963D01*
X172838815Y-107701315D01*
X172759463Y-107798006D01*
X172700498Y-107908320D01*
X172664188Y-108028018D01*
X172651928Y-108152500D01*
X168775000Y-108152500D01*
X168775000Y-105275000D01*
X173934249Y-105275000D01*
X173990000Y-105280491D01*
X174045751Y-105275000D01*
X174045752Y-105275000D01*
X174212499Y-105258577D01*
X174426447Y-105193676D01*
X174623623Y-105088284D01*
X174796449Y-104946449D01*
X174831996Y-104903135D01*
X175073135Y-104661996D01*
X175116449Y-104626449D01*
X175258284Y-104453623D01*
X175363676Y-104256446D01*
X175428577Y-104042498D01*
X175445000Y-103875751D01*
X175445000Y-103875743D01*
X175450490Y-103820001D01*
X175445000Y-103764259D01*
X175445000Y-103544248D01*
X175428577Y-103377501D01*
X175363676Y-103163553D01*
X175346184Y-103130827D01*
X175335812Y-103025518D01*
X175299502Y-102905820D01*
X175282576Y-102874154D01*
X177131928Y-104723507D01*
X177131928Y-105440000D01*
X177144188Y-105564482D01*
X177180498Y-105684180D01*
X177239463Y-105794494D01*
X177318815Y-105891185D01*
X177415506Y-105970537D01*
X177525820Y-106029502D01*
X177645518Y-106065812D01*
X177770000Y-106078072D01*
X180370000Y-106078072D01*
X180494482Y-106065812D01*
X180614180Y-106029502D01*
X180724494Y-105970537D01*
X180821185Y-105891185D01*
X180900537Y-105794494D01*
X180959502Y-105684180D01*
X180995812Y-105564482D01*
X181008072Y-105440000D01*
X181008072Y-102840000D01*
X180995812Y-102715518D01*
X180959502Y-102595820D01*
X180900537Y-102485506D01*
X180821185Y-102388815D01*
X180724494Y-102309463D01*
X180614180Y-102250498D01*
X180494482Y-102214188D01*
X180370000Y-102201928D01*
X177770000Y-102201928D01*
X177645518Y-102214188D01*
X177525820Y-102250498D01*
X177415506Y-102309463D01*
X177318815Y-102388815D01*
X177310511Y-102398933D01*
X176298072Y-101386494D01*
X176298072Y-101150000D01*
X176285812Y-101025518D01*
X176249502Y-100905820D01*
X176190537Y-100795506D01*
X176145000Y-100740019D01*
X176145000Y-100489224D01*
X177900381Y-100489224D01*
X178032317Y-100784312D01*
X178373045Y-100955159D01*
X178740557Y-101056250D01*
X179120729Y-101083701D01*
X179498951Y-101036457D01*
X179860690Y-100916333D01*
X180107683Y-100784312D01*
X180239619Y-100489224D01*
X179070000Y-99319605D01*
X177900381Y-100489224D01*
X176145000Y-100489224D01*
X176145000Y-100373465D01*
X176149281Y-100329999D01*
X176145000Y-100286533D01*
X176145000Y-100286523D01*
X176132195Y-100156510D01*
X176081589Y-99989687D01*
X175999411Y-99835941D01*
X175965811Y-99795000D01*
X175916532Y-99734953D01*
X175916530Y-99734951D01*
X175888817Y-99701183D01*
X175855049Y-99673470D01*
X175372308Y-99190729D01*
X177126299Y-99190729D01*
X177173543Y-99568951D01*
X177293667Y-99930690D01*
X177425688Y-100177683D01*
X177720776Y-100309619D01*
X178890395Y-99140000D01*
X179249605Y-99140000D01*
X180419224Y-100309619D01*
X180714312Y-100177683D01*
X180885159Y-99836955D01*
X180986250Y-99469443D01*
X181013701Y-99089271D01*
X180966457Y-98711049D01*
X180846333Y-98349310D01*
X180714312Y-98102317D01*
X180419224Y-97970381D01*
X179249605Y-99140000D01*
X178890395Y-99140000D01*
X177720776Y-97970381D01*
X177425688Y-98102317D01*
X177254841Y-98443045D01*
X177153750Y-98810557D01*
X177126299Y-99190729D01*
X175372308Y-99190729D01*
X175328072Y-99146493D01*
X175328072Y-98797499D01*
X175311008Y-98624245D01*
X175260472Y-98457649D01*
X175178405Y-98304113D01*
X175111724Y-98222863D01*
X175141185Y-98198685D01*
X175220537Y-98101994D01*
X175279502Y-97991680D01*
X175315812Y-97871982D01*
X175323809Y-97790776D01*
X177900381Y-97790776D01*
X179070000Y-98960395D01*
X180239619Y-97790776D01*
X180107683Y-97495688D01*
X179766955Y-97324841D01*
X179399443Y-97223750D01*
X179019271Y-97196299D01*
X178641049Y-97243543D01*
X178279310Y-97363667D01*
X178032317Y-97495688D01*
X177900381Y-97790776D01*
X175323809Y-97790776D01*
X175328072Y-97747500D01*
X175325000Y-97520750D01*
X175166250Y-97362000D01*
X174117000Y-97362000D01*
X174117000Y-97382000D01*
X173863000Y-97382000D01*
X173863000Y-97362000D01*
X172813750Y-97362000D01*
X172655000Y-97520750D01*
X172651928Y-97747500D01*
X172664188Y-97871982D01*
X172700498Y-97991680D01*
X172759463Y-98101994D01*
X172838815Y-98198685D01*
X172868276Y-98222863D01*
X172801595Y-98304113D01*
X172719528Y-98457649D01*
X172668992Y-98624245D01*
X172651928Y-98797499D01*
X172651928Y-99322501D01*
X172668992Y-99495755D01*
X172719528Y-99662351D01*
X172801595Y-99815887D01*
X172912038Y-99950462D01*
X173046613Y-100060905D01*
X173200149Y-100142972D01*
X173366745Y-100193508D01*
X173539999Y-100210572D01*
X173888994Y-100210572D01*
X174375001Y-100696579D01*
X174375001Y-100740018D01*
X174329463Y-100795506D01*
X174310000Y-100831918D01*
X174290537Y-100795506D01*
X174211185Y-100698815D01*
X174114494Y-100619463D01*
X174004180Y-100560498D01*
X173884482Y-100524188D01*
X173760000Y-100511928D01*
X172960000Y-100511928D01*
X172835518Y-100524188D01*
X172715820Y-100560498D01*
X172605506Y-100619463D01*
X172508815Y-100698815D01*
X172495532Y-100715000D01*
X171759518Y-100715000D01*
X171582035Y-100449379D01*
X171330621Y-100197965D01*
X171034988Y-100000429D01*
X170706499Y-99864365D01*
X170357777Y-99795000D01*
X170002223Y-99795000D01*
X169653501Y-99864365D01*
X169325012Y-100000429D01*
X169029379Y-100197965D01*
X168777965Y-100449379D01*
X168775000Y-100453816D01*
X168775000Y-96722500D01*
X172651928Y-96722500D01*
X172655000Y-96949250D01*
X172813750Y-97108000D01*
X173863000Y-97108000D01*
X173863000Y-96246250D01*
X174117000Y-96246250D01*
X174117000Y-97108000D01*
X175166250Y-97108000D01*
X175325000Y-96949250D01*
X175328072Y-96722500D01*
X175315812Y-96598018D01*
X175279502Y-96478320D01*
X175220537Y-96368006D01*
X175141185Y-96271315D01*
X175044494Y-96191963D01*
X174934180Y-96132998D01*
X174814482Y-96096688D01*
X174690000Y-96084428D01*
X174275750Y-96087500D01*
X174117000Y-96246250D01*
X173863000Y-96246250D01*
X173704250Y-96087500D01*
X173290000Y-96084428D01*
X173165518Y-96096688D01*
X173045820Y-96132998D01*
X172935506Y-96191963D01*
X172838815Y-96271315D01*
X172759463Y-96368006D01*
X172700498Y-96478320D01*
X172664188Y-96598018D01*
X172651928Y-96722500D01*
X168775000Y-96722500D01*
X168775000Y-93764998D01*
X173154251Y-93764998D01*
X173210002Y-93770489D01*
X173265753Y-93764998D01*
X173265754Y-93764998D01*
X173432501Y-93748575D01*
X173646449Y-93683674D01*
X173843625Y-93578282D01*
X174016451Y-93436447D01*
X174051998Y-93393133D01*
X174201425Y-93243706D01*
X174314180Y-93209502D01*
X174424494Y-93150537D01*
X174521185Y-93071185D01*
X174600537Y-92974494D01*
X174659502Y-92864180D01*
X174695812Y-92744482D01*
X174706184Y-92639172D01*
X174723675Y-92606448D01*
X174788576Y-92392500D01*
X174810490Y-92170001D01*
X174788576Y-91947502D01*
X174723675Y-91733554D01*
X174706184Y-91700830D01*
X174695812Y-91595518D01*
X174659502Y-91475820D01*
X174642576Y-91444154D01*
X176503470Y-93305049D01*
X176531183Y-93338817D01*
X176564951Y-93366530D01*
X176564953Y-93366532D01*
X176591692Y-93388476D01*
X176665941Y-93449411D01*
X176819687Y-93531589D01*
X176986510Y-93582195D01*
X177116523Y-93595000D01*
X177116533Y-93595000D01*
X177131928Y-93596516D01*
X177131928Y-94010000D01*
X177144188Y-94134482D01*
X177180498Y-94254180D01*
X177239463Y-94364494D01*
X177318815Y-94461185D01*
X177415506Y-94540537D01*
X177525820Y-94599502D01*
X177645518Y-94635812D01*
X177770000Y-94648072D01*
X180370000Y-94648072D01*
X180494482Y-94635812D01*
X180614180Y-94599502D01*
X180724494Y-94540537D01*
X180821185Y-94461185D01*
X180900537Y-94364494D01*
X180959502Y-94254180D01*
X180995812Y-94134482D01*
X181008072Y-94010000D01*
X181008072Y-91410000D01*
X180995812Y-91285518D01*
X180959502Y-91165820D01*
X180900537Y-91055506D01*
X180821185Y-90958815D01*
X180724494Y-90879463D01*
X180614180Y-90820498D01*
X180494482Y-90784188D01*
X180370000Y-90771928D01*
X177770000Y-90771928D01*
X177645518Y-90784188D01*
X177525820Y-90820498D01*
X177415506Y-90879463D01*
X177318815Y-90958815D01*
X177239463Y-91055506D01*
X177180498Y-91165820D01*
X177144188Y-91285518D01*
X177131928Y-91410000D01*
X177131928Y-91430349D01*
X175658072Y-89956494D01*
X175658072Y-89720000D01*
X175645812Y-89595518D01*
X175609502Y-89475820D01*
X175550537Y-89365506D01*
X175505000Y-89310019D01*
X175505000Y-89059224D01*
X177900381Y-89059224D01*
X178032317Y-89354312D01*
X178373045Y-89525159D01*
X178740557Y-89626250D01*
X179120729Y-89653701D01*
X179498951Y-89606457D01*
X179860690Y-89486333D01*
X180107683Y-89354312D01*
X180239619Y-89059224D01*
X179070000Y-87889605D01*
X177900381Y-89059224D01*
X175505000Y-89059224D01*
X175505000Y-87945969D01*
X175509281Y-87902500D01*
X175505000Y-87859031D01*
X175505000Y-87859023D01*
X175495320Y-87760729D01*
X177126299Y-87760729D01*
X177173543Y-88138951D01*
X177293667Y-88500690D01*
X177425688Y-88747683D01*
X177720776Y-88879619D01*
X178890395Y-87710000D01*
X179249605Y-87710000D01*
X180419224Y-88879619D01*
X180714312Y-88747683D01*
X180885159Y-88406955D01*
X180986250Y-88039443D01*
X181013701Y-87659271D01*
X180966457Y-87281049D01*
X180846333Y-86919310D01*
X180714312Y-86672317D01*
X180419224Y-86540381D01*
X179249605Y-87710000D01*
X178890395Y-87710000D01*
X177720776Y-86540381D01*
X177425688Y-86672317D01*
X177254841Y-87013045D01*
X177153750Y-87380557D01*
X177126299Y-87760729D01*
X175495320Y-87760729D01*
X175492195Y-87729010D01*
X175441589Y-87562186D01*
X175359411Y-87408441D01*
X175328072Y-87370254D01*
X175328072Y-87009999D01*
X175311008Y-86836745D01*
X175260472Y-86670149D01*
X175178405Y-86516613D01*
X175111724Y-86435363D01*
X175141185Y-86411185D01*
X175182554Y-86360776D01*
X177900381Y-86360776D01*
X179070000Y-87530395D01*
X180239619Y-86360776D01*
X180107683Y-86065688D01*
X179766955Y-85894841D01*
X179399443Y-85793750D01*
X179019271Y-85766299D01*
X178641049Y-85813543D01*
X178279310Y-85933667D01*
X178032317Y-86065688D01*
X177900381Y-86360776D01*
X175182554Y-86360776D01*
X175220537Y-86314494D01*
X175279502Y-86204180D01*
X175315812Y-86084482D01*
X175328072Y-85960000D01*
X175325000Y-85733250D01*
X175166250Y-85574500D01*
X174117000Y-85574500D01*
X174117000Y-85594500D01*
X173863000Y-85594500D01*
X173863000Y-85574500D01*
X172813750Y-85574500D01*
X172655000Y-85733250D01*
X172651928Y-85960000D01*
X172664188Y-86084482D01*
X172700498Y-86204180D01*
X172759463Y-86314494D01*
X172838815Y-86411185D01*
X172868276Y-86435363D01*
X172801595Y-86516613D01*
X172719528Y-86670149D01*
X172668992Y-86836745D01*
X172651928Y-87009999D01*
X172651928Y-87535001D01*
X172668992Y-87708255D01*
X172719528Y-87874851D01*
X172801595Y-88028387D01*
X172912038Y-88162962D01*
X173046613Y-88273405D01*
X173200149Y-88355472D01*
X173366745Y-88406008D01*
X173539999Y-88423072D01*
X173735001Y-88423072D01*
X173735000Y-89310018D01*
X173689463Y-89365506D01*
X173670000Y-89401918D01*
X173650537Y-89365506D01*
X173571185Y-89268815D01*
X173474494Y-89189463D01*
X173364180Y-89130498D01*
X173244482Y-89094188D01*
X173120000Y-89081928D01*
X172320000Y-89081928D01*
X172195518Y-89094188D01*
X172075820Y-89130498D01*
X171965506Y-89189463D01*
X171868815Y-89268815D01*
X171855532Y-89285000D01*
X171623708Y-89285000D01*
X171619571Y-89275012D01*
X171422035Y-88979379D01*
X171170621Y-88727965D01*
X170874988Y-88530429D01*
X170546499Y-88394365D01*
X170197777Y-88325000D01*
X169842223Y-88325000D01*
X169493501Y-88394365D01*
X169165012Y-88530429D01*
X168869379Y-88727965D01*
X168775000Y-88822344D01*
X168775000Y-84935000D01*
X172651928Y-84935000D01*
X172655000Y-85161750D01*
X172813750Y-85320500D01*
X173863000Y-85320500D01*
X173863000Y-84458750D01*
X174117000Y-84458750D01*
X174117000Y-85320500D01*
X175166250Y-85320500D01*
X175325000Y-85161750D01*
X175328072Y-84935000D01*
X175315812Y-84810518D01*
X175279502Y-84690820D01*
X175220537Y-84580506D01*
X175141185Y-84483815D01*
X175044494Y-84404463D01*
X174934180Y-84345498D01*
X174814482Y-84309188D01*
X174690000Y-84296928D01*
X174275750Y-84300000D01*
X174117000Y-84458750D01*
X173863000Y-84458750D01*
X173704250Y-84300000D01*
X173290000Y-84296928D01*
X173165518Y-84309188D01*
X173045820Y-84345498D01*
X172935506Y-84404463D01*
X172838815Y-84483815D01*
X172759463Y-84580506D01*
X172700498Y-84690820D01*
X172664188Y-84810518D01*
X172651928Y-84935000D01*
X168775000Y-84935000D01*
X168775000Y-82334998D01*
X173154251Y-82334998D01*
X173210002Y-82340489D01*
X173265753Y-82334998D01*
X173265754Y-82334998D01*
X173432501Y-82318575D01*
X173646449Y-82253674D01*
X173843625Y-82148282D01*
X174016451Y-82006447D01*
X174051998Y-81963133D01*
X174201425Y-81813706D01*
X174314180Y-81779502D01*
X174424494Y-81720537D01*
X174521185Y-81641185D01*
X174600537Y-81544494D01*
X174659502Y-81434180D01*
X174695812Y-81314482D01*
X174706184Y-81209172D01*
X174723675Y-81176448D01*
X174788576Y-80962500D01*
X174810490Y-80740001D01*
X174788576Y-80517502D01*
X174723675Y-80303554D01*
X174706184Y-80270830D01*
X174695812Y-80165518D01*
X174659502Y-80045820D01*
X174642576Y-80014154D01*
X176503470Y-81875049D01*
X176531183Y-81908817D01*
X176564951Y-81936530D01*
X176564953Y-81936532D01*
X176630945Y-81990690D01*
X176665941Y-82019411D01*
X176819687Y-82101589D01*
X176986510Y-82152195D01*
X177116523Y-82165000D01*
X177116533Y-82165000D01*
X177131928Y-82166516D01*
X177131928Y-82580000D01*
X177144188Y-82704482D01*
X177180498Y-82824180D01*
X177239463Y-82934494D01*
X177318815Y-83031185D01*
X177415506Y-83110537D01*
X177525820Y-83169502D01*
X177645518Y-83205812D01*
X177770000Y-83218072D01*
X180370000Y-83218072D01*
X180494482Y-83205812D01*
X180614180Y-83169502D01*
X180724494Y-83110537D01*
X180821185Y-83031185D01*
X180900537Y-82934494D01*
X180959502Y-82824180D01*
X180995812Y-82704482D01*
X181008072Y-82580000D01*
X181008072Y-79980000D01*
X180995812Y-79855518D01*
X180959502Y-79735820D01*
X180900537Y-79625506D01*
X180821185Y-79528815D01*
X180724494Y-79449463D01*
X180614180Y-79390498D01*
X180494482Y-79354188D01*
X180370000Y-79341928D01*
X177770000Y-79341928D01*
X177645518Y-79354188D01*
X177525820Y-79390498D01*
X177415506Y-79449463D01*
X177318815Y-79528815D01*
X177239463Y-79625506D01*
X177180498Y-79735820D01*
X177144188Y-79855518D01*
X177131928Y-79980000D01*
X177131928Y-80000349D01*
X175658072Y-78526494D01*
X175658072Y-78290000D01*
X175645812Y-78165518D01*
X175609502Y-78045820D01*
X175550537Y-77935506D01*
X175505000Y-77880019D01*
X175505000Y-77629224D01*
X177900381Y-77629224D01*
X178032317Y-77924312D01*
X178373045Y-78095159D01*
X178740557Y-78196250D01*
X179120729Y-78223701D01*
X179498951Y-78176457D01*
X179860690Y-78056333D01*
X180107683Y-77924312D01*
X180239619Y-77629224D01*
X179070000Y-76459605D01*
X177900381Y-77629224D01*
X175505000Y-77629224D01*
X175505000Y-76873469D01*
X175509281Y-76830000D01*
X175505000Y-76786531D01*
X175505000Y-76786523D01*
X175492195Y-76656510D01*
X175456947Y-76540314D01*
X175441589Y-76489686D01*
X175359411Y-76335941D01*
X175355134Y-76330729D01*
X177126299Y-76330729D01*
X177173543Y-76708951D01*
X177293667Y-77070690D01*
X177425688Y-77317683D01*
X177720776Y-77449619D01*
X178890395Y-76280000D01*
X179249605Y-76280000D01*
X180419224Y-77449619D01*
X180714312Y-77317683D01*
X180885159Y-76976955D01*
X180986250Y-76609443D01*
X181013701Y-76229271D01*
X180966457Y-75851049D01*
X180846333Y-75489310D01*
X180714312Y-75242317D01*
X180419224Y-75110381D01*
X179249605Y-76280000D01*
X178890395Y-76280000D01*
X177720776Y-75110381D01*
X177425688Y-75242317D01*
X177254841Y-75583045D01*
X177153750Y-75950557D01*
X177126299Y-76330729D01*
X175355134Y-76330729D01*
X175328072Y-76297754D01*
X175328072Y-75937499D01*
X175311008Y-75764245D01*
X175260472Y-75597649D01*
X175178405Y-75444113D01*
X175111724Y-75362863D01*
X175141185Y-75338685D01*
X175220537Y-75241994D01*
X175279502Y-75131680D01*
X175315812Y-75011982D01*
X175323809Y-74930776D01*
X177900381Y-74930776D01*
X179070000Y-76100395D01*
X180239619Y-74930776D01*
X180107683Y-74635688D01*
X179766955Y-74464841D01*
X179399443Y-74363750D01*
X179019271Y-74336299D01*
X178641049Y-74383543D01*
X178279310Y-74503667D01*
X178032317Y-74635688D01*
X177900381Y-74930776D01*
X175323809Y-74930776D01*
X175328072Y-74887500D01*
X175325000Y-74660750D01*
X175166250Y-74502000D01*
X174117000Y-74502000D01*
X174117000Y-74522000D01*
X173863000Y-74522000D01*
X173863000Y-74502000D01*
X172813750Y-74502000D01*
X172655000Y-74660750D01*
X172651928Y-74887500D01*
X172664188Y-75011982D01*
X172700498Y-75131680D01*
X172759463Y-75241994D01*
X172838815Y-75338685D01*
X172868276Y-75362863D01*
X172801595Y-75444113D01*
X172719528Y-75597649D01*
X172668992Y-75764245D01*
X172651928Y-75937499D01*
X172651928Y-76462501D01*
X172668992Y-76635755D01*
X172719528Y-76802351D01*
X172801595Y-76955887D01*
X172912038Y-77090462D01*
X173046613Y-77200905D01*
X173200149Y-77282972D01*
X173366745Y-77333508D01*
X173539999Y-77350572D01*
X173735001Y-77350572D01*
X173735000Y-77880018D01*
X173689463Y-77935506D01*
X173670000Y-77971918D01*
X173650537Y-77935506D01*
X173571185Y-77838815D01*
X173474494Y-77759463D01*
X173364180Y-77700498D01*
X173244482Y-77664188D01*
X173120000Y-77651928D01*
X172320000Y-77651928D01*
X172195518Y-77664188D01*
X172075820Y-77700498D01*
X171965506Y-77759463D01*
X171868815Y-77838815D01*
X171855532Y-77855000D01*
X171623708Y-77855000D01*
X171619571Y-77845012D01*
X171422035Y-77549379D01*
X171170621Y-77297965D01*
X170874988Y-77100429D01*
X170546499Y-76964365D01*
X170197777Y-76895000D01*
X169842223Y-76895000D01*
X169493501Y-76964365D01*
X169165012Y-77100429D01*
X168869379Y-77297965D01*
X168775000Y-77392344D01*
X168775000Y-73862500D01*
X172651928Y-73862500D01*
X172655000Y-74089250D01*
X172813750Y-74248000D01*
X173863000Y-74248000D01*
X173863000Y-73386250D01*
X174117000Y-73386250D01*
X174117000Y-74248000D01*
X175166250Y-74248000D01*
X175325000Y-74089250D01*
X175328072Y-73862500D01*
X175315812Y-73738018D01*
X175279502Y-73618320D01*
X175220537Y-73508006D01*
X175141185Y-73411315D01*
X175044494Y-73331963D01*
X174934180Y-73272998D01*
X174814482Y-73236688D01*
X174690000Y-73224428D01*
X174275750Y-73227500D01*
X174117000Y-73386250D01*
X173863000Y-73386250D01*
X173704250Y-73227500D01*
X173290000Y-73224428D01*
X173165518Y-73236688D01*
X173045820Y-73272998D01*
X172935506Y-73331963D01*
X172838815Y-73411315D01*
X172759463Y-73508006D01*
X172700498Y-73618320D01*
X172664188Y-73738018D01*
X172651928Y-73862500D01*
X168775000Y-73862500D01*
X168775000Y-70985000D01*
X173394249Y-70985000D01*
X173450000Y-70990491D01*
X173505751Y-70985000D01*
X173505752Y-70985000D01*
X173672499Y-70968577D01*
X173886447Y-70903676D01*
X174083623Y-70798284D01*
X174256449Y-70656449D01*
X174291996Y-70613135D01*
X174521425Y-70383706D01*
X174634180Y-70349502D01*
X174744494Y-70290537D01*
X174841185Y-70211185D01*
X174920537Y-70114494D01*
X174979502Y-70004180D01*
X175015812Y-69884482D01*
X175026184Y-69779172D01*
X175043675Y-69746448D01*
X175108576Y-69532500D01*
X175130490Y-69310001D01*
X175108576Y-69087502D01*
X175043675Y-68873554D01*
X175026184Y-68840830D01*
X175015812Y-68735518D01*
X174979502Y-68615820D01*
X174962576Y-68584154D01*
X176823470Y-70445049D01*
X176851183Y-70478817D01*
X176884951Y-70506530D01*
X176884953Y-70506532D01*
X176956452Y-70565210D01*
X176985941Y-70589411D01*
X177131928Y-70667442D01*
X177131928Y-71150000D01*
X177144188Y-71274482D01*
X177180498Y-71394180D01*
X177239463Y-71504494D01*
X177318815Y-71601185D01*
X177415506Y-71680537D01*
X177525820Y-71739502D01*
X177645518Y-71775812D01*
X177770000Y-71788072D01*
X180370000Y-71788072D01*
X180494482Y-71775812D01*
X180614180Y-71739502D01*
X180724494Y-71680537D01*
X180821185Y-71601185D01*
X180900537Y-71504494D01*
X180959502Y-71394180D01*
X180995812Y-71274482D01*
X181008072Y-71150000D01*
X181008072Y-68550000D01*
X180995812Y-68425518D01*
X180959502Y-68305820D01*
X180900537Y-68195506D01*
X180821185Y-68098815D01*
X180724494Y-68019463D01*
X180614180Y-67960498D01*
X180494482Y-67924188D01*
X180370000Y-67911928D01*
X177770000Y-67911928D01*
X177645518Y-67924188D01*
X177525820Y-67960498D01*
X177415506Y-68019463D01*
X177318815Y-68098815D01*
X177239463Y-68195506D01*
X177182902Y-68301323D01*
X175978072Y-67096494D01*
X175978072Y-66860000D01*
X175965812Y-66735518D01*
X175929502Y-66615820D01*
X175870537Y-66505506D01*
X175825000Y-66450019D01*
X175825000Y-66199224D01*
X177900381Y-66199224D01*
X178032317Y-66494312D01*
X178373045Y-66665159D01*
X178740557Y-66766250D01*
X179120729Y-66793701D01*
X179498951Y-66746457D01*
X179860690Y-66626333D01*
X180107683Y-66494312D01*
X180239619Y-66199224D01*
X179070000Y-65029605D01*
X177900381Y-66199224D01*
X175825000Y-66199224D01*
X175825000Y-65763469D01*
X175829281Y-65720000D01*
X175825000Y-65676531D01*
X175825000Y-65676523D01*
X175812195Y-65546510D01*
X175761589Y-65379687D01*
X175679411Y-65225941D01*
X175568817Y-65091183D01*
X175535049Y-65063470D01*
X175372308Y-64900729D01*
X177126299Y-64900729D01*
X177173543Y-65278951D01*
X177293667Y-65640690D01*
X177425688Y-65887683D01*
X177720776Y-66019619D01*
X178890395Y-64850000D01*
X179249605Y-64850000D01*
X180419224Y-66019619D01*
X180714312Y-65887683D01*
X180885159Y-65546955D01*
X180986250Y-65179443D01*
X181013701Y-64799271D01*
X180966457Y-64421049D01*
X180846333Y-64059310D01*
X180714312Y-63812317D01*
X180419224Y-63680381D01*
X179249605Y-64850000D01*
X178890395Y-64850000D01*
X177720776Y-63680381D01*
X177425688Y-63812317D01*
X177254841Y-64153045D01*
X177153750Y-64520557D01*
X177126299Y-64900729D01*
X175372308Y-64900729D01*
X175328072Y-64856493D01*
X175328072Y-64507499D01*
X175311008Y-64334245D01*
X175260472Y-64167649D01*
X175178405Y-64014113D01*
X175111724Y-63932863D01*
X175141185Y-63908685D01*
X175220537Y-63811994D01*
X175279502Y-63701680D01*
X175315812Y-63581982D01*
X175323809Y-63500776D01*
X177900381Y-63500776D01*
X179070000Y-64670395D01*
X180239619Y-63500776D01*
X180107683Y-63205688D01*
X179766955Y-63034841D01*
X179399443Y-62933750D01*
X179019271Y-62906299D01*
X178641049Y-62953543D01*
X178279310Y-63073667D01*
X178032317Y-63205688D01*
X177900381Y-63500776D01*
X175323809Y-63500776D01*
X175328072Y-63457500D01*
X175325000Y-63230750D01*
X175166250Y-63072000D01*
X174117000Y-63072000D01*
X174117000Y-63092000D01*
X173863000Y-63092000D01*
X173863000Y-63072000D01*
X172813750Y-63072000D01*
X172655000Y-63230750D01*
X172651928Y-63457500D01*
X172664188Y-63581982D01*
X172700498Y-63701680D01*
X172759463Y-63811994D01*
X172838815Y-63908685D01*
X172868276Y-63932863D01*
X172801595Y-64014113D01*
X172719528Y-64167649D01*
X172668992Y-64334245D01*
X172651928Y-64507499D01*
X172651928Y-65032501D01*
X172668992Y-65205755D01*
X172719528Y-65372351D01*
X172801595Y-65525887D01*
X172912038Y-65660462D01*
X173046613Y-65770905D01*
X173200149Y-65852972D01*
X173366745Y-65903508D01*
X173539999Y-65920572D01*
X173888993Y-65920572D01*
X174055001Y-66086579D01*
X174055001Y-66450018D01*
X174009463Y-66505506D01*
X173990000Y-66541918D01*
X173970537Y-66505506D01*
X173891185Y-66408815D01*
X173794494Y-66329463D01*
X173684180Y-66270498D01*
X173564482Y-66234188D01*
X173440000Y-66221928D01*
X172640000Y-66221928D01*
X172515518Y-66234188D01*
X172395820Y-66270498D01*
X172285506Y-66329463D01*
X172188815Y-66408815D01*
X172175532Y-66425000D01*
X171623708Y-66425000D01*
X171619571Y-66415012D01*
X171422035Y-66119379D01*
X171170621Y-65867965D01*
X170874988Y-65670429D01*
X170546499Y-65534365D01*
X170197777Y-65465000D01*
X169842223Y-65465000D01*
X169493501Y-65534365D01*
X169165012Y-65670429D01*
X168869379Y-65867965D01*
X168775000Y-65962344D01*
X168775000Y-62920752D01*
X168780491Y-62865000D01*
X168758577Y-62642501D01*
X168694874Y-62432500D01*
X172651928Y-62432500D01*
X172655000Y-62659250D01*
X172813750Y-62818000D01*
X173863000Y-62818000D01*
X173863000Y-61956250D01*
X174117000Y-61956250D01*
X174117000Y-62818000D01*
X175166250Y-62818000D01*
X175325000Y-62659250D01*
X175328072Y-62432500D01*
X175315812Y-62308018D01*
X175279502Y-62188320D01*
X175220537Y-62078006D01*
X175141185Y-61981315D01*
X175044494Y-61901963D01*
X174934180Y-61842998D01*
X174814482Y-61806688D01*
X174690000Y-61794428D01*
X174275750Y-61797500D01*
X174117000Y-61956250D01*
X173863000Y-61956250D01*
X173704250Y-61797500D01*
X173290000Y-61794428D01*
X173165518Y-61806688D01*
X173045820Y-61842998D01*
X172935506Y-61901963D01*
X172838815Y-61981315D01*
X172759463Y-62078006D01*
X172700498Y-62188320D01*
X172664188Y-62308018D01*
X172651928Y-62432500D01*
X168694874Y-62432500D01*
X168693676Y-62428553D01*
X168588284Y-62231377D01*
X168481989Y-62101857D01*
X168446449Y-62058551D01*
X168403140Y-62023008D01*
X168000131Y-61620000D01*
X184760000Y-61620000D01*
X184760001Y-130150000D01*
X145440000Y-130150000D01*
X145440000Y-126822223D01*
X158215000Y-126822223D01*
X158215000Y-127177777D01*
X158284365Y-127526499D01*
X158420429Y-127854988D01*
X158617965Y-128150621D01*
X158869379Y-128402035D01*
X159165012Y-128599571D01*
X159493501Y-128735635D01*
X159842223Y-128805000D01*
X160197777Y-128805000D01*
X160546499Y-128735635D01*
X160874988Y-128599571D01*
X161170621Y-128402035D01*
X161422035Y-128150621D01*
X161599518Y-127885000D01*
X162516531Y-127885000D01*
X162560000Y-127889281D01*
X162603469Y-127885000D01*
X162603477Y-127885000D01*
X162733490Y-127872195D01*
X162900313Y-127821589D01*
X163054059Y-127739411D01*
X163188817Y-127628817D01*
X163216534Y-127595044D01*
X163790050Y-127021529D01*
X163823817Y-126993817D01*
X163892605Y-126910000D01*
X163934411Y-126859059D01*
X164016589Y-126705314D01*
X164067195Y-126538490D01*
X164070401Y-126505940D01*
X164080000Y-126408477D01*
X164080000Y-126408469D01*
X164084281Y-126365000D01*
X164080000Y-126321531D01*
X164080000Y-111168466D01*
X164084281Y-111124999D01*
X164080000Y-111081533D01*
X164080000Y-111081523D01*
X164067195Y-110951510D01*
X164016589Y-110784687D01*
X163934411Y-110630941D01*
X163823817Y-110496183D01*
X163790044Y-110468466D01*
X163256534Y-109934956D01*
X163228817Y-109901183D01*
X163094059Y-109790589D01*
X162940313Y-109708411D01*
X162773490Y-109657805D01*
X162643477Y-109645000D01*
X162643469Y-109645000D01*
X162600000Y-109640719D01*
X162556531Y-109645000D01*
X161759518Y-109645000D01*
X161582035Y-109379379D01*
X161330621Y-109127965D01*
X161034988Y-108930429D01*
X160706499Y-108794365D01*
X160357777Y-108725000D01*
X160002223Y-108725000D01*
X159653501Y-108794365D01*
X159325012Y-108930429D01*
X159029379Y-109127965D01*
X158777965Y-109379379D01*
X158580429Y-109675012D01*
X158444365Y-110003501D01*
X158375000Y-110352223D01*
X158375000Y-110707777D01*
X158444365Y-111056499D01*
X158580429Y-111384988D01*
X158777965Y-111680621D01*
X159029379Y-111932035D01*
X159325012Y-112129571D01*
X159653501Y-112265635D01*
X160002223Y-112335000D01*
X160357777Y-112335000D01*
X160706499Y-112265635D01*
X161034988Y-112129571D01*
X161330621Y-111932035D01*
X161582035Y-111680621D01*
X161759518Y-111415000D01*
X162233422Y-111415000D01*
X162310001Y-111491579D01*
X162310000Y-125998421D01*
X162193422Y-126115000D01*
X161599518Y-126115000D01*
X161422035Y-125849379D01*
X161170621Y-125597965D01*
X160874988Y-125400429D01*
X160546499Y-125264365D01*
X160197777Y-125195000D01*
X159842223Y-125195000D01*
X159493501Y-125264365D01*
X159165012Y-125400429D01*
X158869379Y-125597965D01*
X158617965Y-125849379D01*
X158420429Y-126145012D01*
X158284365Y-126473501D01*
X158215000Y-126822223D01*
X145440000Y-126822223D01*
X145440000Y-116919224D01*
X150595381Y-116919224D01*
X150727317Y-117214312D01*
X151068045Y-117385159D01*
X151435557Y-117486250D01*
X151815729Y-117513701D01*
X152193951Y-117466457D01*
X152555690Y-117346333D01*
X152802683Y-117214312D01*
X152934619Y-116919224D01*
X151765000Y-115749605D01*
X150595381Y-116919224D01*
X145440000Y-116919224D01*
X145440000Y-115620729D01*
X149821299Y-115620729D01*
X149868543Y-115998951D01*
X149988667Y-116360690D01*
X150120688Y-116607683D01*
X150415776Y-116739619D01*
X151585395Y-115570000D01*
X151944605Y-115570000D01*
X153114224Y-116739619D01*
X153409312Y-116607683D01*
X153580159Y-116266955D01*
X153681250Y-115899443D01*
X153708701Y-115519271D01*
X153661457Y-115141049D01*
X153541333Y-114779310D01*
X153409312Y-114532317D01*
X153114224Y-114400381D01*
X151944605Y-115570000D01*
X151585395Y-115570000D01*
X150415776Y-114400381D01*
X150120688Y-114532317D01*
X149949841Y-114873045D01*
X149848750Y-115240557D01*
X149821299Y-115620729D01*
X145440000Y-115620729D01*
X145440000Y-114212835D01*
X147070000Y-114212835D01*
X147070000Y-114387165D01*
X147104010Y-114558145D01*
X147170723Y-114719205D01*
X147267576Y-114864155D01*
X147390845Y-114987424D01*
X147535795Y-115084277D01*
X147696855Y-115150990D01*
X147867835Y-115185000D01*
X148042165Y-115185000D01*
X148213145Y-115150990D01*
X148374205Y-115084277D01*
X148519155Y-114987424D01*
X148642424Y-114864155D01*
X148739277Y-114719205D01*
X148805990Y-114558145D01*
X148840000Y-114387165D01*
X148840000Y-114220776D01*
X150595381Y-114220776D01*
X151765000Y-115390395D01*
X152934619Y-114220776D01*
X152802683Y-113925688D01*
X152461955Y-113754841D01*
X152094443Y-113653750D01*
X151714271Y-113626299D01*
X151336049Y-113673543D01*
X150974310Y-113793667D01*
X150727317Y-113925688D01*
X150595381Y-114220776D01*
X148840000Y-114220776D01*
X148840000Y-114212835D01*
X148805990Y-114041855D01*
X148739277Y-113880795D01*
X148642424Y-113735845D01*
X148519155Y-113612576D01*
X148374205Y-113515723D01*
X148213145Y-113449010D01*
X148042165Y-113415000D01*
X147867835Y-113415000D01*
X147696855Y-113449010D01*
X147535795Y-113515723D01*
X147390845Y-113612576D01*
X147267576Y-113735845D01*
X147170723Y-113880795D01*
X147104010Y-114041855D01*
X147070000Y-114212835D01*
X145440000Y-114212835D01*
X145440000Y-87695000D01*
X146249428Y-87695000D01*
X146261688Y-87819482D01*
X146297998Y-87939180D01*
X146356963Y-88049494D01*
X146436315Y-88146185D01*
X146533006Y-88225537D01*
X146643320Y-88284502D01*
X146763018Y-88320812D01*
X146887500Y-88333072D01*
X147114250Y-88330000D01*
X147273000Y-88171250D01*
X147273000Y-87122000D01*
X146411250Y-87122000D01*
X146252500Y-87280750D01*
X146249428Y-87695000D01*
X145440000Y-87695000D01*
X145440000Y-86295000D01*
X146249428Y-86295000D01*
X146252500Y-86709250D01*
X146411250Y-86868000D01*
X147273000Y-86868000D01*
X147273000Y-85818750D01*
X147114250Y-85660000D01*
X146887500Y-85656928D01*
X146763018Y-85669188D01*
X146643320Y-85705498D01*
X146533006Y-85764463D01*
X146436315Y-85843815D01*
X146356963Y-85940506D01*
X146297998Y-86050820D01*
X146261688Y-86170518D01*
X146249428Y-86295000D01*
X145440000Y-86295000D01*
X145440000Y-82549224D01*
X150595381Y-82549224D01*
X150727317Y-82844312D01*
X151068045Y-83015159D01*
X151435557Y-83116250D01*
X151815729Y-83143701D01*
X152193951Y-83096457D01*
X152555690Y-82976333D01*
X152802683Y-82844312D01*
X152934619Y-82549224D01*
X151765000Y-81379605D01*
X150595381Y-82549224D01*
X145440000Y-82549224D01*
X145440000Y-81250729D01*
X149821299Y-81250729D01*
X149868543Y-81628951D01*
X149988667Y-81990690D01*
X150120688Y-82237683D01*
X150415776Y-82369619D01*
X151585395Y-81200000D01*
X150415776Y-80030381D01*
X150120688Y-80162317D01*
X149949841Y-80503045D01*
X149848750Y-80870557D01*
X149821299Y-81250729D01*
X145440000Y-81250729D01*
X145440000Y-79850776D01*
X150595381Y-79850776D01*
X151765000Y-81020395D01*
X152934619Y-79850776D01*
X152802683Y-79555688D01*
X152461955Y-79384841D01*
X152094443Y-79283750D01*
X151714271Y-79256299D01*
X151336049Y-79303543D01*
X150974310Y-79423667D01*
X150727317Y-79555688D01*
X150595381Y-79850776D01*
X145440000Y-79850776D01*
X145440000Y-73800000D01*
X147226928Y-73800000D01*
X147230000Y-74014250D01*
X147388750Y-74173000D01*
X148463000Y-74173000D01*
X148463000Y-73323750D01*
X148717000Y-73323750D01*
X148717000Y-74173000D01*
X149791250Y-74173000D01*
X149950000Y-74014250D01*
X149953072Y-73800000D01*
X149940812Y-73675518D01*
X149904502Y-73555820D01*
X149845537Y-73445506D01*
X149766185Y-73348815D01*
X149669494Y-73269463D01*
X149559180Y-73210498D01*
X149439482Y-73174188D01*
X149315000Y-73161928D01*
X148875750Y-73165000D01*
X148717000Y-73323750D01*
X148463000Y-73323750D01*
X148304250Y-73165000D01*
X147865000Y-73161928D01*
X147740518Y-73174188D01*
X147620820Y-73210498D01*
X147510506Y-73269463D01*
X147413815Y-73348815D01*
X147334463Y-73445506D01*
X147275498Y-73555820D01*
X147239188Y-73675518D01*
X147226928Y-73800000D01*
X145440000Y-73800000D01*
X145440000Y-61620000D01*
X153944868Y-61620000D01*
X153541860Y-62023009D01*
G37*
%TD.AperFunction*%
%TD*%
M02*
