%TF.GenerationSoftware,KiCad,Pcbnew,(5.1.10)-1*%
%TF.CreationDate,2021-08-17T16:01:40+03:00*%
%TF.ProjectId,Lamls_Type3,4c616d6c-735f-4547-9970-65332e6b6963,rev?*%
%TF.SameCoordinates,Original*%
%TF.FileFunction,Paste,Bot*%
%TF.FilePolarity,Positive*%
%FSLAX46Y46*%
G04 Gerber Fmt 4.6, Leading zero omitted, Abs format (unit mm)*
G04 Created by KiCad (PCBNEW (5.1.10)-1) date 2021-08-17 16:01:40*
%MOMM*%
%LPD*%
G01*
G04 APERTURE LIST*
%ADD10R,0.800000X0.900000*%
G04 APERTURE END LIST*
%TO.C,U1*%
G36*
G01*
X154455000Y-90470000D02*
X154155000Y-90470000D01*
G75*
G02*
X154005000Y-90320000I0J150000D01*
G01*
X154005000Y-88720000D01*
G75*
G02*
X154155000Y-88570000I150000J0D01*
G01*
X154455000Y-88570000D01*
G75*
G02*
X154605000Y-88720000I0J-150000D01*
G01*
X154605000Y-90320000D01*
G75*
G02*
X154455000Y-90470000I-150000J0D01*
G01*
G37*
G36*
G01*
X153185000Y-90470000D02*
X152885000Y-90470000D01*
G75*
G02*
X152735000Y-90320000I0J150000D01*
G01*
X152735000Y-88720000D01*
G75*
G02*
X152885000Y-88570000I150000J0D01*
G01*
X153185000Y-88570000D01*
G75*
G02*
X153335000Y-88720000I0J-150000D01*
G01*
X153335000Y-90320000D01*
G75*
G02*
X153185000Y-90470000I-150000J0D01*
G01*
G37*
G36*
G01*
X151915000Y-90470000D02*
X151615000Y-90470000D01*
G75*
G02*
X151465000Y-90320000I0J150000D01*
G01*
X151465000Y-88720000D01*
G75*
G02*
X151615000Y-88570000I150000J0D01*
G01*
X151915000Y-88570000D01*
G75*
G02*
X152065000Y-88720000I0J-150000D01*
G01*
X152065000Y-90320000D01*
G75*
G02*
X151915000Y-90470000I-150000J0D01*
G01*
G37*
G36*
G01*
X150645000Y-90470000D02*
X150345000Y-90470000D01*
G75*
G02*
X150195000Y-90320000I0J150000D01*
G01*
X150195000Y-88720000D01*
G75*
G02*
X150345000Y-88570000I150000J0D01*
G01*
X150645000Y-88570000D01*
G75*
G02*
X150795000Y-88720000I0J-150000D01*
G01*
X150795000Y-90320000D01*
G75*
G02*
X150645000Y-90470000I-150000J0D01*
G01*
G37*
G36*
G01*
X150645000Y-97470000D02*
X150345000Y-97470000D01*
G75*
G02*
X150195000Y-97320000I0J150000D01*
G01*
X150195000Y-95720000D01*
G75*
G02*
X150345000Y-95570000I150000J0D01*
G01*
X150645000Y-95570000D01*
G75*
G02*
X150795000Y-95720000I0J-150000D01*
G01*
X150795000Y-97320000D01*
G75*
G02*
X150645000Y-97470000I-150000J0D01*
G01*
G37*
G36*
G01*
X151915000Y-97470000D02*
X151615000Y-97470000D01*
G75*
G02*
X151465000Y-97320000I0J150000D01*
G01*
X151465000Y-95720000D01*
G75*
G02*
X151615000Y-95570000I150000J0D01*
G01*
X151915000Y-95570000D01*
G75*
G02*
X152065000Y-95720000I0J-150000D01*
G01*
X152065000Y-97320000D01*
G75*
G02*
X151915000Y-97470000I-150000J0D01*
G01*
G37*
G36*
G01*
X153185000Y-97470000D02*
X152885000Y-97470000D01*
G75*
G02*
X152735000Y-97320000I0J150000D01*
G01*
X152735000Y-95720000D01*
G75*
G02*
X152885000Y-95570000I150000J0D01*
G01*
X153185000Y-95570000D01*
G75*
G02*
X153335000Y-95720000I0J-150000D01*
G01*
X153335000Y-97320000D01*
G75*
G02*
X153185000Y-97470000I-150000J0D01*
G01*
G37*
G36*
G01*
X154455000Y-97470000D02*
X154155000Y-97470000D01*
G75*
G02*
X154005000Y-97320000I0J150000D01*
G01*
X154005000Y-95720000D01*
G75*
G02*
X154155000Y-95570000I150000J0D01*
G01*
X154455000Y-95570000D01*
G75*
G02*
X154605000Y-95720000I0J-150000D01*
G01*
X154605000Y-97320000D01*
G75*
G02*
X154455000Y-97470000I-150000J0D01*
G01*
G37*
%TD*%
%TO.C,R10*%
G36*
G01*
X174440001Y-120607500D02*
X173539999Y-120607500D01*
G75*
G02*
X173290000Y-120357501I0J249999D01*
G01*
X173290000Y-119832499D01*
G75*
G02*
X173539999Y-119582500I249999J0D01*
G01*
X174440001Y-119582500D01*
G75*
G02*
X174690000Y-119832499I0J-249999D01*
G01*
X174690000Y-120357501D01*
G75*
G02*
X174440001Y-120607500I-249999J0D01*
G01*
G37*
G36*
G01*
X174440001Y-122432500D02*
X173539999Y-122432500D01*
G75*
G02*
X173290000Y-122182501I0J249999D01*
G01*
X173290000Y-121657499D01*
G75*
G02*
X173539999Y-121407500I249999J0D01*
G01*
X174440001Y-121407500D01*
G75*
G02*
X174690000Y-121657499I0J-249999D01*
G01*
X174690000Y-122182501D01*
G75*
G02*
X174440001Y-122432500I-249999J0D01*
G01*
G37*
%TD*%
%TO.C,R9*%
G36*
G01*
X174440001Y-109177500D02*
X173539999Y-109177500D01*
G75*
G02*
X173290000Y-108927501I0J249999D01*
G01*
X173290000Y-108402499D01*
G75*
G02*
X173539999Y-108152500I249999J0D01*
G01*
X174440001Y-108152500D01*
G75*
G02*
X174690000Y-108402499I0J-249999D01*
G01*
X174690000Y-108927501D01*
G75*
G02*
X174440001Y-109177500I-249999J0D01*
G01*
G37*
G36*
G01*
X174440001Y-111002500D02*
X173539999Y-111002500D01*
G75*
G02*
X173290000Y-110752501I0J249999D01*
G01*
X173290000Y-110227499D01*
G75*
G02*
X173539999Y-109977500I249999J0D01*
G01*
X174440001Y-109977500D01*
G75*
G02*
X174690000Y-110227499I0J-249999D01*
G01*
X174690000Y-110752501D01*
G75*
G02*
X174440001Y-111002500I-249999J0D01*
G01*
G37*
%TD*%
%TO.C,R8*%
G36*
G01*
X174440001Y-97747500D02*
X173539999Y-97747500D01*
G75*
G02*
X173290000Y-97497501I0J249999D01*
G01*
X173290000Y-96972499D01*
G75*
G02*
X173539999Y-96722500I249999J0D01*
G01*
X174440001Y-96722500D01*
G75*
G02*
X174690000Y-96972499I0J-249999D01*
G01*
X174690000Y-97497501D01*
G75*
G02*
X174440001Y-97747500I-249999J0D01*
G01*
G37*
G36*
G01*
X174440001Y-99572500D02*
X173539999Y-99572500D01*
G75*
G02*
X173290000Y-99322501I0J249999D01*
G01*
X173290000Y-98797499D01*
G75*
G02*
X173539999Y-98547500I249999J0D01*
G01*
X174440001Y-98547500D01*
G75*
G02*
X174690000Y-98797499I0J-249999D01*
G01*
X174690000Y-99322501D01*
G75*
G02*
X174440001Y-99572500I-249999J0D01*
G01*
G37*
%TD*%
%TO.C,R7*%
G36*
G01*
X174440001Y-85960000D02*
X173539999Y-85960000D01*
G75*
G02*
X173290000Y-85710001I0J249999D01*
G01*
X173290000Y-85184999D01*
G75*
G02*
X173539999Y-84935000I249999J0D01*
G01*
X174440001Y-84935000D01*
G75*
G02*
X174690000Y-85184999I0J-249999D01*
G01*
X174690000Y-85710001D01*
G75*
G02*
X174440001Y-85960000I-249999J0D01*
G01*
G37*
G36*
G01*
X174440001Y-87785000D02*
X173539999Y-87785000D01*
G75*
G02*
X173290000Y-87535001I0J249999D01*
G01*
X173290000Y-87009999D01*
G75*
G02*
X173539999Y-86760000I249999J0D01*
G01*
X174440001Y-86760000D01*
G75*
G02*
X174690000Y-87009999I0J-249999D01*
G01*
X174690000Y-87535001D01*
G75*
G02*
X174440001Y-87785000I-249999J0D01*
G01*
G37*
%TD*%
%TO.C,R6*%
G36*
G01*
X174440001Y-74887500D02*
X173539999Y-74887500D01*
G75*
G02*
X173290000Y-74637501I0J249999D01*
G01*
X173290000Y-74112499D01*
G75*
G02*
X173539999Y-73862500I249999J0D01*
G01*
X174440001Y-73862500D01*
G75*
G02*
X174690000Y-74112499I0J-249999D01*
G01*
X174690000Y-74637501D01*
G75*
G02*
X174440001Y-74887500I-249999J0D01*
G01*
G37*
G36*
G01*
X174440001Y-76712500D02*
X173539999Y-76712500D01*
G75*
G02*
X173290000Y-76462501I0J249999D01*
G01*
X173290000Y-75937499D01*
G75*
G02*
X173539999Y-75687500I249999J0D01*
G01*
X174440001Y-75687500D01*
G75*
G02*
X174690000Y-75937499I0J-249999D01*
G01*
X174690000Y-76462501D01*
G75*
G02*
X174440001Y-76712500I-249999J0D01*
G01*
G37*
%TD*%
%TO.C,R5*%
G36*
G01*
X174440001Y-63457500D02*
X173539999Y-63457500D01*
G75*
G02*
X173290000Y-63207501I0J249999D01*
G01*
X173290000Y-62682499D01*
G75*
G02*
X173539999Y-62432500I249999J0D01*
G01*
X174440001Y-62432500D01*
G75*
G02*
X174690000Y-62682499I0J-249999D01*
G01*
X174690000Y-63207501D01*
G75*
G02*
X174440001Y-63457500I-249999J0D01*
G01*
G37*
G36*
G01*
X174440001Y-65282500D02*
X173539999Y-65282500D01*
G75*
G02*
X173290000Y-65032501I0J249999D01*
G01*
X173290000Y-64507499D01*
G75*
G02*
X173539999Y-64257500I249999J0D01*
G01*
X174440001Y-64257500D01*
G75*
G02*
X174690000Y-64507499I0J-249999D01*
G01*
X174690000Y-65032501D01*
G75*
G02*
X174440001Y-65282500I-249999J0D01*
G01*
G37*
%TD*%
%TO.C,R4*%
G36*
G01*
X152522500Y-87445001D02*
X152522500Y-86544999D01*
G75*
G02*
X152772499Y-86295000I249999J0D01*
G01*
X153297501Y-86295000D01*
G75*
G02*
X153547500Y-86544999I0J-249999D01*
G01*
X153547500Y-87445001D01*
G75*
G02*
X153297501Y-87695000I-249999J0D01*
G01*
X152772499Y-87695000D01*
G75*
G02*
X152522500Y-87445001I0J249999D01*
G01*
G37*
G36*
G01*
X150697500Y-87445001D02*
X150697500Y-86544999D01*
G75*
G02*
X150947499Y-86295000I249999J0D01*
G01*
X151472501Y-86295000D01*
G75*
G02*
X151722500Y-86544999I0J-249999D01*
G01*
X151722500Y-87445001D01*
G75*
G02*
X151472501Y-87695000I-249999J0D01*
G01*
X150947499Y-87695000D01*
G75*
G02*
X150697500Y-87445001I0J249999D01*
G01*
G37*
%TD*%
%TO.C,R3*%
G36*
G01*
X154347500Y-99510001D02*
X154347500Y-98609999D01*
G75*
G02*
X154597499Y-98360000I249999J0D01*
G01*
X155122501Y-98360000D01*
G75*
G02*
X155372500Y-98609999I0J-249999D01*
G01*
X155372500Y-99510001D01*
G75*
G02*
X155122501Y-99760000I-249999J0D01*
G01*
X154597499Y-99760000D01*
G75*
G02*
X154347500Y-99510001I0J249999D01*
G01*
G37*
G36*
G01*
X152522500Y-99510001D02*
X152522500Y-98609999D01*
G75*
G02*
X152772499Y-98360000I249999J0D01*
G01*
X153297501Y-98360000D01*
G75*
G02*
X153547500Y-98609999I0J-249999D01*
G01*
X153547500Y-99510001D01*
G75*
G02*
X153297501Y-99760000I-249999J0D01*
G01*
X152772499Y-99760000D01*
G75*
G02*
X152522500Y-99510001I0J249999D01*
G01*
G37*
%TD*%
%TO.C,R2*%
G36*
G01*
X147912500Y-86544999D02*
X147912500Y-87445001D01*
G75*
G02*
X147662501Y-87695000I-249999J0D01*
G01*
X147137499Y-87695000D01*
G75*
G02*
X146887500Y-87445001I0J249999D01*
G01*
X146887500Y-86544999D01*
G75*
G02*
X147137499Y-86295000I249999J0D01*
G01*
X147662501Y-86295000D01*
G75*
G02*
X147912500Y-86544999I0J-249999D01*
G01*
G37*
G36*
G01*
X149737500Y-86544999D02*
X149737500Y-87445001D01*
G75*
G02*
X149487501Y-87695000I-249999J0D01*
G01*
X148962499Y-87695000D01*
G75*
G02*
X148712500Y-87445001I0J249999D01*
G01*
X148712500Y-86544999D01*
G75*
G02*
X148962499Y-86295000I249999J0D01*
G01*
X149487501Y-86295000D01*
G75*
G02*
X149737500Y-86544999I0J-249999D01*
G01*
G37*
%TD*%
%TO.C,R1*%
G36*
G01*
X149737500Y-98609999D02*
X149737500Y-99510001D01*
G75*
G02*
X149487501Y-99760000I-249999J0D01*
G01*
X148962499Y-99760000D01*
G75*
G02*
X148712500Y-99510001I0J249999D01*
G01*
X148712500Y-98609999D01*
G75*
G02*
X148962499Y-98360000I249999J0D01*
G01*
X149487501Y-98360000D01*
G75*
G02*
X149737500Y-98609999I0J-249999D01*
G01*
G37*
G36*
G01*
X151562500Y-98609999D02*
X151562500Y-99510001D01*
G75*
G02*
X151312501Y-99760000I-249999J0D01*
G01*
X150787499Y-99760000D01*
G75*
G02*
X150537500Y-99510001I0J249999D01*
G01*
X150537500Y-98609999D01*
G75*
G02*
X150787499Y-98360000I249999J0D01*
G01*
X151312501Y-98360000D01*
G75*
G02*
X151562500Y-98609999I0J-249999D01*
G01*
G37*
%TD*%
D10*
%TO.C,Q6*%
X173990000Y-126460000D03*
X174940000Y-124460000D03*
X173040000Y-124460000D03*
%TD*%
%TO.C,Q5*%
X174310000Y-115030000D03*
X175260000Y-113030000D03*
X173360000Y-113030000D03*
%TD*%
%TO.C,Q4*%
X174310000Y-103600000D03*
X175260000Y-101600000D03*
X173360000Y-101600000D03*
%TD*%
%TO.C,Q3*%
X173670000Y-92170000D03*
X174620000Y-90170000D03*
X172720000Y-90170000D03*
%TD*%
%TO.C,Q2*%
X173670000Y-80740000D03*
X174620000Y-78740000D03*
X172720000Y-78740000D03*
%TD*%
%TO.C,Q1*%
X173990000Y-69310000D03*
X174940000Y-67310000D03*
X173040000Y-67310000D03*
%TD*%
%TO.C,C1*%
G36*
G01*
X149065000Y-76700000D02*
X148115000Y-76700000D01*
G75*
G02*
X147865000Y-76450000I0J250000D01*
G01*
X147865000Y-75950000D01*
G75*
G02*
X148115000Y-75700000I250000J0D01*
G01*
X149065000Y-75700000D01*
G75*
G02*
X149315000Y-75950000I0J-250000D01*
G01*
X149315000Y-76450000D01*
G75*
G02*
X149065000Y-76700000I-250000J0D01*
G01*
G37*
G36*
G01*
X149065000Y-74800000D02*
X148115000Y-74800000D01*
G75*
G02*
X147865000Y-74550000I0J250000D01*
G01*
X147865000Y-74050000D01*
G75*
G02*
X148115000Y-73800000I250000J0D01*
G01*
X149065000Y-73800000D01*
G75*
G02*
X149315000Y-74050000I0J-250000D01*
G01*
X149315000Y-74550000D01*
G75*
G02*
X149065000Y-74800000I-250000J0D01*
G01*
G37*
%TD*%
M02*
