M48
; DRILL file {KiCad (5.1.10)-1} date 08/17/21 16:01:35
; FORMAT={-:-/ absolute / inch / decimal}
; #@! TF.CreationDate,2021-08-17T16:01:35+03:00
; #@! TF.GenerationSoftware,Kicad,Pcbnew,(5.1.10)-1
; #@! TF.FileFunction,Plated,1,2,PTH
FMAT,2
INCH
T1C0.0512
T2C0.1181
%
G90
G05
T1
X5.975Y-3.0
X5.975Y-3.1969
X5.975Y-4.1563
X5.975Y-4.3531
X5.975Y-4.55
X6.3Y-2.55
X6.3Y-2.7469
X6.3Y-3.0
X6.3Y-3.1969
X6.3Y-3.45
X6.3Y-3.6469
X6.3Y-4.8031
X6.3Y-5.0
X6.3063Y-3.9016
X6.3063Y-4.0984
X6.3063Y-4.3516
X6.3063Y-4.5484
X6.6937Y-2.6484
X6.6937Y-3.0984
X6.6937Y-3.5484
X6.6937Y-4.9016
X6.7Y-4.0
X6.7Y-4.45
X7.05Y-2.5531
X7.05Y-2.75
X7.05Y-3.0031
X7.05Y-3.2
X7.05Y-3.4531
X7.05Y-3.65
X7.05Y-3.9031
X7.05Y-4.1
X7.05Y-4.3531
X7.05Y-4.55
X7.05Y-4.8031
X7.05Y-5.0
T2
X5.875Y-2.575
X5.875Y-4.975
T0
M30
