%TF.GenerationSoftware,KiCad,Pcbnew,(5.1.10)-1*%
%TF.CreationDate,2021-08-17T16:01:40+03:00*%
%TF.ProjectId,Lamls_Type3,4c616d6c-735f-4547-9970-65332e6b6963,rev?*%
%TF.SameCoordinates,Original*%
%TF.FileFunction,Soldermask,Top*%
%TF.FilePolarity,Negative*%
%FSLAX46Y46*%
G04 Gerber Fmt 4.6, Leading zero omitted, Abs format (unit mm)*
G04 Created by KiCad (PCBNEW (5.1.10)-1) date 2021-08-17 16:01:40*
%MOMM*%
%LPD*%
G01*
G04 APERTURE LIST*
%ADD10C,2.442000*%
%ADD11C,2.702000*%
G04 APERTURE END LIST*
D10*
%TO.C,RV6*%
X160020000Y-127000000D03*
X170020000Y-124500000D03*
X160020000Y-122000000D03*
%TD*%
%TO.C,RV5*%
X160180000Y-115530000D03*
X170180000Y-113030000D03*
X160180000Y-110530000D03*
%TD*%
%TO.C,RV4*%
X160180000Y-104100000D03*
X170180000Y-101600000D03*
X160180000Y-99100000D03*
%TD*%
%TO.C,RV3*%
X160020000Y-92630000D03*
X170020000Y-90130000D03*
X160020000Y-87630000D03*
%TD*%
%TO.C,RV2*%
X160020000Y-81200000D03*
X170020000Y-78700000D03*
X160020000Y-76200000D03*
%TD*%
%TO.C,RV1*%
X160020000Y-69770000D03*
X170020000Y-67270000D03*
X160020000Y-64770000D03*
%TD*%
D11*
%TO.C,J8*%
X179070000Y-122000000D03*
G36*
G01*
X180370000Y-128351000D02*
X177770000Y-128351000D01*
G75*
G02*
X177719000Y-128300000I0J51000D01*
G01*
X177719000Y-125700000D01*
G75*
G02*
X177770000Y-125649000I51000J0D01*
G01*
X180370000Y-125649000D01*
G75*
G02*
X180421000Y-125700000I0J-51000D01*
G01*
X180421000Y-128300000D01*
G75*
G02*
X180370000Y-128351000I-51000J0D01*
G01*
G37*
%TD*%
%TO.C,J7*%
X179070000Y-110570000D03*
G36*
G01*
X180370000Y-116921000D02*
X177770000Y-116921000D01*
G75*
G02*
X177719000Y-116870000I0J51000D01*
G01*
X177719000Y-114270000D01*
G75*
G02*
X177770000Y-114219000I51000J0D01*
G01*
X180370000Y-114219000D01*
G75*
G02*
X180421000Y-114270000I0J-51000D01*
G01*
X180421000Y-116870000D01*
G75*
G02*
X180370000Y-116921000I-51000J0D01*
G01*
G37*
%TD*%
%TO.C,J6*%
X179070000Y-64850000D03*
G36*
G01*
X180370000Y-71201000D02*
X177770000Y-71201000D01*
G75*
G02*
X177719000Y-71150000I0J51000D01*
G01*
X177719000Y-68550000D01*
G75*
G02*
X177770000Y-68499000I51000J0D01*
G01*
X180370000Y-68499000D01*
G75*
G02*
X180421000Y-68550000I0J-51000D01*
G01*
X180421000Y-71150000D01*
G75*
G02*
X180370000Y-71201000I-51000J0D01*
G01*
G37*
%TD*%
%TO.C,J5*%
X179070000Y-99140000D03*
G36*
G01*
X180370000Y-105491000D02*
X177770000Y-105491000D01*
G75*
G02*
X177719000Y-105440000I0J51000D01*
G01*
X177719000Y-102840000D01*
G75*
G02*
X177770000Y-102789000I51000J0D01*
G01*
X180370000Y-102789000D01*
G75*
G02*
X180421000Y-102840000I0J-51000D01*
G01*
X180421000Y-105440000D01*
G75*
G02*
X180370000Y-105491000I-51000J0D01*
G01*
G37*
%TD*%
%TO.C,J4*%
X179070000Y-87710000D03*
G36*
G01*
X180370000Y-94061000D02*
X177770000Y-94061000D01*
G75*
G02*
X177719000Y-94010000I0J51000D01*
G01*
X177719000Y-91410000D01*
G75*
G02*
X177770000Y-91359000I51000J0D01*
G01*
X180370000Y-91359000D01*
G75*
G02*
X180421000Y-91410000I0J-51000D01*
G01*
X180421000Y-94010000D01*
G75*
G02*
X180370000Y-94061000I-51000J0D01*
G01*
G37*
%TD*%
%TO.C,J3*%
X179070000Y-76280000D03*
G36*
G01*
X180370000Y-82631000D02*
X177770000Y-82631000D01*
G75*
G02*
X177719000Y-82580000I0J51000D01*
G01*
X177719000Y-79980000D01*
G75*
G02*
X177770000Y-79929000I51000J0D01*
G01*
X180370000Y-79929000D01*
G75*
G02*
X180421000Y-79980000I0J-51000D01*
G01*
X180421000Y-82580000D01*
G75*
G02*
X180370000Y-82631000I-51000J0D01*
G01*
G37*
%TD*%
%TO.C,J2*%
X151765000Y-81200000D03*
G36*
G01*
X150465000Y-74849000D02*
X153065000Y-74849000D01*
G75*
G02*
X153116000Y-74900000I0J-51000D01*
G01*
X153116000Y-77500000D01*
G75*
G02*
X153065000Y-77551000I-51000J0D01*
G01*
X150465000Y-77551000D01*
G75*
G02*
X150414000Y-77500000I0J51000D01*
G01*
X150414000Y-74900000D01*
G75*
G02*
X150465000Y-74849000I51000J0D01*
G01*
G37*
%TD*%
%TO.C,J1*%
X151765000Y-115570000D03*
X151765000Y-110570000D03*
G36*
G01*
X150465000Y-104219000D02*
X153065000Y-104219000D01*
G75*
G02*
X153116000Y-104270000I0J-51000D01*
G01*
X153116000Y-106870000D01*
G75*
G02*
X153065000Y-106921000I-51000J0D01*
G01*
X150465000Y-106921000D01*
G75*
G02*
X150414000Y-106870000I0J51000D01*
G01*
X150414000Y-104270000D01*
G75*
G02*
X150465000Y-104219000I51000J0D01*
G01*
G37*
%TD*%
M02*
