M48
; DRILL file {KiCad (6.0.7)} date Thu Feb  9 09:46:24 2023
; FORMAT={-:-/ absolute / inch / decimal}
; #@! TF.CreationDate,2023-02-09T09:46:24+02:00
; #@! TF.GenerationSoftware,Kicad,Pcbnew,(6.0.7)
; #@! TF.FileFunction,Plated,1,2,PTH
FMAT,2
INCH
; #@! TA.AperFunction,Plated,PTH,ViaDrill
T1C0.0157
; #@! TA.AperFunction,Plated,PTH,ComponentDrill
T2C0.0276
; #@! TA.AperFunction,Plated,PTH,ComponentDrill
T3C0.0295
; #@! TA.AperFunction,Plated,PTH,ComponentDrill
T4C0.0315
; #@! TA.AperFunction,Plated,PTH,ComponentDrill
T5C0.0394
; #@! TA.AperFunction,Plated,PTH,ComponentDrill
T6C0.0433
; #@! TA.AperFunction,Plated,PTH,ComponentDrill
T7C0.0472
; #@! TA.AperFunction,Plated,PTH,ComponentDrill
T8C0.0551
%
G90
G05
T1
X5.8858Y-1.8701
X5.9055Y-1.9488
X5.9252Y-1.7913
X5.9252Y-4.6457
X5.9449Y-4.8031
X5.9646Y-4.7244
X6.0039Y-1.8701
X6.0039Y-2.0276
X6.0827Y-4.8031
X6.1024Y-1.8307
X6.2008Y-1.7323
X6.2008Y-1.8898
X6.6732Y-3.2283
X6.6732Y-3.3465
X6.7717Y-3.2874
X6.8701Y-3.2283
X6.8701Y-3.3465
X7.0669Y-3.622
X7.0669Y-3.7402
X7.0669Y-3.8583
X7.0669Y-3.9567
X7.0669Y-4.0551
X7.0669Y-4.1732
X7.0669Y-4.2717
X7.0669Y-4.4488
X7.0669Y-4.5472
X7.1063Y-2.5
X7.1063Y-2.5787
X7.1063Y-2.6575
X7.1063Y-2.7362
X7.1063Y-4.6063
X7.2047Y-4.6457
X7.2244Y-3.9567
X7.2244Y-4.0354
X7.2244Y-4.1339
X7.2244Y-4.2323
X7.2244Y-4.4291
X7.2835Y-2.5984
X7.2835Y-2.7165
X7.3425Y-2.2835
X7.3622Y-2.0669
X7.3622Y-2.1654
X7.3819Y-2.4213
X7.4016Y-4.4488
X7.5787Y-4.4291
X7.6969Y-1.9488
X7.6969Y-2.9724
X7.6969Y-3.9961
X7.7165Y-3.2283
X7.7165Y-4.2323
X7.7362Y-2.2047
X7.815Y-2.2047
X7.815Y-3.2283
X7.815Y-4.2323
X7.9134Y-2.2047
X7.9134Y-3.2283
X7.9134Y-4.2323
X8.1299Y-2.5197
X8.1299Y-2.6378
X8.1299Y-3.5433
X8.1299Y-3.6417
X8.1299Y-4.5669
X8.1299Y-4.6654
X8.4449Y-2.126
X8.4449Y-2.2244
X8.4449Y-2.6378
X8.4449Y-2.7362
X8.4449Y-3.1496
X8.4449Y-3.248
X8.4449Y-3.6614
X8.4449Y-3.7598
X8.4449Y-4.1732
X8.4449Y-4.2717
X8.4449Y-4.685
X8.4449Y-4.7835
X10.3346Y-4.8031
X10.374Y-1.7913
X10.4528Y-4.7244
X10.4724Y-1.9488
X10.5118Y-4.8425
X10.5315Y-1.7717
X10.5315Y-2.0472
X10.5512Y-4.626
T2
X7.2787Y-1.8307
X7.2787Y-2.5
X7.2787Y-2.8543
X7.2787Y-3.5236
X7.2787Y-3.878
X7.2787Y-4.5472
X7.5787Y-1.8307
X7.5787Y-2.5
X7.5787Y-2.8543
X7.5787Y-3.5236
X7.5787Y-3.878
X7.5787Y-4.5472
X7.7118Y-1.8307
X7.7118Y-2.5
X7.7118Y-2.8543
X7.7118Y-3.5236
X7.7118Y-3.878
X7.7118Y-4.5472
X8.0118Y-1.8307
X8.0118Y-2.5
X8.0118Y-2.8543
X8.0118Y-3.5236
X8.0118Y-3.878
X8.0118Y-4.5472
X8.2433Y-2.126
X8.2433Y-2.2244
X8.2433Y-2.6378
X8.2433Y-2.7362
X8.2433Y-3.1496
X8.2433Y-3.248
X8.2433Y-3.6614
X8.2433Y-3.7598
X8.2433Y-4.1732
X8.2433Y-4.2717
X8.2433Y-4.685
X8.2433Y-4.7835
X8.5433Y-2.126
X8.5433Y-2.2244
X8.5433Y-2.6378
X8.5433Y-2.7362
X8.5433Y-3.1496
X8.5433Y-3.248
X8.5433Y-3.6614
X8.5433Y-3.7598
X8.5433Y-4.1732
X8.5433Y-4.2717
X8.5433Y-4.685
X8.5433Y-4.7835
T3
X8.3449Y-1.9291
X8.3449Y-2.4409
X8.3449Y-2.9528
X8.3449Y-3.4646
X8.3449Y-3.9764
X8.3449Y-4.4882
X8.3949Y-1.9291
X8.3949Y-2.4409
X8.3949Y-2.9528
X8.3949Y-3.4646
X8.3949Y-3.9764
X8.3949Y-4.4882
X8.4449Y-1.9291
X8.4449Y-2.4409
X8.4449Y-2.9528
X8.4449Y-3.4646
X8.4449Y-3.9764
X8.4449Y-4.4882
T4
X6.0236Y-4.4291
X6.2205Y-4.4291
X6.6732Y-4.3898
X6.6732Y-4.5866
X6.8701Y-4.3898
X6.8701Y-4.5866
X7.3819Y-1.9488
X7.3819Y-2.6181
X7.3819Y-2.9724
X7.3819Y-3.6417
X7.3819Y-3.9961
X7.3819Y-4.6654
X7.5787Y-1.9488
X7.5787Y-2.0866
X7.5787Y-2.2835
X7.5787Y-2.6181
X7.5787Y-2.9724
X7.5787Y-3.1102
X7.5787Y-3.3071
X7.5787Y-3.6417
X7.5787Y-3.9961
X7.5787Y-4.1339
X7.5787Y-4.3307
X7.5787Y-4.6654
X7.7165Y-2.0819
X7.7165Y-2.3819
X7.7165Y-3.1055
X7.7165Y-3.4055
X7.7165Y-4.1339
X7.7165Y-4.4339
X7.815Y-1.9488
X7.815Y-2.6181
X7.815Y-2.9724
X7.815Y-3.6417
X7.815Y-3.9961
X7.815Y-4.6654
X7.8165Y-2.0819
X7.8165Y-2.3819
X7.8165Y-3.1055
X7.8165Y-3.4055
X7.8165Y-4.1339
X7.8165Y-4.4339
X7.9165Y-2.0819
X7.9165Y-2.3819
X7.9165Y-3.1055
X7.9165Y-3.4055
X7.9165Y-4.1339
X7.9165Y-4.4339
X8.0118Y-1.9488
X8.0118Y-2.6181
X8.0118Y-2.9724
X8.0118Y-3.6417
X8.0118Y-3.9961
X8.0118Y-4.6654
X8.0165Y-2.0819
X8.0165Y-2.3819
X8.0165Y-3.1055
X8.0165Y-3.4055
X8.0165Y-4.1339
X8.0165Y-4.4339
T5
X5.9024Y-2.126
X5.9024Y-3.622
X6.0024Y-2.126
X6.0024Y-3.622
X6.1024Y-2.126
X6.1024Y-3.622
X6.2024Y-2.126
X6.2024Y-3.622
X6.4079Y-2.1236
X6.4079Y-2.2236
X6.4079Y-2.3236
X6.4079Y-2.4236
X6.4079Y-2.5236
X6.4079Y-2.6236
X6.4079Y-2.7236
X6.4079Y-2.8236
X6.4079Y-2.9236
X6.4079Y-3.0236
X6.4079Y-3.1236
X6.4079Y-3.2236
X6.4079Y-3.3236
X6.4079Y-3.4236
X6.4079Y-3.5236
X7.0079Y-2.1236
X7.0079Y-2.2236
X7.0079Y-2.3236
X7.0079Y-2.4236
X7.0079Y-2.5236
X7.0079Y-2.6236
X7.0079Y-2.7236
X7.0079Y-2.8236
X7.0079Y-2.9236
X7.0079Y-3.0236
X7.0079Y-3.1236
X7.0079Y-3.2236
X7.0079Y-3.3236
X7.0079Y-3.4236
X7.0079Y-3.5236
X9.252Y-1.8602
X9.252Y-2.1555
X9.252Y-2.8839
X9.252Y-3.1791
X9.252Y-3.9075
X9.252Y-4.2028
X9.7244Y-2.372
X9.7244Y-2.6673
X9.7244Y-3.3957
X9.7244Y-3.6909
X9.7244Y-4.4193
X9.7244Y-4.7146
T6
X6.6717Y-4.1929
X6.7717Y-4.1929
X6.8717Y-4.1929
T7
X8.7402Y-1.826
X8.7402Y-2.126
X8.7402Y-2.3378
X8.7402Y-2.6378
X8.7402Y-2.8496
X8.7402Y-3.1496
X8.7402Y-3.3614
X8.7402Y-3.6614
X8.7402Y-3.8732
X8.7402Y-4.1732
X8.7402Y-4.385
X8.7402Y-4.685
T8
X6.2314Y-3.9748
X6.2314Y-4.1748
X10.2056Y-1.9079
X10.2056Y-2.1079
X10.2056Y-2.4197
X10.2056Y-2.6197
X10.2056Y-2.9315
X10.2056Y-3.1315
X10.2056Y-3.4433
X10.2056Y-3.6433
X10.2056Y-3.9551
X10.2056Y-4.1551
X10.2056Y-4.4669
X10.2056Y-4.6669
T0
M30
