%TF.GenerationSoftware,KiCad,Pcbnew,(6.0.7)*%
%TF.CreationDate,2023-02-09T09:46:21+02:00*%
%TF.ProjectId,Lamps_Type5,4c616d70-735f-4547-9970-65352e6b6963,rev?*%
%TF.SameCoordinates,Original*%
%TF.FileFunction,Soldermask,Bot*%
%TF.FilePolarity,Negative*%
%FSLAX46Y46*%
G04 Gerber Fmt 4.6, Leading zero omitted, Abs format (unit mm)*
G04 Created by KiCad (PCBNEW (6.0.7)) date 2023-02-09 09:46:21*
%MOMM*%
%LPD*%
G01*
G04 APERTURE LIST*
G04 Aperture macros list*
%AMRoundRect*
0 Rectangle with rounded corners*
0 $1 Rounding radius*
0 $2 $3 $4 $5 $6 $7 $8 $9 X,Y pos of 4 corners*
0 Add a 4 corners polygon primitive as box body*
4,1,4,$2,$3,$4,$5,$6,$7,$8,$9,$2,$3,0*
0 Add four circle primitives for the rounded corners*
1,1,$1+$1,$2,$3*
1,1,$1+$1,$4,$5*
1,1,$1+$1,$6,$7*
1,1,$1+$1,$8,$9*
0 Add four rect primitives between the rounded corners*
20,1,$1+$1,$2,$3,$4,$5,0*
20,1,$1+$1,$4,$5,$6,$7,0*
20,1,$1+$1,$6,$7,$8,$9,0*
20,1,$1+$1,$8,$9,$2,$3,0*%
G04 Aperture macros list end*
%ADD10C,1.600000*%
%ADD11C,2.400000*%
%ADD12O,2.400000X2.400000*%
%ADD13O,1.905000X2.000000*%
%ADD14R,1.905000X2.000000*%
%ADD15R,1.600000X1.600000*%
%ADD16O,1.600000X1.600000*%
%ADD17C,1.400000*%
%ADD18O,1.400000X1.400000*%
%ADD19R,1.050000X1.500000*%
%ADD20O,1.050000X1.500000*%
%ADD21RoundRect,0.249999X1.550001X-0.790001X1.550001X0.790001X-1.550001X0.790001X-1.550001X-0.790001X0*%
%ADD22O,3.600000X2.080000*%
%ADD23R,1.700000X1.700000*%
%ADD24O,1.700000X1.700000*%
%ADD25RoundRect,0.249999X-1.550001X0.790001X-1.550001X-0.790001X1.550001X-0.790001X1.550001X0.790001X0*%
%ADD26C,2.000000*%
G04 APERTURE END LIST*
D10*
%TO.C,C23*%
X153000000Y-112500000D03*
X158000000Y-112500000D03*
%TD*%
%TO.C,C3*%
X192500000Y-110000000D03*
X192500000Y-105000000D03*
%TD*%
%TO.C,C2*%
X192500000Y-84000000D03*
X192500000Y-79000000D03*
%TD*%
%TO.C,C1*%
X192500000Y-58000000D03*
X192500000Y-53000000D03*
%TD*%
D11*
%TO.C,R30*%
X222000000Y-111380000D03*
D12*
X222000000Y-119000000D03*
%TD*%
D11*
%TO.C,R29*%
X222000000Y-98380000D03*
D12*
X222000000Y-106000000D03*
%TD*%
D11*
%TO.C,R20*%
X222000000Y-85380000D03*
D12*
X222000000Y-93000000D03*
%TD*%
D11*
%TO.C,R19*%
X222000000Y-72380000D03*
D12*
X222000000Y-80000000D03*
%TD*%
%TO.C,R18*%
X222000000Y-67000000D03*
D11*
X222000000Y-59380000D03*
%TD*%
D12*
%TO.C,R17*%
X222000000Y-54000000D03*
D11*
X222000000Y-46380000D03*
%TD*%
D13*
%TO.C,U7*%
X174540000Y-106500000D03*
X172000000Y-106500000D03*
D14*
X169460000Y-106500000D03*
%TD*%
D15*
%TO.C,U3*%
X203620000Y-105000000D03*
D16*
X201080000Y-105000000D03*
X198540000Y-105000000D03*
X196000000Y-105000000D03*
X196000000Y-112620000D03*
X198540000Y-112620000D03*
X201080000Y-112620000D03*
X203620000Y-112620000D03*
%TD*%
D15*
%TO.C,U2*%
X203620000Y-78880000D03*
D16*
X201080000Y-78880000D03*
X198540000Y-78880000D03*
X196000000Y-78880000D03*
X196000000Y-86500000D03*
X198540000Y-86500000D03*
X201080000Y-86500000D03*
X203620000Y-86500000D03*
%TD*%
%TO.C,U1*%
X203620000Y-60500000D03*
X201080000Y-60500000D03*
X198540000Y-60500000D03*
X196000000Y-60500000D03*
X196000000Y-52880000D03*
X198540000Y-52880000D03*
X201080000Y-52880000D03*
D15*
X203620000Y-52880000D03*
%TD*%
D17*
%TO.C,R28*%
X217000000Y-121500000D03*
D18*
X209380000Y-121500000D03*
%TD*%
D17*
%TO.C,R27*%
X209380000Y-119000000D03*
D18*
X217000000Y-119000000D03*
%TD*%
D17*
%TO.C,R26*%
X217000000Y-108500000D03*
D18*
X209380000Y-108500000D03*
%TD*%
D17*
%TO.C,R25*%
X209380000Y-106000000D03*
D18*
X217000000Y-106000000D03*
%TD*%
%TO.C,R24*%
X203500000Y-115500000D03*
D17*
X195880000Y-115500000D03*
%TD*%
D18*
%TO.C,R23*%
X203500000Y-98500000D03*
D17*
X195880000Y-98500000D03*
%TD*%
D18*
%TO.C,R22*%
X192500000Y-115500000D03*
D17*
X184880000Y-115500000D03*
%TD*%
D18*
%TO.C,R21*%
X192500000Y-98500000D03*
D17*
X184880000Y-98500000D03*
%TD*%
D18*
%TO.C,R16*%
X209380000Y-95500000D03*
D17*
X217000000Y-95500000D03*
%TD*%
%TO.C,R15*%
X209380000Y-93000000D03*
D18*
X217000000Y-93000000D03*
%TD*%
D17*
%TO.C,R14*%
X217000000Y-82500000D03*
D18*
X209380000Y-82500000D03*
%TD*%
D17*
%TO.C,R13*%
X209380000Y-80000000D03*
D18*
X217000000Y-80000000D03*
%TD*%
D17*
%TO.C,R12*%
X217000000Y-69500000D03*
D18*
X209380000Y-69500000D03*
%TD*%
D17*
%TO.C,R11*%
X209380000Y-67000000D03*
D18*
X217000000Y-67000000D03*
%TD*%
D17*
%TO.C,R10*%
X217000000Y-56500000D03*
D18*
X209380000Y-56500000D03*
%TD*%
D17*
%TO.C,R9*%
X209380000Y-54000000D03*
D18*
X217000000Y-54000000D03*
%TD*%
D17*
%TO.C,R8*%
X195880000Y-89500000D03*
D18*
X203500000Y-89500000D03*
%TD*%
%TO.C,R7*%
X203500000Y-72500000D03*
D17*
X195880000Y-72500000D03*
%TD*%
D18*
%TO.C,R6*%
X203500000Y-63500000D03*
D17*
X195880000Y-63500000D03*
%TD*%
%TO.C,R5*%
X195880000Y-46500000D03*
D18*
X203500000Y-46500000D03*
%TD*%
D17*
%TO.C,R4*%
X184880000Y-89500000D03*
D18*
X192500000Y-89500000D03*
%TD*%
%TO.C,R3*%
X192500000Y-72500000D03*
D17*
X184880000Y-72500000D03*
%TD*%
D18*
%TO.C,R2*%
X192500000Y-63500000D03*
D17*
X184880000Y-63500000D03*
%TD*%
%TO.C,R1*%
X184880000Y-46500000D03*
D18*
X192500000Y-46500000D03*
%TD*%
D19*
%TO.C,Q6*%
X211960000Y-114000000D03*
D20*
X213230000Y-114000000D03*
X214500000Y-114000000D03*
%TD*%
D19*
%TO.C,Q5*%
X211960000Y-101000000D03*
D20*
X213230000Y-101000000D03*
X214500000Y-101000000D03*
%TD*%
D19*
%TO.C,Q4*%
X211960000Y-88000000D03*
D20*
X213230000Y-88000000D03*
X214500000Y-88000000D03*
%TD*%
D19*
%TO.C,Q3*%
X211960000Y-75000000D03*
D20*
X213230000Y-75000000D03*
X214500000Y-75000000D03*
%TD*%
D19*
%TO.C,Q2*%
X211960000Y-62000000D03*
D20*
X213230000Y-62000000D03*
X214500000Y-62000000D03*
%TD*%
D19*
%TO.C,Q1*%
X211960000Y-49000000D03*
D20*
X213230000Y-49000000D03*
X214500000Y-49000000D03*
%TD*%
D21*
%TO.C,J9*%
X259222500Y-118540000D03*
D22*
X259222500Y-113460000D03*
%TD*%
D21*
%TO.C,J8*%
X259222500Y-105540000D03*
D22*
X259222500Y-100460000D03*
%TD*%
D21*
%TO.C,J7*%
X259222500Y-92540000D03*
D22*
X259222500Y-87460000D03*
%TD*%
D21*
%TO.C,J6*%
X259222500Y-79540000D03*
D22*
X259222500Y-74460000D03*
%TD*%
D21*
%TO.C,J5*%
X259222500Y-66540000D03*
D22*
X259222500Y-61460000D03*
%TD*%
D21*
%TO.C,J4*%
X259222500Y-53540000D03*
D22*
X259222500Y-48460000D03*
%TD*%
D23*
%TO.C,J3*%
X149920000Y-54000000D03*
D24*
X152460000Y-54000000D03*
X155000000Y-54000000D03*
X157540000Y-54000000D03*
%TD*%
D23*
%TO.C,J2*%
X149920000Y-92000000D03*
D24*
X152460000Y-92000000D03*
X155000000Y-92000000D03*
X157540000Y-92000000D03*
%TD*%
D25*
%TO.C,J1*%
X158277500Y-100960000D03*
D22*
X158277500Y-106040000D03*
%TD*%
D10*
%TO.C,C26*%
X174500000Y-116500000D03*
X174500000Y-111500000D03*
%TD*%
D26*
%TO.C,C25*%
X247000000Y-119750000D03*
X247000000Y-112250000D03*
%TD*%
%TO.C,C24*%
X235000000Y-106750000D03*
X235000000Y-99250000D03*
%TD*%
D10*
%TO.C,C22*%
X203500000Y-118500000D03*
X198500000Y-118500000D03*
%TD*%
%TO.C,C21*%
X198500000Y-101500000D03*
X203500000Y-101500000D03*
%TD*%
%TO.C,C20*%
X187500000Y-118500000D03*
X192500000Y-118500000D03*
%TD*%
%TO.C,C19*%
X187500000Y-101500000D03*
X192500000Y-101500000D03*
%TD*%
D26*
%TO.C,C18*%
X247000000Y-93750000D03*
X247000000Y-86250000D03*
%TD*%
%TO.C,C17*%
X235000000Y-80750000D03*
X235000000Y-73250000D03*
%TD*%
%TO.C,C16*%
X247000000Y-60250000D03*
X247000000Y-67750000D03*
%TD*%
%TO.C,C15*%
X235000000Y-47250000D03*
X235000000Y-54750000D03*
%TD*%
D10*
%TO.C,C13*%
X203500000Y-92500000D03*
X198500000Y-92500000D03*
%TD*%
%TO.C,C12*%
X198500000Y-75500000D03*
X203500000Y-75500000D03*
%TD*%
%TO.C,C11*%
X198500000Y-66500000D03*
X203500000Y-66500000D03*
%TD*%
%TO.C,C10*%
X203500000Y-49500000D03*
X198500000Y-49500000D03*
%TD*%
%TO.C,C8*%
X192500000Y-92500000D03*
X187500000Y-92500000D03*
%TD*%
%TO.C,C7*%
X187500000Y-75500000D03*
X192500000Y-75500000D03*
%TD*%
%TO.C,C6*%
X187500000Y-66500000D03*
X192500000Y-66500000D03*
%TD*%
%TO.C,C5*%
X192500000Y-49500000D03*
X187500000Y-49500000D03*
%TD*%
%TO.C,C4*%
X169500000Y-111500000D03*
X169500000Y-116500000D03*
%TD*%
D15*
%TO.C,A1*%
X178000000Y-89500000D03*
D16*
X178000000Y-86960000D03*
X178000000Y-84420000D03*
X178000000Y-81880000D03*
X178000000Y-79340000D03*
X178000000Y-76800000D03*
X178000000Y-74260000D03*
X178000000Y-71720000D03*
X178000000Y-69180000D03*
X178000000Y-66640000D03*
X178000000Y-64100000D03*
X178000000Y-61560000D03*
X178000000Y-59020000D03*
X178000000Y-56480000D03*
X178000000Y-53940000D03*
X162760000Y-53940000D03*
X162760000Y-56480000D03*
X162760000Y-59020000D03*
X162760000Y-61560000D03*
X162760000Y-64100000D03*
X162760000Y-66640000D03*
X162760000Y-69180000D03*
X162760000Y-71720000D03*
X162760000Y-74260000D03*
X162760000Y-76800000D03*
X162760000Y-79340000D03*
X162760000Y-81880000D03*
X162760000Y-84420000D03*
X162760000Y-86960000D03*
X162760000Y-89500000D03*
%TD*%
M02*
