%TF.GenerationSoftware,KiCad,Pcbnew,(6.0.7)*%
%TF.CreationDate,2023-02-09T09:46:21+02:00*%
%TF.ProjectId,Lamps_Type5,4c616d70-735f-4547-9970-65352e6b6963,rev?*%
%TF.SameCoordinates,Original*%
%TF.FileFunction,Legend,Top*%
%TF.FilePolarity,Positive*%
%FSLAX46Y46*%
G04 Gerber Fmt 4.6, Leading zero omitted, Abs format (unit mm)*
G04 Created by KiCad (PCBNEW (6.0.7)) date 2023-02-09 09:46:21*
%MOMM*%
%LPD*%
G01*
G04 APERTURE LIST*
%ADD10C,0.150000*%
%ADD11C,0.120000*%
G04 APERTURE END LIST*
D10*
%TO.C,C23*%
X154857142Y-110357142D02*
X154809523Y-110404761D01*
X154666666Y-110452380D01*
X154571428Y-110452380D01*
X154428571Y-110404761D01*
X154333333Y-110309523D01*
X154285714Y-110214285D01*
X154238095Y-110023809D01*
X154238095Y-109880952D01*
X154285714Y-109690476D01*
X154333333Y-109595238D01*
X154428571Y-109500000D01*
X154571428Y-109452380D01*
X154666666Y-109452380D01*
X154809523Y-109500000D01*
X154857142Y-109547619D01*
X155238095Y-109547619D02*
X155285714Y-109500000D01*
X155380952Y-109452380D01*
X155619047Y-109452380D01*
X155714285Y-109500000D01*
X155761904Y-109547619D01*
X155809523Y-109642857D01*
X155809523Y-109738095D01*
X155761904Y-109880952D01*
X155190476Y-110452380D01*
X155809523Y-110452380D01*
X156142857Y-109452380D02*
X156761904Y-109452380D01*
X156428571Y-109833333D01*
X156571428Y-109833333D01*
X156666666Y-109880952D01*
X156714285Y-109928571D01*
X156761904Y-110023809D01*
X156761904Y-110261904D01*
X156714285Y-110357142D01*
X156666666Y-110404761D01*
X156571428Y-110452380D01*
X156285714Y-110452380D01*
X156190476Y-110404761D01*
X156142857Y-110357142D01*
%TO.C,C3*%
X190357142Y-107666666D02*
X190404761Y-107714285D01*
X190452380Y-107857142D01*
X190452380Y-107952380D01*
X190404761Y-108095238D01*
X190309523Y-108190476D01*
X190214285Y-108238095D01*
X190023809Y-108285714D01*
X189880952Y-108285714D01*
X189690476Y-108238095D01*
X189595238Y-108190476D01*
X189500000Y-108095238D01*
X189452380Y-107952380D01*
X189452380Y-107857142D01*
X189500000Y-107714285D01*
X189547619Y-107666666D01*
X189452380Y-107333333D02*
X189452380Y-106714285D01*
X189833333Y-107047619D01*
X189833333Y-106904761D01*
X189880952Y-106809523D01*
X189928571Y-106761904D01*
X190023809Y-106714285D01*
X190261904Y-106714285D01*
X190357142Y-106761904D01*
X190404761Y-106809523D01*
X190452380Y-106904761D01*
X190452380Y-107190476D01*
X190404761Y-107285714D01*
X190357142Y-107333333D01*
%TO.C,C2*%
X190357142Y-81666666D02*
X190404761Y-81714285D01*
X190452380Y-81857142D01*
X190452380Y-81952380D01*
X190404761Y-82095238D01*
X190309523Y-82190476D01*
X190214285Y-82238095D01*
X190023809Y-82285714D01*
X189880952Y-82285714D01*
X189690476Y-82238095D01*
X189595238Y-82190476D01*
X189500000Y-82095238D01*
X189452380Y-81952380D01*
X189452380Y-81857142D01*
X189500000Y-81714285D01*
X189547619Y-81666666D01*
X189547619Y-81285714D02*
X189500000Y-81238095D01*
X189452380Y-81142857D01*
X189452380Y-80904761D01*
X189500000Y-80809523D01*
X189547619Y-80761904D01*
X189642857Y-80714285D01*
X189738095Y-80714285D01*
X189880952Y-80761904D01*
X190452380Y-81333333D01*
X190452380Y-80714285D01*
%TO.C,C1*%
X190357142Y-55666666D02*
X190404761Y-55714285D01*
X190452380Y-55857142D01*
X190452380Y-55952380D01*
X190404761Y-56095238D01*
X190309523Y-56190476D01*
X190214285Y-56238095D01*
X190023809Y-56285714D01*
X189880952Y-56285714D01*
X189690476Y-56238095D01*
X189595238Y-56190476D01*
X189500000Y-56095238D01*
X189452380Y-55952380D01*
X189452380Y-55857142D01*
X189500000Y-55714285D01*
X189547619Y-55666666D01*
X190452380Y-54714285D02*
X190452380Y-55285714D01*
X190452380Y-55000000D02*
X189452380Y-55000000D01*
X189595238Y-55095238D01*
X189690476Y-55190476D01*
X189738095Y-55285714D01*
%TO.C,R30*%
X218452380Y-115182857D02*
X217976190Y-115516190D01*
X218452380Y-115754285D02*
X217452380Y-115754285D01*
X217452380Y-115373333D01*
X217500000Y-115278095D01*
X217547619Y-115230476D01*
X217642857Y-115182857D01*
X217785714Y-115182857D01*
X217880952Y-115230476D01*
X217928571Y-115278095D01*
X217976190Y-115373333D01*
X217976190Y-115754285D01*
X217452380Y-114849523D02*
X217452380Y-114230476D01*
X217833333Y-114563809D01*
X217833333Y-114420952D01*
X217880952Y-114325714D01*
X217928571Y-114278095D01*
X218023809Y-114230476D01*
X218261904Y-114230476D01*
X218357142Y-114278095D01*
X218404761Y-114325714D01*
X218452380Y-114420952D01*
X218452380Y-114706666D01*
X218404761Y-114801904D01*
X218357142Y-114849523D01*
X217452380Y-113611428D02*
X217452380Y-113516190D01*
X217500000Y-113420952D01*
X217547619Y-113373333D01*
X217642857Y-113325714D01*
X217833333Y-113278095D01*
X218071428Y-113278095D01*
X218261904Y-113325714D01*
X218357142Y-113373333D01*
X218404761Y-113420952D01*
X218452380Y-113516190D01*
X218452380Y-113611428D01*
X218404761Y-113706666D01*
X218357142Y-113754285D01*
X218261904Y-113801904D01*
X218071428Y-113849523D01*
X217833333Y-113849523D01*
X217642857Y-113801904D01*
X217547619Y-113754285D01*
X217500000Y-113706666D01*
X217452380Y-113611428D01*
%TO.C,R29*%
X218452380Y-102182857D02*
X217976190Y-102516190D01*
X218452380Y-102754285D02*
X217452380Y-102754285D01*
X217452380Y-102373333D01*
X217500000Y-102278095D01*
X217547619Y-102230476D01*
X217642857Y-102182857D01*
X217785714Y-102182857D01*
X217880952Y-102230476D01*
X217928571Y-102278095D01*
X217976190Y-102373333D01*
X217976190Y-102754285D01*
X217547619Y-101801904D02*
X217500000Y-101754285D01*
X217452380Y-101659047D01*
X217452380Y-101420952D01*
X217500000Y-101325714D01*
X217547619Y-101278095D01*
X217642857Y-101230476D01*
X217738095Y-101230476D01*
X217880952Y-101278095D01*
X218452380Y-101849523D01*
X218452380Y-101230476D01*
X218452380Y-100754285D02*
X218452380Y-100563809D01*
X218404761Y-100468571D01*
X218357142Y-100420952D01*
X218214285Y-100325714D01*
X218023809Y-100278095D01*
X217642857Y-100278095D01*
X217547619Y-100325714D01*
X217500000Y-100373333D01*
X217452380Y-100468571D01*
X217452380Y-100659047D01*
X217500000Y-100754285D01*
X217547619Y-100801904D01*
X217642857Y-100849523D01*
X217880952Y-100849523D01*
X217976190Y-100801904D01*
X218023809Y-100754285D01*
X218071428Y-100659047D01*
X218071428Y-100468571D01*
X218023809Y-100373333D01*
X217976190Y-100325714D01*
X217880952Y-100278095D01*
%TO.C,R20*%
X218452380Y-89642857D02*
X217976190Y-89976190D01*
X218452380Y-90214285D02*
X217452380Y-90214285D01*
X217452380Y-89833333D01*
X217500000Y-89738095D01*
X217547619Y-89690476D01*
X217642857Y-89642857D01*
X217785714Y-89642857D01*
X217880952Y-89690476D01*
X217928571Y-89738095D01*
X217976190Y-89833333D01*
X217976190Y-90214285D01*
X217547619Y-89261904D02*
X217500000Y-89214285D01*
X217452380Y-89119047D01*
X217452380Y-88880952D01*
X217500000Y-88785714D01*
X217547619Y-88738095D01*
X217642857Y-88690476D01*
X217738095Y-88690476D01*
X217880952Y-88738095D01*
X218452380Y-89309523D01*
X218452380Y-88690476D01*
X217452380Y-88071428D02*
X217452380Y-87976190D01*
X217500000Y-87880952D01*
X217547619Y-87833333D01*
X217642857Y-87785714D01*
X217833333Y-87738095D01*
X218071428Y-87738095D01*
X218261904Y-87785714D01*
X218357142Y-87833333D01*
X218404761Y-87880952D01*
X218452380Y-87976190D01*
X218452380Y-88071428D01*
X218404761Y-88166666D01*
X218357142Y-88214285D01*
X218261904Y-88261904D01*
X218071428Y-88309523D01*
X217833333Y-88309523D01*
X217642857Y-88261904D01*
X217547619Y-88214285D01*
X217500000Y-88166666D01*
X217452380Y-88071428D01*
%TO.C,R19*%
X218452380Y-76832857D02*
X217976190Y-77166190D01*
X218452380Y-77404285D02*
X217452380Y-77404285D01*
X217452380Y-77023333D01*
X217500000Y-76928095D01*
X217547619Y-76880476D01*
X217642857Y-76832857D01*
X217785714Y-76832857D01*
X217880952Y-76880476D01*
X217928571Y-76928095D01*
X217976190Y-77023333D01*
X217976190Y-77404285D01*
X218452380Y-75880476D02*
X218452380Y-76451904D01*
X218452380Y-76166190D02*
X217452380Y-76166190D01*
X217595238Y-76261428D01*
X217690476Y-76356666D01*
X217738095Y-76451904D01*
X218452380Y-75404285D02*
X218452380Y-75213809D01*
X218404761Y-75118571D01*
X218357142Y-75070952D01*
X218214285Y-74975714D01*
X218023809Y-74928095D01*
X217642857Y-74928095D01*
X217547619Y-74975714D01*
X217500000Y-75023333D01*
X217452380Y-75118571D01*
X217452380Y-75309047D01*
X217500000Y-75404285D01*
X217547619Y-75451904D01*
X217642857Y-75499523D01*
X217880952Y-75499523D01*
X217976190Y-75451904D01*
X218023809Y-75404285D01*
X218071428Y-75309047D01*
X218071428Y-75118571D01*
X218023809Y-75023333D01*
X217976190Y-74975714D01*
X217880952Y-74928095D01*
%TO.C,R18*%
X218452380Y-63642857D02*
X217976190Y-63976190D01*
X218452380Y-64214285D02*
X217452380Y-64214285D01*
X217452380Y-63833333D01*
X217500000Y-63738095D01*
X217547619Y-63690476D01*
X217642857Y-63642857D01*
X217785714Y-63642857D01*
X217880952Y-63690476D01*
X217928571Y-63738095D01*
X217976190Y-63833333D01*
X217976190Y-64214285D01*
X218452380Y-62690476D02*
X218452380Y-63261904D01*
X218452380Y-62976190D02*
X217452380Y-62976190D01*
X217595238Y-63071428D01*
X217690476Y-63166666D01*
X217738095Y-63261904D01*
X217880952Y-62119047D02*
X217833333Y-62214285D01*
X217785714Y-62261904D01*
X217690476Y-62309523D01*
X217642857Y-62309523D01*
X217547619Y-62261904D01*
X217500000Y-62214285D01*
X217452380Y-62119047D01*
X217452380Y-61928571D01*
X217500000Y-61833333D01*
X217547619Y-61785714D01*
X217642857Y-61738095D01*
X217690476Y-61738095D01*
X217785714Y-61785714D01*
X217833333Y-61833333D01*
X217880952Y-61928571D01*
X217880952Y-62119047D01*
X217928571Y-62214285D01*
X217976190Y-62261904D01*
X218071428Y-62309523D01*
X218261904Y-62309523D01*
X218357142Y-62261904D01*
X218404761Y-62214285D01*
X218452380Y-62119047D01*
X218452380Y-61928571D01*
X218404761Y-61833333D01*
X218357142Y-61785714D01*
X218261904Y-61738095D01*
X218071428Y-61738095D01*
X217976190Y-61785714D01*
X217928571Y-61833333D01*
X217880952Y-61928571D01*
%TO.C,R17*%
X218452380Y-50642857D02*
X217976190Y-50976190D01*
X218452380Y-51214285D02*
X217452380Y-51214285D01*
X217452380Y-50833333D01*
X217500000Y-50738095D01*
X217547619Y-50690476D01*
X217642857Y-50642857D01*
X217785714Y-50642857D01*
X217880952Y-50690476D01*
X217928571Y-50738095D01*
X217976190Y-50833333D01*
X217976190Y-51214285D01*
X218452380Y-49690476D02*
X218452380Y-50261904D01*
X218452380Y-49976190D02*
X217452380Y-49976190D01*
X217595238Y-50071428D01*
X217690476Y-50166666D01*
X217738095Y-50261904D01*
X217452380Y-49357142D02*
X217452380Y-48690476D01*
X218452380Y-49119047D01*
%TO.C,U7*%
X171238095Y-101682380D02*
X171238095Y-102491904D01*
X171285714Y-102587142D01*
X171333333Y-102634761D01*
X171428571Y-102682380D01*
X171619047Y-102682380D01*
X171714285Y-102634761D01*
X171761904Y-102587142D01*
X171809523Y-102491904D01*
X171809523Y-101682380D01*
X172190476Y-101682380D02*
X172857142Y-101682380D01*
X172428571Y-102682380D01*
%TO.C,U3*%
X205402380Y-109571904D02*
X206211904Y-109571904D01*
X206307142Y-109524285D01*
X206354761Y-109476666D01*
X206402380Y-109381428D01*
X206402380Y-109190952D01*
X206354761Y-109095714D01*
X206307142Y-109048095D01*
X206211904Y-109000476D01*
X205402380Y-109000476D01*
X205402380Y-108619523D02*
X205402380Y-108000476D01*
X205783333Y-108333809D01*
X205783333Y-108190952D01*
X205830952Y-108095714D01*
X205878571Y-108048095D01*
X205973809Y-108000476D01*
X206211904Y-108000476D01*
X206307142Y-108048095D01*
X206354761Y-108095714D01*
X206402380Y-108190952D01*
X206402380Y-108476666D01*
X206354761Y-108571904D01*
X206307142Y-108619523D01*
%TO.C,U2*%
X205402380Y-83451904D02*
X206211904Y-83451904D01*
X206307142Y-83404285D01*
X206354761Y-83356666D01*
X206402380Y-83261428D01*
X206402380Y-83070952D01*
X206354761Y-82975714D01*
X206307142Y-82928095D01*
X206211904Y-82880476D01*
X205402380Y-82880476D01*
X205497619Y-82451904D02*
X205450000Y-82404285D01*
X205402380Y-82309047D01*
X205402380Y-82070952D01*
X205450000Y-81975714D01*
X205497619Y-81928095D01*
X205592857Y-81880476D01*
X205688095Y-81880476D01*
X205830952Y-81928095D01*
X206402380Y-82499523D01*
X206402380Y-81880476D01*
%TO.C,U1*%
X205402380Y-57451904D02*
X206211904Y-57451904D01*
X206307142Y-57404285D01*
X206354761Y-57356666D01*
X206402380Y-57261428D01*
X206402380Y-57070952D01*
X206354761Y-56975714D01*
X206307142Y-56928095D01*
X206211904Y-56880476D01*
X205402380Y-56880476D01*
X206402380Y-55880476D02*
X206402380Y-56451904D01*
X206402380Y-56166190D02*
X205402380Y-56166190D01*
X205545238Y-56261428D01*
X205640476Y-56356666D01*
X205688095Y-56451904D01*
%TO.C,R28*%
X212547142Y-123872380D02*
X212213809Y-123396190D01*
X211975714Y-123872380D02*
X211975714Y-122872380D01*
X212356666Y-122872380D01*
X212451904Y-122920000D01*
X212499523Y-122967619D01*
X212547142Y-123062857D01*
X212547142Y-123205714D01*
X212499523Y-123300952D01*
X212451904Y-123348571D01*
X212356666Y-123396190D01*
X211975714Y-123396190D01*
X212928095Y-122967619D02*
X212975714Y-122920000D01*
X213070952Y-122872380D01*
X213309047Y-122872380D01*
X213404285Y-122920000D01*
X213451904Y-122967619D01*
X213499523Y-123062857D01*
X213499523Y-123158095D01*
X213451904Y-123300952D01*
X212880476Y-123872380D01*
X213499523Y-123872380D01*
X214070952Y-123300952D02*
X213975714Y-123253333D01*
X213928095Y-123205714D01*
X213880476Y-123110476D01*
X213880476Y-123062857D01*
X213928095Y-122967619D01*
X213975714Y-122920000D01*
X214070952Y-122872380D01*
X214261428Y-122872380D01*
X214356666Y-122920000D01*
X214404285Y-122967619D01*
X214451904Y-123062857D01*
X214451904Y-123110476D01*
X214404285Y-123205714D01*
X214356666Y-123253333D01*
X214261428Y-123300952D01*
X214070952Y-123300952D01*
X213975714Y-123348571D01*
X213928095Y-123396190D01*
X213880476Y-123491428D01*
X213880476Y-123681904D01*
X213928095Y-123777142D01*
X213975714Y-123824761D01*
X214070952Y-123872380D01*
X214261428Y-123872380D01*
X214356666Y-123824761D01*
X214404285Y-123777142D01*
X214451904Y-123681904D01*
X214451904Y-123491428D01*
X214404285Y-123396190D01*
X214356666Y-123348571D01*
X214261428Y-123300952D01*
%TO.C,R27*%
X212547142Y-117532380D02*
X212213809Y-117056190D01*
X211975714Y-117532380D02*
X211975714Y-116532380D01*
X212356666Y-116532380D01*
X212451904Y-116580000D01*
X212499523Y-116627619D01*
X212547142Y-116722857D01*
X212547142Y-116865714D01*
X212499523Y-116960952D01*
X212451904Y-117008571D01*
X212356666Y-117056190D01*
X211975714Y-117056190D01*
X212928095Y-116627619D02*
X212975714Y-116580000D01*
X213070952Y-116532380D01*
X213309047Y-116532380D01*
X213404285Y-116580000D01*
X213451904Y-116627619D01*
X213499523Y-116722857D01*
X213499523Y-116818095D01*
X213451904Y-116960952D01*
X212880476Y-117532380D01*
X213499523Y-117532380D01*
X213832857Y-116532380D02*
X214499523Y-116532380D01*
X214070952Y-117532380D01*
%TO.C,R26*%
X212547142Y-110872380D02*
X212213809Y-110396190D01*
X211975714Y-110872380D02*
X211975714Y-109872380D01*
X212356666Y-109872380D01*
X212451904Y-109920000D01*
X212499523Y-109967619D01*
X212547142Y-110062857D01*
X212547142Y-110205714D01*
X212499523Y-110300952D01*
X212451904Y-110348571D01*
X212356666Y-110396190D01*
X211975714Y-110396190D01*
X212928095Y-109967619D02*
X212975714Y-109920000D01*
X213070952Y-109872380D01*
X213309047Y-109872380D01*
X213404285Y-109920000D01*
X213451904Y-109967619D01*
X213499523Y-110062857D01*
X213499523Y-110158095D01*
X213451904Y-110300952D01*
X212880476Y-110872380D01*
X213499523Y-110872380D01*
X214356666Y-109872380D02*
X214166190Y-109872380D01*
X214070952Y-109920000D01*
X214023333Y-109967619D01*
X213928095Y-110110476D01*
X213880476Y-110300952D01*
X213880476Y-110681904D01*
X213928095Y-110777142D01*
X213975714Y-110824761D01*
X214070952Y-110872380D01*
X214261428Y-110872380D01*
X214356666Y-110824761D01*
X214404285Y-110777142D01*
X214451904Y-110681904D01*
X214451904Y-110443809D01*
X214404285Y-110348571D01*
X214356666Y-110300952D01*
X214261428Y-110253333D01*
X214070952Y-110253333D01*
X213975714Y-110300952D01*
X213928095Y-110348571D01*
X213880476Y-110443809D01*
%TO.C,R25*%
X212547142Y-104532380D02*
X212213809Y-104056190D01*
X211975714Y-104532380D02*
X211975714Y-103532380D01*
X212356666Y-103532380D01*
X212451904Y-103580000D01*
X212499523Y-103627619D01*
X212547142Y-103722857D01*
X212547142Y-103865714D01*
X212499523Y-103960952D01*
X212451904Y-104008571D01*
X212356666Y-104056190D01*
X211975714Y-104056190D01*
X212928095Y-103627619D02*
X212975714Y-103580000D01*
X213070952Y-103532380D01*
X213309047Y-103532380D01*
X213404285Y-103580000D01*
X213451904Y-103627619D01*
X213499523Y-103722857D01*
X213499523Y-103818095D01*
X213451904Y-103960952D01*
X212880476Y-104532380D01*
X213499523Y-104532380D01*
X214404285Y-103532380D02*
X213928095Y-103532380D01*
X213880476Y-104008571D01*
X213928095Y-103960952D01*
X214023333Y-103913333D01*
X214261428Y-103913333D01*
X214356666Y-103960952D01*
X214404285Y-104008571D01*
X214451904Y-104103809D01*
X214451904Y-104341904D01*
X214404285Y-104437142D01*
X214356666Y-104484761D01*
X214261428Y-104532380D01*
X214023333Y-104532380D01*
X213928095Y-104484761D01*
X213880476Y-104437142D01*
%TO.C,R24*%
X195857142Y-113952380D02*
X195523809Y-113476190D01*
X195285714Y-113952380D02*
X195285714Y-112952380D01*
X195666666Y-112952380D01*
X195761904Y-113000000D01*
X195809523Y-113047619D01*
X195857142Y-113142857D01*
X195857142Y-113285714D01*
X195809523Y-113380952D01*
X195761904Y-113428571D01*
X195666666Y-113476190D01*
X195285714Y-113476190D01*
X196238095Y-113047619D02*
X196285714Y-113000000D01*
X196380952Y-112952380D01*
X196619047Y-112952380D01*
X196714285Y-113000000D01*
X196761904Y-113047619D01*
X196809523Y-113142857D01*
X196809523Y-113238095D01*
X196761904Y-113380952D01*
X196190476Y-113952380D01*
X196809523Y-113952380D01*
X197666666Y-113285714D02*
X197666666Y-113952380D01*
X197428571Y-112904761D02*
X197190476Y-113619047D01*
X197809523Y-113619047D01*
%TO.C,R23*%
X196357142Y-96452380D02*
X196023809Y-95976190D01*
X195785714Y-96452380D02*
X195785714Y-95452380D01*
X196166666Y-95452380D01*
X196261904Y-95500000D01*
X196309523Y-95547619D01*
X196357142Y-95642857D01*
X196357142Y-95785714D01*
X196309523Y-95880952D01*
X196261904Y-95928571D01*
X196166666Y-95976190D01*
X195785714Y-95976190D01*
X196738095Y-95547619D02*
X196785714Y-95500000D01*
X196880952Y-95452380D01*
X197119047Y-95452380D01*
X197214285Y-95500000D01*
X197261904Y-95547619D01*
X197309523Y-95642857D01*
X197309523Y-95738095D01*
X197261904Y-95880952D01*
X196690476Y-96452380D01*
X197309523Y-96452380D01*
X197642857Y-95452380D02*
X198261904Y-95452380D01*
X197928571Y-95833333D01*
X198071428Y-95833333D01*
X198166666Y-95880952D01*
X198214285Y-95928571D01*
X198261904Y-96023809D01*
X198261904Y-96261904D01*
X198214285Y-96357142D01*
X198166666Y-96404761D01*
X198071428Y-96452380D01*
X197785714Y-96452380D01*
X197690476Y-96404761D01*
X197642857Y-96357142D01*
%TO.C,R22*%
X184357142Y-113952380D02*
X184023809Y-113476190D01*
X183785714Y-113952380D02*
X183785714Y-112952380D01*
X184166666Y-112952380D01*
X184261904Y-113000000D01*
X184309523Y-113047619D01*
X184357142Y-113142857D01*
X184357142Y-113285714D01*
X184309523Y-113380952D01*
X184261904Y-113428571D01*
X184166666Y-113476190D01*
X183785714Y-113476190D01*
X184738095Y-113047619D02*
X184785714Y-113000000D01*
X184880952Y-112952380D01*
X185119047Y-112952380D01*
X185214285Y-113000000D01*
X185261904Y-113047619D01*
X185309523Y-113142857D01*
X185309523Y-113238095D01*
X185261904Y-113380952D01*
X184690476Y-113952380D01*
X185309523Y-113952380D01*
X185690476Y-113047619D02*
X185738095Y-113000000D01*
X185833333Y-112952380D01*
X186071428Y-112952380D01*
X186166666Y-113000000D01*
X186214285Y-113047619D01*
X186261904Y-113142857D01*
X186261904Y-113238095D01*
X186214285Y-113380952D01*
X185642857Y-113952380D01*
X186261904Y-113952380D01*
%TO.C,R21*%
X184357142Y-96952380D02*
X184023809Y-96476190D01*
X183785714Y-96952380D02*
X183785714Y-95952380D01*
X184166666Y-95952380D01*
X184261904Y-96000000D01*
X184309523Y-96047619D01*
X184357142Y-96142857D01*
X184357142Y-96285714D01*
X184309523Y-96380952D01*
X184261904Y-96428571D01*
X184166666Y-96476190D01*
X183785714Y-96476190D01*
X184738095Y-96047619D02*
X184785714Y-96000000D01*
X184880952Y-95952380D01*
X185119047Y-95952380D01*
X185214285Y-96000000D01*
X185261904Y-96047619D01*
X185309523Y-96142857D01*
X185309523Y-96238095D01*
X185261904Y-96380952D01*
X184690476Y-96952380D01*
X185309523Y-96952380D01*
X186261904Y-96952380D02*
X185690476Y-96952380D01*
X185976190Y-96952380D02*
X185976190Y-95952380D01*
X185880952Y-96095238D01*
X185785714Y-96190476D01*
X185690476Y-96238095D01*
%TO.C,R16*%
X212547142Y-97872380D02*
X212213809Y-97396190D01*
X211975714Y-97872380D02*
X211975714Y-96872380D01*
X212356666Y-96872380D01*
X212451904Y-96920000D01*
X212499523Y-96967619D01*
X212547142Y-97062857D01*
X212547142Y-97205714D01*
X212499523Y-97300952D01*
X212451904Y-97348571D01*
X212356666Y-97396190D01*
X211975714Y-97396190D01*
X213499523Y-97872380D02*
X212928095Y-97872380D01*
X213213809Y-97872380D02*
X213213809Y-96872380D01*
X213118571Y-97015238D01*
X213023333Y-97110476D01*
X212928095Y-97158095D01*
X214356666Y-96872380D02*
X214166190Y-96872380D01*
X214070952Y-96920000D01*
X214023333Y-96967619D01*
X213928095Y-97110476D01*
X213880476Y-97300952D01*
X213880476Y-97681904D01*
X213928095Y-97777142D01*
X213975714Y-97824761D01*
X214070952Y-97872380D01*
X214261428Y-97872380D01*
X214356666Y-97824761D01*
X214404285Y-97777142D01*
X214451904Y-97681904D01*
X214451904Y-97443809D01*
X214404285Y-97348571D01*
X214356666Y-97300952D01*
X214261428Y-97253333D01*
X214070952Y-97253333D01*
X213975714Y-97300952D01*
X213928095Y-97348571D01*
X213880476Y-97443809D01*
%TO.C,R15*%
X212547142Y-91532380D02*
X212213809Y-91056190D01*
X211975714Y-91532380D02*
X211975714Y-90532380D01*
X212356666Y-90532380D01*
X212451904Y-90580000D01*
X212499523Y-90627619D01*
X212547142Y-90722857D01*
X212547142Y-90865714D01*
X212499523Y-90960952D01*
X212451904Y-91008571D01*
X212356666Y-91056190D01*
X211975714Y-91056190D01*
X213499523Y-91532380D02*
X212928095Y-91532380D01*
X213213809Y-91532380D02*
X213213809Y-90532380D01*
X213118571Y-90675238D01*
X213023333Y-90770476D01*
X212928095Y-90818095D01*
X214404285Y-90532380D02*
X213928095Y-90532380D01*
X213880476Y-91008571D01*
X213928095Y-90960952D01*
X214023333Y-90913333D01*
X214261428Y-90913333D01*
X214356666Y-90960952D01*
X214404285Y-91008571D01*
X214451904Y-91103809D01*
X214451904Y-91341904D01*
X214404285Y-91437142D01*
X214356666Y-91484761D01*
X214261428Y-91532380D01*
X214023333Y-91532380D01*
X213928095Y-91484761D01*
X213880476Y-91437142D01*
%TO.C,R14*%
X212547142Y-84872380D02*
X212213809Y-84396190D01*
X211975714Y-84872380D02*
X211975714Y-83872380D01*
X212356666Y-83872380D01*
X212451904Y-83920000D01*
X212499523Y-83967619D01*
X212547142Y-84062857D01*
X212547142Y-84205714D01*
X212499523Y-84300952D01*
X212451904Y-84348571D01*
X212356666Y-84396190D01*
X211975714Y-84396190D01*
X213499523Y-84872380D02*
X212928095Y-84872380D01*
X213213809Y-84872380D02*
X213213809Y-83872380D01*
X213118571Y-84015238D01*
X213023333Y-84110476D01*
X212928095Y-84158095D01*
X214356666Y-84205714D02*
X214356666Y-84872380D01*
X214118571Y-83824761D02*
X213880476Y-84539047D01*
X214499523Y-84539047D01*
%TO.C,R13*%
X212547142Y-78532380D02*
X212213809Y-78056190D01*
X211975714Y-78532380D02*
X211975714Y-77532380D01*
X212356666Y-77532380D01*
X212451904Y-77580000D01*
X212499523Y-77627619D01*
X212547142Y-77722857D01*
X212547142Y-77865714D01*
X212499523Y-77960952D01*
X212451904Y-78008571D01*
X212356666Y-78056190D01*
X211975714Y-78056190D01*
X213499523Y-78532380D02*
X212928095Y-78532380D01*
X213213809Y-78532380D02*
X213213809Y-77532380D01*
X213118571Y-77675238D01*
X213023333Y-77770476D01*
X212928095Y-77818095D01*
X213832857Y-77532380D02*
X214451904Y-77532380D01*
X214118571Y-77913333D01*
X214261428Y-77913333D01*
X214356666Y-77960952D01*
X214404285Y-78008571D01*
X214451904Y-78103809D01*
X214451904Y-78341904D01*
X214404285Y-78437142D01*
X214356666Y-78484761D01*
X214261428Y-78532380D01*
X213975714Y-78532380D01*
X213880476Y-78484761D01*
X213832857Y-78437142D01*
%TO.C,R12*%
X212547142Y-71872380D02*
X212213809Y-71396190D01*
X211975714Y-71872380D02*
X211975714Y-70872380D01*
X212356666Y-70872380D01*
X212451904Y-70920000D01*
X212499523Y-70967619D01*
X212547142Y-71062857D01*
X212547142Y-71205714D01*
X212499523Y-71300952D01*
X212451904Y-71348571D01*
X212356666Y-71396190D01*
X211975714Y-71396190D01*
X213499523Y-71872380D02*
X212928095Y-71872380D01*
X213213809Y-71872380D02*
X213213809Y-70872380D01*
X213118571Y-71015238D01*
X213023333Y-71110476D01*
X212928095Y-71158095D01*
X213880476Y-70967619D02*
X213928095Y-70920000D01*
X214023333Y-70872380D01*
X214261428Y-70872380D01*
X214356666Y-70920000D01*
X214404285Y-70967619D01*
X214451904Y-71062857D01*
X214451904Y-71158095D01*
X214404285Y-71300952D01*
X213832857Y-71872380D01*
X214451904Y-71872380D01*
%TO.C,R11*%
X212547142Y-65532380D02*
X212213809Y-65056190D01*
X211975714Y-65532380D02*
X211975714Y-64532380D01*
X212356666Y-64532380D01*
X212451904Y-64580000D01*
X212499523Y-64627619D01*
X212547142Y-64722857D01*
X212547142Y-64865714D01*
X212499523Y-64960952D01*
X212451904Y-65008571D01*
X212356666Y-65056190D01*
X211975714Y-65056190D01*
X213499523Y-65532380D02*
X212928095Y-65532380D01*
X213213809Y-65532380D02*
X213213809Y-64532380D01*
X213118571Y-64675238D01*
X213023333Y-64770476D01*
X212928095Y-64818095D01*
X214451904Y-65532380D02*
X213880476Y-65532380D01*
X214166190Y-65532380D02*
X214166190Y-64532380D01*
X214070952Y-64675238D01*
X213975714Y-64770476D01*
X213880476Y-64818095D01*
%TO.C,R10*%
X212547142Y-58872380D02*
X212213809Y-58396190D01*
X211975714Y-58872380D02*
X211975714Y-57872380D01*
X212356666Y-57872380D01*
X212451904Y-57920000D01*
X212499523Y-57967619D01*
X212547142Y-58062857D01*
X212547142Y-58205714D01*
X212499523Y-58300952D01*
X212451904Y-58348571D01*
X212356666Y-58396190D01*
X211975714Y-58396190D01*
X213499523Y-58872380D02*
X212928095Y-58872380D01*
X213213809Y-58872380D02*
X213213809Y-57872380D01*
X213118571Y-58015238D01*
X213023333Y-58110476D01*
X212928095Y-58158095D01*
X214118571Y-57872380D02*
X214213809Y-57872380D01*
X214309047Y-57920000D01*
X214356666Y-57967619D01*
X214404285Y-58062857D01*
X214451904Y-58253333D01*
X214451904Y-58491428D01*
X214404285Y-58681904D01*
X214356666Y-58777142D01*
X214309047Y-58824761D01*
X214213809Y-58872380D01*
X214118571Y-58872380D01*
X214023333Y-58824761D01*
X213975714Y-58777142D01*
X213928095Y-58681904D01*
X213880476Y-58491428D01*
X213880476Y-58253333D01*
X213928095Y-58062857D01*
X213975714Y-57967619D01*
X214023333Y-57920000D01*
X214118571Y-57872380D01*
%TO.C,R9*%
X213023333Y-52532380D02*
X212690000Y-52056190D01*
X212451904Y-52532380D02*
X212451904Y-51532380D01*
X212832857Y-51532380D01*
X212928095Y-51580000D01*
X212975714Y-51627619D01*
X213023333Y-51722857D01*
X213023333Y-51865714D01*
X212975714Y-51960952D01*
X212928095Y-52008571D01*
X212832857Y-52056190D01*
X212451904Y-52056190D01*
X213499523Y-52532380D02*
X213690000Y-52532380D01*
X213785238Y-52484761D01*
X213832857Y-52437142D01*
X213928095Y-52294285D01*
X213975714Y-52103809D01*
X213975714Y-51722857D01*
X213928095Y-51627619D01*
X213880476Y-51580000D01*
X213785238Y-51532380D01*
X213594761Y-51532380D01*
X213499523Y-51580000D01*
X213451904Y-51627619D01*
X213404285Y-51722857D01*
X213404285Y-51960952D01*
X213451904Y-52056190D01*
X213499523Y-52103809D01*
X213594761Y-52151428D01*
X213785238Y-52151428D01*
X213880476Y-52103809D01*
X213928095Y-52056190D01*
X213975714Y-51960952D01*
%TO.C,R8*%
X195833333Y-87952380D02*
X195500000Y-87476190D01*
X195261904Y-87952380D02*
X195261904Y-86952380D01*
X195642857Y-86952380D01*
X195738095Y-87000000D01*
X195785714Y-87047619D01*
X195833333Y-87142857D01*
X195833333Y-87285714D01*
X195785714Y-87380952D01*
X195738095Y-87428571D01*
X195642857Y-87476190D01*
X195261904Y-87476190D01*
X196404761Y-87380952D02*
X196309523Y-87333333D01*
X196261904Y-87285714D01*
X196214285Y-87190476D01*
X196214285Y-87142857D01*
X196261904Y-87047619D01*
X196309523Y-87000000D01*
X196404761Y-86952380D01*
X196595238Y-86952380D01*
X196690476Y-87000000D01*
X196738095Y-87047619D01*
X196785714Y-87142857D01*
X196785714Y-87190476D01*
X196738095Y-87285714D01*
X196690476Y-87333333D01*
X196595238Y-87380952D01*
X196404761Y-87380952D01*
X196309523Y-87428571D01*
X196261904Y-87476190D01*
X196214285Y-87571428D01*
X196214285Y-87761904D01*
X196261904Y-87857142D01*
X196309523Y-87904761D01*
X196404761Y-87952380D01*
X196595238Y-87952380D01*
X196690476Y-87904761D01*
X196738095Y-87857142D01*
X196785714Y-87761904D01*
X196785714Y-87571428D01*
X196738095Y-87476190D01*
X196690476Y-87428571D01*
X196595238Y-87380952D01*
%TO.C,R7*%
X199833333Y-70952380D02*
X199500000Y-70476190D01*
X199261904Y-70952380D02*
X199261904Y-69952380D01*
X199642857Y-69952380D01*
X199738095Y-70000000D01*
X199785714Y-70047619D01*
X199833333Y-70142857D01*
X199833333Y-70285714D01*
X199785714Y-70380952D01*
X199738095Y-70428571D01*
X199642857Y-70476190D01*
X199261904Y-70476190D01*
X200166666Y-69952380D02*
X200833333Y-69952380D01*
X200404761Y-70952380D01*
%TO.C,R6*%
X199523333Y-62032380D02*
X199190000Y-61556190D01*
X198951904Y-62032380D02*
X198951904Y-61032380D01*
X199332857Y-61032380D01*
X199428095Y-61080000D01*
X199475714Y-61127619D01*
X199523333Y-61222857D01*
X199523333Y-61365714D01*
X199475714Y-61460952D01*
X199428095Y-61508571D01*
X199332857Y-61556190D01*
X198951904Y-61556190D01*
X200380476Y-61032380D02*
X200190000Y-61032380D01*
X200094761Y-61080000D01*
X200047142Y-61127619D01*
X199951904Y-61270476D01*
X199904285Y-61460952D01*
X199904285Y-61841904D01*
X199951904Y-61937142D01*
X199999523Y-61984761D01*
X200094761Y-62032380D01*
X200285238Y-62032380D01*
X200380476Y-61984761D01*
X200428095Y-61937142D01*
X200475714Y-61841904D01*
X200475714Y-61603809D01*
X200428095Y-61508571D01*
X200380476Y-61460952D01*
X200285238Y-61413333D01*
X200094761Y-61413333D01*
X199999523Y-61460952D01*
X199951904Y-61508571D01*
X199904285Y-61603809D01*
%TO.C,R5*%
X199523333Y-45032380D02*
X199190000Y-44556190D01*
X198951904Y-45032380D02*
X198951904Y-44032380D01*
X199332857Y-44032380D01*
X199428095Y-44080000D01*
X199475714Y-44127619D01*
X199523333Y-44222857D01*
X199523333Y-44365714D01*
X199475714Y-44460952D01*
X199428095Y-44508571D01*
X199332857Y-44556190D01*
X198951904Y-44556190D01*
X200428095Y-44032380D02*
X199951904Y-44032380D01*
X199904285Y-44508571D01*
X199951904Y-44460952D01*
X200047142Y-44413333D01*
X200285238Y-44413333D01*
X200380476Y-44460952D01*
X200428095Y-44508571D01*
X200475714Y-44603809D01*
X200475714Y-44841904D01*
X200428095Y-44937142D01*
X200380476Y-44984761D01*
X200285238Y-45032380D01*
X200047142Y-45032380D01*
X199951904Y-44984761D01*
X199904285Y-44937142D01*
%TO.C,R4*%
X184833333Y-87952380D02*
X184500000Y-87476190D01*
X184261904Y-87952380D02*
X184261904Y-86952380D01*
X184642857Y-86952380D01*
X184738095Y-87000000D01*
X184785714Y-87047619D01*
X184833333Y-87142857D01*
X184833333Y-87285714D01*
X184785714Y-87380952D01*
X184738095Y-87428571D01*
X184642857Y-87476190D01*
X184261904Y-87476190D01*
X185690476Y-87285714D02*
X185690476Y-87952380D01*
X185452380Y-86904761D02*
X185214285Y-87619047D01*
X185833333Y-87619047D01*
%TO.C,R3*%
X188833333Y-72952380D02*
X188500000Y-72476190D01*
X188261904Y-72952380D02*
X188261904Y-71952380D01*
X188642857Y-71952380D01*
X188738095Y-72000000D01*
X188785714Y-72047619D01*
X188833333Y-72142857D01*
X188833333Y-72285714D01*
X188785714Y-72380952D01*
X188738095Y-72428571D01*
X188642857Y-72476190D01*
X188261904Y-72476190D01*
X189166666Y-71952380D02*
X189785714Y-71952380D01*
X189452380Y-72333333D01*
X189595238Y-72333333D01*
X189690476Y-72380952D01*
X189738095Y-72428571D01*
X189785714Y-72523809D01*
X189785714Y-72761904D01*
X189738095Y-72857142D01*
X189690476Y-72904761D01*
X189595238Y-72952380D01*
X189309523Y-72952380D01*
X189214285Y-72904761D01*
X189166666Y-72857142D01*
%TO.C,R2*%
X188523333Y-62032380D02*
X188190000Y-61556190D01*
X187951904Y-62032380D02*
X187951904Y-61032380D01*
X188332857Y-61032380D01*
X188428095Y-61080000D01*
X188475714Y-61127619D01*
X188523333Y-61222857D01*
X188523333Y-61365714D01*
X188475714Y-61460952D01*
X188428095Y-61508571D01*
X188332857Y-61556190D01*
X187951904Y-61556190D01*
X188904285Y-61127619D02*
X188951904Y-61080000D01*
X189047142Y-61032380D01*
X189285238Y-61032380D01*
X189380476Y-61080000D01*
X189428095Y-61127619D01*
X189475714Y-61222857D01*
X189475714Y-61318095D01*
X189428095Y-61460952D01*
X188856666Y-62032380D01*
X189475714Y-62032380D01*
%TO.C,R1*%
X188523333Y-45032380D02*
X188190000Y-44556190D01*
X187951904Y-45032380D02*
X187951904Y-44032380D01*
X188332857Y-44032380D01*
X188428095Y-44080000D01*
X188475714Y-44127619D01*
X188523333Y-44222857D01*
X188523333Y-44365714D01*
X188475714Y-44460952D01*
X188428095Y-44508571D01*
X188332857Y-44556190D01*
X187951904Y-44556190D01*
X189475714Y-45032380D02*
X188904285Y-45032380D01*
X189190000Y-45032380D02*
X189190000Y-44032380D01*
X189094761Y-44175238D01*
X188999523Y-44270476D01*
X188904285Y-44318095D01*
%TO.C,Q6*%
X213134761Y-110987619D02*
X213039523Y-110940000D01*
X212944285Y-110844761D01*
X212801428Y-110701904D01*
X212706190Y-110654285D01*
X212610952Y-110654285D01*
X212658571Y-110892380D02*
X212563333Y-110844761D01*
X212468095Y-110749523D01*
X212420476Y-110559047D01*
X212420476Y-110225714D01*
X212468095Y-110035238D01*
X212563333Y-109940000D01*
X212658571Y-109892380D01*
X212849047Y-109892380D01*
X212944285Y-109940000D01*
X213039523Y-110035238D01*
X213087142Y-110225714D01*
X213087142Y-110559047D01*
X213039523Y-110749523D01*
X212944285Y-110844761D01*
X212849047Y-110892380D01*
X212658571Y-110892380D01*
X213944285Y-109892380D02*
X213753809Y-109892380D01*
X213658571Y-109940000D01*
X213610952Y-109987619D01*
X213515714Y-110130476D01*
X213468095Y-110320952D01*
X213468095Y-110701904D01*
X213515714Y-110797142D01*
X213563333Y-110844761D01*
X213658571Y-110892380D01*
X213849047Y-110892380D01*
X213944285Y-110844761D01*
X213991904Y-110797142D01*
X214039523Y-110701904D01*
X214039523Y-110463809D01*
X213991904Y-110368571D01*
X213944285Y-110320952D01*
X213849047Y-110273333D01*
X213658571Y-110273333D01*
X213563333Y-110320952D01*
X213515714Y-110368571D01*
X213468095Y-110463809D01*
%TO.C,Q5*%
X213134761Y-97987619D02*
X213039523Y-97940000D01*
X212944285Y-97844761D01*
X212801428Y-97701904D01*
X212706190Y-97654285D01*
X212610952Y-97654285D01*
X212658571Y-97892380D02*
X212563333Y-97844761D01*
X212468095Y-97749523D01*
X212420476Y-97559047D01*
X212420476Y-97225714D01*
X212468095Y-97035238D01*
X212563333Y-96940000D01*
X212658571Y-96892380D01*
X212849047Y-96892380D01*
X212944285Y-96940000D01*
X213039523Y-97035238D01*
X213087142Y-97225714D01*
X213087142Y-97559047D01*
X213039523Y-97749523D01*
X212944285Y-97844761D01*
X212849047Y-97892380D01*
X212658571Y-97892380D01*
X213991904Y-96892380D02*
X213515714Y-96892380D01*
X213468095Y-97368571D01*
X213515714Y-97320952D01*
X213610952Y-97273333D01*
X213849047Y-97273333D01*
X213944285Y-97320952D01*
X213991904Y-97368571D01*
X214039523Y-97463809D01*
X214039523Y-97701904D01*
X213991904Y-97797142D01*
X213944285Y-97844761D01*
X213849047Y-97892380D01*
X213610952Y-97892380D01*
X213515714Y-97844761D01*
X213468095Y-97797142D01*
%TO.C,Q4*%
X213134761Y-84987619D02*
X213039523Y-84940000D01*
X212944285Y-84844761D01*
X212801428Y-84701904D01*
X212706190Y-84654285D01*
X212610952Y-84654285D01*
X212658571Y-84892380D02*
X212563333Y-84844761D01*
X212468095Y-84749523D01*
X212420476Y-84559047D01*
X212420476Y-84225714D01*
X212468095Y-84035238D01*
X212563333Y-83940000D01*
X212658571Y-83892380D01*
X212849047Y-83892380D01*
X212944285Y-83940000D01*
X213039523Y-84035238D01*
X213087142Y-84225714D01*
X213087142Y-84559047D01*
X213039523Y-84749523D01*
X212944285Y-84844761D01*
X212849047Y-84892380D01*
X212658571Y-84892380D01*
X213944285Y-84225714D02*
X213944285Y-84892380D01*
X213706190Y-83844761D02*
X213468095Y-84559047D01*
X214087142Y-84559047D01*
%TO.C,Q3*%
X213134761Y-71987619D02*
X213039523Y-71940000D01*
X212944285Y-71844761D01*
X212801428Y-71701904D01*
X212706190Y-71654285D01*
X212610952Y-71654285D01*
X212658571Y-71892380D02*
X212563333Y-71844761D01*
X212468095Y-71749523D01*
X212420476Y-71559047D01*
X212420476Y-71225714D01*
X212468095Y-71035238D01*
X212563333Y-70940000D01*
X212658571Y-70892380D01*
X212849047Y-70892380D01*
X212944285Y-70940000D01*
X213039523Y-71035238D01*
X213087142Y-71225714D01*
X213087142Y-71559047D01*
X213039523Y-71749523D01*
X212944285Y-71844761D01*
X212849047Y-71892380D01*
X212658571Y-71892380D01*
X213420476Y-70892380D02*
X214039523Y-70892380D01*
X213706190Y-71273333D01*
X213849047Y-71273333D01*
X213944285Y-71320952D01*
X213991904Y-71368571D01*
X214039523Y-71463809D01*
X214039523Y-71701904D01*
X213991904Y-71797142D01*
X213944285Y-71844761D01*
X213849047Y-71892380D01*
X213563333Y-71892380D01*
X213468095Y-71844761D01*
X213420476Y-71797142D01*
%TO.C,Q2*%
X213134761Y-58987619D02*
X213039523Y-58940000D01*
X212944285Y-58844761D01*
X212801428Y-58701904D01*
X212706190Y-58654285D01*
X212610952Y-58654285D01*
X212658571Y-58892380D02*
X212563333Y-58844761D01*
X212468095Y-58749523D01*
X212420476Y-58559047D01*
X212420476Y-58225714D01*
X212468095Y-58035238D01*
X212563333Y-57940000D01*
X212658571Y-57892380D01*
X212849047Y-57892380D01*
X212944285Y-57940000D01*
X213039523Y-58035238D01*
X213087142Y-58225714D01*
X213087142Y-58559047D01*
X213039523Y-58749523D01*
X212944285Y-58844761D01*
X212849047Y-58892380D01*
X212658571Y-58892380D01*
X213468095Y-57987619D02*
X213515714Y-57940000D01*
X213610952Y-57892380D01*
X213849047Y-57892380D01*
X213944285Y-57940000D01*
X213991904Y-57987619D01*
X214039523Y-58082857D01*
X214039523Y-58178095D01*
X213991904Y-58320952D01*
X213420476Y-58892380D01*
X214039523Y-58892380D01*
%TO.C,Q1*%
X213134761Y-45987619D02*
X213039523Y-45940000D01*
X212944285Y-45844761D01*
X212801428Y-45701904D01*
X212706190Y-45654285D01*
X212610952Y-45654285D01*
X212658571Y-45892380D02*
X212563333Y-45844761D01*
X212468095Y-45749523D01*
X212420476Y-45559047D01*
X212420476Y-45225714D01*
X212468095Y-45035238D01*
X212563333Y-44940000D01*
X212658571Y-44892380D01*
X212849047Y-44892380D01*
X212944285Y-44940000D01*
X213039523Y-45035238D01*
X213087142Y-45225714D01*
X213087142Y-45559047D01*
X213039523Y-45749523D01*
X212944285Y-45844761D01*
X212849047Y-45892380D01*
X212658571Y-45892380D01*
X214039523Y-45892380D02*
X213468095Y-45892380D01*
X213753809Y-45892380D02*
X213753809Y-44892380D01*
X213658571Y-45035238D01*
X213563333Y-45130476D01*
X213468095Y-45178095D01*
%TO.C,J9*%
X255474880Y-116333333D02*
X256189166Y-116333333D01*
X256332023Y-116380952D01*
X256427261Y-116476190D01*
X256474880Y-116619047D01*
X256474880Y-116714285D01*
X256474880Y-115809523D02*
X256474880Y-115619047D01*
X256427261Y-115523809D01*
X256379642Y-115476190D01*
X256236785Y-115380952D01*
X256046309Y-115333333D01*
X255665357Y-115333333D01*
X255570119Y-115380952D01*
X255522500Y-115428571D01*
X255474880Y-115523809D01*
X255474880Y-115714285D01*
X255522500Y-115809523D01*
X255570119Y-115857142D01*
X255665357Y-115904761D01*
X255903452Y-115904761D01*
X255998690Y-115857142D01*
X256046309Y-115809523D01*
X256093928Y-115714285D01*
X256093928Y-115523809D01*
X256046309Y-115428571D01*
X255998690Y-115380952D01*
X255903452Y-115333333D01*
%TO.C,J8*%
X255474880Y-103333333D02*
X256189166Y-103333333D01*
X256332023Y-103380952D01*
X256427261Y-103476190D01*
X256474880Y-103619047D01*
X256474880Y-103714285D01*
X255903452Y-102714285D02*
X255855833Y-102809523D01*
X255808214Y-102857142D01*
X255712976Y-102904761D01*
X255665357Y-102904761D01*
X255570119Y-102857142D01*
X255522500Y-102809523D01*
X255474880Y-102714285D01*
X255474880Y-102523809D01*
X255522500Y-102428571D01*
X255570119Y-102380952D01*
X255665357Y-102333333D01*
X255712976Y-102333333D01*
X255808214Y-102380952D01*
X255855833Y-102428571D01*
X255903452Y-102523809D01*
X255903452Y-102714285D01*
X255951071Y-102809523D01*
X255998690Y-102857142D01*
X256093928Y-102904761D01*
X256284404Y-102904761D01*
X256379642Y-102857142D01*
X256427261Y-102809523D01*
X256474880Y-102714285D01*
X256474880Y-102523809D01*
X256427261Y-102428571D01*
X256379642Y-102380952D01*
X256284404Y-102333333D01*
X256093928Y-102333333D01*
X255998690Y-102380952D01*
X255951071Y-102428571D01*
X255903452Y-102523809D01*
%TO.C,J7*%
X255474880Y-90333333D02*
X256189166Y-90333333D01*
X256332023Y-90380952D01*
X256427261Y-90476190D01*
X256474880Y-90619047D01*
X256474880Y-90714285D01*
X255474880Y-89952380D02*
X255474880Y-89285714D01*
X256474880Y-89714285D01*
%TO.C,J6*%
X255474880Y-77333333D02*
X256189166Y-77333333D01*
X256332023Y-77380952D01*
X256427261Y-77476190D01*
X256474880Y-77619047D01*
X256474880Y-77714285D01*
X255474880Y-76428571D02*
X255474880Y-76619047D01*
X255522500Y-76714285D01*
X255570119Y-76761904D01*
X255712976Y-76857142D01*
X255903452Y-76904761D01*
X256284404Y-76904761D01*
X256379642Y-76857142D01*
X256427261Y-76809523D01*
X256474880Y-76714285D01*
X256474880Y-76523809D01*
X256427261Y-76428571D01*
X256379642Y-76380952D01*
X256284404Y-76333333D01*
X256046309Y-76333333D01*
X255951071Y-76380952D01*
X255903452Y-76428571D01*
X255855833Y-76523809D01*
X255855833Y-76714285D01*
X255903452Y-76809523D01*
X255951071Y-76857142D01*
X256046309Y-76904761D01*
%TO.C,J5*%
X255474880Y-64333333D02*
X256189166Y-64333333D01*
X256332023Y-64380952D01*
X256427261Y-64476190D01*
X256474880Y-64619047D01*
X256474880Y-64714285D01*
X255474880Y-63380952D02*
X255474880Y-63857142D01*
X255951071Y-63904761D01*
X255903452Y-63857142D01*
X255855833Y-63761904D01*
X255855833Y-63523809D01*
X255903452Y-63428571D01*
X255951071Y-63380952D01*
X256046309Y-63333333D01*
X256284404Y-63333333D01*
X256379642Y-63380952D01*
X256427261Y-63428571D01*
X256474880Y-63523809D01*
X256474880Y-63761904D01*
X256427261Y-63857142D01*
X256379642Y-63904761D01*
%TO.C,J4*%
X255474880Y-51333333D02*
X256189166Y-51333333D01*
X256332023Y-51380952D01*
X256427261Y-51476190D01*
X256474880Y-51619047D01*
X256474880Y-51714285D01*
X255808214Y-50428571D02*
X256474880Y-50428571D01*
X255427261Y-50666666D02*
X256141547Y-50904761D01*
X256141547Y-50285714D01*
%TO.C,J3*%
X147042380Y-54333333D02*
X147756666Y-54333333D01*
X147899523Y-54380952D01*
X147994761Y-54476190D01*
X148042380Y-54619047D01*
X148042380Y-54714285D01*
X147042380Y-53952380D02*
X147042380Y-53333333D01*
X147423333Y-53666666D01*
X147423333Y-53523809D01*
X147470952Y-53428571D01*
X147518571Y-53380952D01*
X147613809Y-53333333D01*
X147851904Y-53333333D01*
X147947142Y-53380952D01*
X147994761Y-53428571D01*
X148042380Y-53523809D01*
X148042380Y-53809523D01*
X147994761Y-53904761D01*
X147947142Y-53952380D01*
%TO.C,J2*%
X147042380Y-92333333D02*
X147756666Y-92333333D01*
X147899523Y-92380952D01*
X147994761Y-92476190D01*
X148042380Y-92619047D01*
X148042380Y-92714285D01*
X147137619Y-91904761D02*
X147090000Y-91857142D01*
X147042380Y-91761904D01*
X147042380Y-91523809D01*
X147090000Y-91428571D01*
X147137619Y-91380952D01*
X147232857Y-91333333D01*
X147328095Y-91333333D01*
X147470952Y-91380952D01*
X148042380Y-91952380D01*
X148042380Y-91333333D01*
%TO.C,J1*%
X165929880Y-103833333D02*
X166644166Y-103833333D01*
X166787023Y-103880952D01*
X166882261Y-103976190D01*
X166929880Y-104119047D01*
X166929880Y-104214285D01*
X166929880Y-102833333D02*
X166929880Y-103404761D01*
X166929880Y-103119047D02*
X165929880Y-103119047D01*
X166072738Y-103214285D01*
X166167976Y-103309523D01*
X166215595Y-103404761D01*
%TO.C,C26*%
X177357142Y-114642857D02*
X177404761Y-114690476D01*
X177452380Y-114833333D01*
X177452380Y-114928571D01*
X177404761Y-115071428D01*
X177309523Y-115166666D01*
X177214285Y-115214285D01*
X177023809Y-115261904D01*
X176880952Y-115261904D01*
X176690476Y-115214285D01*
X176595238Y-115166666D01*
X176500000Y-115071428D01*
X176452380Y-114928571D01*
X176452380Y-114833333D01*
X176500000Y-114690476D01*
X176547619Y-114642857D01*
X176547619Y-114261904D02*
X176500000Y-114214285D01*
X176452380Y-114119047D01*
X176452380Y-113880952D01*
X176500000Y-113785714D01*
X176547619Y-113738095D01*
X176642857Y-113690476D01*
X176738095Y-113690476D01*
X176880952Y-113738095D01*
X177452380Y-114309523D01*
X177452380Y-113690476D01*
X176452380Y-112833333D02*
X176452380Y-113023809D01*
X176500000Y-113119047D01*
X176547619Y-113166666D01*
X176690476Y-113261904D01*
X176880952Y-113309523D01*
X177261904Y-113309523D01*
X177357142Y-113261904D01*
X177404761Y-113214285D01*
X177452380Y-113119047D01*
X177452380Y-112928571D01*
X177404761Y-112833333D01*
X177357142Y-112785714D01*
X177261904Y-112738095D01*
X177023809Y-112738095D01*
X176928571Y-112785714D01*
X176880952Y-112833333D01*
X176833333Y-112928571D01*
X176833333Y-113119047D01*
X176880952Y-113214285D01*
X176928571Y-113261904D01*
X177023809Y-113309523D01*
%TO.C,C25*%
X238107142Y-116642857D02*
X238154761Y-116690476D01*
X238202380Y-116833333D01*
X238202380Y-116928571D01*
X238154761Y-117071428D01*
X238059523Y-117166666D01*
X237964285Y-117214285D01*
X237773809Y-117261904D01*
X237630952Y-117261904D01*
X237440476Y-117214285D01*
X237345238Y-117166666D01*
X237250000Y-117071428D01*
X237202380Y-116928571D01*
X237202380Y-116833333D01*
X237250000Y-116690476D01*
X237297619Y-116642857D01*
X237297619Y-116261904D02*
X237250000Y-116214285D01*
X237202380Y-116119047D01*
X237202380Y-115880952D01*
X237250000Y-115785714D01*
X237297619Y-115738095D01*
X237392857Y-115690476D01*
X237488095Y-115690476D01*
X237630952Y-115738095D01*
X238202380Y-116309523D01*
X238202380Y-115690476D01*
X237202380Y-114785714D02*
X237202380Y-115261904D01*
X237678571Y-115309523D01*
X237630952Y-115261904D01*
X237583333Y-115166666D01*
X237583333Y-114928571D01*
X237630952Y-114833333D01*
X237678571Y-114785714D01*
X237773809Y-114738095D01*
X238011904Y-114738095D01*
X238107142Y-114785714D01*
X238154761Y-114833333D01*
X238202380Y-114928571D01*
X238202380Y-115166666D01*
X238154761Y-115261904D01*
X238107142Y-115309523D01*
%TO.C,C24*%
X226107142Y-103642857D02*
X226154761Y-103690476D01*
X226202380Y-103833333D01*
X226202380Y-103928571D01*
X226154761Y-104071428D01*
X226059523Y-104166666D01*
X225964285Y-104214285D01*
X225773809Y-104261904D01*
X225630952Y-104261904D01*
X225440476Y-104214285D01*
X225345238Y-104166666D01*
X225250000Y-104071428D01*
X225202380Y-103928571D01*
X225202380Y-103833333D01*
X225250000Y-103690476D01*
X225297619Y-103642857D01*
X225297619Y-103261904D02*
X225250000Y-103214285D01*
X225202380Y-103119047D01*
X225202380Y-102880952D01*
X225250000Y-102785714D01*
X225297619Y-102738095D01*
X225392857Y-102690476D01*
X225488095Y-102690476D01*
X225630952Y-102738095D01*
X226202380Y-103309523D01*
X226202380Y-102690476D01*
X225535714Y-101833333D02*
X226202380Y-101833333D01*
X225154761Y-102071428D02*
X225869047Y-102309523D01*
X225869047Y-101690476D01*
%TO.C,C22*%
X200357142Y-121357142D02*
X200309523Y-121404761D01*
X200166666Y-121452380D01*
X200071428Y-121452380D01*
X199928571Y-121404761D01*
X199833333Y-121309523D01*
X199785714Y-121214285D01*
X199738095Y-121023809D01*
X199738095Y-120880952D01*
X199785714Y-120690476D01*
X199833333Y-120595238D01*
X199928571Y-120500000D01*
X200071428Y-120452380D01*
X200166666Y-120452380D01*
X200309523Y-120500000D01*
X200357142Y-120547619D01*
X200738095Y-120547619D02*
X200785714Y-120500000D01*
X200880952Y-120452380D01*
X201119047Y-120452380D01*
X201214285Y-120500000D01*
X201261904Y-120547619D01*
X201309523Y-120642857D01*
X201309523Y-120738095D01*
X201261904Y-120880952D01*
X200690476Y-121452380D01*
X201309523Y-121452380D01*
X201690476Y-120547619D02*
X201738095Y-120500000D01*
X201833333Y-120452380D01*
X202071428Y-120452380D01*
X202166666Y-120500000D01*
X202214285Y-120547619D01*
X202261904Y-120642857D01*
X202261904Y-120738095D01*
X202214285Y-120880952D01*
X201642857Y-121452380D01*
X202261904Y-121452380D01*
%TO.C,C21*%
X200357142Y-104357142D02*
X200309523Y-104404761D01*
X200166666Y-104452380D01*
X200071428Y-104452380D01*
X199928571Y-104404761D01*
X199833333Y-104309523D01*
X199785714Y-104214285D01*
X199738095Y-104023809D01*
X199738095Y-103880952D01*
X199785714Y-103690476D01*
X199833333Y-103595238D01*
X199928571Y-103500000D01*
X200071428Y-103452380D01*
X200166666Y-103452380D01*
X200309523Y-103500000D01*
X200357142Y-103547619D01*
X200738095Y-103547619D02*
X200785714Y-103500000D01*
X200880952Y-103452380D01*
X201119047Y-103452380D01*
X201214285Y-103500000D01*
X201261904Y-103547619D01*
X201309523Y-103642857D01*
X201309523Y-103738095D01*
X201261904Y-103880952D01*
X200690476Y-104452380D01*
X201309523Y-104452380D01*
X202261904Y-104452380D02*
X201690476Y-104452380D01*
X201976190Y-104452380D02*
X201976190Y-103452380D01*
X201880952Y-103595238D01*
X201785714Y-103690476D01*
X201690476Y-103738095D01*
%TO.C,C20*%
X189357142Y-121357142D02*
X189309523Y-121404761D01*
X189166666Y-121452380D01*
X189071428Y-121452380D01*
X188928571Y-121404761D01*
X188833333Y-121309523D01*
X188785714Y-121214285D01*
X188738095Y-121023809D01*
X188738095Y-120880952D01*
X188785714Y-120690476D01*
X188833333Y-120595238D01*
X188928571Y-120500000D01*
X189071428Y-120452380D01*
X189166666Y-120452380D01*
X189309523Y-120500000D01*
X189357142Y-120547619D01*
X189738095Y-120547619D02*
X189785714Y-120500000D01*
X189880952Y-120452380D01*
X190119047Y-120452380D01*
X190214285Y-120500000D01*
X190261904Y-120547619D01*
X190309523Y-120642857D01*
X190309523Y-120738095D01*
X190261904Y-120880952D01*
X189690476Y-121452380D01*
X190309523Y-121452380D01*
X190928571Y-120452380D02*
X191023809Y-120452380D01*
X191119047Y-120500000D01*
X191166666Y-120547619D01*
X191214285Y-120642857D01*
X191261904Y-120833333D01*
X191261904Y-121071428D01*
X191214285Y-121261904D01*
X191166666Y-121357142D01*
X191119047Y-121404761D01*
X191023809Y-121452380D01*
X190928571Y-121452380D01*
X190833333Y-121404761D01*
X190785714Y-121357142D01*
X190738095Y-121261904D01*
X190690476Y-121071428D01*
X190690476Y-120833333D01*
X190738095Y-120642857D01*
X190785714Y-120547619D01*
X190833333Y-120500000D01*
X190928571Y-120452380D01*
%TO.C,C19*%
X189357142Y-104357142D02*
X189309523Y-104404761D01*
X189166666Y-104452380D01*
X189071428Y-104452380D01*
X188928571Y-104404761D01*
X188833333Y-104309523D01*
X188785714Y-104214285D01*
X188738095Y-104023809D01*
X188738095Y-103880952D01*
X188785714Y-103690476D01*
X188833333Y-103595238D01*
X188928571Y-103500000D01*
X189071428Y-103452380D01*
X189166666Y-103452380D01*
X189309523Y-103500000D01*
X189357142Y-103547619D01*
X190309523Y-104452380D02*
X189738095Y-104452380D01*
X190023809Y-104452380D02*
X190023809Y-103452380D01*
X189928571Y-103595238D01*
X189833333Y-103690476D01*
X189738095Y-103738095D01*
X190785714Y-104452380D02*
X190976190Y-104452380D01*
X191071428Y-104404761D01*
X191119047Y-104357142D01*
X191214285Y-104214285D01*
X191261904Y-104023809D01*
X191261904Y-103642857D01*
X191214285Y-103547619D01*
X191166666Y-103500000D01*
X191071428Y-103452380D01*
X190880952Y-103452380D01*
X190785714Y-103500000D01*
X190738095Y-103547619D01*
X190690476Y-103642857D01*
X190690476Y-103880952D01*
X190738095Y-103976190D01*
X190785714Y-104023809D01*
X190880952Y-104071428D01*
X191071428Y-104071428D01*
X191166666Y-104023809D01*
X191214285Y-103976190D01*
X191261904Y-103880952D01*
%TO.C,C18*%
X238107142Y-90642857D02*
X238154761Y-90690476D01*
X238202380Y-90833333D01*
X238202380Y-90928571D01*
X238154761Y-91071428D01*
X238059523Y-91166666D01*
X237964285Y-91214285D01*
X237773809Y-91261904D01*
X237630952Y-91261904D01*
X237440476Y-91214285D01*
X237345238Y-91166666D01*
X237250000Y-91071428D01*
X237202380Y-90928571D01*
X237202380Y-90833333D01*
X237250000Y-90690476D01*
X237297619Y-90642857D01*
X238202380Y-89690476D02*
X238202380Y-90261904D01*
X238202380Y-89976190D02*
X237202380Y-89976190D01*
X237345238Y-90071428D01*
X237440476Y-90166666D01*
X237488095Y-90261904D01*
X237630952Y-89119047D02*
X237583333Y-89214285D01*
X237535714Y-89261904D01*
X237440476Y-89309523D01*
X237392857Y-89309523D01*
X237297619Y-89261904D01*
X237250000Y-89214285D01*
X237202380Y-89119047D01*
X237202380Y-88928571D01*
X237250000Y-88833333D01*
X237297619Y-88785714D01*
X237392857Y-88738095D01*
X237440476Y-88738095D01*
X237535714Y-88785714D01*
X237583333Y-88833333D01*
X237630952Y-88928571D01*
X237630952Y-89119047D01*
X237678571Y-89214285D01*
X237726190Y-89261904D01*
X237821428Y-89309523D01*
X238011904Y-89309523D01*
X238107142Y-89261904D01*
X238154761Y-89214285D01*
X238202380Y-89119047D01*
X238202380Y-88928571D01*
X238154761Y-88833333D01*
X238107142Y-88785714D01*
X238011904Y-88738095D01*
X237821428Y-88738095D01*
X237726190Y-88785714D01*
X237678571Y-88833333D01*
X237630952Y-88928571D01*
%TO.C,C17*%
X226107142Y-77642857D02*
X226154761Y-77690476D01*
X226202380Y-77833333D01*
X226202380Y-77928571D01*
X226154761Y-78071428D01*
X226059523Y-78166666D01*
X225964285Y-78214285D01*
X225773809Y-78261904D01*
X225630952Y-78261904D01*
X225440476Y-78214285D01*
X225345238Y-78166666D01*
X225250000Y-78071428D01*
X225202380Y-77928571D01*
X225202380Y-77833333D01*
X225250000Y-77690476D01*
X225297619Y-77642857D01*
X226202380Y-76690476D02*
X226202380Y-77261904D01*
X226202380Y-76976190D02*
X225202380Y-76976190D01*
X225345238Y-77071428D01*
X225440476Y-77166666D01*
X225488095Y-77261904D01*
X225202380Y-76357142D02*
X225202380Y-75690476D01*
X226202380Y-76119047D01*
%TO.C,C16*%
X238107142Y-64642857D02*
X238154761Y-64690476D01*
X238202380Y-64833333D01*
X238202380Y-64928571D01*
X238154761Y-65071428D01*
X238059523Y-65166666D01*
X237964285Y-65214285D01*
X237773809Y-65261904D01*
X237630952Y-65261904D01*
X237440476Y-65214285D01*
X237345238Y-65166666D01*
X237250000Y-65071428D01*
X237202380Y-64928571D01*
X237202380Y-64833333D01*
X237250000Y-64690476D01*
X237297619Y-64642857D01*
X238202380Y-63690476D02*
X238202380Y-64261904D01*
X238202380Y-63976190D02*
X237202380Y-63976190D01*
X237345238Y-64071428D01*
X237440476Y-64166666D01*
X237488095Y-64261904D01*
X237202380Y-62833333D02*
X237202380Y-63023809D01*
X237250000Y-63119047D01*
X237297619Y-63166666D01*
X237440476Y-63261904D01*
X237630952Y-63309523D01*
X238011904Y-63309523D01*
X238107142Y-63261904D01*
X238154761Y-63214285D01*
X238202380Y-63119047D01*
X238202380Y-62928571D01*
X238154761Y-62833333D01*
X238107142Y-62785714D01*
X238011904Y-62738095D01*
X237773809Y-62738095D01*
X237678571Y-62785714D01*
X237630952Y-62833333D01*
X237583333Y-62928571D01*
X237583333Y-63119047D01*
X237630952Y-63214285D01*
X237678571Y-63261904D01*
X237773809Y-63309523D01*
%TO.C,C15*%
X226107142Y-51642857D02*
X226154761Y-51690476D01*
X226202380Y-51833333D01*
X226202380Y-51928571D01*
X226154761Y-52071428D01*
X226059523Y-52166666D01*
X225964285Y-52214285D01*
X225773809Y-52261904D01*
X225630952Y-52261904D01*
X225440476Y-52214285D01*
X225345238Y-52166666D01*
X225250000Y-52071428D01*
X225202380Y-51928571D01*
X225202380Y-51833333D01*
X225250000Y-51690476D01*
X225297619Y-51642857D01*
X226202380Y-50690476D02*
X226202380Y-51261904D01*
X226202380Y-50976190D02*
X225202380Y-50976190D01*
X225345238Y-51071428D01*
X225440476Y-51166666D01*
X225488095Y-51261904D01*
X225202380Y-49785714D02*
X225202380Y-50261904D01*
X225678571Y-50309523D01*
X225630952Y-50261904D01*
X225583333Y-50166666D01*
X225583333Y-49928571D01*
X225630952Y-49833333D01*
X225678571Y-49785714D01*
X225773809Y-49738095D01*
X226011904Y-49738095D01*
X226107142Y-49785714D01*
X226154761Y-49833333D01*
X226202380Y-49928571D01*
X226202380Y-50166666D01*
X226154761Y-50261904D01*
X226107142Y-50309523D01*
%TO.C,C13*%
X200357142Y-95357142D02*
X200309523Y-95404761D01*
X200166666Y-95452380D01*
X200071428Y-95452380D01*
X199928571Y-95404761D01*
X199833333Y-95309523D01*
X199785714Y-95214285D01*
X199738095Y-95023809D01*
X199738095Y-94880952D01*
X199785714Y-94690476D01*
X199833333Y-94595238D01*
X199928571Y-94500000D01*
X200071428Y-94452380D01*
X200166666Y-94452380D01*
X200309523Y-94500000D01*
X200357142Y-94547619D01*
X201309523Y-95452380D02*
X200738095Y-95452380D01*
X201023809Y-95452380D02*
X201023809Y-94452380D01*
X200928571Y-94595238D01*
X200833333Y-94690476D01*
X200738095Y-94738095D01*
X201642857Y-94452380D02*
X202261904Y-94452380D01*
X201928571Y-94833333D01*
X202071428Y-94833333D01*
X202166666Y-94880952D01*
X202214285Y-94928571D01*
X202261904Y-95023809D01*
X202261904Y-95261904D01*
X202214285Y-95357142D01*
X202166666Y-95404761D01*
X202071428Y-95452380D01*
X201785714Y-95452380D01*
X201690476Y-95404761D01*
X201642857Y-95357142D01*
%TO.C,C12*%
X200357142Y-78357142D02*
X200309523Y-78404761D01*
X200166666Y-78452380D01*
X200071428Y-78452380D01*
X199928571Y-78404761D01*
X199833333Y-78309523D01*
X199785714Y-78214285D01*
X199738095Y-78023809D01*
X199738095Y-77880952D01*
X199785714Y-77690476D01*
X199833333Y-77595238D01*
X199928571Y-77500000D01*
X200071428Y-77452380D01*
X200166666Y-77452380D01*
X200309523Y-77500000D01*
X200357142Y-77547619D01*
X201309523Y-78452380D02*
X200738095Y-78452380D01*
X201023809Y-78452380D02*
X201023809Y-77452380D01*
X200928571Y-77595238D01*
X200833333Y-77690476D01*
X200738095Y-77738095D01*
X201690476Y-77547619D02*
X201738095Y-77500000D01*
X201833333Y-77452380D01*
X202071428Y-77452380D01*
X202166666Y-77500000D01*
X202214285Y-77547619D01*
X202261904Y-77642857D01*
X202261904Y-77738095D01*
X202214285Y-77880952D01*
X201642857Y-78452380D01*
X202261904Y-78452380D01*
%TO.C,C11*%
X200357142Y-69357142D02*
X200309523Y-69404761D01*
X200166666Y-69452380D01*
X200071428Y-69452380D01*
X199928571Y-69404761D01*
X199833333Y-69309523D01*
X199785714Y-69214285D01*
X199738095Y-69023809D01*
X199738095Y-68880952D01*
X199785714Y-68690476D01*
X199833333Y-68595238D01*
X199928571Y-68500000D01*
X200071428Y-68452380D01*
X200166666Y-68452380D01*
X200309523Y-68500000D01*
X200357142Y-68547619D01*
X201309523Y-69452380D02*
X200738095Y-69452380D01*
X201023809Y-69452380D02*
X201023809Y-68452380D01*
X200928571Y-68595238D01*
X200833333Y-68690476D01*
X200738095Y-68738095D01*
X202261904Y-69452380D02*
X201690476Y-69452380D01*
X201976190Y-69452380D02*
X201976190Y-68452380D01*
X201880952Y-68595238D01*
X201785714Y-68690476D01*
X201690476Y-68738095D01*
%TO.C,C10*%
X200357142Y-49857142D02*
X200309523Y-49904761D01*
X200166666Y-49952380D01*
X200071428Y-49952380D01*
X199928571Y-49904761D01*
X199833333Y-49809523D01*
X199785714Y-49714285D01*
X199738095Y-49523809D01*
X199738095Y-49380952D01*
X199785714Y-49190476D01*
X199833333Y-49095238D01*
X199928571Y-49000000D01*
X200071428Y-48952380D01*
X200166666Y-48952380D01*
X200309523Y-49000000D01*
X200357142Y-49047619D01*
X201309523Y-49952380D02*
X200738095Y-49952380D01*
X201023809Y-49952380D02*
X201023809Y-48952380D01*
X200928571Y-49095238D01*
X200833333Y-49190476D01*
X200738095Y-49238095D01*
X201928571Y-48952380D02*
X202023809Y-48952380D01*
X202119047Y-49000000D01*
X202166666Y-49047619D01*
X202214285Y-49142857D01*
X202261904Y-49333333D01*
X202261904Y-49571428D01*
X202214285Y-49761904D01*
X202166666Y-49857142D01*
X202119047Y-49904761D01*
X202023809Y-49952380D01*
X201928571Y-49952380D01*
X201833333Y-49904761D01*
X201785714Y-49857142D01*
X201738095Y-49761904D01*
X201690476Y-49571428D01*
X201690476Y-49333333D01*
X201738095Y-49142857D01*
X201785714Y-49047619D01*
X201833333Y-49000000D01*
X201928571Y-48952380D01*
%TO.C,C8*%
X189833333Y-95357142D02*
X189785714Y-95404761D01*
X189642857Y-95452380D01*
X189547619Y-95452380D01*
X189404761Y-95404761D01*
X189309523Y-95309523D01*
X189261904Y-95214285D01*
X189214285Y-95023809D01*
X189214285Y-94880952D01*
X189261904Y-94690476D01*
X189309523Y-94595238D01*
X189404761Y-94500000D01*
X189547619Y-94452380D01*
X189642857Y-94452380D01*
X189785714Y-94500000D01*
X189833333Y-94547619D01*
X190404761Y-94880952D02*
X190309523Y-94833333D01*
X190261904Y-94785714D01*
X190214285Y-94690476D01*
X190214285Y-94642857D01*
X190261904Y-94547619D01*
X190309523Y-94500000D01*
X190404761Y-94452380D01*
X190595238Y-94452380D01*
X190690476Y-94500000D01*
X190738095Y-94547619D01*
X190785714Y-94642857D01*
X190785714Y-94690476D01*
X190738095Y-94785714D01*
X190690476Y-94833333D01*
X190595238Y-94880952D01*
X190404761Y-94880952D01*
X190309523Y-94928571D01*
X190261904Y-94976190D01*
X190214285Y-95071428D01*
X190214285Y-95261904D01*
X190261904Y-95357142D01*
X190309523Y-95404761D01*
X190404761Y-95452380D01*
X190595238Y-95452380D01*
X190690476Y-95404761D01*
X190738095Y-95357142D01*
X190785714Y-95261904D01*
X190785714Y-95071428D01*
X190738095Y-94976190D01*
X190690476Y-94928571D01*
X190595238Y-94880952D01*
%TO.C,C7*%
X189833333Y-78357142D02*
X189785714Y-78404761D01*
X189642857Y-78452380D01*
X189547619Y-78452380D01*
X189404761Y-78404761D01*
X189309523Y-78309523D01*
X189261904Y-78214285D01*
X189214285Y-78023809D01*
X189214285Y-77880952D01*
X189261904Y-77690476D01*
X189309523Y-77595238D01*
X189404761Y-77500000D01*
X189547619Y-77452380D01*
X189642857Y-77452380D01*
X189785714Y-77500000D01*
X189833333Y-77547619D01*
X190166666Y-77452380D02*
X190833333Y-77452380D01*
X190404761Y-78452380D01*
%TO.C,C6*%
X189833333Y-69357142D02*
X189785714Y-69404761D01*
X189642857Y-69452380D01*
X189547619Y-69452380D01*
X189404761Y-69404761D01*
X189309523Y-69309523D01*
X189261904Y-69214285D01*
X189214285Y-69023809D01*
X189214285Y-68880952D01*
X189261904Y-68690476D01*
X189309523Y-68595238D01*
X189404761Y-68500000D01*
X189547619Y-68452380D01*
X189642857Y-68452380D01*
X189785714Y-68500000D01*
X189833333Y-68547619D01*
X190690476Y-68452380D02*
X190500000Y-68452380D01*
X190404761Y-68500000D01*
X190357142Y-68547619D01*
X190261904Y-68690476D01*
X190214285Y-68880952D01*
X190214285Y-69261904D01*
X190261904Y-69357142D01*
X190309523Y-69404761D01*
X190404761Y-69452380D01*
X190595238Y-69452380D01*
X190690476Y-69404761D01*
X190738095Y-69357142D01*
X190785714Y-69261904D01*
X190785714Y-69023809D01*
X190738095Y-68928571D01*
X190690476Y-68880952D01*
X190595238Y-68833333D01*
X190404761Y-68833333D01*
X190309523Y-68880952D01*
X190261904Y-68928571D01*
X190214285Y-69023809D01*
%TO.C,C5*%
X189833333Y-49857142D02*
X189785714Y-49904761D01*
X189642857Y-49952380D01*
X189547619Y-49952380D01*
X189404761Y-49904761D01*
X189309523Y-49809523D01*
X189261904Y-49714285D01*
X189214285Y-49523809D01*
X189214285Y-49380952D01*
X189261904Y-49190476D01*
X189309523Y-49095238D01*
X189404761Y-49000000D01*
X189547619Y-48952380D01*
X189642857Y-48952380D01*
X189785714Y-49000000D01*
X189833333Y-49047619D01*
X190738095Y-48952380D02*
X190261904Y-48952380D01*
X190214285Y-49428571D01*
X190261904Y-49380952D01*
X190357142Y-49333333D01*
X190595238Y-49333333D01*
X190690476Y-49380952D01*
X190738095Y-49428571D01*
X190785714Y-49523809D01*
X190785714Y-49761904D01*
X190738095Y-49857142D01*
X190690476Y-49904761D01*
X190595238Y-49952380D01*
X190357142Y-49952380D01*
X190261904Y-49904761D01*
X190214285Y-49857142D01*
%TO.C,C4*%
X172357142Y-114166666D02*
X172404761Y-114214285D01*
X172452380Y-114357142D01*
X172452380Y-114452380D01*
X172404761Y-114595238D01*
X172309523Y-114690476D01*
X172214285Y-114738095D01*
X172023809Y-114785714D01*
X171880952Y-114785714D01*
X171690476Y-114738095D01*
X171595238Y-114690476D01*
X171500000Y-114595238D01*
X171452380Y-114452380D01*
X171452380Y-114357142D01*
X171500000Y-114214285D01*
X171547619Y-114166666D01*
X171785714Y-113309523D02*
X172452380Y-113309523D01*
X171404761Y-113547619D02*
X172119047Y-113785714D01*
X172119047Y-113166666D01*
%TO.C,A1*%
X169665714Y-94746666D02*
X170141904Y-94746666D01*
X169570476Y-95032380D02*
X169903809Y-94032380D01*
X170237142Y-95032380D01*
X171094285Y-95032380D02*
X170522857Y-95032380D01*
X170808571Y-95032380D02*
X170808571Y-94032380D01*
X170713333Y-94175238D01*
X170618095Y-94270476D01*
X170522857Y-94318095D01*
D11*
%TO.C,C23*%
X151880000Y-111130000D02*
X151880000Y-113870000D01*
X151880000Y-113870000D02*
X159120000Y-113870000D01*
X151880000Y-111130000D02*
X159120000Y-111130000D01*
X159120000Y-111130000D02*
X159120000Y-113870000D01*
%TO.C,C3*%
X191130000Y-111120000D02*
X193870000Y-111120000D01*
X193870000Y-111120000D02*
X193870000Y-103880000D01*
X191130000Y-111120000D02*
X191130000Y-103880000D01*
X191130000Y-103880000D02*
X193870000Y-103880000D01*
%TO.C,C2*%
X191130000Y-85120000D02*
X193870000Y-85120000D01*
X193870000Y-85120000D02*
X193870000Y-77880000D01*
X191130000Y-85120000D02*
X191130000Y-77880000D01*
X191130000Y-77880000D02*
X193870000Y-77880000D01*
%TO.C,C1*%
X191130000Y-59120000D02*
X193870000Y-59120000D01*
X193870000Y-59120000D02*
X193870000Y-51880000D01*
X191130000Y-59120000D02*
X191130000Y-51880000D01*
X191130000Y-51880000D02*
X193870000Y-51880000D01*
%TO.C,R30*%
X222000000Y-114000000D02*
X222000000Y-117500000D01*
X224620000Y-111380000D02*
G75*
G03*
X224620000Y-111380000I-2620000J0D01*
G01*
%TO.C,R29*%
X222000000Y-101000000D02*
X222000000Y-104500000D01*
X224620000Y-98380000D02*
G75*
G03*
X224620000Y-98380000I-2620000J0D01*
G01*
%TO.C,R20*%
X222000000Y-88000000D02*
X222000000Y-91500000D01*
X224620000Y-85380000D02*
G75*
G03*
X224620000Y-85380000I-2620000J0D01*
G01*
%TO.C,R19*%
X222000000Y-75000000D02*
X222000000Y-78500000D01*
X224620000Y-72380000D02*
G75*
G03*
X224620000Y-72380000I-2620000J0D01*
G01*
%TO.C,R18*%
X224620000Y-59380000D02*
G75*
G03*
X224620000Y-59380000I-2620000J0D01*
G01*
X222000000Y-62000000D02*
X222000000Y-65500000D01*
%TO.C,R17*%
X224620000Y-46380000D02*
G75*
G03*
X224620000Y-46380000I-2620000J0D01*
G01*
X222000000Y-49000000D02*
X222000000Y-52500000D01*
%TO.C,U7*%
X166880000Y-104740000D02*
X177120000Y-104740000D01*
X177120000Y-103230000D02*
X177120000Y-107871000D01*
X166880000Y-107871000D02*
X177120000Y-107871000D01*
X166880000Y-103230000D02*
X166880000Y-107871000D01*
X173851000Y-103230000D02*
X173851000Y-104740000D01*
X170150000Y-103230000D02*
X170150000Y-104740000D01*
X166880000Y-103230000D02*
X177120000Y-103230000D01*
%TO.C,U3*%
X204950000Y-111460000D02*
X204950000Y-109810000D01*
X204950000Y-106160000D02*
X194670000Y-106160000D01*
X194670000Y-111460000D02*
X204950000Y-111460000D01*
X204950000Y-107810000D02*
X204950000Y-106160000D01*
X194670000Y-106160000D02*
X194670000Y-111460000D01*
X204950000Y-107810000D02*
G75*
G03*
X204950000Y-109810000I0J-1000000D01*
G01*
%TO.C,U2*%
X204950000Y-85340000D02*
X204950000Y-83690000D01*
X204950000Y-80040000D02*
X194670000Y-80040000D01*
X194670000Y-85340000D02*
X204950000Y-85340000D01*
X204950000Y-81690000D02*
X204950000Y-80040000D01*
X194670000Y-80040000D02*
X194670000Y-85340000D01*
X204950000Y-81690000D02*
G75*
G03*
X204950000Y-83690000I0J-1000000D01*
G01*
%TO.C,U1*%
X204950000Y-55690000D02*
G75*
G03*
X204950000Y-57690000I0J-1000000D01*
G01*
X194670000Y-54040000D02*
X194670000Y-59340000D01*
X204950000Y-55690000D02*
X204950000Y-54040000D01*
X194670000Y-59340000D02*
X204950000Y-59340000D01*
X204950000Y-54040000D02*
X194670000Y-54040000D01*
X204950000Y-59340000D02*
X204950000Y-57690000D01*
%TO.C,R28*%
X211270000Y-120580000D02*
X211270000Y-122420000D01*
X211270000Y-122420000D02*
X215110000Y-122420000D01*
X215110000Y-120580000D02*
X211270000Y-120580000D01*
X210320000Y-121500000D02*
X211270000Y-121500000D01*
X215110000Y-122420000D02*
X215110000Y-120580000D01*
X216060000Y-121500000D02*
X215110000Y-121500000D01*
%TO.C,R27*%
X215110000Y-119920000D02*
X215110000Y-118080000D01*
X215110000Y-118080000D02*
X211270000Y-118080000D01*
X211270000Y-119920000D02*
X215110000Y-119920000D01*
X216060000Y-119000000D02*
X215110000Y-119000000D01*
X211270000Y-118080000D02*
X211270000Y-119920000D01*
X210320000Y-119000000D02*
X211270000Y-119000000D01*
%TO.C,R26*%
X211270000Y-107580000D02*
X211270000Y-109420000D01*
X211270000Y-109420000D02*
X215110000Y-109420000D01*
X215110000Y-107580000D02*
X211270000Y-107580000D01*
X210320000Y-108500000D02*
X211270000Y-108500000D01*
X215110000Y-109420000D02*
X215110000Y-107580000D01*
X216060000Y-108500000D02*
X215110000Y-108500000D01*
%TO.C,R25*%
X215110000Y-106920000D02*
X215110000Y-105080000D01*
X215110000Y-105080000D02*
X211270000Y-105080000D01*
X211270000Y-106920000D02*
X215110000Y-106920000D01*
X216060000Y-106000000D02*
X215110000Y-106000000D01*
X211270000Y-105080000D02*
X211270000Y-106920000D01*
X210320000Y-106000000D02*
X211270000Y-106000000D01*
%TO.C,R24*%
X196820000Y-115500000D02*
X197770000Y-115500000D01*
X197770000Y-114580000D02*
X197770000Y-116420000D01*
X202560000Y-115500000D02*
X201610000Y-115500000D01*
X197770000Y-116420000D02*
X201610000Y-116420000D01*
X201610000Y-114580000D02*
X197770000Y-114580000D01*
X201610000Y-116420000D02*
X201610000Y-114580000D01*
%TO.C,R23*%
X196820000Y-98500000D02*
X197770000Y-98500000D01*
X197770000Y-97580000D02*
X197770000Y-99420000D01*
X202560000Y-98500000D02*
X201610000Y-98500000D01*
X197770000Y-99420000D02*
X201610000Y-99420000D01*
X201610000Y-97580000D02*
X197770000Y-97580000D01*
X201610000Y-99420000D02*
X201610000Y-97580000D01*
%TO.C,R22*%
X185820000Y-115500000D02*
X186770000Y-115500000D01*
X186770000Y-114580000D02*
X186770000Y-116420000D01*
X191560000Y-115500000D02*
X190610000Y-115500000D01*
X186770000Y-116420000D02*
X190610000Y-116420000D01*
X190610000Y-114580000D02*
X186770000Y-114580000D01*
X190610000Y-116420000D02*
X190610000Y-114580000D01*
%TO.C,R21*%
X185820000Y-98500000D02*
X186770000Y-98500000D01*
X186770000Y-97580000D02*
X186770000Y-99420000D01*
X191560000Y-98500000D02*
X190610000Y-98500000D01*
X186770000Y-99420000D02*
X190610000Y-99420000D01*
X190610000Y-97580000D02*
X186770000Y-97580000D01*
X190610000Y-99420000D02*
X190610000Y-97580000D01*
%TO.C,R16*%
X216060000Y-95500000D02*
X215110000Y-95500000D01*
X215110000Y-96420000D02*
X215110000Y-94580000D01*
X210320000Y-95500000D02*
X211270000Y-95500000D01*
X215110000Y-94580000D02*
X211270000Y-94580000D01*
X211270000Y-96420000D02*
X215110000Y-96420000D01*
X211270000Y-94580000D02*
X211270000Y-96420000D01*
%TO.C,R15*%
X215110000Y-93920000D02*
X215110000Y-92080000D01*
X215110000Y-92080000D02*
X211270000Y-92080000D01*
X211270000Y-93920000D02*
X215110000Y-93920000D01*
X216060000Y-93000000D02*
X215110000Y-93000000D01*
X211270000Y-92080000D02*
X211270000Y-93920000D01*
X210320000Y-93000000D02*
X211270000Y-93000000D01*
%TO.C,R14*%
X211270000Y-81580000D02*
X211270000Y-83420000D01*
X211270000Y-83420000D02*
X215110000Y-83420000D01*
X215110000Y-81580000D02*
X211270000Y-81580000D01*
X210320000Y-82500000D02*
X211270000Y-82500000D01*
X215110000Y-83420000D02*
X215110000Y-81580000D01*
X216060000Y-82500000D02*
X215110000Y-82500000D01*
%TO.C,R13*%
X215110000Y-80920000D02*
X215110000Y-79080000D01*
X215110000Y-79080000D02*
X211270000Y-79080000D01*
X211270000Y-80920000D02*
X215110000Y-80920000D01*
X216060000Y-80000000D02*
X215110000Y-80000000D01*
X211270000Y-79080000D02*
X211270000Y-80920000D01*
X210320000Y-80000000D02*
X211270000Y-80000000D01*
%TO.C,R12*%
X211270000Y-68580000D02*
X211270000Y-70420000D01*
X211270000Y-70420000D02*
X215110000Y-70420000D01*
X215110000Y-68580000D02*
X211270000Y-68580000D01*
X210320000Y-69500000D02*
X211270000Y-69500000D01*
X215110000Y-70420000D02*
X215110000Y-68580000D01*
X216060000Y-69500000D02*
X215110000Y-69500000D01*
%TO.C,R11*%
X215110000Y-67920000D02*
X215110000Y-66080000D01*
X215110000Y-66080000D02*
X211270000Y-66080000D01*
X211270000Y-67920000D02*
X215110000Y-67920000D01*
X216060000Y-67000000D02*
X215110000Y-67000000D01*
X211270000Y-66080000D02*
X211270000Y-67920000D01*
X210320000Y-67000000D02*
X211270000Y-67000000D01*
%TO.C,R10*%
X211270000Y-55580000D02*
X211270000Y-57420000D01*
X211270000Y-57420000D02*
X215110000Y-57420000D01*
X215110000Y-55580000D02*
X211270000Y-55580000D01*
X210320000Y-56500000D02*
X211270000Y-56500000D01*
X215110000Y-57420000D02*
X215110000Y-55580000D01*
X216060000Y-56500000D02*
X215110000Y-56500000D01*
%TO.C,R9*%
X215110000Y-54920000D02*
X215110000Y-53080000D01*
X215110000Y-53080000D02*
X211270000Y-53080000D01*
X211270000Y-54920000D02*
X215110000Y-54920000D01*
X216060000Y-54000000D02*
X215110000Y-54000000D01*
X211270000Y-53080000D02*
X211270000Y-54920000D01*
X210320000Y-54000000D02*
X211270000Y-54000000D01*
%TO.C,R8*%
X201610000Y-90420000D02*
X201610000Y-88580000D01*
X201610000Y-88580000D02*
X197770000Y-88580000D01*
X197770000Y-90420000D02*
X201610000Y-90420000D01*
X202560000Y-89500000D02*
X201610000Y-89500000D01*
X197770000Y-88580000D02*
X197770000Y-90420000D01*
X196820000Y-89500000D02*
X197770000Y-89500000D01*
%TO.C,R7*%
X196820000Y-72500000D02*
X197770000Y-72500000D01*
X197770000Y-71580000D02*
X197770000Y-73420000D01*
X202560000Y-72500000D02*
X201610000Y-72500000D01*
X197770000Y-73420000D02*
X201610000Y-73420000D01*
X201610000Y-71580000D02*
X197770000Y-71580000D01*
X201610000Y-73420000D02*
X201610000Y-71580000D01*
%TO.C,R6*%
X196820000Y-63500000D02*
X197770000Y-63500000D01*
X197770000Y-62580000D02*
X197770000Y-64420000D01*
X202560000Y-63500000D02*
X201610000Y-63500000D01*
X197770000Y-64420000D02*
X201610000Y-64420000D01*
X201610000Y-62580000D02*
X197770000Y-62580000D01*
X201610000Y-64420000D02*
X201610000Y-62580000D01*
%TO.C,R5*%
X201610000Y-47420000D02*
X201610000Y-45580000D01*
X201610000Y-45580000D02*
X197770000Y-45580000D01*
X197770000Y-47420000D02*
X201610000Y-47420000D01*
X202560000Y-46500000D02*
X201610000Y-46500000D01*
X197770000Y-45580000D02*
X197770000Y-47420000D01*
X196820000Y-46500000D02*
X197770000Y-46500000D01*
%TO.C,R4*%
X190610000Y-90420000D02*
X190610000Y-88580000D01*
X190610000Y-88580000D02*
X186770000Y-88580000D01*
X186770000Y-90420000D02*
X190610000Y-90420000D01*
X191560000Y-89500000D02*
X190610000Y-89500000D01*
X186770000Y-88580000D02*
X186770000Y-90420000D01*
X185820000Y-89500000D02*
X186770000Y-89500000D01*
%TO.C,R3*%
X185820000Y-72500000D02*
X186770000Y-72500000D01*
X186770000Y-71580000D02*
X186770000Y-73420000D01*
X191560000Y-72500000D02*
X190610000Y-72500000D01*
X186770000Y-73420000D02*
X190610000Y-73420000D01*
X190610000Y-71580000D02*
X186770000Y-71580000D01*
X190610000Y-73420000D02*
X190610000Y-71580000D01*
%TO.C,R2*%
X185820000Y-63500000D02*
X186770000Y-63500000D01*
X186770000Y-62580000D02*
X186770000Y-64420000D01*
X191560000Y-63500000D02*
X190610000Y-63500000D01*
X186770000Y-64420000D02*
X190610000Y-64420000D01*
X190610000Y-62580000D02*
X186770000Y-62580000D01*
X190610000Y-64420000D02*
X190610000Y-62580000D01*
%TO.C,R1*%
X190610000Y-47420000D02*
X190610000Y-45580000D01*
X190610000Y-45580000D02*
X186770000Y-45580000D01*
X186770000Y-47420000D02*
X190610000Y-47420000D01*
X191560000Y-46500000D02*
X190610000Y-46500000D01*
X186770000Y-45580000D02*
X186770000Y-47420000D01*
X185820000Y-46500000D02*
X186770000Y-46500000D01*
%TO.C,Q6*%
X211430000Y-115850000D02*
X215030000Y-115850000D01*
X215068478Y-115838478D02*
G75*
G03*
X213230000Y-111400000I-1838478J1838478D01*
G01*
X213230000Y-111399999D02*
G75*
G03*
X211391522Y-115838478I0J-2600001D01*
G01*
%TO.C,Q5*%
X211430000Y-102850000D02*
X215030000Y-102850000D01*
X215068478Y-102838478D02*
G75*
G03*
X213230000Y-98400000I-1838478J1838478D01*
G01*
X213230000Y-98399999D02*
G75*
G03*
X211391522Y-102838478I0J-2600001D01*
G01*
%TO.C,Q4*%
X211430000Y-89850000D02*
X215030000Y-89850000D01*
X215068478Y-89838478D02*
G75*
G03*
X213230000Y-85400000I-1838478J1838478D01*
G01*
X213230000Y-85399999D02*
G75*
G03*
X211391522Y-89838478I0J-2600001D01*
G01*
%TO.C,Q3*%
X211430000Y-76850000D02*
X215030000Y-76850000D01*
X215068478Y-76838478D02*
G75*
G03*
X213230000Y-72400000I-1838478J1838478D01*
G01*
X213230000Y-72399999D02*
G75*
G03*
X211391522Y-76838478I0J-2600001D01*
G01*
%TO.C,Q2*%
X211430000Y-63850000D02*
X215030000Y-63850000D01*
X215068478Y-63838478D02*
G75*
G03*
X213230000Y-59400000I-1838478J1838478D01*
G01*
X213230000Y-59399999D02*
G75*
G03*
X211391522Y-63838478I0J-2600001D01*
G01*
%TO.C,Q1*%
X211430000Y-50850000D02*
X215030000Y-50850000D01*
X215068478Y-50838478D02*
G75*
G03*
X213230000Y-46400000I-1838478J1838478D01*
G01*
X213230000Y-46399999D02*
G75*
G03*
X211391522Y-50838478I0J-2600001D01*
G01*
%TO.C,J9*%
X256312500Y-118240000D02*
X256912500Y-118540000D01*
X269332500Y-122190000D02*
X269332500Y-109810000D01*
X269332500Y-117540000D02*
X267832500Y-117790000D01*
X267832500Y-117790000D02*
X267832500Y-119290000D01*
X266032500Y-109810000D02*
X267832500Y-109810000D01*
X256312500Y-118840000D02*
X256312500Y-118240000D01*
X257112500Y-122190000D02*
X269332500Y-122190000D01*
X267832500Y-114210000D02*
X269332500Y-114460000D01*
X256912500Y-118540000D02*
X256312500Y-118840000D01*
X267832500Y-122190000D02*
X266032500Y-122190000D01*
X269332500Y-109810000D02*
X257112500Y-109810000D01*
X267832500Y-119290000D02*
X269332500Y-119540000D01*
X269332500Y-114460000D02*
X269332500Y-112460000D01*
X257112500Y-109810000D02*
X257112500Y-122190000D01*
X267832500Y-109810000D02*
X267832500Y-122190000D01*
X267832500Y-112710000D02*
X267832500Y-114210000D01*
X269332500Y-119540000D02*
X269332500Y-117540000D01*
X266032500Y-122190000D02*
X266032500Y-109810000D01*
X269332500Y-112460000D02*
X267832500Y-112710000D01*
%TO.C,J8*%
X256312500Y-105240000D02*
X256912500Y-105540000D01*
X269332500Y-109190000D02*
X269332500Y-96810000D01*
X269332500Y-104540000D02*
X267832500Y-104790000D01*
X267832500Y-104790000D02*
X267832500Y-106290000D01*
X266032500Y-96810000D02*
X267832500Y-96810000D01*
X256312500Y-105840000D02*
X256312500Y-105240000D01*
X257112500Y-109190000D02*
X269332500Y-109190000D01*
X267832500Y-101210000D02*
X269332500Y-101460000D01*
X256912500Y-105540000D02*
X256312500Y-105840000D01*
X267832500Y-109190000D02*
X266032500Y-109190000D01*
X269332500Y-96810000D02*
X257112500Y-96810000D01*
X267832500Y-106290000D02*
X269332500Y-106540000D01*
X269332500Y-101460000D02*
X269332500Y-99460000D01*
X257112500Y-96810000D02*
X257112500Y-109190000D01*
X267832500Y-96810000D02*
X267832500Y-109190000D01*
X267832500Y-99710000D02*
X267832500Y-101210000D01*
X269332500Y-106540000D02*
X269332500Y-104540000D01*
X266032500Y-109190000D02*
X266032500Y-96810000D01*
X269332500Y-99460000D02*
X267832500Y-99710000D01*
%TO.C,J7*%
X256312500Y-92240000D02*
X256912500Y-92540000D01*
X269332500Y-96190000D02*
X269332500Y-83810000D01*
X269332500Y-91540000D02*
X267832500Y-91790000D01*
X267832500Y-91790000D02*
X267832500Y-93290000D01*
X266032500Y-83810000D02*
X267832500Y-83810000D01*
X256312500Y-92840000D02*
X256312500Y-92240000D01*
X257112500Y-96190000D02*
X269332500Y-96190000D01*
X267832500Y-88210000D02*
X269332500Y-88460000D01*
X256912500Y-92540000D02*
X256312500Y-92840000D01*
X267832500Y-96190000D02*
X266032500Y-96190000D01*
X269332500Y-83810000D02*
X257112500Y-83810000D01*
X267832500Y-93290000D02*
X269332500Y-93540000D01*
X269332500Y-88460000D02*
X269332500Y-86460000D01*
X257112500Y-83810000D02*
X257112500Y-96190000D01*
X267832500Y-83810000D02*
X267832500Y-96190000D01*
X267832500Y-86710000D02*
X267832500Y-88210000D01*
X269332500Y-93540000D02*
X269332500Y-91540000D01*
X266032500Y-96190000D02*
X266032500Y-83810000D01*
X269332500Y-86460000D02*
X267832500Y-86710000D01*
%TO.C,J6*%
X256312500Y-79240000D02*
X256912500Y-79540000D01*
X269332500Y-83190000D02*
X269332500Y-70810000D01*
X269332500Y-78540000D02*
X267832500Y-78790000D01*
X267832500Y-78790000D02*
X267832500Y-80290000D01*
X266032500Y-70810000D02*
X267832500Y-70810000D01*
X256312500Y-79840000D02*
X256312500Y-79240000D01*
X257112500Y-83190000D02*
X269332500Y-83190000D01*
X267832500Y-75210000D02*
X269332500Y-75460000D01*
X256912500Y-79540000D02*
X256312500Y-79840000D01*
X267832500Y-83190000D02*
X266032500Y-83190000D01*
X269332500Y-70810000D02*
X257112500Y-70810000D01*
X267832500Y-80290000D02*
X269332500Y-80540000D01*
X269332500Y-75460000D02*
X269332500Y-73460000D01*
X257112500Y-70810000D02*
X257112500Y-83190000D01*
X267832500Y-70810000D02*
X267832500Y-83190000D01*
X267832500Y-73710000D02*
X267832500Y-75210000D01*
X269332500Y-80540000D02*
X269332500Y-78540000D01*
X266032500Y-83190000D02*
X266032500Y-70810000D01*
X269332500Y-73460000D02*
X267832500Y-73710000D01*
%TO.C,J5*%
X256312500Y-66240000D02*
X256912500Y-66540000D01*
X269332500Y-70190000D02*
X269332500Y-57810000D01*
X269332500Y-65540000D02*
X267832500Y-65790000D01*
X267832500Y-65790000D02*
X267832500Y-67290000D01*
X266032500Y-57810000D02*
X267832500Y-57810000D01*
X256312500Y-66840000D02*
X256312500Y-66240000D01*
X257112500Y-70190000D02*
X269332500Y-70190000D01*
X267832500Y-62210000D02*
X269332500Y-62460000D01*
X256912500Y-66540000D02*
X256312500Y-66840000D01*
X267832500Y-70190000D02*
X266032500Y-70190000D01*
X269332500Y-57810000D02*
X257112500Y-57810000D01*
X267832500Y-67290000D02*
X269332500Y-67540000D01*
X269332500Y-62460000D02*
X269332500Y-60460000D01*
X257112500Y-57810000D02*
X257112500Y-70190000D01*
X267832500Y-57810000D02*
X267832500Y-70190000D01*
X267832500Y-60710000D02*
X267832500Y-62210000D01*
X269332500Y-67540000D02*
X269332500Y-65540000D01*
X266032500Y-70190000D02*
X266032500Y-57810000D01*
X269332500Y-60460000D02*
X267832500Y-60710000D01*
%TO.C,J4*%
X256312500Y-53240000D02*
X256912500Y-53540000D01*
X269332500Y-57190000D02*
X269332500Y-44810000D01*
X269332500Y-52540000D02*
X267832500Y-52790000D01*
X267832500Y-52790000D02*
X267832500Y-54290000D01*
X266032500Y-44810000D02*
X267832500Y-44810000D01*
X256312500Y-53840000D02*
X256312500Y-53240000D01*
X257112500Y-57190000D02*
X269332500Y-57190000D01*
X267832500Y-49210000D02*
X269332500Y-49460000D01*
X256912500Y-53540000D02*
X256312500Y-53840000D01*
X267832500Y-57190000D02*
X266032500Y-57190000D01*
X269332500Y-44810000D02*
X257112500Y-44810000D01*
X267832500Y-54290000D02*
X269332500Y-54540000D01*
X269332500Y-49460000D02*
X269332500Y-47460000D01*
X257112500Y-44810000D02*
X257112500Y-57190000D01*
X267832500Y-44810000D02*
X267832500Y-57190000D01*
X267832500Y-47710000D02*
X267832500Y-49210000D01*
X269332500Y-54540000D02*
X269332500Y-52540000D01*
X266032500Y-57190000D02*
X266032500Y-44810000D01*
X269332500Y-47460000D02*
X267832500Y-47710000D01*
%TO.C,J3*%
X151190000Y-52670000D02*
X158870000Y-52670000D01*
X149920000Y-55330000D02*
X148590000Y-55330000D01*
X158870000Y-55330000D02*
X158870000Y-52670000D01*
X151190000Y-55330000D02*
X151190000Y-52670000D01*
X148590000Y-55330000D02*
X148590000Y-54000000D01*
X151190000Y-55330000D02*
X158870000Y-55330000D01*
%TO.C,J2*%
X151190000Y-90670000D02*
X158870000Y-90670000D01*
X149920000Y-93330000D02*
X148590000Y-93330000D01*
X158870000Y-93330000D02*
X158870000Y-90670000D01*
X151190000Y-93330000D02*
X151190000Y-90670000D01*
X148590000Y-93330000D02*
X148590000Y-92000000D01*
X151190000Y-93330000D02*
X158870000Y-93330000D01*
%TO.C,J1*%
X161187500Y-101260000D02*
X160587500Y-100960000D01*
X148167500Y-97310000D02*
X148167500Y-109690000D01*
X148167500Y-101960000D02*
X149667500Y-101710000D01*
X149667500Y-101710000D02*
X149667500Y-100210000D01*
X151467500Y-109690000D02*
X149667500Y-109690000D01*
X161187500Y-100660000D02*
X161187500Y-101260000D01*
X160387500Y-97310000D02*
X148167500Y-97310000D01*
X149667500Y-105290000D02*
X148167500Y-105040000D01*
X160587500Y-100960000D02*
X161187500Y-100660000D01*
X149667500Y-97310000D02*
X151467500Y-97310000D01*
X148167500Y-109690000D02*
X160387500Y-109690000D01*
X149667500Y-100210000D02*
X148167500Y-99960000D01*
X148167500Y-105040000D02*
X148167500Y-107040000D01*
X160387500Y-109690000D02*
X160387500Y-97310000D01*
X149667500Y-109690000D02*
X149667500Y-97310000D01*
X149667500Y-106790000D02*
X149667500Y-105290000D01*
X148167500Y-99960000D02*
X148167500Y-101960000D01*
X151467500Y-97310000D02*
X151467500Y-109690000D01*
X148167500Y-107040000D02*
X149667500Y-106790000D01*
%TO.C,C26*%
X175870000Y-117620000D02*
X173130000Y-117620000D01*
X175870000Y-110380000D02*
X175870000Y-117620000D01*
X173130000Y-110380000D02*
X173130000Y-117620000D01*
X175870000Y-110380000D02*
X173130000Y-110380000D01*
%TO.C,C25*%
X255120000Y-116000000D02*
G75*
G03*
X255120000Y-116000000I-8120000J0D01*
G01*
%TO.C,C24*%
X243120000Y-103000000D02*
G75*
G03*
X243120000Y-103000000I-8120000J0D01*
G01*
%TO.C,C22*%
X204620000Y-119870000D02*
X204620000Y-117130000D01*
X204620000Y-117130000D02*
X197380000Y-117130000D01*
X204620000Y-119870000D02*
X197380000Y-119870000D01*
X197380000Y-119870000D02*
X197380000Y-117130000D01*
%TO.C,C21*%
X197380000Y-102870000D02*
X197380000Y-100130000D01*
X204620000Y-102870000D02*
X197380000Y-102870000D01*
X204620000Y-100130000D02*
X197380000Y-100130000D01*
X204620000Y-102870000D02*
X204620000Y-100130000D01*
%TO.C,C20*%
X186380000Y-119870000D02*
X186380000Y-117130000D01*
X193620000Y-119870000D02*
X186380000Y-119870000D01*
X193620000Y-117130000D02*
X186380000Y-117130000D01*
X193620000Y-119870000D02*
X193620000Y-117130000D01*
%TO.C,C19*%
X186380000Y-102870000D02*
X186380000Y-100130000D01*
X193620000Y-102870000D02*
X186380000Y-102870000D01*
X193620000Y-100130000D02*
X186380000Y-100130000D01*
X193620000Y-102870000D02*
X193620000Y-100130000D01*
%TO.C,C18*%
X255120000Y-90000000D02*
G75*
G03*
X255120000Y-90000000I-8120000J0D01*
G01*
%TO.C,C17*%
X243120000Y-77000000D02*
G75*
G03*
X243120000Y-77000000I-8120000J0D01*
G01*
%TO.C,C16*%
X255120000Y-64000000D02*
G75*
G03*
X255120000Y-64000000I-8120000J0D01*
G01*
%TO.C,C15*%
X243120000Y-51000000D02*
G75*
G03*
X243120000Y-51000000I-8120000J0D01*
G01*
%TO.C,C13*%
X204620000Y-93870000D02*
X204620000Y-91130000D01*
X204620000Y-91130000D02*
X197380000Y-91130000D01*
X204620000Y-93870000D02*
X197380000Y-93870000D01*
X197380000Y-93870000D02*
X197380000Y-91130000D01*
%TO.C,C12*%
X197380000Y-76870000D02*
X197380000Y-74130000D01*
X204620000Y-76870000D02*
X197380000Y-76870000D01*
X204620000Y-74130000D02*
X197380000Y-74130000D01*
X204620000Y-76870000D02*
X204620000Y-74130000D01*
%TO.C,C11*%
X197380000Y-67870000D02*
X197380000Y-65130000D01*
X204620000Y-67870000D02*
X197380000Y-67870000D01*
X204620000Y-65130000D02*
X197380000Y-65130000D01*
X204620000Y-67870000D02*
X204620000Y-65130000D01*
%TO.C,C10*%
X204620000Y-50870000D02*
X204620000Y-48130000D01*
X204620000Y-48130000D02*
X197380000Y-48130000D01*
X204620000Y-50870000D02*
X197380000Y-50870000D01*
X197380000Y-50870000D02*
X197380000Y-48130000D01*
%TO.C,C8*%
X193620000Y-93870000D02*
X193620000Y-91130000D01*
X193620000Y-91130000D02*
X186380000Y-91130000D01*
X193620000Y-93870000D02*
X186380000Y-93870000D01*
X186380000Y-93870000D02*
X186380000Y-91130000D01*
%TO.C,C7*%
X186380000Y-76870000D02*
X186380000Y-74130000D01*
X193620000Y-76870000D02*
X186380000Y-76870000D01*
X193620000Y-74130000D02*
X186380000Y-74130000D01*
X193620000Y-76870000D02*
X193620000Y-74130000D01*
%TO.C,C6*%
X186380000Y-67870000D02*
X186380000Y-65130000D01*
X193620000Y-67870000D02*
X186380000Y-67870000D01*
X193620000Y-65130000D02*
X186380000Y-65130000D01*
X193620000Y-67870000D02*
X193620000Y-65130000D01*
%TO.C,C5*%
X193620000Y-50870000D02*
X193620000Y-48130000D01*
X193620000Y-48130000D02*
X186380000Y-48130000D01*
X193620000Y-50870000D02*
X186380000Y-50870000D01*
X186380000Y-50870000D02*
X186380000Y-48130000D01*
%TO.C,C4*%
X170870000Y-110380000D02*
X168130000Y-110380000D01*
X168130000Y-110380000D02*
X168130000Y-117620000D01*
X170870000Y-110380000D02*
X170870000Y-117620000D01*
X170870000Y-117620000D02*
X168130000Y-117620000D01*
%TO.C,A1*%
X176730000Y-90770000D02*
X179400000Y-90770000D01*
X161360000Y-50000000D02*
X161360000Y-93440000D01*
X179400000Y-88230000D02*
X179400000Y-50000000D01*
X176730000Y-52670000D02*
X179400000Y-52670000D01*
X164030000Y-90770000D02*
X164030000Y-52670000D01*
X176730000Y-88230000D02*
X176730000Y-90770000D01*
X164030000Y-52670000D02*
X161360000Y-52670000D01*
X164030000Y-90770000D02*
X161360000Y-90770000D01*
X176730000Y-88230000D02*
X179400000Y-88230000D01*
X161360000Y-93440000D02*
X179400000Y-93440000D01*
X179400000Y-50000000D02*
X161360000Y-50000000D01*
X179400000Y-93440000D02*
X179400000Y-90770000D01*
X176730000Y-88230000D02*
X176730000Y-52670000D01*
%TD*%
M02*
