M48
; DRILL file {KiCad (5.1.10)-1} date 08/17/21 16:02:42
; FORMAT={-:-/ absolute / inch / decimal}
; #@! TF.CreationDate,2021-08-17T16:02:42+03:00
; #@! TF.GenerationSoftware,Kicad,Pcbnew,(5.1.10)-1
; #@! TF.FileFunction,Plated,1,2,PTH
FMAT,2
INCH
T1C0.0394
T2C0.0433
T3C0.0472
T4C0.0512
T5C0.0551
T6C0.1614
%
G90
G05
T1
X3.0746Y-2.95
X3.075Y-2.75
T2
X3.425Y-2.75
X3.425Y-2.85
X3.425Y-2.95
T3
X2.95Y-3.275
X4.05Y-3.275
T4
X2.9638Y-1.8537
X2.9638Y-2.3341
X3.2Y-1.775
X3.4362Y-1.8537
X3.4362Y-2.3341
X3.6526Y-1.85
X3.6526Y-2.3303
X3.8888Y-1.7713
X4.125Y-1.85
X4.125Y-2.3303
T5
X2.725Y-1.825
X2.725Y-2.025
X2.725Y-2.35
X2.725Y-2.5469
X2.725Y-2.875
X2.725Y-3.075
X2.725Y-3.275
T6
X2.9Y-3.75
X3.68Y-3.75
T0
M30
