G04 #@! TF.GenerationSoftware,KiCad,Pcbnew,(5.1.10)-1*
G04 #@! TF.CreationDate,2021-08-17T16:02:48+03:00*
G04 #@! TF.ProjectId,ControlledBlinds,436f6e74-726f-46c6-9c65-64426c696e64,rev?*
G04 #@! TF.SameCoordinates,Original*
G04 #@! TF.FileFunction,Legend,Top*
G04 #@! TF.FilePolarity,Positive*
%FSLAX46Y46*%
G04 Gerber Fmt 4.6, Leading zero omitted, Abs format (unit mm)*
G04 Created by KiCad (PCBNEW (5.1.10)-1) date 2021-08-17 16:02:48*
%MOMM*%
%LPD*%
G01*
G04 APERTURE LIST*
%ADD10C,0.120000*%
%ADD11C,0.150000*%
G04 APERTURE END LIST*
D10*
X82630000Y-47285000D02*
X85780000Y-47285000D01*
X76780000Y-47285000D02*
X79930000Y-47285000D01*
X80280000Y-42175000D02*
X82280000Y-42175000D01*
X80930000Y-47885000D02*
X81630000Y-47885000D01*
X80930000Y-46685000D02*
X80930000Y-47885000D01*
X81630000Y-46685000D02*
X80930000Y-46685000D01*
X81630000Y-47885000D02*
X81630000Y-46685000D01*
X80930000Y-47485000D02*
X81630000Y-47085000D01*
X72930000Y-65135000D02*
X89630000Y-65135000D01*
X72930000Y-42435000D02*
X72930000Y-65135000D01*
X89630000Y-42435000D02*
X72930000Y-42435000D01*
X89630000Y-65135000D02*
X89630000Y-42435000D01*
X75315000Y-76240000D02*
X75175000Y-76360000D01*
X75175000Y-76360000D02*
X75015000Y-76450000D01*
X75015000Y-76450000D02*
X74765000Y-76500000D01*
X74765000Y-76500000D02*
X74505000Y-76470000D01*
X74505000Y-76470000D02*
X74245000Y-76320000D01*
X74245000Y-76320000D02*
X74075000Y-76100000D01*
X74075000Y-76100000D02*
X73995000Y-75810000D01*
X73995000Y-75810000D02*
X74035000Y-75520000D01*
X74035000Y-75520000D02*
X74115000Y-75340000D01*
X74115000Y-75340000D02*
X74265000Y-75210000D01*
X82845000Y-72390000D02*
G75*
G03*
X82845000Y-72390000I-4750000J0D01*
G01*
X71325000Y-56080000D02*
X59105000Y-56080000D01*
X59105000Y-56080000D02*
X59105000Y-68300000D01*
X59105000Y-68300000D02*
X71325000Y-68300000D01*
X71325000Y-68300000D02*
X71325000Y-56080000D01*
X60605000Y-56080000D02*
X62405000Y-56080000D01*
X62405000Y-56080000D02*
X62405000Y-68300000D01*
X62405000Y-68300000D02*
X60605000Y-68300000D01*
X60605000Y-68300000D02*
X60605000Y-56080000D01*
X59105000Y-58690000D02*
X59105000Y-60690000D01*
X59105000Y-60690000D02*
X60605000Y-60440000D01*
X60605000Y-60440000D02*
X60605000Y-58940000D01*
X60605000Y-58940000D02*
X59105000Y-58690000D01*
X59105000Y-63690000D02*
X59105000Y-65690000D01*
X59105000Y-65690000D02*
X60605000Y-65440000D01*
X60605000Y-65440000D02*
X60605000Y-63940000D01*
X60605000Y-63940000D02*
X59105000Y-63690000D01*
X72125000Y-59990000D02*
X71525000Y-59690000D01*
X71525000Y-59690000D02*
X72125000Y-59390000D01*
X72125000Y-59390000D02*
X72125000Y-59990000D01*
X71325000Y-69375000D02*
X59105000Y-69375000D01*
X59105000Y-69375000D02*
X59105000Y-86835000D01*
X59105000Y-86835000D02*
X71325000Y-86835000D01*
X71325000Y-86835000D02*
X71325000Y-69375000D01*
X60605000Y-69375000D02*
X62405000Y-69375000D01*
X62405000Y-69375000D02*
X62405000Y-86835000D01*
X62405000Y-86835000D02*
X60605000Y-86835000D01*
X60605000Y-86835000D02*
X60605000Y-69375000D01*
X59105000Y-72025000D02*
X59105000Y-74025000D01*
X59105000Y-74025000D02*
X60605000Y-73775000D01*
X60605000Y-73775000D02*
X60605000Y-72275000D01*
X60605000Y-72275000D02*
X59105000Y-72025000D01*
X59105000Y-77105000D02*
X59105000Y-79105000D01*
X59105000Y-79105000D02*
X60605000Y-78855000D01*
X60605000Y-78855000D02*
X60605000Y-77355000D01*
X60605000Y-77355000D02*
X59105000Y-77105000D01*
X59105000Y-82185000D02*
X59105000Y-84185000D01*
X59105000Y-84185000D02*
X60605000Y-83935000D01*
X60605000Y-83935000D02*
X60605000Y-82435000D01*
X60605000Y-82435000D02*
X59105000Y-82185000D01*
X72125000Y-73325000D02*
X71525000Y-73025000D01*
X71525000Y-73025000D02*
X72125000Y-72725000D01*
X72125000Y-72725000D02*
X72125000Y-73325000D01*
X107125000Y-65040000D02*
X107125000Y-42340000D01*
X107125000Y-42340000D02*
X90425000Y-42340000D01*
X90425000Y-42340000D02*
X90425000Y-65040000D01*
X90425000Y-65040000D02*
X107125000Y-65040000D01*
X98425000Y-47390000D02*
X99125000Y-46990000D01*
X99125000Y-47790000D02*
X99125000Y-46590000D01*
X99125000Y-46590000D02*
X98425000Y-46590000D01*
X98425000Y-46590000D02*
X98425000Y-47790000D01*
X98425000Y-47790000D02*
X99125000Y-47790000D01*
X97775000Y-42080000D02*
X99775000Y-42080000D01*
X94275000Y-47190000D02*
X97425000Y-47190000D01*
X100125000Y-47190000D02*
X103275000Y-47190000D01*
X71325000Y-42705000D02*
X59105000Y-42705000D01*
X59105000Y-42705000D02*
X59105000Y-55085000D01*
X59105000Y-55085000D02*
X71325000Y-55085000D01*
X71325000Y-55085000D02*
X71325000Y-42705000D01*
X60605000Y-42705000D02*
X62405000Y-42705000D01*
X62405000Y-42705000D02*
X62405000Y-55085000D01*
X62405000Y-55085000D02*
X60605000Y-55085000D01*
X60605000Y-55085000D02*
X60605000Y-42705000D01*
X59105000Y-45355000D02*
X59105000Y-47355000D01*
X59105000Y-47355000D02*
X60605000Y-47105000D01*
X60605000Y-47105000D02*
X60605000Y-45605000D01*
X60605000Y-45605000D02*
X59105000Y-45355000D01*
X59105000Y-50435000D02*
X59105000Y-52435000D01*
X59105000Y-52435000D02*
X60605000Y-52185000D01*
X60605000Y-52185000D02*
X60605000Y-50685000D01*
X60605000Y-50685000D02*
X59105000Y-50435000D01*
X72125000Y-46655000D02*
X71525000Y-46355000D01*
X71525000Y-46355000D02*
X72125000Y-46055000D01*
X72125000Y-46055000D02*
X72125000Y-46655000D01*
X76280000Y-81745000D02*
X76280000Y-79865000D01*
X76280000Y-79865000D02*
X101520000Y-79865000D01*
X101520000Y-79865000D02*
X101520000Y-81745000D01*
X76280000Y-84625000D02*
X76280000Y-86505000D01*
X76280000Y-86505000D02*
X101520000Y-86505000D01*
X101520000Y-86505000D02*
X101520000Y-84625000D01*
X90685000Y-67270000D02*
X90685000Y-77510000D01*
X106575000Y-67270000D02*
X106575000Y-77510000D01*
X106575000Y-67270000D02*
X90685000Y-67270000D01*
X106575000Y-77510000D02*
X90685000Y-77510000D01*
X90685000Y-69850000D02*
X88145000Y-69850000D01*
X90685000Y-72390000D02*
X88145000Y-72390000D01*
X90685000Y-74930000D02*
X88145000Y-74930000D01*
D11*
X86256904Y-44267380D02*
X86256904Y-43267380D01*
X86828333Y-44267380D02*
X86399761Y-43695952D01*
X86828333Y-43267380D02*
X86256904Y-43838809D01*
X87209285Y-43362619D02*
X87256904Y-43315000D01*
X87352142Y-43267380D01*
X87590238Y-43267380D01*
X87685476Y-43315000D01*
X87733095Y-43362619D01*
X87780714Y-43457857D01*
X87780714Y-43553095D01*
X87733095Y-43695952D01*
X87161666Y-44267380D01*
X87780714Y-44267380D01*
X84923571Y-72573333D02*
X84923571Y-72906666D01*
X85447380Y-72906666D02*
X84447380Y-72906666D01*
X84447380Y-72430476D01*
X85447380Y-71525714D02*
X85447380Y-72097142D01*
X85447380Y-71811428D02*
X84447380Y-71811428D01*
X84590238Y-71906666D01*
X84685476Y-72001904D01*
X84733095Y-72097142D01*
X71867380Y-62523333D02*
X72581666Y-62523333D01*
X72724523Y-62570952D01*
X72819761Y-62666190D01*
X72867380Y-62809047D01*
X72867380Y-62904285D01*
X72867380Y-61523333D02*
X72867380Y-62094761D01*
X72867380Y-61809047D02*
X71867380Y-61809047D01*
X72010238Y-61904285D01*
X72105476Y-61999523D01*
X72153095Y-62094761D01*
X71867380Y-78438333D02*
X72581666Y-78438333D01*
X72724523Y-78485952D01*
X72819761Y-78581190D01*
X72867380Y-78724047D01*
X72867380Y-78819285D01*
X71962619Y-78009761D02*
X71915000Y-77962142D01*
X71867380Y-77866904D01*
X71867380Y-77628809D01*
X71915000Y-77533571D01*
X71962619Y-77485952D01*
X72057857Y-77438333D01*
X72153095Y-77438333D01*
X72295952Y-77485952D01*
X72867380Y-78057380D01*
X72867380Y-77438333D01*
X104036904Y-44267380D02*
X104036904Y-43267380D01*
X104608333Y-44267380D02*
X104179761Y-43695952D01*
X104608333Y-43267380D02*
X104036904Y-43838809D01*
X105560714Y-44267380D02*
X104989285Y-44267380D01*
X105275000Y-44267380D02*
X105275000Y-43267380D01*
X105179761Y-43410238D01*
X105084523Y-43505476D01*
X104989285Y-43553095D01*
X72867380Y-49704523D02*
X71867380Y-49704523D01*
X72581666Y-49371190D01*
X71867380Y-49037857D01*
X72867380Y-49037857D01*
X72867380Y-48037857D02*
X72867380Y-48609285D01*
X72867380Y-48323571D02*
X71867380Y-48323571D01*
X72010238Y-48418809D01*
X72105476Y-48514047D01*
X72153095Y-48609285D01*
X88733333Y-79317380D02*
X88400000Y-78841190D01*
X88161904Y-79317380D02*
X88161904Y-78317380D01*
X88542857Y-78317380D01*
X88638095Y-78365000D01*
X88685714Y-78412619D01*
X88733333Y-78507857D01*
X88733333Y-78650714D01*
X88685714Y-78745952D01*
X88638095Y-78793571D01*
X88542857Y-78841190D01*
X88161904Y-78841190D01*
X89114285Y-78412619D02*
X89161904Y-78365000D01*
X89257142Y-78317380D01*
X89495238Y-78317380D01*
X89590476Y-78365000D01*
X89638095Y-78412619D01*
X89685714Y-78507857D01*
X89685714Y-78603095D01*
X89638095Y-78745952D01*
X89066666Y-79317380D01*
X89685714Y-79317380D01*
X107027380Y-73151904D02*
X107836904Y-73151904D01*
X107932142Y-73104285D01*
X107979761Y-73056666D01*
X108027380Y-72961428D01*
X108027380Y-72770952D01*
X107979761Y-72675714D01*
X107932142Y-72628095D01*
X107836904Y-72580476D01*
X107027380Y-72580476D01*
X107122619Y-72151904D02*
X107075000Y-72104285D01*
X107027380Y-72009047D01*
X107027380Y-71770952D01*
X107075000Y-71675714D01*
X107122619Y-71628095D01*
X107217857Y-71580476D01*
X107313095Y-71580476D01*
X107455952Y-71628095D01*
X108027380Y-72199523D01*
X108027380Y-71580476D01*
M02*
