G04 #@! TF.GenerationSoftware,KiCad,Pcbnew,(5.1.10)-1*
G04 #@! TF.CreationDate,2021-08-17T16:02:48+03:00*
G04 #@! TF.ProjectId,ControlledBlinds,436f6e74-726f-46c6-9c65-64426c696e64,rev?*
G04 #@! TF.SameCoordinates,Original*
G04 #@! TF.FileFunction,Soldermask,Bot*
G04 #@! TF.FilePolarity,Negative*
%FSLAX46Y46*%
G04 Gerber Fmt 4.6, Leading zero omitted, Abs format (unit mm)*
G04 Created by KiCad (PCBNEW (5.1.10)-1) date 2021-08-17 16:02:48*
%MOMM*%
%LPD*%
G01*
G04 APERTURE LIST*
%ADD10O,2.602000X2.602000*%
%ADD11C,2.102000*%
%ADD12O,3.702000X2.102000*%
%ADD13O,3.702000X2.182000*%
%ADD14C,2.502000*%
%ADD15O,2.502000X2.502000*%
%ADD16O,3.602000X3.602000*%
%ADD17O,2.102000X2.007000*%
%ADD18C,0.100000*%
G04 APERTURE END LIST*
D10*
X87280000Y-47085000D03*
X87280000Y-59285000D03*
X75280000Y-59285000D03*
X75280000Y-47085000D03*
G36*
G01*
X79979000Y-46335000D02*
X79979000Y-43835000D01*
G75*
G02*
X80030000Y-43784000I51000J0D01*
G01*
X82530000Y-43784000D01*
G75*
G02*
X82581000Y-43835000I0J-51000D01*
G01*
X82581000Y-46335000D01*
G75*
G02*
X82530000Y-46386000I-51000J0D01*
G01*
X80030000Y-46386000D01*
G75*
G02*
X79979000Y-46335000I0J51000D01*
G01*
G37*
G36*
G01*
X83106000Y-74429500D02*
X83106000Y-75430500D01*
G75*
G02*
X82830500Y-75706000I-275500J0D01*
G01*
X82279500Y-75706000D01*
G75*
G02*
X82004000Y-75430500I0J275500D01*
G01*
X82004000Y-74429500D01*
G75*
G02*
X82279500Y-74154000I275500J0D01*
G01*
X82830500Y-74154000D01*
G75*
G02*
X83106000Y-74429500I0J-275500D01*
G01*
G37*
G36*
G01*
X85006000Y-74429500D02*
X85006000Y-75430500D01*
G75*
G02*
X84730500Y-75706000I-275500J0D01*
G01*
X84179500Y-75706000D01*
G75*
G02*
X83904000Y-75430500I0J275500D01*
G01*
X83904000Y-74429500D01*
G75*
G02*
X84179500Y-74154000I275500J0D01*
G01*
X84730500Y-74154000D01*
G75*
G02*
X85006000Y-74429500I0J-275500D01*
G01*
G37*
G36*
G01*
X64269500Y-47074000D02*
X65270500Y-47074000D01*
G75*
G02*
X65546000Y-47349500I0J-275500D01*
G01*
X65546000Y-47900500D01*
G75*
G02*
X65270500Y-48176000I-275500J0D01*
G01*
X64269500Y-48176000D01*
G75*
G02*
X63994000Y-47900500I0J275500D01*
G01*
X63994000Y-47349500D01*
G75*
G02*
X64269500Y-47074000I275500J0D01*
G01*
G37*
G36*
G01*
X64269500Y-48974000D02*
X65270500Y-48974000D01*
G75*
G02*
X65546000Y-49249500I0J-275500D01*
G01*
X65546000Y-49800500D01*
G75*
G02*
X65270500Y-50076000I-275500J0D01*
G01*
X64269500Y-50076000D01*
G75*
G02*
X63994000Y-49800500I0J275500D01*
G01*
X63994000Y-49249500D01*
G75*
G02*
X64269500Y-48974000I275500J0D01*
G01*
G37*
G36*
G01*
X80094000Y-83685500D02*
X80094000Y-82684500D01*
G75*
G02*
X80369500Y-82409000I275500J0D01*
G01*
X80920500Y-82409000D01*
G75*
G02*
X81196000Y-82684500I0J-275500D01*
G01*
X81196000Y-83685500D01*
G75*
G02*
X80920500Y-83961000I-275500J0D01*
G01*
X80369500Y-83961000D01*
G75*
G02*
X80094000Y-83685500I0J275500D01*
G01*
G37*
G36*
G01*
X78194000Y-83685500D02*
X78194000Y-82684500D01*
G75*
G02*
X78469500Y-82409000I275500J0D01*
G01*
X79020500Y-82409000D01*
G75*
G02*
X79296000Y-82684500I0J-275500D01*
G01*
X79296000Y-83685500D01*
G75*
G02*
X79020500Y-83961000I-275500J0D01*
G01*
X78469500Y-83961000D01*
G75*
G02*
X78194000Y-83685500I0J275500D01*
G01*
G37*
G36*
G01*
X85006000Y-69349500D02*
X85006000Y-70350500D01*
G75*
G02*
X84730500Y-70626000I-275500J0D01*
G01*
X84179500Y-70626000D01*
G75*
G02*
X83904000Y-70350500I0J275500D01*
G01*
X83904000Y-69349500D01*
G75*
G02*
X84179500Y-69074000I275500J0D01*
G01*
X84730500Y-69074000D01*
G75*
G02*
X85006000Y-69349500I0J-275500D01*
G01*
G37*
G36*
G01*
X83106000Y-69349500D02*
X83106000Y-70350500D01*
G75*
G02*
X82830500Y-70626000I-275500J0D01*
G01*
X82279500Y-70626000D01*
G75*
G02*
X82004000Y-70350500I0J275500D01*
G01*
X82004000Y-69349500D01*
G75*
G02*
X82279500Y-69074000I275500J0D01*
G01*
X82830500Y-69074000D01*
G75*
G02*
X83106000Y-69349500I0J-275500D01*
G01*
G37*
G36*
G01*
X102266000Y-48630000D02*
X102266000Y-50430000D01*
G75*
G02*
X102215000Y-50481000I-51000J0D01*
G01*
X99715000Y-50481000D01*
G75*
G02*
X99664000Y-50430000I0J51000D01*
G01*
X99664000Y-48630000D01*
G75*
G02*
X99715000Y-48579000I51000J0D01*
G01*
X102215000Y-48579000D01*
G75*
G02*
X102266000Y-48630000I0J-51000D01*
G01*
G37*
G36*
G01*
X98266000Y-48630000D02*
X98266000Y-50430000D01*
G75*
G02*
X98215000Y-50481000I-51000J0D01*
G01*
X95715000Y-50481000D01*
G75*
G02*
X95664000Y-50430000I0J51000D01*
G01*
X95664000Y-48630000D01*
G75*
G02*
X95715000Y-48579000I51000J0D01*
G01*
X98215000Y-48579000D01*
G75*
G02*
X98266000Y-48630000I0J-51000D01*
G01*
G37*
G36*
G01*
X80676000Y-48630000D02*
X80676000Y-50430000D01*
G75*
G02*
X80625000Y-50481000I-51000J0D01*
G01*
X78125000Y-50481000D01*
G75*
G02*
X78074000Y-50430000I0J51000D01*
G01*
X78074000Y-48630000D01*
G75*
G02*
X78125000Y-48579000I51000J0D01*
G01*
X80625000Y-48579000D01*
G75*
G02*
X80676000Y-48630000I0J-51000D01*
G01*
G37*
G36*
G01*
X84676000Y-48630000D02*
X84676000Y-50430000D01*
G75*
G02*
X84625000Y-50481000I-51000J0D01*
G01*
X82125000Y-50481000D01*
G75*
G02*
X82074000Y-50430000I0J51000D01*
G01*
X82074000Y-48630000D01*
G75*
G02*
X82125000Y-48579000I51000J0D01*
G01*
X84625000Y-48579000D01*
G75*
G02*
X84676000Y-48630000I0J-51000D01*
G01*
G37*
D11*
X78105000Y-69850000D03*
X78095000Y-74930000D03*
G36*
G01*
X67626750Y-58639000D02*
X70803250Y-58639000D01*
G75*
G02*
X71066000Y-58901750I0J-262750D01*
G01*
X71066000Y-60478250D01*
G75*
G02*
X70803250Y-60741000I-262750J0D01*
G01*
X67626750Y-60741000D01*
G75*
G02*
X67364000Y-60478250I0J262750D01*
G01*
X67364000Y-58901750D01*
G75*
G02*
X67626750Y-58639000I262750J0D01*
G01*
G37*
D12*
X69215000Y-64690000D03*
G36*
G01*
X67626258Y-71934000D02*
X70803742Y-71934000D01*
G75*
G02*
X71066000Y-72196258I0J-262258D01*
G01*
X71066000Y-73853742D01*
G75*
G02*
X70803742Y-74116000I-262258J0D01*
G01*
X67626258Y-74116000D01*
G75*
G02*
X67364000Y-73853742I0J262258D01*
G01*
X67364000Y-72196258D01*
G75*
G02*
X67626258Y-71934000I262258J0D01*
G01*
G37*
D13*
X69215000Y-78105000D03*
X69215000Y-83185000D03*
G36*
G01*
X97474000Y-46240000D02*
X97474000Y-43740000D01*
G75*
G02*
X97525000Y-43689000I51000J0D01*
G01*
X100025000Y-43689000D01*
G75*
G02*
X100076000Y-43740000I0J-51000D01*
G01*
X100076000Y-46240000D01*
G75*
G02*
X100025000Y-46291000I-51000J0D01*
G01*
X97525000Y-46291000D01*
G75*
G02*
X97474000Y-46240000I0J51000D01*
G01*
G37*
D10*
X92775000Y-46990000D03*
X92775000Y-59190000D03*
X104775000Y-59190000D03*
X104775000Y-46990000D03*
G36*
G01*
X67626258Y-45264000D02*
X70803742Y-45264000D01*
G75*
G02*
X71066000Y-45526258I0J-262258D01*
G01*
X71066000Y-47183742D01*
G75*
G02*
X70803742Y-47446000I-262258J0D01*
G01*
X67626258Y-47446000D01*
G75*
G02*
X67364000Y-47183742I0J262258D01*
G01*
X67364000Y-45526258D01*
G75*
G02*
X67626258Y-45264000I262258J0D01*
G01*
G37*
D13*
X69215000Y-51435000D03*
D14*
X74930000Y-83185000D03*
D15*
X102870000Y-83185000D03*
D16*
X103655000Y-72390000D03*
G36*
G01*
X85995000Y-68846500D02*
X87995000Y-68846500D01*
G75*
G02*
X88046000Y-68897500I0J-51000D01*
G01*
X88046000Y-70802500D01*
G75*
G02*
X87995000Y-70853500I-51000J0D01*
G01*
X85995000Y-70853500D01*
G75*
G02*
X85944000Y-70802500I0J51000D01*
G01*
X85944000Y-68897500D01*
G75*
G02*
X85995000Y-68846500I51000J0D01*
G01*
G37*
D17*
X86995000Y-72390000D03*
X86995000Y-74930000D03*
D18*
G36*
X71067165Y-73852116D02*
G01*
X71068000Y-73853742D01*
X71068000Y-73942552D01*
X71067990Y-73942748D01*
X71064182Y-73981413D01*
X71064106Y-73981798D01*
X71054620Y-74013070D01*
X71054470Y-74013432D01*
X71039066Y-74042251D01*
X71038848Y-74042577D01*
X71018116Y-74067839D01*
X71017839Y-74068116D01*
X70992577Y-74088848D01*
X70992251Y-74089066D01*
X70963432Y-74104470D01*
X70963070Y-74104620D01*
X70931798Y-74114106D01*
X70931413Y-74114182D01*
X70892748Y-74117990D01*
X70892552Y-74118000D01*
X70803742Y-74118000D01*
X70802010Y-74117000D01*
X70802010Y-74115000D01*
X70803546Y-74114010D01*
X70854511Y-74108991D01*
X70903335Y-74094180D01*
X70948329Y-74070131D01*
X70987765Y-74037765D01*
X71020131Y-73998329D01*
X71044180Y-73953335D01*
X71058991Y-73904511D01*
X71064010Y-73853546D01*
X71065175Y-73851920D01*
X71067165Y-73852116D01*
G37*
G36*
X67365990Y-73853546D02*
G01*
X67371009Y-73904511D01*
X67385820Y-73953335D01*
X67409869Y-73998329D01*
X67442235Y-74037765D01*
X67481671Y-74070131D01*
X67526665Y-74094180D01*
X67575489Y-74108991D01*
X67626454Y-74114010D01*
X67628080Y-74115175D01*
X67627884Y-74117165D01*
X67626258Y-74118000D01*
X67537448Y-74118000D01*
X67537252Y-74117990D01*
X67498587Y-74114182D01*
X67498202Y-74114106D01*
X67466930Y-74104620D01*
X67466568Y-74104470D01*
X67437749Y-74089066D01*
X67437423Y-74088848D01*
X67412161Y-74068116D01*
X67411884Y-74067839D01*
X67391152Y-74042577D01*
X67390934Y-74042251D01*
X67375530Y-74013432D01*
X67375380Y-74013070D01*
X67365894Y-73981798D01*
X67365818Y-73981413D01*
X67362010Y-73942748D01*
X67362000Y-73942552D01*
X67362000Y-73853742D01*
X67363000Y-73852010D01*
X67365000Y-73852010D01*
X67365990Y-73853546D01*
G37*
G36*
X67627990Y-71933000D02*
G01*
X67627990Y-71935000D01*
X67626454Y-71935990D01*
X67575489Y-71941009D01*
X67526665Y-71955820D01*
X67481671Y-71979869D01*
X67442235Y-72012235D01*
X67409869Y-72051671D01*
X67385820Y-72096665D01*
X67371009Y-72145489D01*
X67365990Y-72196454D01*
X67364825Y-72198080D01*
X67362835Y-72197884D01*
X67362000Y-72196258D01*
X67362000Y-72107448D01*
X67362010Y-72107252D01*
X67365818Y-72068587D01*
X67365894Y-72068202D01*
X67375380Y-72036930D01*
X67375530Y-72036568D01*
X67390934Y-72007749D01*
X67391152Y-72007423D01*
X67411884Y-71982161D01*
X67412161Y-71981884D01*
X67437423Y-71961152D01*
X67437749Y-71960934D01*
X67466568Y-71945530D01*
X67466930Y-71945380D01*
X67498202Y-71935894D01*
X67498587Y-71935818D01*
X67537252Y-71932010D01*
X67537448Y-71932000D01*
X67626258Y-71932000D01*
X67627990Y-71933000D01*
G37*
G36*
X70892748Y-71932010D02*
G01*
X70931413Y-71935818D01*
X70931798Y-71935894D01*
X70963070Y-71945380D01*
X70963432Y-71945530D01*
X70992251Y-71960934D01*
X70992577Y-71961152D01*
X71017839Y-71981884D01*
X71018116Y-71982161D01*
X71038848Y-72007423D01*
X71039066Y-72007749D01*
X71054470Y-72036568D01*
X71054620Y-72036930D01*
X71064106Y-72068202D01*
X71064182Y-72068587D01*
X71067990Y-72107252D01*
X71068000Y-72107448D01*
X71068000Y-72196258D01*
X71067000Y-72197990D01*
X71065000Y-72197990D01*
X71064010Y-72196454D01*
X71058991Y-72145489D01*
X71044180Y-72096665D01*
X71020131Y-72051671D01*
X70987765Y-72012235D01*
X70948329Y-71979869D01*
X70903335Y-71955820D01*
X70854511Y-71941009D01*
X70803546Y-71935990D01*
X70801920Y-71934825D01*
X70802116Y-71932835D01*
X70803742Y-71932000D01*
X70892552Y-71932000D01*
X70892748Y-71932010D01*
G37*
G36*
X71067165Y-60476624D02*
G01*
X71068000Y-60478250D01*
X71068000Y-60565860D01*
X71067990Y-60566056D01*
X71064150Y-60605048D01*
X71064074Y-60605433D01*
X71054491Y-60637024D01*
X71054341Y-60637386D01*
X71038779Y-60666500D01*
X71038561Y-60666826D01*
X71017620Y-60692343D01*
X71017343Y-60692620D01*
X70991826Y-60713561D01*
X70991500Y-60713779D01*
X70962386Y-60729341D01*
X70962024Y-60729491D01*
X70930433Y-60739074D01*
X70930048Y-60739150D01*
X70891056Y-60742990D01*
X70890860Y-60743000D01*
X70803250Y-60743000D01*
X70801518Y-60742000D01*
X70801518Y-60740000D01*
X70803054Y-60739010D01*
X70854115Y-60733981D01*
X70903031Y-60719142D01*
X70948110Y-60695048D01*
X70987621Y-60662621D01*
X71020048Y-60623110D01*
X71044142Y-60578031D01*
X71058981Y-60529115D01*
X71064010Y-60478054D01*
X71065175Y-60476428D01*
X71067165Y-60476624D01*
G37*
G36*
X67365990Y-60478054D02*
G01*
X67371019Y-60529115D01*
X67385858Y-60578031D01*
X67409952Y-60623110D01*
X67442379Y-60662621D01*
X67481890Y-60695048D01*
X67526969Y-60719142D01*
X67575885Y-60733981D01*
X67626946Y-60739010D01*
X67628572Y-60740175D01*
X67628376Y-60742165D01*
X67626750Y-60743000D01*
X67539140Y-60743000D01*
X67538944Y-60742990D01*
X67499952Y-60739150D01*
X67499567Y-60739074D01*
X67467976Y-60729491D01*
X67467614Y-60729341D01*
X67438500Y-60713779D01*
X67438174Y-60713561D01*
X67412657Y-60692620D01*
X67412380Y-60692343D01*
X67391439Y-60666826D01*
X67391221Y-60666500D01*
X67375659Y-60637386D01*
X67375509Y-60637024D01*
X67365926Y-60605433D01*
X67365850Y-60605048D01*
X67362010Y-60566056D01*
X67362000Y-60565860D01*
X67362000Y-60478250D01*
X67363000Y-60476518D01*
X67365000Y-60476518D01*
X67365990Y-60478054D01*
G37*
G36*
X67628482Y-58638000D02*
G01*
X67628482Y-58640000D01*
X67626946Y-58640990D01*
X67575885Y-58646019D01*
X67526969Y-58660858D01*
X67481890Y-58684952D01*
X67442379Y-58717379D01*
X67409952Y-58756890D01*
X67385858Y-58801969D01*
X67371019Y-58850885D01*
X67365990Y-58901946D01*
X67364825Y-58903572D01*
X67362835Y-58903376D01*
X67362000Y-58901750D01*
X67362000Y-58814140D01*
X67362010Y-58813944D01*
X67365850Y-58774952D01*
X67365926Y-58774567D01*
X67375509Y-58742976D01*
X67375659Y-58742614D01*
X67391221Y-58713500D01*
X67391439Y-58713174D01*
X67412380Y-58687657D01*
X67412657Y-58687380D01*
X67438174Y-58666439D01*
X67438500Y-58666221D01*
X67467614Y-58650659D01*
X67467976Y-58650509D01*
X67499567Y-58640926D01*
X67499952Y-58640850D01*
X67538944Y-58637010D01*
X67539140Y-58637000D01*
X67626750Y-58637000D01*
X67628482Y-58638000D01*
G37*
G36*
X70891056Y-58637010D02*
G01*
X70930048Y-58640850D01*
X70930433Y-58640926D01*
X70962024Y-58650509D01*
X70962386Y-58650659D01*
X70991500Y-58666221D01*
X70991826Y-58666439D01*
X71017343Y-58687380D01*
X71017620Y-58687657D01*
X71038561Y-58713174D01*
X71038779Y-58713500D01*
X71054341Y-58742614D01*
X71054491Y-58742976D01*
X71064074Y-58774567D01*
X71064150Y-58774952D01*
X71067990Y-58813944D01*
X71068000Y-58814140D01*
X71068000Y-58901750D01*
X71067000Y-58903482D01*
X71065000Y-58903482D01*
X71064010Y-58901946D01*
X71058981Y-58850885D01*
X71044142Y-58801969D01*
X71020048Y-58756890D01*
X70987621Y-58717379D01*
X70948110Y-58684952D01*
X70903031Y-58660858D01*
X70854115Y-58646019D01*
X70803054Y-58640990D01*
X70801428Y-58639825D01*
X70801624Y-58637835D01*
X70803250Y-58637000D01*
X70890860Y-58637000D01*
X70891056Y-58637010D01*
G37*
G36*
X71067165Y-47182116D02*
G01*
X71068000Y-47183742D01*
X71068000Y-47272552D01*
X71067990Y-47272748D01*
X71064182Y-47311413D01*
X71064106Y-47311798D01*
X71054620Y-47343070D01*
X71054470Y-47343432D01*
X71039066Y-47372251D01*
X71038848Y-47372577D01*
X71018116Y-47397839D01*
X71017839Y-47398116D01*
X70992577Y-47418848D01*
X70992251Y-47419066D01*
X70963432Y-47434470D01*
X70963070Y-47434620D01*
X70931798Y-47444106D01*
X70931413Y-47444182D01*
X70892748Y-47447990D01*
X70892552Y-47448000D01*
X70803742Y-47448000D01*
X70802010Y-47447000D01*
X70802010Y-47445000D01*
X70803546Y-47444010D01*
X70854511Y-47438991D01*
X70903335Y-47424180D01*
X70948329Y-47400131D01*
X70987765Y-47367765D01*
X71020131Y-47328329D01*
X71044180Y-47283335D01*
X71058991Y-47234511D01*
X71064010Y-47183546D01*
X71065175Y-47181920D01*
X71067165Y-47182116D01*
G37*
G36*
X67365990Y-47183546D02*
G01*
X67371009Y-47234511D01*
X67385820Y-47283335D01*
X67409869Y-47328329D01*
X67442235Y-47367765D01*
X67481671Y-47400131D01*
X67526665Y-47424180D01*
X67575489Y-47438991D01*
X67626454Y-47444010D01*
X67628080Y-47445175D01*
X67627884Y-47447165D01*
X67626258Y-47448000D01*
X67537448Y-47448000D01*
X67537252Y-47447990D01*
X67498587Y-47444182D01*
X67498202Y-47444106D01*
X67466930Y-47434620D01*
X67466568Y-47434470D01*
X67437749Y-47419066D01*
X67437423Y-47418848D01*
X67412161Y-47398116D01*
X67411884Y-47397839D01*
X67391152Y-47372577D01*
X67390934Y-47372251D01*
X67375530Y-47343432D01*
X67375380Y-47343070D01*
X67365894Y-47311798D01*
X67365818Y-47311413D01*
X67362010Y-47272748D01*
X67362000Y-47272552D01*
X67362000Y-47183742D01*
X67363000Y-47182010D01*
X67365000Y-47182010D01*
X67365990Y-47183546D01*
G37*
G36*
X67627990Y-45263000D02*
G01*
X67627990Y-45265000D01*
X67626454Y-45265990D01*
X67575489Y-45271009D01*
X67526665Y-45285820D01*
X67481671Y-45309869D01*
X67442235Y-45342235D01*
X67409869Y-45381671D01*
X67385820Y-45426665D01*
X67371009Y-45475489D01*
X67365990Y-45526454D01*
X67364825Y-45528080D01*
X67362835Y-45527884D01*
X67362000Y-45526258D01*
X67362000Y-45437448D01*
X67362010Y-45437252D01*
X67365818Y-45398587D01*
X67365894Y-45398202D01*
X67375380Y-45366930D01*
X67375530Y-45366568D01*
X67390934Y-45337749D01*
X67391152Y-45337423D01*
X67411884Y-45312161D01*
X67412161Y-45311884D01*
X67437423Y-45291152D01*
X67437749Y-45290934D01*
X67466568Y-45275530D01*
X67466930Y-45275380D01*
X67498202Y-45265894D01*
X67498587Y-45265818D01*
X67537252Y-45262010D01*
X67537448Y-45262000D01*
X67626258Y-45262000D01*
X67627990Y-45263000D01*
G37*
G36*
X70892748Y-45262010D02*
G01*
X70931413Y-45265818D01*
X70931798Y-45265894D01*
X70963070Y-45275380D01*
X70963432Y-45275530D01*
X70992251Y-45290934D01*
X70992577Y-45291152D01*
X71017839Y-45311884D01*
X71018116Y-45312161D01*
X71038848Y-45337423D01*
X71039066Y-45337749D01*
X71054470Y-45366568D01*
X71054620Y-45366930D01*
X71064106Y-45398202D01*
X71064182Y-45398587D01*
X71067990Y-45437252D01*
X71068000Y-45437448D01*
X71068000Y-45526258D01*
X71067000Y-45527990D01*
X71065000Y-45527990D01*
X71064010Y-45526454D01*
X71058991Y-45475489D01*
X71044180Y-45426665D01*
X71020131Y-45381671D01*
X70987765Y-45342235D01*
X70948329Y-45309869D01*
X70903335Y-45285820D01*
X70854511Y-45271009D01*
X70803546Y-45265990D01*
X70801920Y-45264825D01*
X70802116Y-45262835D01*
X70803742Y-45262000D01*
X70892552Y-45262000D01*
X70892748Y-45262010D01*
G37*
M02*
