G04 #@! TF.GenerationSoftware,KiCad,Pcbnew,(5.1.10)-1*
G04 #@! TF.CreationDate,2021-08-17T16:02:48+03:00*
G04 #@! TF.ProjectId,ControlledBlinds,436f6e74-726f-46c6-9c65-64426c696e64,rev?*
G04 #@! TF.SameCoordinates,Original*
G04 #@! TF.FileFunction,Paste,Bot*
G04 #@! TF.FilePolarity,Positive*
%FSLAX46Y46*%
G04 Gerber Fmt 4.6, Leading zero omitted, Abs format (unit mm)*
G04 Created by KiCad (PCBNEW (5.1.10)-1) date 2021-08-17 16:02:48*
%MOMM*%
%LPD*%
G01*
G04 APERTURE LIST*
%ADD10R,2.500000X1.800000*%
G04 APERTURE END LIST*
G36*
G01*
X83055000Y-74455000D02*
X83055000Y-75405000D01*
G75*
G02*
X82805000Y-75655000I-250000J0D01*
G01*
X82305000Y-75655000D01*
G75*
G02*
X82055000Y-75405000I0J250000D01*
G01*
X82055000Y-74455000D01*
G75*
G02*
X82305000Y-74205000I250000J0D01*
G01*
X82805000Y-74205000D01*
G75*
G02*
X83055000Y-74455000I0J-250000D01*
G01*
G37*
G36*
G01*
X84955000Y-74455000D02*
X84955000Y-75405000D01*
G75*
G02*
X84705000Y-75655000I-250000J0D01*
G01*
X84205000Y-75655000D01*
G75*
G02*
X83955000Y-75405000I0J250000D01*
G01*
X83955000Y-74455000D01*
G75*
G02*
X84205000Y-74205000I250000J0D01*
G01*
X84705000Y-74205000D01*
G75*
G02*
X84955000Y-74455000I0J-250000D01*
G01*
G37*
G36*
G01*
X64295000Y-47125000D02*
X65245000Y-47125000D01*
G75*
G02*
X65495000Y-47375000I0J-250000D01*
G01*
X65495000Y-47875000D01*
G75*
G02*
X65245000Y-48125000I-250000J0D01*
G01*
X64295000Y-48125000D01*
G75*
G02*
X64045000Y-47875000I0J250000D01*
G01*
X64045000Y-47375000D01*
G75*
G02*
X64295000Y-47125000I250000J0D01*
G01*
G37*
G36*
G01*
X64295000Y-49025000D02*
X65245000Y-49025000D01*
G75*
G02*
X65495000Y-49275000I0J-250000D01*
G01*
X65495000Y-49775000D01*
G75*
G02*
X65245000Y-50025000I-250000J0D01*
G01*
X64295000Y-50025000D01*
G75*
G02*
X64045000Y-49775000I0J250000D01*
G01*
X64045000Y-49275000D01*
G75*
G02*
X64295000Y-49025000I250000J0D01*
G01*
G37*
G36*
G01*
X80145000Y-83660000D02*
X80145000Y-82710000D01*
G75*
G02*
X80395000Y-82460000I250000J0D01*
G01*
X80895000Y-82460000D01*
G75*
G02*
X81145000Y-82710000I0J-250000D01*
G01*
X81145000Y-83660000D01*
G75*
G02*
X80895000Y-83910000I-250000J0D01*
G01*
X80395000Y-83910000D01*
G75*
G02*
X80145000Y-83660000I0J250000D01*
G01*
G37*
G36*
G01*
X78245000Y-83660000D02*
X78245000Y-82710000D01*
G75*
G02*
X78495000Y-82460000I250000J0D01*
G01*
X78995000Y-82460000D01*
G75*
G02*
X79245000Y-82710000I0J-250000D01*
G01*
X79245000Y-83660000D01*
G75*
G02*
X78995000Y-83910000I-250000J0D01*
G01*
X78495000Y-83910000D01*
G75*
G02*
X78245000Y-83660000I0J250000D01*
G01*
G37*
G36*
G01*
X84955000Y-69375000D02*
X84955000Y-70325000D01*
G75*
G02*
X84705000Y-70575000I-250000J0D01*
G01*
X84205000Y-70575000D01*
G75*
G02*
X83955000Y-70325000I0J250000D01*
G01*
X83955000Y-69375000D01*
G75*
G02*
X84205000Y-69125000I250000J0D01*
G01*
X84705000Y-69125000D01*
G75*
G02*
X84955000Y-69375000I0J-250000D01*
G01*
G37*
G36*
G01*
X83055000Y-69375000D02*
X83055000Y-70325000D01*
G75*
G02*
X82805000Y-70575000I-250000J0D01*
G01*
X82305000Y-70575000D01*
G75*
G02*
X82055000Y-70325000I0J250000D01*
G01*
X82055000Y-69375000D01*
G75*
G02*
X82305000Y-69125000I250000J0D01*
G01*
X82805000Y-69125000D01*
G75*
G02*
X83055000Y-69375000I0J-250000D01*
G01*
G37*
D10*
X100965000Y-49530000D03*
X96965000Y-49530000D03*
X79375000Y-49530000D03*
X83375000Y-49530000D03*
M02*
