G04 #@! TF.GenerationSoftware,KiCad,Pcbnew,(5.1.10)-1*
G04 #@! TF.CreationDate,2021-08-17T16:02:48+03:00*
G04 #@! TF.ProjectId,ControlledBlinds,436f6e74-726f-46c6-9c65-64426c696e64,rev?*
G04 #@! TF.SameCoordinates,Original*
G04 #@! TF.FileFunction,Copper,L1,Top*
G04 #@! TF.FilePolarity,Positive*
%FSLAX46Y46*%
G04 Gerber Fmt 4.6, Leading zero omitted, Abs format (unit mm)*
G04 Created by KiCad (PCBNEW (5.1.10)-1) date 2021-08-17 16:02:48*
%MOMM*%
%LPD*%
G01*
G04 APERTURE LIST*
G04 #@! TA.AperFunction,ComponentPad*
%ADD10O,2.500000X2.500000*%
G04 #@! TD*
G04 #@! TA.AperFunction,ComponentPad*
%ADD11R,2.500000X2.500000*%
G04 #@! TD*
G04 #@! TA.AperFunction,ComponentPad*
%ADD12C,2.000000*%
G04 #@! TD*
G04 #@! TA.AperFunction,ComponentPad*
%ADD13O,3.600000X2.000000*%
G04 #@! TD*
G04 #@! TA.AperFunction,ComponentPad*
%ADD14O,3.600000X2.080000*%
G04 #@! TD*
G04 #@! TA.AperFunction,ComponentPad*
%ADD15C,2.400000*%
G04 #@! TD*
G04 #@! TA.AperFunction,ComponentPad*
%ADD16O,2.400000X2.400000*%
G04 #@! TD*
G04 #@! TA.AperFunction,ComponentPad*
%ADD17R,2.000000X1.905000*%
G04 #@! TD*
G04 #@! TA.AperFunction,ComponentPad*
%ADD18O,2.000000X1.905000*%
G04 #@! TD*
G04 #@! TA.AperFunction,ViaPad*
%ADD19C,5.500000*%
G04 #@! TD*
G04 APERTURE END LIST*
D10*
X87280000Y-47085000D03*
X87280000Y-59285000D03*
X75280000Y-59285000D03*
X75280000Y-47085000D03*
D11*
X81280000Y-45085000D03*
D12*
X78105000Y-69850000D03*
X78095000Y-74930000D03*
G04 #@! TA.AperFunction,ComponentPad*
G36*
G01*
X67665000Y-58690000D02*
X70765000Y-58690000D01*
G75*
G02*
X71015000Y-58940000I0J-250000D01*
G01*
X71015000Y-60440000D01*
G75*
G02*
X70765000Y-60690000I-250000J0D01*
G01*
X67665000Y-60690000D01*
G75*
G02*
X67415000Y-60440000I0J250000D01*
G01*
X67415000Y-58940000D01*
G75*
G02*
X67665000Y-58690000I250000J0D01*
G01*
G37*
G04 #@! TD.AperFunction*
D13*
X69215000Y-64690000D03*
G04 #@! TA.AperFunction,ComponentPad*
G36*
G01*
X67664999Y-71985000D02*
X70765001Y-71985000D01*
G75*
G02*
X71015000Y-72234999I0J-249999D01*
G01*
X71015000Y-73815001D01*
G75*
G02*
X70765001Y-74065000I-249999J0D01*
G01*
X67664999Y-74065000D01*
G75*
G02*
X67415000Y-73815001I0J249999D01*
G01*
X67415000Y-72234999D01*
G75*
G02*
X67664999Y-71985000I249999J0D01*
G01*
G37*
G04 #@! TD.AperFunction*
D14*
X69215000Y-78105000D03*
X69215000Y-83185000D03*
D11*
X98775000Y-44990000D03*
D10*
X92775000Y-46990000D03*
X92775000Y-59190000D03*
X104775000Y-59190000D03*
X104775000Y-46990000D03*
G04 #@! TA.AperFunction,ComponentPad*
G36*
G01*
X67664999Y-45315000D02*
X70765001Y-45315000D01*
G75*
G02*
X71015000Y-45564999I0J-249999D01*
G01*
X71015000Y-47145001D01*
G75*
G02*
X70765001Y-47395000I-249999J0D01*
G01*
X67664999Y-47395000D01*
G75*
G02*
X67415000Y-47145001I0J249999D01*
G01*
X67415000Y-45564999D01*
G75*
G02*
X67664999Y-45315000I249999J0D01*
G01*
G37*
G04 #@! TD.AperFunction*
D14*
X69215000Y-51435000D03*
D15*
X74930000Y-83185000D03*
D16*
X102870000Y-83185000D03*
D17*
X86995000Y-69850000D03*
D18*
X86995000Y-72390000D03*
X86995000Y-74930000D03*
D19*
X93472000Y-95250000D03*
X73660000Y-95250000D03*
M02*
